<svg xmlns="http://www.w3.org/2000/svg" width="36" height="36" viewBox="0 0 36 36">
  <g id="Group_3485" data-name="Group 3485" transform="translate(-1278.185 -1158.472)">
    <path id="Path_4407" data-name="Path 4407" d="M510.27,966.166h34.2a.9.9,0,0,0,.766-.423.882.882,0,0,0,.039-.867l-7.2-14.262a.9.9,0,0,0-.8-.493h-3.477l1.829-2.1a10.767,10.767,0,0,0-.54-14.7,11,11,0,0,0-15.424,0,10.767,10.767,0,0,0-.54,14.7l1.829,2.1H517.47a.9.9,0,0,0-.8.493l-7.2,14.262a.882.882,0,0,0,.039.867.9.9,0,0,0,.765.423Zm10.66-31.581a9.169,9.169,0,0,1,12.879,0,8.988,8.988,0,0,1,.45,12.274l-6.89,7.9-6.89-7.9a8.988,8.988,0,0,1,.45-12.274Zm-2.9,17.32h4.452c.008,0,.014,0,.021,0l4.19,4.8a.907.907,0,0,0,1.362,0l4.186-4.8h4.477l6.3,12.479H511.727Zm0,0" transform="translate(768.815 228.307)" fill="#fff"/>
    <path id="Path_4408" data-name="Path 4408" d="M540.175,946.144a3.551,3.551,0,1,0-3.551,3.55,3.554,3.554,0,0,0,3.551-3.55Zm-5.326,0a1.775,1.775,0,1,1,1.775,1.775,1.778,1.778,0,0,1-1.775-1.775Zm0,0" transform="translate(759.56 223.364)" fill="#fff"/>
    <path id="Path_4409" data-name="Path 4409" d="M522.11,976.96h5.326a.888.888,0,0,0,0-1.775H522.11a.888.888,0,1,0,0,1.775Zm0,0" transform="translate(764.188 210.38)" fill="#fff"/>
    <path id="Path_4410" data-name="Path 4410" d="M529.8,981.111H519.147a.888.888,0,1,0,0,1.775H529.8a.888.888,0,0,0,0-1.775Zm0,0" transform="translate(765.252 208.035)" fill="#fff"/>
  </g>
</svg>
