<svg id="Layer_1" data-name="Layer 1" xmlns="http://www.w3.org/2000/svg" viewBox="0 0 44.98 44.99"><path d="M539.49,970.66a10.16,10.16,0,1,0-10.16-10.16,10.17,10.17,0,0,0,10.16,10.16Zm0-19.39a9.23,9.23,0,1,1-9.23,9.23,9.24,9.24,0,0,1,9.23-9.23Zm0,0" transform="translate(-517 -938)" style="fill:#fff"/><path d="M524.55,945.5h5.94a.75.75,0,0,0,0-1.5h-4a21,21,0,0,1,34,16.5.75.75,0,0,0,1.5,0,22.48,22.48,0,0,0-36.75-17.39v-4.36a.75.75,0,0,0-1.5,0v6.75h.81Zm0,0" transform="translate(-517 -938)" style="fill:#fff"/><path d="M520.61,969.67a.76.76,0,0,0-1-.34.74.74,0,0,0-.35,1,.77.77,0,0,0,.68.42.74.74,0,0,0,.32-.07.76.76,0,0,0,.36-1Zm0,0" transform="translate(-517 -938)" style="fill:#fff"/><path d="M522.89,973.36a.75.75,0,0,0-1-.14.74.74,0,0,0-.13,1,.71.71,0,0,0,.59.29.84.84,0,0,0,.47-.15.76.76,0,0,0,.12-1Zm0,0" transform="translate(-517 -938)" style="fill:#fff"/><path d="M521.65,971.57a.75.75,0,1,0-1.27.79.75.75,0,0,0,.64.36.82.82,0,0,0,.39-.11.75.75,0,0,0,.24-1Zm0,0" transform="translate(-517 -938)" style="fill:#fff"/><path d="M523.25,975a.74.74,0,0,0,0,1,.73.73,0,0,0,1,0,.74.74,0,0,0,0-1.06.75.75,0,0,0-1.06,0Zm0,0" transform="translate(-517 -938)" style="fill:#fff"/><path d="M524.83,976.57a.75.75,0,0,0,.09,1.06.74.74,0,0,0,.48.18.76.76,0,0,0,.57-.26.75.75,0,0,0-.08-1.06.76.76,0,0,0-1.06.08Zm0,0" transform="translate(-517 -938)" style="fill:#fff"/><path d="M518.57,966.52a.78.78,0,0,0,.55-.92.75.75,0,0,0-1.46.37.76.76,0,0,0,.73.57l.18,0Zm0,0" transform="translate(-517 -938)" style="fill:#fff"/><path d="M518.06,964.32a.82.82,0,1,0-.1,0Zm0,0" transform="translate(-517 -938)" style="fill:#fff"/><path d="M519.75,967.68a.75.75,0,0,0-1-.45.74.74,0,0,0-.44,1,.72.72,0,0,0,.69.49,1.17,1.17,0,0,0,.26,0,.75.75,0,0,0,.45-1Zm0,0" transform="translate(-517 -938)" style="fill:#fff"/><path d="M517.75,962.09h0a.75.75,0,0,0,.71-.78.74.74,0,0,0-.78-.72.75.75,0,0,0,0,1.5Zm0,0" transform="translate(-517 -938)" style="fill:#fff"/><path d="M526.57,978a.75.75,0,0,0,.62,1.18.73.73,0,0,0,.61-.33.75.75,0,0,0-.18-1,.76.76,0,0,0-1,.19Zm0,0" transform="translate(-517 -938)" style="fill:#fff"/><path d="M553.7,976h0a.75.75,0,0,0-.05,1.07.78.78,0,0,0,.55.23.77.77,0,0,0,.51-.19.75.75,0,0,0,0-1.06.73.73,0,0,0-1,0Zm0,0" transform="translate(-517 -938)" style="fill:#fff"/><path d="M555.21,974.41a.75.75,0,0,0,.07,1.05.72.72,0,0,0,.49.19.73.73,0,0,0,.56-.25.75.75,0,1,0-1.12-1Zm0,0" transform="translate(-517 -938)" style="fill:#fff"/><path d="M556.57,972.7a.75.75,0,0,0,.17,1,.72.72,0,0,0,.43.15.78.78,0,0,0,.62-.32.75.75,0,0,0-1.22-.88Zm0,0" transform="translate(-517 -938)" style="fill:#fff"/><path d="M552,977.34a.75.75,0,0,0-.15,1,.74.74,0,0,0,.6.3.71.71,0,0,0,.44-.15.73.73,0,0,0,.16-1,.74.74,0,0,0-1.05-.16Zm0,0" transform="translate(-517 -938)" style="fill:#fff"/><path d="M550.21,978.55a.75.75,0,0,0,.4,1.39.71.71,0,0,0,.37-.1.75.75,0,0,0-.77-1.29Zm0,0" transform="translate(-517 -938)" style="fill:#fff"/><path d="M558.77,970.59a.78.78,0,0,0-1,.29h0a.75.75,0,0,0,.28,1,.69.69,0,0,0,.37.1.74.74,0,0,0,.65-.38.76.76,0,0,0-.27-1Zm0,0" transform="translate(-517 -938)" style="fill:#fff"/><path d="M561.2,962a.75.75,0,1,0-.16,1.49h.08a.75.75,0,0,0,.08-1.49Zm0,0" transform="translate(-517 -938)" style="fill:#fff"/><path d="M560.93,964.23a.75.75,0,0,0-.31,1.47h.16a.75.75,0,0,0,.15-1.48Zm0,0" transform="translate(-517 -938)" style="fill:#fff"/><path d="M560.43,966.43a.74.74,0,0,0-.94.48.76.76,0,0,0,.48,1l.23,0a.77.77,0,0,0,.72-.52.74.74,0,0,0-.49-.94Zm0,0" transform="translate(-517 -938)" style="fill:#fff"/><path d="M559.71,968.56a.75.75,0,0,0-.61,1.37.82.82,0,0,0,.3.07.76.76,0,0,0,.69-.46.74.74,0,0,0-.38-1Zm0,0" transform="translate(-517 -938)" style="fill:#fff"/><path d="M548.3,979.57a.74.74,0,0,0-.37,1,.76.76,0,0,0,.69.43.7.7,0,0,0,.31-.07.74.74,0,0,0,.36-1,.73.73,0,0,0-1-.36Zm0,0" transform="translate(-517 -938)" style="fill:#fff"/><path d="M535.57,981.13a.75.75,0,1,0-.27,1.48h.13a.75.75,0,0,0,.14-1.49Zm0,0" transform="translate(-517 -938)" style="fill:#fff"/><path d="M537.73,981.43a.73.73,0,0,0-.81.68.75.75,0,0,0,.68.82h.06a.75.75,0,0,0,.75-.7.74.74,0,0,0-.68-.8Zm0,0" transform="translate(-517 -938)" style="fill:#fff"/><path d="M533.46,980.62a.75.75,0,0,0-.93.5.76.76,0,0,0,.5.94.83.83,0,0,0,.22,0,.76.76,0,0,0,.72-.54.75.75,0,0,0-.51-.93Zm0,0" transform="translate(-517 -938)" style="fill:#fff"/><path d="M531.42,979.89a.73.73,0,0,0-1,.4.75.75,0,0,0,.39,1,1,1,0,0,0,.29.05.74.74,0,0,0,.69-.46.75.75,0,0,0-.4-1Zm0,0" transform="translate(-517 -938)" style="fill:#fff"/><path d="M542.06,981.34a.75.75,0,0,0,.09,1.5h.09a.76.76,0,0,0,.65-.84.74.74,0,0,0-.83-.66Zm0,0" transform="translate(-517 -938)" style="fill:#fff"/><path d="M546.29,980.38a.73.73,0,0,0-.47,1,.75.75,0,0,0,.7.5.73.73,0,0,0,.25,0,.75.75,0,0,0,.47-.95.74.74,0,0,0-1-.46Zm0,0" transform="translate(-517 -938)" style="fill:#fff"/><path d="M544.2,981a.73.73,0,0,0-.56.9.75.75,0,0,0,.72.58.47.47,0,0,0,.17,0,.75.75,0,1,0-.33-1.46Zm0,0" transform="translate(-517 -938)" style="fill:#fff"/><path d="M539.89,981.49a.75.75,0,0,0,0,1.5h0a.74.74,0,0,0,.74-.76.76.76,0,0,0-.77-.74Zm0,0" transform="translate(-517 -938)" style="fill:#fff"/><path d="M529.46,979a.75.75,0,1,0-.71,1.31.64.64,0,0,0,.35.1.75.75,0,0,0,.36-1.41Zm0,0" transform="translate(-517 -938)" style="fill:#fff"/></svg>