<svg xmlns="http://www.w3.org/2000/svg" width="242.971" height="603.704" viewBox="0 0 242.971 603.704">
  <g id="Group_3435" data-name="Group 3435" transform="translate(0.407 259.291)">
    <line id="Line_188" data-name="Line 188" x2="232" y2="324" transform="translate(0 -259)" fill="none" stroke="#c2c4cb" stroke-width="1"/>
    <line id="Line_189" data-name="Line 189" y1="66" x2="179" transform="translate(53 73)" fill="none" stroke="#c2c4cb" stroke-width="1"/>
    <line id="Line_190" data-name="Line 190" x2="93" y2="96" transform="translate(50 148)" fill="none" stroke="#c2c4cb" stroke-width="1"/>
    <line id="Line_191" data-name="Line 191" x1="143" y2="98" transform="translate(0 246)" fill="none" stroke="#c2c4cb" stroke-width="1"/>
    <g id="Group_3422" data-name="Group 3422" transform="translate(144.498 249.145) rotate(-138)">
      <path id="Path_3832" data-name="Path 3832" d="M2.534,5.045A2.522,2.522,0,1,1,5.043,2.509,2.521,2.521,0,0,1,2.534,5.045Z" transform="translate(1.232 1.232)" fill="#fff"/>
      <path id="Path_3833" data-name="Path 3833" d="M3.766,6.276A2.522,2.522,0,1,0,1.232,3.767,2.522,2.522,0,0,0,3.766,6.276m.007,1.23A3.753,3.753,0,1,1,7.507,3.734,3.757,3.757,0,0,1,3.772,7.507Z" fill="#1971b9"/>
    </g>
    <line id="Line_192" data-name="Line 192" x1="229" y1="67" transform="translate(0 2)" fill="none" stroke="#c2c4cb" stroke-width="1"/>
    <line id="Line_193" data-name="Line 193" x1="39" y2="41" transform="translate(0 148)" fill="none" stroke="#c2c4cb" stroke-width="1"/>
    <g id="Group_3425" data-name="Group 3425" transform="translate(45.661 155.619) rotate(-138)">
      <path id="Path_3828" data-name="Path 3828" d="M6.96,0A7,7,0,1,1,0,7.033,6.995,6.995,0,0,1,6.96,0Z" transform="translate(1.939 1.939)" fill="#fff"/>
      <path id="Path_3829" data-name="Path 3829" d="M8.971,15.932a7,7,0,1,0-7.033-6.96,6.995,6.995,0,0,0,7.033,6.96m.01,1.939a8.935,8.935,0,1,1,8.889-8.98,8.946,8.946,0,0,1-8.889,8.98Z" transform="translate(0 0)" fill="#1971b9"/>
    </g>
    <g id="Group_3426" data-name="Group 3426" transform="translate(234.658 76.845) rotate(-138)">
      <path id="Path_3832-2" data-name="Path 3832" d="M3.989,7.941A3.971,3.971,0,1,1,7.939,3.95,3.969,3.969,0,0,1,3.989,7.941Z" transform="translate(1.939 1.939)" fill="#fff"/>
      <path id="Path_3833-2" data-name="Path 3833" d="M5.928,9.88A3.971,3.971,0,1,0,1.939,5.93,3.971,3.971,0,0,0,5.928,9.88m.01,1.937a5.908,5.908,0,1,1,5.878-5.938,5.915,5.915,0,0,1-5.878,5.938Z" fill="#1971b9"/>
    </g>
  </g>
</svg>
