<svg id="Group_2949" data-name="Group 2949" xmlns="http://www.w3.org/2000/svg" xmlns:xlink="http://www.w3.org/1999/xlink" width="94.299" height="96.178" viewBox="0 0 94.299 96.178">
  <defs>
    <clipPath id="clip-path">
      <rect id="Rectangle_1884" data-name="Rectangle 1884" width="94.299" height="96.178" fill="#007ce1"/>
    </clipPath>
  </defs>
  <g id="Group_2946" data-name="Group 2946">
    <g id="Group_2945" data-name="Group 2945" clip-path="url(#clip-path)">
      <path id="Path_4568" data-name="Path 4568" d="M83.937,8.265h30.506a6.387,6.387,0,1,0,0-3.757H83.937a1.878,1.878,0,1,0,0,3.757m36.611-4.508a2.63,2.63,0,1,1-2.571,3.18,1.891,1.891,0,0,0,0-1.1,2.633,2.633,0,0,1,2.571-2.08" transform="translate(-32.732)" fill="#007ce1"/>
      <path id="Path_4569" data-name="Path 4569" d="M32.359,86.551H24.327A10.146,10.146,0,0,1,14.191,76.417V66.73a1.879,1.879,0,0,0-1.878-1.878h-7.9l5.849-19.29a1.867,1.867,0,0,0,.081-.546A33.016,33.016,0,0,1,34.784,13.15a1.879,1.879,0,0,0-.97-3.63A36.781,36.781,0,0,0,6.586,44.735L.082,66.187a1.877,1.877,0,0,0,1.8,2.422h8.556v7.808A13.908,13.908,0,0,0,24.327,90.308h8.032a3.307,3.307,0,0,1,3.3,3.3V98.07a1.878,1.878,0,0,0,3.757,0V93.612a7.068,7.068,0,0,0-7.061-7.061" transform="translate(0 -3.772)" fill="#007ce1"/>
    </g>
  </g>
  <g id="Group_2948" data-name="Group 2948">
    <g id="Group_2947" data-name="Group 2947" clip-path="url(#clip-path)">
      <path id="Path_4570" data-name="Path 4570" d="M114.481,43.228h-3.04a26.174,26.174,0,0,0-2.475-5.974l2.139-2.139a1.877,1.877,0,0,0,0-2.657l-7.341-7.335a1.878,1.878,0,0,0-2.656,0L98.97,27.259A26.2,26.2,0,0,0,93,24.782V21.761a1.879,1.879,0,0,0-1.878-1.878H80.739a1.878,1.878,0,0,0-1.878,1.878v3.022a26.166,26.166,0,0,0-5.975,2.475l-2.136-2.136a1.878,1.878,0,0,0-2.656,0l-7.342,7.336a1.881,1.881,0,0,0,0,2.658l2.139,2.138a26.185,26.185,0,0,0-2.475,5.974H57.38A1.88,1.88,0,0,0,55.5,45.106l0,10.379a1.879,1.879,0,0,0,1.878,1.88h3.039a26.194,26.194,0,0,0,2.475,5.975l-2.151,2.15a1.879,1.879,0,0,0,0,2.656l7.337,7.342a1.878,1.878,0,0,0,1.328.55h0a1.878,1.878,0,0,0,1.328-.55l.169-.168V82.6a6.387,6.387,0,1,0,3.757,0V74.249a26.128,26.128,0,0,0,4.2,1.561v3.051a1.879,1.879,0,0,0,1.878,1.878H91.118A1.879,1.879,0,0,0,93,78.861V75.81a26.307,26.307,0,0,0,3.827-1.384V91.618a6.387,6.387,0,1,0,3.757,0V74.943l.543.545a1.878,1.878,0,0,0,2.657,0l7.337-7.341a1.878,1.878,0,0,0,0-2.656l-2.151-2.15a26.21,26.21,0,0,0,2.475-5.976h3.04a1.879,1.879,0,0,0,1.878-1.878V45.106a1.879,1.879,0,0,0-1.878-1.878m-41.7,48.107a2.63,2.63,0,1,1,2.63-2.63,2.633,2.633,0,0,1-2.63,2.63M98.7,100.351a2.63,2.63,0,1,1,2.63-2.63,2.633,2.633,0,0,1-2.63,2.63m13.9-46.745h-2.634a1.879,1.879,0,0,0-1.836,1.485,22.5,22.5,0,0,1-3.114,7.514,1.878,1.878,0,0,0,.249,2.348l1.865,1.865-4.68,4.684-1.867-1.866a1.879,1.879,0,0,0-2.348-.25A22.487,22.487,0,0,1,90.723,72.5a1.879,1.879,0,0,0-1.484,1.837v2.645H82.617V74.337A1.878,1.878,0,0,0,81.133,72.5a22.5,22.5,0,0,1-7.515-3.114,1.878,1.878,0,0,0-2.347.25L69.4,71.5l-4.681-4.684,1.865-1.865a1.879,1.879,0,0,0,.249-2.348,22.473,22.473,0,0,1-3.114-7.514,1.88,1.88,0,0,0-1.837-1.485H59.255l0-6.622h2.629A1.878,1.878,0,0,0,63.724,45.5a22.516,22.516,0,0,1,3.114-7.515,1.878,1.878,0,0,0-.249-2.348l-1.851-1.851,4.684-4.681,1.85,1.851a1.878,1.878,0,0,0,2.348.248,22.5,22.5,0,0,1,7.514-3.113,1.877,1.877,0,0,0,1.484-1.836V23.64H89.24v2.616a1.878,1.878,0,0,0,1.484,1.836,22.5,22.5,0,0,1,7.515,3.113,1.876,1.876,0,0,0,2.347-.249l1.851-1.85,4.684,4.681-1.852,1.851a1.878,1.878,0,0,0-.249,2.348,22.5,22.5,0,0,1,3.113,7.515,1.879,1.879,0,0,0,1.836,1.483H112.6v6.622Z" transform="translate(-22.137 -7.931)" fill="#007ce1"/>
      <path id="Path_4571" data-name="Path 4571" d="M96.4,46.128A14.652,14.652,0,1,0,111.051,60.78,14.669,14.669,0,0,0,96.4,46.128m0,25.547a10.9,10.9,0,1,1,10.9-10.9,10.908,10.908,0,0,1-10.9,10.9" transform="translate(-32.608 -18.4)" fill="#007ce1"/>
      <path id="Path_4572" data-name="Path 4572" d="M106.077,73.628H98.938a1.878,1.878,0,0,0,0,3.757h7.138a1.878,1.878,0,0,0,0-3.757" transform="translate(-38.716 -29.369)" fill="#007ce1"/>
      <path id="Path_4573" data-name="Path 4573" d="M106.077,61.128H98.938a1.878,1.878,0,0,0,0,3.757h7.138a1.878,1.878,0,0,0,0-3.757" transform="translate(-38.716 -24.383)" fill="#007ce1"/>
      <path id="Path_4574" data-name="Path 4574" d="M32.819,66.041a1.876,1.876,0,1,0,1.328-.551,1.888,1.888,0,0,0-1.328.551" transform="translate(-12.871 -26.123)" fill="#007ce1"/>
      <path id="Path_4575" data-name="Path 4575" d="M69.874,11.257a1.88,1.88,0,1,0-1.328-.551,1.89,1.89,0,0,0,1.328.551" transform="translate(-27.123 -2.992)" fill="#007ce1"/>
    </g>
  </g>
</svg>
