<svg xmlns="http://www.w3.org/2000/svg" xmlns:xlink="http://www.w3.org/1999/xlink" width="95" height="95" viewBox="0 0 95 95">
  <defs>
    <clipPath id="clip-path">
      <rect id="Rectangle_1882" data-name="Rectangle 1882" width="95" height="95" transform="translate(0.334 0.334)" fill="#007ce1"/>
    </clipPath>
  </defs>
  <g id="Group_2943" data-name="Group 2943" transform="translate(-0.893 0.103)">
    <g id="Group_2938" data-name="Group 2938" transform="translate(0.559 -0.437)">
      <g id="Group_2937" data-name="Group 2937" transform="translate(0 0)" clip-path="url(#clip-path)">
        <path id="Path_4565" data-name="Path 4565" d="M36.653,21.737a14.857,14.857,0,0,1,5.3.969,1.492,1.492,0,1,0,1.06-2.79A17.9,17.9,0,1,0,53.355,30.2a1.492,1.492,0,0,0-2.78-.086,1.48,1.48,0,0,0,0,1.162,14.918,14.918,0,1,1-13.919-9.542" transform="translate(10.635 11.726)" fill="#007ce1"/>
        <path id="Path_4566" data-name="Path 4566" d="M65.313.113a1.493,1.493,0,0,0-1.625.32L54.737,9.385a1.5,1.5,0,0,0-.441,1.06V21.762L29.718,46.34a1.493,1.493,0,0,0,2.112,2.112l24.577-24.58H67.724a1.5,1.5,0,0,0,1.052-.439l8.951-8.951a1.493,1.493,0,0,0-1.052-2.545H68.341l3.426-3.423A1.494,1.494,0,0,0,69.656,6.4L66.231,9.827V1.493a1.491,1.491,0,0,0-.918-1.38M57.28,11.063,63.247,5.1v7.715L57.28,18.778Zm15.792,3.857L67.1,20.888H59.39l5.968-5.968Z" transform="translate(16.862 0.64)" fill="#007ce1"/>
      </g>
    </g>
    <g id="Group_2940" data-name="Group 2940" transform="translate(0.559 -0.437)">
      <g id="Group_2939" data-name="Group 2939" transform="translate(0 0)" clip-path="url(#clip-path)">
        <path id="Path_4567" data-name="Path 4567" d="M93.99,46.25h-7.46A38.72,38.72,0,0,0,80.948,27.6,1.493,1.493,0,0,0,78.4,29.152a35.678,35.678,0,0,1,5.094,17.1h-7.4a1.492,1.492,0,1,0,0,2.984h7.42A35.843,35.843,0,0,1,49.233,83.511V76.087a1.492,1.492,0,1,0-2.984,0v7.424A35.845,35.845,0,0,1,11.972,49.233H19.4a1.492,1.492,0,0,0,0-2.984H11.972A35.845,35.845,0,0,1,46.249,11.972v6.677a1.492,1.492,0,1,0,2.984,0V11.99a35.673,35.673,0,0,1,17.155,5.169,1.493,1.493,0,0,0,1.493-2.553A38.691,38.691,0,0,0,49.233,8.953V1.493a1.492,1.492,0,0,0-2.984,0v7.5A38.83,38.83,0,0,0,8.988,46.25h-7.5a1.492,1.492,0,1,0,0,2.984h7.5A38.83,38.83,0,0,0,46.249,86.495v7.5a1.492,1.492,0,0,0,2.984,0v-7.5A38.827,38.827,0,0,0,86.491,49.233h7.5a1.492,1.492,0,0,0,0-2.984" transform="translate(-0.453 0.641)" fill="#007ce1"/>
      </g>
    </g>
  </g>
</svg>
