<svg xmlns="http://www.w3.org/2000/svg" xmlns:xlink="http://www.w3.org/1999/xlink" width="96" height="96" viewBox="0 0 96 96">
  <defs>
    <clipPath id="clip-path">
      <rect id="Rectangle_1894" data-name="Rectangle 1894" width="96" height="96" transform="translate(-0.167 -0.167)" fill="#007ce1"/>
    </clipPath>
  </defs>
  <g id="Group_2958" data-name="Group 2958" transform="translate(0.167 0.167)">
    <g id="Group_2957" data-name="Group 2957" clip-path="url(#clip-path)">
      <path id="Path_4581" data-name="Path 4581" d="M95.666,41.661A41.708,41.708,0,0,0,54,0H52.462V26.231H49.376V6.172H47.833a41.4,41.4,0,0,0-22.679,6.741L21.012,4.63H12.125a6.171,6.171,0,1,0,0,3.086h6.981l3.5,7A41.636,41.636,0,0,0,70.512,82.753l4.142,8.284h8.887a6.172,6.172,0,1,0,0-3.086H76.56l-3.5-7A41.608,41.608,0,0,0,89.494,47.833V46.29H70.978a4.593,4.593,0,0,0-1.2-3.086H95.666ZM6.172,9.258A3.086,3.086,0,1,1,9.258,6.172,3.09,3.09,0,0,1,6.172,9.258m83.322,77.15a3.086,3.086,0,1,1-3.086,3.086,3.089,3.089,0,0,1,3.086-3.086M29.317,66.349a1.543,1.543,0,0,1-1.543-1.543V61.72a1.543,1.543,0,0,1,1.543-1.543H66.349a1.543,1.543,0,0,1,1.543,1.543v3.086a1.544,1.544,0,0,1-1.543,1.543Zm35.489-9.258H30.86V54.005H64.806Zm1.543-6.172H29.317a1.543,1.543,0,0,1-1.543-1.543V46.29a1.545,1.545,0,0,1,1.543-1.543H66.349a1.545,1.545,0,0,1,1.543,1.543v3.086a1.543,1.543,0,0,1-1.543,1.543M30.86,38.575H64.806v3.086H30.86Zm35.489-3.086H29.317a1.544,1.544,0,0,1-1.543-1.543V30.86a1.544,1.544,0,0,1,1.543-1.543H66.349a1.545,1.545,0,0,1,1.543,1.543v3.086a1.545,1.545,0,0,1-1.543,1.543M46.29,9.289V26.231H31.814L26.543,15.69a38.316,38.316,0,0,1,19.748-6.4M24.008,17.518l4.4,8.8a4.634,4.634,0,0,0-3.721,4.538v3.086a4.622,4.622,0,0,0,3.086,4.344v3.656a4.623,4.623,0,0,0-3.086,4.346H9.3A38.537,38.537,0,0,1,24.008,17.518M47.833,86.409A38.617,38.617,0,0,1,9.3,49.376H24.688a4.623,4.623,0,0,0,3.086,4.345v3.655a4.624,4.624,0,0,0-3.086,4.346v3.086a4.634,4.634,0,0,0,4.628,4.629H63.853l5.272,10.545a38.364,38.364,0,0,1-21.292,6.426M86.377,49.376a38.538,38.538,0,0,1-14.719,28.77l-4.4-8.8a4.635,4.635,0,0,0,3.722-4.538V61.72a4.625,4.625,0,0,0-3.086-4.345V53.72a4.625,4.625,0,0,0,3.086-4.346h15.4ZM67.892,40.118V38.291a4.623,4.623,0,0,0,3.086-4.344V30.86a4.634,4.634,0,0,0-4.629-4.629h-10.8V3.118a38.624,38.624,0,0,1,37,37Z" fill="#007ce1"/>
      <rect id="Rectangle_1890" data-name="Rectangle 1890" width="3.086" height="3.086" transform="translate(3.086 89.494)" fill="#007ce1"/>
      <rect id="Rectangle_1891" data-name="Rectangle 1891" width="3.086" height="3.086" transform="translate(9.258 89.494)" fill="#007ce1"/>
      <rect id="Rectangle_1892" data-name="Rectangle 1892" width="3.086" height="3.086" transform="translate(15.43 89.494)" fill="#007ce1"/>
      <rect id="Rectangle_1893" data-name="Rectangle 1893" width="15.43" height="3.086" transform="translate(3.086 83.322)" fill="#007ce1"/>
      <path id="Path_4582" data-name="Path 4582" d="M27.595,57.592l-2.834-1.226c-.427.99-.814,2.005-1.146,3.013l2.929.967c.3-.921.658-1.847,1.051-2.753" transform="translate(-9.495 -22.664)" fill="#007ce1"/>
      <path id="Path_4583" data-name="Path 4583" d="M24.251,70.191c.133-.976.31-1.95.53-2.894l-3.007-.7c-.239,1.037-.435,2.1-.581,3.174Z" transform="translate(-8.521 -26.779)" fill="#007ce1"/>
      <path id="Path_4584" data-name="Path 4584" d="M32.152,48.635,29.59,46.913c-.6.886-1.159,1.811-1.675,2.755l2.706,1.483c.472-.862.987-1.707,1.531-2.516" transform="translate(-11.224 -18.863)" fill="#007ce1"/>
      <path id="Path_4585" data-name="Path 4585" d="M30.245,111.245a35.616,35.616,0,0,0,2.372,3.226L35,112.507a32.478,32.478,0,0,1-2.167-2.945Z" transform="translate(-12.161 -44.053)" fill="#007ce1"/>
      <path id="Path_4586" data-name="Path 4586" d="M41.381,119.412l-2.118,2.245a35.347,35.347,0,0,0,24.357,9.678V128.25a32.265,32.265,0,0,1-22.239-8.838" transform="translate(-15.787 -48.014)" fill="#007ce1"/>
      <path id="Path_4587" data-name="Path 4587" d="M129.24,107.482,126.533,106c-.475.866-.989,1.71-1.529,2.514l2.558,1.724c.594-.879,1.158-1.807,1.678-2.755" transform="translate(-50.263 -42.621)" fill="#007ce1"/>
      <path id="Path_4588" data-name="Path 4588" d="M133.709,97.943l-2.928-.967c-.3.921-.658,1.846-1.051,2.752l2.833,1.227c.427-.99.814-2,1.146-3.012" transform="translate(-52.163 -38.993)" fill="#007ce1"/>
      <path id="Path_4589" data-name="Path 4589" d="M136.395,87.812l-3.058-.418c-.133.978-.312,1.953-.531,2.9l3.006.695c.24-1.037.435-2.1.582-3.174" transform="translate(-53.4 -35.14)" fill="#007ce1"/>
      <path id="Path_4590" data-name="Path 4590" d="M129.734,31.058A32.6,32.6,0,0,1,136.9,42.987l2.927-.981a35.717,35.717,0,0,0-7.845-13.066Z" transform="translate(-52.164 -11.636)" fill="#007ce1"/>
      <path id="Path_4591" data-name="Path 4591" d="M143.653,59.832l3.058-.415c-.146-1.081-.347-2.165-.594-3.229l-3,.7c.226.97.408,1.961.541,2.945" transform="translate(-57.544 -22.592)" fill="#007ce1"/>
    </g>
  </g>
</svg>
