<svg xmlns="http://www.w3.org/2000/svg" width="36" height="36" viewBox="0 0 36 36">
  <path id="Intersection_1" data-name="Intersection 1" d="M487.458,941.816a18.634,18.634,0,0,1-2.414-.157,17.959,17.959,0,1,1,19.394-11.911,5.994,5.994,0,0,1-5.7,3.963,6.063,6.063,0,0,1-5.447-3.429,8.689,8.689,0,1,1-.627-13.338v-.016a1.741,1.741,0,0,1,3.481,0v10.725a2.592,2.592,0,0,0,2.593,2.587,2.512,2.512,0,0,0,2.413-1.627,14.507,14.507,0,1,0-6.235,7.664,1.738,1.738,0,1,1,1.8,2.975,17.842,17.842,0,0,1-9.221,2.566Zm-3.712-21.627a5.233,5.233,0,1,0,3.694-1.525A5.2,5.2,0,0,0,483.746,920.189Z" transform="translate(-469.429 -905.816)" fill="#fff"/>
</svg>
