<svg xmlns="http://www.w3.org/2000/svg" xmlns:xlink="http://www.w3.org/1999/xlink" width="62" height="62" viewBox="0 0 62 62">
  <defs>
    <linearGradient id="linear-gradient" x2="1" y2="1" gradientUnits="objectBoundingBox">
      <stop offset="0" stop-color="#ffcd81"/>
      <stop offset="0.788" stop-color="#ff901b"/>
      <stop offset="1" stop-color="#ff8000"/>
    </linearGradient>
    <filter id="Rectangle_1690" x="0" y="0" width="62" height="62" filterUnits="userSpaceOnUse">
      <feOffset dx="2" dy="2" input="SourceAlpha"/>
      <feGaussianBlur stdDeviation="1" result="blur"/>
      <feFlood flood-opacity="0.102"/>
      <feComposite operator="in" in2="blur"/>
      <feComposite in="SourceGraphic"/>
    </filter>
    <linearGradient id="linear-gradient-2" x2="1" y2="1" gradientUnits="objectBoundingBox">
      <stop offset="0" stop-color="#ffe99f"/>
      <stop offset="1" stop-color="#f90"/>
    </linearGradient>
  </defs>
  <g id="Group_2962" data-name="Group 2962" transform="translate(0.788 0.111)">
    <g transform="matrix(1, 0, 0, 1, -0.79, -0.11)" filter="url(#Rectangle_1690)">
      <rect id="Rectangle_1690-2" data-name="Rectangle 1690" width="56" height="56" transform="translate(1 1)" fill="url(#linear-gradient)"/>
    </g>
    <rect id="Rectangle_1693" data-name="Rectangle 1693" width="49" height="50" transform="translate(5.212 3.889)" fill="url(#linear-gradient-2)"/>
    <g id="Group_2540" data-name="Group 2540" transform="translate(12.327 12.332)">
      <path id="Path_1" data-name="Path 1" d="M1015.384,643.022l1.156-2.015h0l2.073-3.62-.177.143.39-.486c.043-.063.083-.12.125-.176l.01-.012c.035-.047.071-.091.11-.135s.088-.1.135-.155l.012-.013v-.038l.061-.025a.273.273,0,0,1,.031-.031.346.346,0,0,1,.03-.03,1.225,1.225,0,0,1,.1-.094c.026-.024.056-.052.089-.08l.035-.03c.036-.031.075-.063.112-.092.019-.016.046-.037.074-.058s.038-.029.057-.042.068-.051.105-.077a4.382,4.382,0,0,1,.505-.3c.045-.022.083-.04.121-.056s.094-.042.143-.062l.012-.005-2.959.008a3.793,3.793,0,0,0-3.244,1.855l-3.369,5.7-3.835,6.712c-.024.042-.049.083-.076.122l-.023.033c-.02.028-.039.056-.06.083l-.031.039-.059.07c-.012.014-.024.027-.037.04l-.059.063-.042.039c-.02.018-.041.037-.062.055l-.045.038c-.021.016-.042.033-.063.049l-.05.036-.064.044-.052.033-.067.038-.029.017,2.374.017a3.748,3.748,0,0,0,3.274-1.882l3.275-5.72Z" transform="translate(-1000.72 -617.588)" fill="#ff8305"/>
      <path id="Path_2" data-name="Path 2" d="M1022.791,635.542c-.049.02-.1.041-.143.062C1022.693,635.583,1022.742,635.562,1022.791,635.542Z" transform="translate(-1002.834 -617.589)" fill="#ff8305"/>
      <path id="Path_3" data-name="Path 3" d="M1017.879,641.829l-1.155,2.015h0l1.154-2.016Z" transform="translate(-1002.06 -618.41)" fill="#ff8305"/>
      <path id="Path_4" data-name="Path 4" d="M1025.43,635.526l-1.6.024a3.754,3.754,0,0,0-1.476.3c-.049.02-.1.043-.144.065a3.753,3.753,0,0,0-1.061.75v.008l-.037.028,0,0,0,0-.011.011-.032.035c-.04.044-.083.093-.125.143s-.065.077-.094.114l-.019.024c-.041.055-.081.11-.119.169-.006.01-.017.025-.029.04-.04.062-.084.131-.125.2l-1.417,2.474a3.941,3.941,0,0,1,2.449-.861h8.774a1.149,1.149,0,0,0,.995-1.722,3.658,3.658,0,0,0-3.158-1.822h-.008l-2.752.008Z" transform="translate(-1002.374 -617.586)" fill="#ff8305"/>
      <path id="Path_5" data-name="Path 5" d="M1024.536,635.551l1.6-.024h0Z" transform="translate(-1003.08 -617.587)" fill="#ff8305"/>
      <path id="Path_6" data-name="Path 6" d="M1026.376,635.527Z" transform="translate(-1003.32 -617.587)" fill="#ff8305"/>
      <path id="Path_7" data-name="Path 7" d="M1026.375,635.527h0Z" transform="translate(-1003.32 -617.587)" fill="#ff8305"/>
      <path id="Path_8" data-name="Path 8" d="M1019.131,640.214h0l1.417-2.475Z" transform="translate(-1002.374 -617.876)" fill="#ff8305"/>
      <path id="Path_9" data-name="Path 9" d="M1021.4,636.883l.005,0,0,0Z" transform="translate(-1002.671 -617.764)" fill="#ff8305"/>
      <path id="Path_10" data-name="Path 10" d="M1021.41,636.875l.036-.028-.036.028Z" transform="translate(-1002.672 -617.76)" fill="#ff8305"/>
      <path id="Path_11" data-name="Path 11" d="M1021.406,636.876l0,0h0l.037-.028v-.008l-.025.023Z" transform="translate(-1002.671 -617.759)" fill="#ff8305"/>
      <path id="Path_12" data-name="Path 12" d="M1005.066,642.827l4.665-8.026h0l1.94-3.388,1.7-2.978.006-.008c.05-.087.1-.172.16-.253.018-.027.038-.052.056-.078.043-.06.087-.119.133-.176l.063-.076c.055-.065.111-.126.169-.187l.038-.039q.108-.108.224-.208c.02-.017.04-.033.06-.049.059-.05.12-.1.182-.143l.077-.056c.063-.044.129-.087.194-.128.022-.013.043-.027.064-.039q.13-.077.267-.145l.051-.023c.075-.035.15-.068.227-.1.013,0,.025-.011.038-.017h-2.948a3.687,3.687,0,0,0-3.179,1.832l-8.9,15.351a3.692,3.692,0,0,0,3.165,5.544h.1c-.012-.007-.022-.015-.033-.022a1.931,1.931,0,0,1-.163-.112c-.023-.017-.044-.035-.064-.052-.043-.035-.084-.072-.124-.11-.021-.021-.042-.041-.062-.063-.039-.042-.076-.085-.112-.13-.017-.02-.034-.04-.05-.061a2.288,2.288,0,0,1-.137-.208h0a2.1,2.1,0,0,1,.007-2.075l2.167-3.738,0-.007Z" transform="translate(-999.857 -616.436)" fill="#ff8305"/>
      <path id="Path_13" data-name="Path 13" d="M1005.828,645.285l0,.007v0Z" transform="translate(-1000.636 -618.862)" fill="#ff8305"/>
      <path id="Path_14" data-name="Path 14" d="M1013.986,631.148a3.921,3.921,0,0,1,2.479-.886h8.819a1.138,1.138,0,0,0,.984-1.707,3.7,3.7,0,0,0-3.193-1.844h-1.212l-3.191.01h-.015a3.691,3.691,0,0,0-3.2,1.852h0Z" transform="translate(-1001.702 -616.436)" fill="#ff8305"/>
      <path id="Path_15" data-name="Path 15" d="M1022.566,626.711l-3.191.01,3.192-.01Z" transform="translate(-1002.406 -616.436)" fill="#ff8305"/>
      <path id="Path_16" data-name="Path 16" d="M1005.026,652a1.782,1.782,0,0,0,1.607-.9l1.716-3a2.012,2.012,0,0,1-3.1-1.67l-1.678,2.9a1.816,1.816,0,0,0-.111,1.586,1.7,1.7,0,0,0,.076.156c.01.019.017.04.028.058s.026.041.039.061.042.068.064.1.042.052.063.079.036.047.056.069.048.049.072.072.039.042.061.062.052.042.078.064.045.037.068.055.055.037.083.055.048.034.075.049.058.03.088.045.052.029.08.042.062.024.093.036.055.023.084.032.065.018.1.027.055.016.083.023Z" transform="translate(-1000.31 -619.01)" fill="#ff8305"/>
      <path id="Path_17" data-name="Path 17" d="M1004.961,652.824l.278.008-.278-.008Z" transform="translate(-1000.523 -619.846)" fill="#ff8305"/>
      <path id="Path_18" data-name="Path 18" d="M1003.708,651.993c-.022-.032-.044-.066-.064-.1C1003.665,651.927,1003.686,651.961,1003.708,651.993Z" transform="translate(-1000.351 -619.725)" fill="#ff8305"/>
      <path id="Path_19" data-name="Path 19" d="M1004.346,652.581c-.026-.015-.05-.032-.075-.049C1004.3,652.549,1004.32,652.566,1004.346,652.581Z" transform="translate(-1000.433 -619.808)" fill="#ff8305"/>
      <path id="Path_20" data-name="Path 20" d="M1004.166,652.461c-.024-.017-.045-.036-.068-.055C1004.12,652.424,1004.142,652.443,1004.166,652.461Z" transform="translate(-1000.411 -619.792)" fill="#ff8305"/>
      <path id="Path_21" data-name="Path 21" d="M1003.847,652.168c-.02-.022-.037-.046-.056-.069C1003.809,652.122,1003.827,652.146,1003.847,652.168Z" transform="translate(-1000.371 -619.752)" fill="#ff8305"/>
      <path id="Path_22" data-name="Path 22" d="M1004.538,652.682c-.028-.013-.054-.028-.08-.042C1004.484,652.654,1004.51,652.669,1004.538,652.682Z" transform="translate(-1000.458 -619.822)" fill="#ff8305"/>
      <path id="Path_23" data-name="Path 23" d="M1003.595,651.814h0c-.01-.018-.018-.039-.028-.058C1003.577,651.775,1003.584,651.8,1003.595,651.814Z" transform="translate(-1000.341 -619.707)" fill="#ff8305"/>
      <path id="Path_24" data-name="Path 24" d="M1004.866,652.8c.027.008.053.016.08.022h0C1004.921,652.815,1004.893,652.806,1004.866,652.8Z" transform="translate(-1000.511 -619.843)" fill="#ff8305"/>
      <path id="Path_25" data-name="Path 25" d="M1003.571,649.752a1.815,1.815,0,0,0-.111,1.586A1.815,1.815,0,0,1,1003.571,649.752Z" transform="translate(-1000.31 -619.445)" fill="#ff8305"/>
      <path id="Path_26" data-name="Path 26" d="M1004,652.323c-.022-.019-.041-.041-.061-.062C1003.958,652.282,1003.977,652.3,1004,652.323Z" transform="translate(-1000.39 -619.773)" fill="#ff8305"/>
      <path id="Path_27" data-name="Path 27" d="M1004.74,652.762c-.028-.009-.055-.022-.083-.032C1004.685,652.74,1004.712,652.753,1004.74,652.762Z" transform="translate(-1000.484 -619.834)" fill="#ff8305"/>
      <path id="Path_28" data-name="Path 28" d="M1004.961,652.824h0Z" transform="translate(-1000.523 -619.846)" fill="#ff8305"/>
      <path id="Path_29" data-name="Path 29" d="M1037.667,651.652h.018a1.757,1.757,0,0,0,1.523-2.637L1037,645.2a1.78,1.78,0,0,0-1.537-.887h-2.21a.5.5,0,0,0-.433.749l.009.016,2.163,3.786a2.029,2.029,0,0,1-.016,2.039,1.988,1.988,0,0,1-.141.206c-.017.023-.037.043-.056.064-.036.042-.07.083-.109.123-.024.023-.049.044-.073.066s-.073.067-.112.1-.055.041-.084.061-.078.055-.118.079c-.01.006-.018.013-.029.018Z" transform="translate(-1004.154 -618.735)" fill="#ff8305"/>
      <path id="Path_30" data-name="Path 30" d="M1032.345,651.822c.035-.005.07-.009.1-.017s.068-.018.1-.028.064-.017.1-.027.067-.027.1-.041.061-.022.09-.036.063-.035.094-.052.058-.03.085-.047.059-.042.088-.064.053-.036.077-.056.057-.051.086-.077.044-.039.065-.06.059-.067.088-.1c.016-.018.033-.036.048-.055a1.747,1.747,0,0,0,.13-1.932l-1.658-2.9a2.048,2.048,0,0,1-2.05,2.04h-.2a1.711,1.711,0,0,1-1.473-.848l-.01-.019-.423-.739h0c-.011-.019-.025-.037-.037-.055-.021-.033-.041-.067-.064-.1s-.035-.039-.052-.059-.044-.053-.067-.077-.044-.039-.067-.059-.045-.041-.068-.059-.054-.036-.082-.055-.043-.031-.067-.045-.062-.031-.093-.046-.044-.023-.068-.034-.069-.024-.1-.035-.044-.017-.066-.023c-.04-.011-.081-.017-.122-.025-.019,0-.037-.008-.055-.011a1.443,1.443,0,0,0-.184-.012h0a1.386,1.386,0,0,0-1.2.688l-1.5,2.576a1.329,1.329,0,0,1,.489-.1h.022a1.343,1.343,0,0,1,1.135.634,4.094,4.094,0,0,0,3.453,1.944l2.875.03h0l.3,0h.078C1032.279,651.833,1032.312,651.827,1032.345,651.822Z" transform="translate(-1002.997 -618.964)" fill="#ff8305"/>
      <path id="Path_31" data-name="Path 31" d="M1033.068,652.7l.3,0-.3,0Z" transform="translate(-1004.195 -619.83)" fill="#ff8305"/>
      <path id="Path_32" data-name="Path 32" d="M1033.838,652.636c-.035.01-.068.021-.1.028C1033.77,652.657,1033.8,652.646,1033.838,652.636Z" transform="translate(-1004.282 -619.822)" fill="#ff8305"/>
      <path id="Path_33" data-name="Path 33" d="M1033.5,652.7c.033,0,.065-.01.1-.015-.034.005-.067.011-.1.015Z" transform="translate(-1004.251 -619.829)" fill="#ff8305"/>
      <path id="Path_34" data-name="Path 34" d="M1034.276,652.456c-.032.017-.063.037-.095.052C1034.213,652.493,1034.244,652.473,1034.276,652.456Z" transform="translate(-1004.34 -619.798)" fill="#ff8305"/>
      <path id="Path_35" data-name="Path 35" d="M1034.84,651.991c-.029.034-.056.069-.088.1C1034.784,652.06,1034.811,652.025,1034.84,651.991Z" transform="translate(-1004.415 -619.738)" fill="#ff8305"/>
      <path id="Path_36" data-name="Path 36" d="M1034.664,652.176c-.029.026-.056.053-.086.077C1034.608,652.229,1034.635,652.2,1034.664,652.176Z" transform="translate(-1004.392 -619.762)" fill="#ff8305"/>
      <path id="Path_37" data-name="Path 37" d="M1034.063,652.558c-.033.014-.066.029-.1.041C1034,652.587,1034.03,652.572,1034.063,652.558Z" transform="translate(-1004.311 -619.812)" fill="#ff8305"/>
      <path id="Path_38" data-name="Path 38" d="M1035.025,651.73a1.756,1.756,0,0,1-.116.172A1.756,1.756,0,0,0,1035.025,651.73Z" transform="translate(-1004.435 -619.704)" fill="#ff8305"/>
      <path id="Path_39" data-name="Path 39" d="M1034.476,652.329c-.03.022-.058.044-.089.063C1034.417,652.373,1034.446,652.351,1034.476,652.329Z" transform="translate(-1004.367 -619.782)" fill="#ff8305"/>
      <path id="Path_40" data-name="Path 40" d="M1023.653,644.312a3.791,3.791,0,0,0-3.272,1.888l-2.208,3.826a1.107,1.107,0,0,0,.958,1.661h.068a3.676,3.676,0,0,0,3.172-1.832l.113-.195h0l1.9-3.275a1.664,1.664,0,0,1,1.435-.826h0a1.555,1.555,0,0,1,.2.014l.062.01c.046.007.092.017.137.028l.068.019c.043.013.086.028.129.044l.06.023.026.01A3.629,3.629,0,0,0,1023.653,644.312Z" transform="translate(-1002.229 -618.735)" fill="#ff8305"/>
      <path id="Path_41" data-name="Path 41" d="M1027.525,645.825l-.068-.018Z" transform="translate(-1003.462 -618.93)" fill="#ff8305"/>
      <path id="Path_42" data-name="Path 42" d="M1027.291,645.774c-.02,0-.041-.008-.061-.01C1027.25,645.766,1027.271,645.77,1027.291,645.774Z" transform="translate(-1003.432 -618.924)" fill="#ff8305"/>
      <path id="Path_43" data-name="Path 43" d="M1027.743,645.9l-.06-.023Z" transform="translate(-1003.491 -618.94)" fill="#ff8305"/>
      <path id="Path_44" data-name="Path 44" d="M1023.154,649.972l.006-.011,1.9-3.264-1.9,3.275Z" transform="translate(-1002.9 -619.046)" fill="#ff8305"/>
      <path id="Path_45" data-name="Path 45" d="M1016.505,621.066h4.68a1.062,1.062,0,0,0,.919-1.593l-2.339-4.051a1.062,1.062,0,0,0-1.839,0l-2.341,4.051a1.062,1.062,0,0,0,.92,1.593Z" transform="translate(-1001.893 -614.892)" fill="#ff8305"/>
    </g>
    <g id="Group_2541" data-name="Group 2541" transform="translate(10.878 10.883)">
      <path id="Path_1-2" data-name="Path 1" d="M1015.384,643.022l1.156-2.015h0l2.073-3.62-.177.143.39-.486c.043-.063.083-.12.125-.176l.01-.012c.035-.047.071-.091.11-.135s.088-.1.135-.155l.012-.013v-.038l.061-.025a.273.273,0,0,1,.031-.031.346.346,0,0,1,.03-.03,1.225,1.225,0,0,1,.1-.094c.026-.024.056-.052.089-.08l.035-.03c.036-.031.075-.063.112-.092.019-.016.046-.037.074-.058s.038-.029.057-.042.068-.051.105-.077a4.382,4.382,0,0,1,.505-.3c.045-.022.083-.04.121-.056s.094-.042.143-.062l.012-.005-2.959.008a3.793,3.793,0,0,0-3.244,1.855l-3.369,5.7-3.835,6.712c-.024.042-.049.083-.076.122l-.023.033c-.02.028-.039.056-.06.083l-.031.039-.059.07c-.012.014-.024.027-.037.04l-.059.063-.042.039c-.02.018-.041.037-.062.055l-.045.038c-.021.016-.042.033-.063.049l-.05.036-.064.044-.052.033-.067.038-.029.017,2.374.017a3.748,3.748,0,0,0,3.274-1.882l3.275-5.72Z" transform="translate(-1000.72 -617.588)" fill="#fff"/>
      <path id="Path_2-2" data-name="Path 2" d="M1022.791,635.542c-.049.02-.1.041-.143.062C1022.693,635.583,1022.742,635.562,1022.791,635.542Z" transform="translate(-1002.834 -617.589)" fill="#fff"/>
      <path id="Path_3-2" data-name="Path 3" d="M1017.879,641.829l-1.155,2.015h0l1.154-2.016Z" transform="translate(-1002.06 -618.41)" fill="#fff"/>
      <path id="Path_4-2" data-name="Path 4" d="M1025.43,635.526l-1.6.024a3.754,3.754,0,0,0-1.476.3c-.049.02-.1.043-.144.065a3.753,3.753,0,0,0-1.061.75v.008l-.037.028,0,0,0,0-.011.011-.032.035c-.04.044-.083.093-.125.143s-.065.077-.094.114l-.019.024c-.041.055-.081.11-.119.169-.006.01-.017.025-.029.04-.04.062-.084.131-.125.2l-1.417,2.474a3.941,3.941,0,0,1,2.449-.861h8.774a1.149,1.149,0,0,0,.995-1.722,3.658,3.658,0,0,0-3.158-1.822h-.008l-2.752.008Z" transform="translate(-1002.374 -617.586)" fill="#fff"/>
      <path id="Path_5-2" data-name="Path 5" d="M1024.536,635.551l1.6-.024h0Z" transform="translate(-1003.08 -617.587)" fill="#fff"/>
      <path id="Path_6-2" data-name="Path 6" d="M1026.376,635.527Z" transform="translate(-1003.32 -617.587)" fill="#fff"/>
      <path id="Path_7-2" data-name="Path 7" d="M1026.375,635.527h0Z" transform="translate(-1003.32 -617.587)" fill="#fff"/>
      <path id="Path_8-2" data-name="Path 8" d="M1019.131,640.214h0l1.417-2.475Z" transform="translate(-1002.374 -617.876)" fill="#fff"/>
      <path id="Path_9-2" data-name="Path 9" d="M1021.4,636.883l.005,0,0,0Z" transform="translate(-1002.671 -617.764)" fill="#fff"/>
      <path id="Path_10-2" data-name="Path 10" d="M1021.41,636.875l.036-.028-.036.028Z" transform="translate(-1002.672 -617.76)" fill="#fff"/>
      <path id="Path_11-2" data-name="Path 11" d="M1021.406,636.876l0,0h0l.037-.028v-.008l-.025.023Z" transform="translate(-1002.671 -617.759)" fill="#fff"/>
      <path id="Path_12-2" data-name="Path 12" d="M1005.066,642.827l4.665-8.026h0l1.94-3.388,1.7-2.978.006-.008c.05-.087.1-.172.16-.253.018-.027.038-.052.056-.078.043-.06.087-.119.133-.176l.063-.076c.055-.065.111-.126.169-.187l.038-.039q.108-.108.224-.208c.02-.017.04-.033.06-.049.059-.05.12-.1.182-.143l.077-.056c.063-.044.129-.087.194-.128.022-.013.043-.027.064-.039q.13-.077.267-.145l.051-.023c.075-.035.15-.068.227-.1.013,0,.025-.011.038-.017h-2.948a3.687,3.687,0,0,0-3.179,1.832l-8.9,15.351a3.692,3.692,0,0,0,3.165,5.544h.1c-.012-.007-.022-.015-.033-.022a1.931,1.931,0,0,1-.163-.112c-.023-.017-.044-.035-.064-.052-.043-.035-.084-.072-.124-.11-.021-.021-.042-.041-.062-.063-.039-.042-.076-.085-.112-.13-.017-.02-.034-.04-.05-.061a2.288,2.288,0,0,1-.137-.208h0a2.1,2.1,0,0,1,.007-2.075l2.167-3.738,0-.007Z" transform="translate(-999.857 -616.436)" fill="#fff"/>
      <path id="Path_13-2" data-name="Path 13" d="M1005.828,645.285l0,.007v0Z" transform="translate(-1000.636 -618.862)" fill="#fff"/>
      <path id="Path_14-2" data-name="Path 14" d="M1013.986,631.148a3.921,3.921,0,0,1,2.479-.886h8.819a1.138,1.138,0,0,0,.984-1.707,3.7,3.7,0,0,0-3.193-1.844h-1.212l-3.191.01h-.015a3.691,3.691,0,0,0-3.2,1.852h0Z" transform="translate(-1001.702 -616.436)" fill="#fff"/>
      <path id="Path_15-2" data-name="Path 15" d="M1022.566,626.711l-3.191.01,3.192-.01Z" transform="translate(-1002.406 -616.436)" fill="#fff"/>
      <path id="Path_16-2" data-name="Path 16" d="M1005.026,652a1.782,1.782,0,0,0,1.607-.9l1.716-3a2.012,2.012,0,0,1-3.1-1.67l-1.678,2.9a1.816,1.816,0,0,0-.111,1.586,1.7,1.7,0,0,0,.076.156c.01.019.017.04.028.058s.026.041.039.061.042.068.064.1.042.052.063.079.036.047.056.069.048.049.072.072.039.042.061.062.052.042.078.064.045.037.068.055.055.037.083.055.048.034.075.049.058.03.088.045.052.029.08.042.062.024.093.036.055.023.084.032.065.018.1.027.055.016.083.023Z" transform="translate(-1000.31 -619.01)" fill="#fff"/>
      <path id="Path_17-2" data-name="Path 17" d="M1004.961,652.824l.278.008-.278-.008Z" transform="translate(-1000.523 -619.846)" fill="#fff"/>
      <path id="Path_18-2" data-name="Path 18" d="M1003.708,651.993c-.022-.032-.044-.066-.064-.1C1003.665,651.927,1003.686,651.961,1003.708,651.993Z" transform="translate(-1000.351 -619.725)" fill="#fff"/>
      <path id="Path_19-2" data-name="Path 19" d="M1004.346,652.581c-.026-.015-.05-.032-.075-.049C1004.3,652.549,1004.32,652.566,1004.346,652.581Z" transform="translate(-1000.433 -619.808)" fill="#fff"/>
      <path id="Path_20-2" data-name="Path 20" d="M1004.166,652.461c-.024-.017-.045-.036-.068-.055C1004.12,652.424,1004.142,652.443,1004.166,652.461Z" transform="translate(-1000.411 -619.792)" fill="#fff"/>
      <path id="Path_21-2" data-name="Path 21" d="M1003.847,652.168c-.02-.022-.037-.046-.056-.069C1003.809,652.122,1003.827,652.146,1003.847,652.168Z" transform="translate(-1000.371 -619.752)" fill="#fff"/>
      <path id="Path_22-2" data-name="Path 22" d="M1004.538,652.682c-.028-.013-.054-.028-.08-.042C1004.484,652.654,1004.51,652.669,1004.538,652.682Z" transform="translate(-1000.458 -619.822)" fill="#fff"/>
      <path id="Path_23-2" data-name="Path 23" d="M1003.595,651.814h0c-.01-.018-.018-.039-.028-.058C1003.577,651.775,1003.584,651.8,1003.595,651.814Z" transform="translate(-1000.341 -619.707)" fill="#fff"/>
      <path id="Path_24-2" data-name="Path 24" d="M1004.866,652.8c.027.008.053.016.08.022h0C1004.921,652.815,1004.893,652.806,1004.866,652.8Z" transform="translate(-1000.511 -619.843)" fill="#fff"/>
      <path id="Path_25-2" data-name="Path 25" d="M1003.571,649.752a1.815,1.815,0,0,0-.111,1.586A1.815,1.815,0,0,1,1003.571,649.752Z" transform="translate(-1000.31 -619.445)" fill="#fff"/>
      <path id="Path_26-2" data-name="Path 26" d="M1004,652.323c-.022-.019-.041-.041-.061-.062C1003.958,652.282,1003.977,652.3,1004,652.323Z" transform="translate(-1000.39 -619.773)" fill="#fff"/>
      <path id="Path_27-2" data-name="Path 27" d="M1004.74,652.762c-.028-.009-.055-.022-.083-.032C1004.685,652.74,1004.712,652.753,1004.74,652.762Z" transform="translate(-1000.484 -619.834)" fill="#fff"/>
      <path id="Path_28-2" data-name="Path 28" d="M1004.961,652.824h0Z" transform="translate(-1000.523 -619.846)" fill="#fff"/>
      <path id="Path_29-2" data-name="Path 29" d="M1037.667,651.652h.018a1.757,1.757,0,0,0,1.523-2.637L1037,645.2a1.78,1.78,0,0,0-1.537-.887h-2.21a.5.5,0,0,0-.433.749l.009.016,2.163,3.786a2.029,2.029,0,0,1-.016,2.039,1.988,1.988,0,0,1-.141.206c-.017.023-.037.043-.056.064-.036.042-.07.083-.109.123-.024.023-.049.044-.073.066s-.073.067-.112.1-.055.041-.084.061-.078.055-.118.079c-.01.006-.018.013-.029.018Z" transform="translate(-1004.154 -618.735)" fill="#fff"/>
      <path id="Path_30-2" data-name="Path 30" d="M1032.345,651.822c.035-.005.07-.009.1-.017s.068-.018.1-.028.064-.017.1-.027.067-.027.1-.041.061-.022.09-.036.063-.035.094-.052.058-.03.085-.047.059-.042.088-.064.053-.036.077-.056.057-.051.086-.077.044-.039.065-.06.059-.067.088-.1c.016-.018.033-.036.048-.055a1.747,1.747,0,0,0,.13-1.932l-1.658-2.9a2.048,2.048,0,0,1-2.05,2.04h-.2a1.711,1.711,0,0,1-1.473-.848l-.01-.019-.423-.739h0c-.011-.019-.025-.037-.037-.055-.021-.033-.041-.067-.064-.1s-.035-.039-.052-.059-.044-.053-.067-.077-.044-.039-.067-.059-.045-.041-.068-.059-.054-.036-.082-.055-.043-.031-.067-.045-.062-.031-.093-.046-.044-.023-.068-.034-.069-.024-.1-.035-.044-.017-.066-.023c-.04-.011-.081-.017-.122-.025-.019,0-.037-.008-.055-.011a1.443,1.443,0,0,0-.184-.012h0a1.386,1.386,0,0,0-1.2.688l-1.5,2.576a1.329,1.329,0,0,1,.489-.1h.022a1.343,1.343,0,0,1,1.135.634,4.094,4.094,0,0,0,3.453,1.944l2.875.03h0l.3,0h.078C1032.279,651.833,1032.312,651.827,1032.345,651.822Z" transform="translate(-1002.997 -618.964)" fill="#fff"/>
      <path id="Path_31-2" data-name="Path 31" d="M1033.068,652.7l.3,0-.3,0Z" transform="translate(-1004.195 -619.83)" fill="#fff"/>
      <path id="Path_32-2" data-name="Path 32" d="M1033.838,652.636c-.035.01-.068.021-.1.028C1033.77,652.657,1033.8,652.646,1033.838,652.636Z" transform="translate(-1004.282 -619.822)" fill="#fff"/>
      <path id="Path_33-2" data-name="Path 33" d="M1033.5,652.7c.033,0,.065-.01.1-.015-.034.005-.067.011-.1.015Z" transform="translate(-1004.251 -619.829)" fill="#fff"/>
      <path id="Path_34-2" data-name="Path 34" d="M1034.276,652.456c-.032.017-.063.037-.095.052C1034.213,652.493,1034.244,652.473,1034.276,652.456Z" transform="translate(-1004.34 -619.798)" fill="#fff"/>
      <path id="Path_35-2" data-name="Path 35" d="M1034.84,651.991c-.029.034-.056.069-.088.1C1034.784,652.06,1034.811,652.025,1034.84,651.991Z" transform="translate(-1004.415 -619.738)" fill="#fff"/>
      <path id="Path_36-2" data-name="Path 36" d="M1034.664,652.176c-.029.026-.056.053-.086.077C1034.608,652.229,1034.635,652.2,1034.664,652.176Z" transform="translate(-1004.392 -619.762)" fill="#fff"/>
      <path id="Path_37-2" data-name="Path 37" d="M1034.063,652.558c-.033.014-.066.029-.1.041C1034,652.587,1034.03,652.572,1034.063,652.558Z" transform="translate(-1004.311 -619.812)" fill="#fff"/>
      <path id="Path_38-2" data-name="Path 38" d="M1035.025,651.73a1.756,1.756,0,0,1-.116.172A1.756,1.756,0,0,0,1035.025,651.73Z" transform="translate(-1004.435 -619.704)" fill="#fff"/>
      <path id="Path_39-2" data-name="Path 39" d="M1034.476,652.329c-.03.022-.058.044-.089.063C1034.417,652.373,1034.446,652.351,1034.476,652.329Z" transform="translate(-1004.367 -619.782)" fill="#fff"/>
      <path id="Path_40-2" data-name="Path 40" d="M1023.653,644.312a3.791,3.791,0,0,0-3.272,1.888l-2.208,3.826a1.107,1.107,0,0,0,.958,1.661h.068a3.676,3.676,0,0,0,3.172-1.832l.113-.195h0l1.9-3.275a1.664,1.664,0,0,1,1.435-.826h0a1.555,1.555,0,0,1,.2.014l.062.01c.046.007.092.017.137.028l.068.019c.043.013.086.028.129.044l.06.023.026.01A3.629,3.629,0,0,0,1023.653,644.312Z" transform="translate(-1002.229 -618.735)" fill="#fff"/>
      <path id="Path_41-2" data-name="Path 41" d="M1027.525,645.825l-.068-.018Z" transform="translate(-1003.462 -618.93)" fill="#fff"/>
      <path id="Path_42-2" data-name="Path 42" d="M1027.291,645.774c-.02,0-.041-.008-.061-.01C1027.25,645.766,1027.271,645.77,1027.291,645.774Z" transform="translate(-1003.432 -618.924)" fill="#fff"/>
      <path id="Path_43-2" data-name="Path 43" d="M1027.743,645.9l-.06-.023Z" transform="translate(-1003.491 -618.94)" fill="#fff"/>
      <path id="Path_44-2" data-name="Path 44" d="M1023.154,649.972l.006-.011,1.9-3.264-1.9,3.275Z" transform="translate(-1002.9 -619.046)" fill="#fff"/>
      <path id="Path_45-2" data-name="Path 45" d="M1016.505,621.066h4.68a1.062,1.062,0,0,0,.919-1.593l-2.339-4.051a1.062,1.062,0,0,0-1.839,0l-2.341,4.051a1.062,1.062,0,0,0,.92,1.593Z" transform="translate(-1001.893 -614.892)" fill="#fff"/>
    </g>
  </g>
</svg>
