<svg xmlns="http://www.w3.org/2000/svg" width="73.152" height="47.898" viewBox="0 0 73.152 47.898">
  <g id="Group_1160" data-name="Group 1160" transform="translate(-585.375 -582)">
    <g id="Group_1159" data-name="Group 1159" transform="translate(585.375 582)">
      <path id="Path_1551" data-name="Path 1551" d="M618.3,629.9H591.362a5.988,5.988,0,0,1-5.987-5.987V592.478a1.5,1.5,0,0,1,.439-1.058l8.981-8.981a1.5,1.5,0,0,1,1.058-.439H618.3a5.988,5.988,0,0,1,5.987,5.987V623.91A5.988,5.988,0,0,1,618.3,629.9Zm-29.936-36.8V623.91a2.993,2.993,0,0,0,2.994,2.994H618.3a2.993,2.993,0,0,0,2.994-2.994V587.987a2.993,2.993,0,0,0-2.994-2.994H596.473Zm0,0" transform="translate(-585.375 -582)" fill="#202832"/>
      <path id="Path_1552" data-name="Path 1552" d="M595.119,597a1.5,1.5,0,1,1-1.5-1.5,1.5,1.5,0,0,1,1.5,1.5Zm0,0" transform="translate(-583.144 -577.538)" fill="#202832"/>
      <path id="Path_1553" data-name="Path 1553" d="M595.119,602.622a1.5,1.5,0,1,1-1.5-1.5,1.5,1.5,0,0,1,1.5,1.5Zm0,0" transform="translate(-583.144 -575.679)" fill="#202832"/>
      <path id="Path_1554" data-name="Path 1554" d="M595.119,608.247a1.5,1.5,0,1,1-1.5-1.5,1.5,1.5,0,0,1,1.5,1.5Zm0,0" transform="translate(-583.144 -573.82)" fill="#202832"/>
      <path id="Path_1555" data-name="Path 1555" d="M610.1,598.494H598.122a1.5,1.5,0,0,1,0-2.994H610.1a1.5,1.5,0,1,1,0,2.994Zm0,0" transform="translate(-581.657 -577.538)" fill="#202832"/>
      <path id="Path_1556" data-name="Path 1556" d="M610.1,604.119H598.122a1.5,1.5,0,0,1,0-2.994H610.1a1.5,1.5,0,1,1,0,2.994Zm0,0" transform="translate(-581.657 -575.679)" fill="#202832"/>
      <path id="Path_1557" data-name="Path 1557" d="M610.1,609.744H598.122a1.5,1.5,0,1,1,0-2.994H610.1a1.5,1.5,0,1,1,0,2.994Zm0,0" transform="translate(-581.657 -573.82)" fill="#202832"/>
    </g>
    <rect id="Rectangle_456" data-name="Rectangle 456" width="2.66" height="30.753" transform="matrix(0.627, -0.779, 0.779, 0.627, 607.991, 602.065)" fill="#202832"/>
    <path id="Path_1558" data-name="Path 1558" d="M646.966,621.088h-26.61V605.122h26.61Zm-23.949-2.661H644.3V607.783H623.017Z" transform="translate(11.561 7.642)" fill="#202832"/>
    <rect id="Rectangle_40" data-name="Rectangle 40" width="5.322" height="2.661" transform="translate(638.57 619.417)" fill="#202832"/>
    <rect id="Rectangle_41" data-name="Rectangle 41" width="5.322" height="2.661" transform="translate(647.883 619.417)" fill="#202832"/>
  </g>
</svg>
