<svg xmlns="http://www.w3.org/2000/svg" xmlns:xlink="http://www.w3.org/1999/xlink" width="34" height="34" viewBox="0 0 34 34">
  <defs>
    <linearGradient id="linear-gradient" x2="1" y2="1" gradientUnits="objectBoundingBox">
      <stop offset="0" stop-color="#ffcd81"/>
      <stop offset="0.788" stop-color="#ff901b"/>
      <stop offset="1" stop-color="#ff8000"/>
    </linearGradient>
    <filter id="Rectangle_1690" x="0" y="0" width="34" height="34" filterUnits="userSpaceOnUse">
      <feOffset dx="2" dy="2" input="SourceAlpha"/>
      <feGaussianBlur stdDeviation="1" result="blur"/>
      <feFlood flood-opacity="0.102"/>
      <feComposite operator="in" in2="blur"/>
      <feComposite in="SourceGraphic"/>
    </filter>
    <linearGradient id="linear-gradient-2" x2="1" y2="1" gradientUnits="objectBoundingBox">
      <stop offset="0" stop-color="#ffe99f"/>
      <stop offset="1" stop-color="#f90"/>
    </linearGradient>
  </defs>
  <g id="Group_2543" data-name="Group 2543" transform="translate(-1107 -173)">
    <g transform="matrix(1, 0, 0, 1, 1107, 173)" filter="url(#Rectangle_1690)">
      <rect id="Rectangle_1690-2" data-name="Rectangle 1690" width="28" height="28" transform="translate(1 1)" fill="url(#linear-gradient)"/>
    </g>
    <rect id="Rectangle_1693" data-name="Rectangle 1693" width="24" height="24" transform="translate(1110 176)" fill="url(#linear-gradient-2)"/>
    <g id="Group_2540" data-name="Group 2540" transform="translate(1114 180)">
      <path id="Path_1" data-name="Path 1" d="M1010.773,639.153l.558-.974h0l1-1.749-.086.069.189-.235c.021-.03.04-.058.06-.085l0-.006c.017-.023.034-.044.053-.065s.042-.05.065-.075l.006-.006v-.018l.029-.012.015-.015.014-.015a.608.608,0,0,1,.047-.045l.043-.039.017-.015c.017-.015.036-.03.054-.044l.036-.028.027-.02.051-.037a2.116,2.116,0,0,1,.244-.143l.058-.027.069-.03.006,0-1.43,0a1.833,1.833,0,0,0-1.568.9l-1.628,2.754-1.853,3.243q-.017.03-.037.059l-.011.016-.029.04-.015.019-.029.034-.018.019-.029.03-.02.019-.03.026-.022.018-.031.024-.024.017-.031.021-.025.016-.032.018-.014.008,1.147.008a1.811,1.811,0,0,0,1.582-.909l1.582-2.764Z" transform="translate(-1003.687 -626.864)" fill="#ff8305"/>
      <path id="Path_2" data-name="Path 2" d="M1022.717,635.542l-.069.03Z" transform="translate(-1013.074 -626.867)" fill="#ff8305"/>
      <path id="Path_3" data-name="Path 3" d="M1017.282,641.829l-.558.974h0l.558-.974Z" transform="translate(-1009.638 -630.514)" fill="#ff8305"/>
      <path id="Path_4" data-name="Path 4" d="M1022.175,635.522l-.773.012a1.813,1.813,0,0,0-.713.145l-.07.031a1.813,1.813,0,0,0-.513.363v0l-.018.013,0,0,0,0-.005.005-.016.017c-.019.021-.04.045-.061.069s-.031.037-.045.055l-.009.012c-.02.027-.039.053-.057.081l-.014.019c-.019.03-.041.063-.06.1l-.685,1.2a1.9,1.9,0,0,1,1.183-.416h4.239a.555.555,0,0,0,.481-.832,1.767,1.767,0,0,0-1.526-.88h0l-1.33,0Z" transform="translate(-1011.035 -626.854)" fill="#ff8305"/>
      <path id="Path_5" data-name="Path 5" d="M1024.536,635.538l.773-.012h0Z" transform="translate(-1014.169 -626.859)" fill="#ff8305"/>
      <path id="Path_6" data-name="Path 6" d="M1026.376,635.527Z" transform="translate(-1015.236 -626.859)" fill="#ff8305"/>
      <path id="Path_7" data-name="Path 7" d="M1026.375,635.527h0Z" transform="translate(-1015.235 -626.859)" fill="#ff8305"/>
      <path id="Path_8" data-name="Path 8" d="M1019.131,638.935h0l.685-1.2Z" transform="translate(-1011.035 -628.141)" fill="#ff8305"/>
      <path id="Path_9" data-name="Path 9" d="M1021.4,636.881l0,0h0Z" transform="translate(-1012.352 -627.643)" fill="#ff8305"/>
      <path id="Path_10" data-name="Path 10" d="M1021.41,636.861l.018-.013-.018.013Z" transform="translate(-1012.356 -627.625)" fill="#ff8305"/>
      <path id="Path_11" data-name="Path 11" d="M1021.406,636.856h0l.018-.013v0l-.012.011Z" transform="translate(-1012.354 -627.619)" fill="#ff8305"/>
      <path id="Path_12" data-name="Path 12" d="M1002.373,634.5l2.254-3.878h0l.937-1.637.824-1.439,0,0c.024-.042.05-.083.077-.122l.027-.038c.021-.029.042-.057.064-.085l.03-.037c.026-.031.054-.061.082-.09l.018-.019q.052-.052.108-.1l.029-.023c.029-.024.058-.047.088-.069l.037-.027c.031-.021.062-.042.094-.062l.031-.019c.042-.025.085-.048.129-.07l.025-.011q.054-.026.11-.048l.018-.008h-1.424a1.781,1.781,0,0,0-1.536.885l-4.3,7.417a1.784,1.784,0,0,0,1.529,2.679h.047l-.016-.011a.926.926,0,0,1-.079-.054l-.031-.025c-.021-.017-.041-.035-.06-.053l-.03-.03c-.019-.02-.037-.041-.054-.063l-.024-.029a1.081,1.081,0,0,1-.066-.1h0a1.013,1.013,0,0,1,0-1l1.047-1.806,0,0Z" transform="translate(-999.857 -621.746)" fill="#ff8305"/>
      <path id="Path_13" data-name="Path 13" d="M1005.826,645.285l0,0h0Z" transform="translate(-1003.317 -632.518)" fill="#ff8305"/>
      <path id="Path_14" data-name="Path 14" d="M1013.986,628.855a1.894,1.894,0,0,1,1.2-.428h4.261a.55.55,0,0,0,.476-.825,1.787,1.787,0,0,0-1.543-.891h-.586l-1.542,0h-.007a1.783,1.783,0,0,0-1.544.895h0Z" transform="translate(-1008.051 -621.746)" fill="#ff8305"/>
      <path id="Path_15" data-name="Path 15" d="M1020.917,626.711l-1.542,0,1.542,0Z" transform="translate(-1011.176 -621.746)" fill="#ff8305"/>
      <path id="Path_16" data-name="Path 16" d="M1004.149,649.115a.861.861,0,0,0,.776-.436l.829-1.451a.972.972,0,0,1-1.5-.807l-.811,1.4a.877.877,0,0,0-.053.766.829.829,0,0,0,.037.076c0,.009.008.019.013.028l.019.029c.01.016.02.033.031.048s.021.025.031.038.017.023.027.033.023.024.035.035.019.021.029.03l.038.031.033.026c.013.01.026.018.04.026s.023.016.036.024l.042.022.039.02.045.018.04.016.047.013.04.011Z" transform="translate(-1001.87 -633.177)" fill="#ff8305"/>
      <path id="Path_17" data-name="Path 17" d="M1004.961,652.824l.134,0-.134,0Z" transform="translate(-1002.817 -636.89)" fill="#ff8305"/>
      <path id="Path_18" data-name="Path 18" d="M1003.675,651.941c-.011-.016-.021-.032-.031-.048C1003.654,651.909,1003.664,651.926,1003.675,651.941Z" transform="translate(-1002.053 -636.35)" fill="#ff8305"/>
      <path id="Path_19" data-name="Path 19" d="M1004.307,652.556l-.036-.024Z" transform="translate(-1002.417 -636.72)" fill="#ff8305"/>
      <path id="Path_20" data-name="Path 20" d="M1004.131,652.432l-.033-.026Z" transform="translate(-1002.316 -636.647)" fill="#ff8305"/>
      <path id="Path_21" data-name="Path 21" d="M1003.818,652.132c-.01-.01-.018-.022-.027-.033C1003.8,652.11,1003.808,652.122,1003.818,652.132Z" transform="translate(-1002.138 -636.469)" fill="#ff8305"/>
      <path id="Path_22" data-name="Path 22" d="M1004.5,652.66l-.039-.02Z" transform="translate(-1002.525 -636.783)" fill="#ff8305"/>
      <path id="Path_23" data-name="Path 23" d="M1003.58,651.784h0c-.005-.009-.009-.019-.013-.028C1003.572,651.765,1003.575,651.775,1003.58,651.784Z" transform="translate(-1002.008 -636.27)" fill="#ff8305"/>
      <path id="Path_24" data-name="Path 24" d="M1004.866,652.8l.039.011h0Z" transform="translate(-1002.762 -636.875)" fill="#ff8305"/>
      <path id="Path_25" data-name="Path 25" d="M1003.445,649.752a.877.877,0,0,0-.053.766A.877.877,0,0,1,1003.445,649.752Z" transform="translate(-1001.87 -635.108)" fill="#ff8305"/>
      <path id="Path_26" data-name="Path 26" d="M1003.967,652.291c-.011-.009-.02-.02-.029-.03C1003.948,652.271,1003.957,652.282,1003.967,652.291Z" transform="translate(-1002.224 -636.563)" fill="#ff8305"/>
      <path id="Path_27" data-name="Path 27" d="M1004.7,652.745l-.04-.016Z" transform="translate(-1002.641 -636.835)" fill="#ff8305"/>
      <path id="Path_28" data-name="Path 28" d="M1004.959,652.824h0Z" transform="translate(-1002.815 -636.89)" fill="#ff8305"/>
      <path id="Path_29" data-name="Path 29" d="M1035.131,647.859h.009a.849.849,0,0,0,.736-1.274l-1.064-1.844a.86.86,0,0,0-.743-.428H1033a.241.241,0,0,0-.209.362l0,.008,1.045,1.829a.975.975,0,0,1-.076,1.085c-.008.011-.018.021-.027.031s-.034.04-.053.059-.024.021-.035.032-.035.032-.054.047-.027.02-.041.029-.037.026-.057.038l-.014.009Z" transform="translate(-1018.938 -631.953)" fill="#ff8305"/>
      <path id="Path_30" data-name="Path 30" d="M1027.979,648.847c.017,0,.034,0,.05-.008s.033-.009.05-.013l.046-.013.048-.02c.015-.006.029-.011.043-.018l.046-.025c.013-.008.028-.014.041-.023s.028-.02.043-.031.026-.017.037-.027.028-.025.042-.037l.031-.029c.015-.016.029-.032.042-.049s.016-.017.023-.026a.843.843,0,0,0,.063-.933l-.8-1.4a.99.99,0,0,1-.991.986h-.1a.826.826,0,0,1-.712-.41l-.005-.009-.2-.357h0c-.005-.009-.012-.018-.018-.027s-.02-.032-.031-.047-.017-.019-.025-.029-.021-.026-.032-.037-.021-.019-.032-.029-.021-.02-.033-.029-.026-.018-.04-.026l-.032-.022c-.015-.008-.03-.015-.045-.022l-.033-.016c-.016-.007-.033-.012-.05-.017l-.032-.011c-.019-.005-.039-.008-.059-.012l-.027-.005a.7.7,0,0,0-.089-.006h0a.67.67,0,0,0-.578.332l-.723,1.245a.64.64,0,0,1,.236-.049h.01a.649.649,0,0,1,.549.306,1.978,1.978,0,0,0,1.668.939l1.389.014h0l.143,0h.038Z" transform="translate(-1013.798 -632.97)" fill="#ff8305"/>
      <path id="Path_31" data-name="Path 31" d="M1033.068,652.7h.143l-.143,0Z" transform="translate(-1019.117 -636.818)" fill="#ff8305"/>
      <path id="Path_32" data-name="Path 32" d="M1033.785,652.636c-.017,0-.033.01-.05.013C1033.752,652.646,1033.768,652.641,1033.785,652.636Z" transform="translate(-1019.504 -636.781)" fill="#ff8305"/>
      <path id="Path_33" data-name="Path 33" d="M1033.5,652.694c.016,0,.031-.005.047-.007l-.049.007Z" transform="translate(-1019.367 -636.81)" fill="#ff8305"/>
      <path id="Path_34" data-name="Path 34" d="M1034.227,652.456l-.046.025Z" transform="translate(-1019.762 -636.676)" fill="#ff8305"/>
      <path id="Path_35" data-name="Path 35" d="M1034.794,651.991c-.014.016-.027.033-.042.049C1034.767,652.024,1034.781,652.007,1034.794,651.991Z" transform="translate(-1020.093 -636.407)" fill="#ff8305"/>
      <path id="Path_36" data-name="Path 36" d="M1034.62,652.176c-.014.013-.027.026-.042.037C1034.593,652.2,1034.606,652.189,1034.62,652.176Z" transform="translate(-1019.992 -636.514)" fill="#ff8305"/>
      <path id="Path_37" data-name="Path 37" d="M1034.011,652.558l-.048.02Z" transform="translate(-1019.636 -636.736)" fill="#ff8305"/>
      <path id="Path_38" data-name="Path 38" d="M1034.964,651.73a.855.855,0,0,1-.056.083A.855.855,0,0,0,1034.964,651.73Z" transform="translate(-1020.184 -636.255)" fill="#ff8305"/>
      <path id="Path_39" data-name="Path 39" d="M1034.43,652.329c-.014.01-.028.021-.043.031C1034.4,652.35,1034.416,652.339,1034.43,652.329Z" transform="translate(-1019.882 -636.603)" fill="#ff8305"/>
      <path id="Path_40" data-name="Path 40" d="M1020.744,644.312a1.832,1.832,0,0,0-1.581.912l-1.067,1.849a.535.535,0,0,0,.463.8h.033a1.776,1.776,0,0,0,1.532-.885l.055-.094h0l.92-1.582a.8.8,0,0,1,.694-.4h0a.754.754,0,0,1,.1.007l.03.005c.022,0,.045.008.066.013l.033.009.062.021.029.011.013.005A1.753,1.753,0,0,0,1020.744,644.312Z" transform="translate(-1010.393 -631.953)" fill="#ff8305"/>
      <path id="Path_41" data-name="Path 41" d="M1027.49,645.816l-.033-.009Z" transform="translate(-1015.863 -632.82)" fill="#ff8305"/>
      <path id="Path_42" data-name="Path 42" d="M1027.259,645.768l-.03-.005Z" transform="translate(-1015.731 -632.795)" fill="#ff8305"/>
      <path id="Path_43" data-name="Path 43" d="M1027.712,645.89l-.029-.011Z" transform="translate(-1015.994 -632.862)" fill="#ff8305"/>
      <path id="Path_44" data-name="Path 44" d="M1023.153,648.279l0-.005.916-1.577-.919,1.582Z" transform="translate(-1013.367 -633.336)" fill="#ff8305"/>
      <path id="Path_45" data-name="Path 45" d="M1015.957,617.875h2.261a.513.513,0,0,0,.444-.77l-1.13-1.957a.513.513,0,0,0-.888,0l-1.131,1.957a.513.513,0,0,0,.444.77Z" transform="translate(-1008.896 -614.892)" fill="#ff8305"/>
    </g>
    <g id="Group_2541" data-name="Group 2541" transform="translate(1113.3 179.3)">
      <path id="Path_1-2" data-name="Path 1" d="M1010.773,639.153l.558-.974h0l1-1.749-.086.069.189-.235c.021-.03.04-.058.06-.085l0-.006c.017-.023.034-.044.053-.065s.042-.05.065-.075l.006-.006v-.018l.029-.012.015-.015.014-.015a.608.608,0,0,1,.047-.045l.043-.039.017-.015c.017-.015.036-.03.054-.044l.036-.028.027-.02.051-.037a2.116,2.116,0,0,1,.244-.143l.058-.027.069-.03.006,0-1.43,0a1.833,1.833,0,0,0-1.568.9l-1.628,2.754-1.853,3.243q-.017.03-.037.059l-.011.016-.029.04-.015.019-.029.034-.018.019-.029.03-.02.019-.03.026-.022.018-.031.024-.024.017-.031.021-.025.016-.032.018-.014.008,1.147.008a1.811,1.811,0,0,0,1.582-.909l1.582-2.764Z" transform="translate(-1003.687 -626.864)" fill="#fff"/>
      <path id="Path_2-2" data-name="Path 2" d="M1022.717,635.542l-.069.03Z" transform="translate(-1013.074 -626.867)" fill="#fff"/>
      <path id="Path_3-2" data-name="Path 3" d="M1017.282,641.829l-.558.974h0l.558-.974Z" transform="translate(-1009.638 -630.514)" fill="#fff"/>
      <path id="Path_4-2" data-name="Path 4" d="M1022.175,635.522l-.773.012a1.813,1.813,0,0,0-.713.145l-.07.031a1.813,1.813,0,0,0-.513.363v0l-.018.013,0,0,0,0-.005.005-.016.017c-.019.021-.04.045-.061.069s-.031.037-.045.055l-.009.012c-.02.027-.039.053-.057.081l-.014.019c-.019.03-.041.063-.06.1l-.685,1.2a1.9,1.9,0,0,1,1.183-.416h4.239a.555.555,0,0,0,.481-.832,1.767,1.767,0,0,0-1.526-.88h0l-1.33,0Z" transform="translate(-1011.035 -626.854)" fill="#fff"/>
      <path id="Path_5-2" data-name="Path 5" d="M1024.536,635.538l.773-.012h0Z" transform="translate(-1014.169 -626.859)" fill="#fff"/>
      <path id="Path_6-2" data-name="Path 6" d="M1026.376,635.527Z" transform="translate(-1015.236 -626.859)" fill="#fff"/>
      <path id="Path_7-2" data-name="Path 7" d="M1026.375,635.527h0Z" transform="translate(-1015.235 -626.859)" fill="#fff"/>
      <path id="Path_8-2" data-name="Path 8" d="M1019.131,638.935h0l.685-1.2Z" transform="translate(-1011.035 -628.141)" fill="#fff"/>
      <path id="Path_9-2" data-name="Path 9" d="M1021.4,636.881l0,0h0Z" transform="translate(-1012.352 -627.643)" fill="#fff"/>
      <path id="Path_10-2" data-name="Path 10" d="M1021.41,636.861l.018-.013-.018.013Z" transform="translate(-1012.356 -627.625)" fill="#fff"/>
      <path id="Path_11-2" data-name="Path 11" d="M1021.406,636.856h0l.018-.013v0l-.012.011Z" transform="translate(-1012.354 -627.619)" fill="#fff"/>
      <path id="Path_12-2" data-name="Path 12" d="M1002.373,634.5l2.254-3.878h0l.937-1.637.824-1.439,0,0c.024-.042.05-.083.077-.122l.027-.038c.021-.029.042-.057.064-.085l.03-.037c.026-.031.054-.061.082-.09l.018-.019q.052-.052.108-.1l.029-.023c.029-.024.058-.047.088-.069l.037-.027c.031-.021.062-.042.094-.062l.031-.019c.042-.025.085-.048.129-.07l.025-.011q.054-.026.11-.048l.018-.008h-1.424a1.781,1.781,0,0,0-1.536.885l-4.3,7.417a1.784,1.784,0,0,0,1.529,2.679h.047l-.016-.011a.926.926,0,0,1-.079-.054l-.031-.025c-.021-.017-.041-.035-.06-.053l-.03-.03c-.019-.02-.037-.041-.054-.063l-.024-.029a1.081,1.081,0,0,1-.066-.1h0a1.013,1.013,0,0,1,0-1l1.047-1.806,0,0Z" transform="translate(-999.857 -621.746)" fill="#fff"/>
      <path id="Path_13-2" data-name="Path 13" d="M1005.826,645.285l0,0h0Z" transform="translate(-1003.317 -632.518)" fill="#fff"/>
      <path id="Path_14-2" data-name="Path 14" d="M1013.986,628.855a1.894,1.894,0,0,1,1.2-.428h4.261a.55.55,0,0,0,.476-.825,1.787,1.787,0,0,0-1.543-.891h-.586l-1.542,0h-.007a1.783,1.783,0,0,0-1.544.895h0Z" transform="translate(-1008.051 -621.746)" fill="#fff"/>
      <path id="Path_15-2" data-name="Path 15" d="M1020.917,626.711l-1.542,0,1.542,0Z" transform="translate(-1011.176 -621.746)" fill="#fff"/>
      <path id="Path_16-2" data-name="Path 16" d="M1004.149,649.115a.861.861,0,0,0,.776-.436l.829-1.451a.972.972,0,0,1-1.5-.807l-.811,1.4a.877.877,0,0,0-.053.766.829.829,0,0,0,.037.076c0,.009.008.019.013.028l.019.029c.01.016.02.033.031.048s.021.025.031.038.017.023.027.033.023.024.035.035.019.021.029.03l.038.031.033.026c.013.01.026.018.04.026s.023.016.036.024l.042.022.039.02.045.018.04.016.047.013.04.011Z" transform="translate(-1001.87 -633.177)" fill="#fff"/>
      <path id="Path_17-2" data-name="Path 17" d="M1004.961,652.824l.134,0-.134,0Z" transform="translate(-1002.817 -636.89)" fill="#fff"/>
      <path id="Path_18-2" data-name="Path 18" d="M1003.675,651.941c-.011-.016-.021-.032-.031-.048C1003.654,651.909,1003.664,651.926,1003.675,651.941Z" transform="translate(-1002.053 -636.35)" fill="#fff"/>
      <path id="Path_19-2" data-name="Path 19" d="M1004.307,652.556l-.036-.024Z" transform="translate(-1002.417 -636.72)" fill="#fff"/>
      <path id="Path_20-2" data-name="Path 20" d="M1004.131,652.432l-.033-.026Z" transform="translate(-1002.316 -636.647)" fill="#fff"/>
      <path id="Path_21-2" data-name="Path 21" d="M1003.818,652.132c-.01-.01-.018-.022-.027-.033C1003.8,652.11,1003.808,652.122,1003.818,652.132Z" transform="translate(-1002.138 -636.469)" fill="#fff"/>
      <path id="Path_22-2" data-name="Path 22" d="M1004.5,652.66l-.039-.02Z" transform="translate(-1002.525 -636.783)" fill="#fff"/>
      <path id="Path_23-2" data-name="Path 23" d="M1003.58,651.784h0c-.005-.009-.009-.019-.013-.028C1003.572,651.765,1003.575,651.775,1003.58,651.784Z" transform="translate(-1002.008 -636.27)" fill="#fff"/>
      <path id="Path_24-2" data-name="Path 24" d="M1004.866,652.8l.039.011h0Z" transform="translate(-1002.762 -636.875)" fill="#fff"/>
      <path id="Path_25-2" data-name="Path 25" d="M1003.445,649.752a.877.877,0,0,0-.053.766A.877.877,0,0,1,1003.445,649.752Z" transform="translate(-1001.87 -635.108)" fill="#fff"/>
      <path id="Path_26-2" data-name="Path 26" d="M1003.967,652.291c-.011-.009-.02-.02-.029-.03C1003.948,652.271,1003.957,652.282,1003.967,652.291Z" transform="translate(-1002.224 -636.563)" fill="#fff"/>
      <path id="Path_27-2" data-name="Path 27" d="M1004.7,652.745l-.04-.016Z" transform="translate(-1002.641 -636.835)" fill="#fff"/>
      <path id="Path_28-2" data-name="Path 28" d="M1004.959,652.824h0Z" transform="translate(-1002.815 -636.89)" fill="#fff"/>
      <path id="Path_29-2" data-name="Path 29" d="M1035.131,647.859h.009a.849.849,0,0,0,.736-1.274l-1.064-1.844a.86.86,0,0,0-.743-.428H1033a.241.241,0,0,0-.209.362l0,.008,1.045,1.829a.975.975,0,0,1-.076,1.085c-.008.011-.018.021-.027.031s-.034.04-.053.059-.024.021-.035.032-.035.032-.054.047-.027.02-.041.029-.037.026-.057.038l-.014.009Z" transform="translate(-1018.938 -631.953)" fill="#fff"/>
      <path id="Path_30-2" data-name="Path 30" d="M1027.979,648.847c.017,0,.034,0,.05-.008s.033-.009.05-.013l.046-.013.048-.02c.015-.006.029-.011.043-.018l.046-.025c.013-.008.028-.014.041-.023s.028-.02.043-.031.026-.017.037-.027.028-.025.042-.037l.031-.029c.015-.016.029-.032.042-.049s.016-.017.023-.026a.843.843,0,0,0,.063-.933l-.8-1.4a.99.99,0,0,1-.991.986h-.1a.826.826,0,0,1-.712-.41l-.005-.009-.2-.357h0c-.005-.009-.012-.018-.018-.027s-.02-.032-.031-.047-.017-.019-.025-.029-.021-.026-.032-.037-.021-.019-.032-.029-.021-.02-.033-.029-.026-.018-.04-.026l-.032-.022c-.015-.008-.03-.015-.045-.022l-.033-.016c-.016-.007-.033-.012-.05-.017l-.032-.011c-.019-.005-.039-.008-.059-.012l-.027-.005a.7.7,0,0,0-.089-.006h0a.67.67,0,0,0-.578.332l-.723,1.245a.64.64,0,0,1,.236-.049h.01a.649.649,0,0,1,.549.306,1.978,1.978,0,0,0,1.668.939l1.389.014h0l.143,0h.038Z" transform="translate(-1013.798 -632.97)" fill="#fff"/>
      <path id="Path_31-2" data-name="Path 31" d="M1033.068,652.7h.143l-.143,0Z" transform="translate(-1019.117 -636.818)" fill="#fff"/>
      <path id="Path_32-2" data-name="Path 32" d="M1033.785,652.636c-.017,0-.033.01-.05.013C1033.752,652.646,1033.768,652.641,1033.785,652.636Z" transform="translate(-1019.504 -636.781)" fill="#fff"/>
      <path id="Path_33-2" data-name="Path 33" d="M1033.5,652.694c.016,0,.031-.005.047-.007l-.049.007Z" transform="translate(-1019.367 -636.81)" fill="#fff"/>
      <path id="Path_34-2" data-name="Path 34" d="M1034.227,652.456l-.046.025Z" transform="translate(-1019.762 -636.676)" fill="#fff"/>
      <path id="Path_35-2" data-name="Path 35" d="M1034.794,651.991c-.014.016-.027.033-.042.049C1034.767,652.024,1034.781,652.007,1034.794,651.991Z" transform="translate(-1020.093 -636.407)" fill="#fff"/>
      <path id="Path_36-2" data-name="Path 36" d="M1034.62,652.176c-.014.013-.027.026-.042.037C1034.593,652.2,1034.606,652.189,1034.62,652.176Z" transform="translate(-1019.992 -636.514)" fill="#fff"/>
      <path id="Path_37-2" data-name="Path 37" d="M1034.011,652.558l-.048.02Z" transform="translate(-1019.636 -636.736)" fill="#fff"/>
      <path id="Path_38-2" data-name="Path 38" d="M1034.964,651.73a.855.855,0,0,1-.056.083A.855.855,0,0,0,1034.964,651.73Z" transform="translate(-1020.184 -636.255)" fill="#fff"/>
      <path id="Path_39-2" data-name="Path 39" d="M1034.43,652.329c-.014.01-.028.021-.043.031C1034.4,652.35,1034.416,652.339,1034.43,652.329Z" transform="translate(-1019.882 -636.603)" fill="#fff"/>
      <path id="Path_40-2" data-name="Path 40" d="M1020.744,644.312a1.832,1.832,0,0,0-1.581.912l-1.067,1.849a.535.535,0,0,0,.463.8h.033a1.776,1.776,0,0,0,1.532-.885l.055-.094h0l.92-1.582a.8.8,0,0,1,.694-.4h0a.754.754,0,0,1,.1.007l.03.005c.022,0,.045.008.066.013l.033.009.062.021.029.011.013.005A1.753,1.753,0,0,0,1020.744,644.312Z" transform="translate(-1010.393 -631.953)" fill="#fff"/>
      <path id="Path_41-2" data-name="Path 41" d="M1027.49,645.816l-.033-.009Z" transform="translate(-1015.863 -632.82)" fill="#fff"/>
      <path id="Path_42-2" data-name="Path 42" d="M1027.259,645.768l-.03-.005Z" transform="translate(-1015.731 -632.795)" fill="#fff"/>
      <path id="Path_43-2" data-name="Path 43" d="M1027.712,645.89l-.029-.011Z" transform="translate(-1015.994 -632.862)" fill="#fff"/>
      <path id="Path_44-2" data-name="Path 44" d="M1023.153,648.279l0-.005.916-1.577-.919,1.582Z" transform="translate(-1013.367 -633.336)" fill="#fff"/>
      <path id="Path_45-2" data-name="Path 45" d="M1015.957,617.875h2.261a.513.513,0,0,0,.444-.77l-1.13-1.957a.513.513,0,0,0-.888,0l-1.131,1.957a.513.513,0,0,0,.444.77Z" transform="translate(-1008.896 -614.892)" fill="#fff"/>
    </g>
  </g>
</svg>
