<svg xmlns="http://www.w3.org/2000/svg" width="44.8" height="56" viewBox="0 0 44.8 56">
  <g id="Group_3369" data-name="Group 3369" transform="translate(-461.6 -202)">
    <path id="Path_4964" data-name="Path 4964" d="M496.658,232.4a4.658,4.658,0,1,0,4.658,4.658,4.658,4.658,0,0,0-4.658-4.658Zm0,7.453a2.795,2.795,0,1,1,2.795-2.795,2.795,2.795,0,0,1-2.795,2.795Zm0,0" transform="translate(-12.658 -12.66)" fill="#007ce1"/>
    <g id="Group_3415" data-name="Group 3415">
      <rect id="Rectangle_2259" data-name="Rectangle 2259" width="1.863" height="3.726" transform="translate(483.068 202)" fill="#fff"/>
      <path id="Path_4958" data-name="Path 4958" d="M471.715,213.432l1.317-1.318,2.635,2.635-1.318,1.317Zm0,0" transform="translate(-4.226 -4.226)" fill="#fff"/>
      <rect id="Rectangle_2260" data-name="Rectangle 2260" width="3.726" height="1.863" transform="translate(461.6 223.468)" fill="#fff"/>
      <path id="Path_4959" data-name="Path 4959" d="M471.715,264.533l2.635-2.635,1.317,1.317-2.635,2.635Zm0,0" transform="translate(-4.226 -24.952)" fill="#fff"/>
      <path id="Path_4960" data-name="Path 4960" d="M521.5,263.213l1.318-1.318,2.635,2.635-1.317,1.318Zm0,0" transform="translate(-24.938 -24.951)" fill="#fff"/>
      <rect id="Rectangle_2261" data-name="Rectangle 2261" width="3.726" height="1.863" transform="translate(502.674 223.468)" fill="#fff"/>
      <path id="Path_4961" data-name="Path 4961" d="M521.5,214.751l2.635-2.635,1.318,1.318-2.635,2.635Zm0,0" transform="translate(-24.938 -4.227)" fill="#fff"/>
      <path id="Path_4962" data-name="Path 4962" d="M488.01,211.6A16.827,16.827,0,0,0,471.2,228.4a16.641,16.641,0,0,0,6.537,13.283v3.521H475.87a.933.933,0,0,0-.934.934v3.734a.933.933,0,0,0,.934.934h1.868v4.668a.933.933,0,0,0,.934.934h4.67v4.668a.933.933,0,0,0,.934.934h7.471a.933.933,0,0,0,.934-.934v-4.668h4.67a.933.933,0,0,0,.934-.934v-4.668h1.868a.933.933,0,0,0,.934-.934v-3.734a.934.934,0,0,0-.934-.934h-1.868v-3.521a16.641,16.641,0,0,0,6.537-13.283,16.827,16.827,0,0,0-16.811-16.8Zm2.8,48.543h-5.6v-3.734h5.6Zm5.6-5.6H479.605v-3.734h16.811Zm2.8-5.6H476.8v-1.867h22.414Zm-2.419-8.474a.933.933,0,0,0-.383.753v3.986H479.605v-3.986a.933.933,0,0,0-.383-.753,14.941,14.941,0,1,1,17.576,0Zm0,0" transform="translate(-4.01 -4.011)" fill="#fff"/>
      <path id="Path_4963" data-name="Path 4963" d="M501.963,230.253h-1.418q-.148-.415-.337-.813l1-1a.931.931,0,0,0,0-1.317l-2.635-2.635a.931.931,0,0,0-1.317,0l-1,1q-.4-.189-.813-.337v-1.418a.931.931,0,0,0-.932-.932h-3.726a.931.931,0,0,0-.932.932v1.418q-.415.148-.813.337l-1-1a.931.931,0,0,0-1.317,0l-2.635,2.635a.931.931,0,0,0,0,1.317l1,1q-.189.4-.337.813h-1.418a.931.931,0,0,0-.932.932v3.726a.931.931,0,0,0,.932.932h1.418q.148.415.337.813l-1,1a.931.931,0,0,0,0,1.317l2.635,2.635a.931.931,0,0,0,1.317,0l1-1q.4.189.813.337v1.418a.931.931,0,0,0,.932.932h3.726a.931.931,0,0,0,.932-.932v-1.418q.415-.148.813-.337l1,1a.931.931,0,0,0,1.317,0l2.635-2.635a.931.931,0,0,0,0-1.317l-1-1q.189-.4.337-.813h1.418a.931.931,0,0,0,.932-.932v-3.726a.931.931,0,0,0-.932-.932Zm-.932,3.726h-1.176a.932.932,0,0,0-.9.7,6.511,6.511,0,0,1-.694,1.677.932.932,0,0,0,.144,1.133l.83.831-1.316,1.317-.831-.831a.932.932,0,0,0-1.133-.144,6.5,6.5,0,0,1-1.677.695.931.931,0,0,0-.7.9v1.175h-1.862v-1.176a.932.932,0,0,0-.7-.9,6.511,6.511,0,0,1-1.677-.694.932.932,0,0,0-1.133.144l-.831.83-1.317-1.316.831-.831a.932.932,0,0,0,.144-1.133,6.5,6.5,0,0,1-.695-1.677.931.931,0,0,0-.9-.7h-1.175v-1.862h1.176a.932.932,0,0,0,.9-.7,6.511,6.511,0,0,1,.694-1.677.932.932,0,0,0-.144-1.133l-.83-.831,1.316-1.317.831.831a.932.932,0,0,0,1.133.144,6.505,6.505,0,0,1,1.677-.695.931.931,0,0,0,.7-.9v-1.175h1.863v1.176a.931.931,0,0,0,.7.9,6.507,6.507,0,0,1,1.676.694.932.932,0,0,0,1.133-.144l.831-.83,1.317,1.316-.831.831a.932.932,0,0,0-.144,1.133,6.5,6.5,0,0,1,.694,1.677.932.932,0,0,0,.9.7h1.174Zm0,0" transform="translate(-8.647 -8.653)" fill="#fff"/>
      <rect id="Rectangle_2262" data-name="Rectangle 2262" width="1.863" height="1.863" transform="translate(477.468 237.469)" fill="#fff"/>
      <rect id="Rectangle_2263" data-name="Rectangle 2263" width="1.863" height="1.863" transform="translate(481.202 237.469)" fill="#fff"/>
      <rect id="Rectangle_2264" data-name="Rectangle 2264" width="1.863" height="1.863" transform="translate(484.936 237.469)" fill="#fff"/>
      <rect id="Rectangle_2265" data-name="Rectangle 2265" width="1.863" height="1.863" transform="translate(488.669 237.469)" fill="#fff"/>
    </g>
  </g>
</svg>
