<svg xmlns="http://www.w3.org/2000/svg" width="48.059" height="48.059" viewBox="0 0 48.059 48.059">
  <g id="Group_1155" data-name="Group 1155" transform="translate(-596 -537)">
    <path id="Path_1539" data-name="Path 1539" d="M642.154,546.657a10.789,10.789,0,0,0-1.136-2.731l.9-1.8-2.982-2.984-1.8.9a10.7,10.7,0,0,0-2.733-1.136L633.766,537h-4.218l-.635,1.906a10.7,10.7,0,0,0-2.733,1.136l-1.8-.9-2.982,2.982.9,1.8a10.752,10.752,0,0,0-1.136,2.733l-1.906.635V549.4H599.875A3.88,3.88,0,0,0,596,553.279v23.254a3.879,3.879,0,0,0,3.875,3.875h10.078v3.1h-3.1v1.55h26.355v-1.55h-3.1v-3.1h10.078a3.879,3.879,0,0,0,3.875-3.875v-29.24Zm-13.6,36.852H611.5v-3.1h17.053Zm11.627-4.651H599.875a2.329,2.329,0,0,1-2.326-2.326v-.776h44.959v.776a2.329,2.329,0,0,1-2.326,2.326Zm2.326-4.651H597.55V553.279a2.328,2.328,0,0,1,2.326-2.325h19.378v.558l1.906.635a10.7,10.7,0,0,0,1.136,2.733l-.9,1.8,2.982,2.982,1.8-.9a10.76,10.76,0,0,0,2.734,1.136l.635,1.906h4.217l.635-1.906a10.684,10.684,0,0,0,2.733-1.136l1.8.9,2.984-2.982-.9-1.8a10.8,10.8,0,0,0,1.136-2.733l.356-.117Zm0-23.813-1.673.558-.093.431a9.267,9.267,0,0,1-1.264,3.04l-.238.371.792,1.581-1.4,1.4-1.582-.792-.371.239a9.215,9.215,0,0,1-3.038,1.263l-.431.093-.559,1.673h-1.982l-.559-1.673-.431-.093a9.216,9.216,0,0,1-3.038-1.263l-.371-.239-1.582.792-1.4-1.4.792-1.581-.239-.371a9.207,9.207,0,0,1-1.263-3.04l-.093-.431-1.673-.558V548.41l1.673-.558.093-.431a9.235,9.235,0,0,1,1.263-3.04l.239-.371-.792-1.581,1.4-1.4,1.582.792.371-.239a9.229,9.229,0,0,1,3.038-1.263l.431-.093.559-1.673h1.984l.558,1.673.431.093a9.247,9.247,0,0,1,3.038,1.264l.371.239,1.582-.792,1.4,1.4-.792,1.582.238.371a9.213,9.213,0,0,1,1.264,3.04l.093.431,1.673.558Zm0,0" fill="#202832"/>
    <path id="Path_1540" data-name="Path 1540" d="M624.655,540.484a7.751,7.751,0,1,0,7.751,7.751,7.761,7.761,0,0,0-7.751-7.751Zm0,13.952a6.2,6.2,0,1,1,6.2-6.2,6.207,6.207,0,0,1-6.2,6.2Zm0,0" transform="translate(7.002 1.167)" fill="#202832"/>
    <path id="Path_1541" data-name="Path 1541" d="M623.488,543.968a3.1,3.1,0,1,0,3.1,3.1,3.1,3.1,0,0,0-3.1-3.1Zm0,4.651a1.551,1.551,0,1,1,1.55-1.551,1.553,1.553,0,0,1-1.55,1.551Zm0,0" transform="translate(8.169 2.334)" fill="#202832"/>
    <path id="Path_1542" data-name="Path 1542" d="M599.873,551.518v.776a1.551,1.551,0,0,1-1.55,1.55v1.551a1.552,1.552,0,0,1,1.55,1.55v.776a2.329,2.329,0,0,0,2.325,2.326h.774v-1.551H602.2a.776.776,0,0,1-.776-.774v-.776a3.1,3.1,0,0,1,0-4.651v-.776a.776.776,0,0,1,.776-.774h.774v-1.55H602.2a2.328,2.328,0,0,0-2.325,2.324Zm0,0" transform="translate(0.778 4.085)" fill="#202832"/>
    <path id="Path_1543" data-name="Path 1543" d="M618.262,557.52v-.776a2.329,2.329,0,0,0-2.326-2.325h-.776v1.551h.776a.776.776,0,0,1,.776.774v.776a3.1,3.1,0,0,1,0,4.651v.774a.776.776,0,0,1-.776.776h-.776v1.55h.776a2.328,2.328,0,0,0,2.326-2.325v-.774a1.551,1.551,0,0,1,1.55-1.55V559.07a1.552,1.552,0,0,1-1.55-1.55Zm0,0" transform="translate(6.418 5.835)" fill="#202832"/>
    <rect id="Rectangle_443" data-name="Rectangle 443" width="14.728" height="1.55" transform="translate(605.302 554.053)" fill="#202832"/>
    <rect id="Rectangle_444" data-name="Rectangle 444" width="11.627" height="1.55" transform="translate(608.402 557.154)" fill="#202832"/>
    <rect id="Rectangle_445" data-name="Rectangle 445" width="1.55" height="1.55" transform="translate(605.302 557.154)" fill="#202832"/>
    <rect id="Rectangle_446" data-name="Rectangle 446" width="14.728" height="1.55" transform="translate(605.302 560.254)" fill="#202832"/>
    <rect id="Rectangle_447" data-name="Rectangle 447" width="14.728" height="1.55" transform="translate(605.302 563.355)" fill="#202832"/>
    <rect id="Rectangle_448" data-name="Rectangle 448" width="1.55" height="1.55" transform="translate(618.479 566.455)" fill="#202832"/>
    <rect id="Rectangle_449" data-name="Rectangle 449" width="11.627" height="1.55" transform="translate(605.302 566.455)" fill="#202832"/>
    <rect id="Rectangle_450" data-name="Rectangle 450" width="14.728" height="1.55" transform="translate(605.302 569.556)" fill="#202832"/>
  </g>
</svg>
