<svg id="Layer_1" data-name="Layer 1" xmlns="http://www.w3.org/2000/svg" viewBox="0 0 100.54 96"><path d="M431.67,843h-45a1.5,1.5,0,0,0,0,3h45a1.5,1.5,0,1,0,0-3Zm0,0" transform="translate(-372.99 -804)"/><path d="M431.67,831h-45a1.5,1.5,0,0,0,0,3h45a1.5,1.5,0,1,0,0-3Zm0,0" transform="translate(-372.99 -804)"/><path d="M431.67,855h-45a1.5,1.5,0,0,0,0,3h45a1.5,1.5,0,1,0,0-3Zm0,0" transform="translate(-372.99 -804)"/><path d="M431.67,867h-45a1.5,1.5,0,0,0,0,3h45a1.5,1.5,0,1,0,0-3Zm0,0" transform="translate(-372.99 -804)"/><path d="M419.67,879h-33a1.5,1.5,0,1,0,0,3h33a1.5,1.5,0,1,0,0-3Zm0,0" transform="translate(-372.99 -804)"/><path d="M442,892.32v.18a4.51,4.51,0,0,1-4.5,4.5h-57a4.51,4.51,0,0,1-4.5-4.5v-81a4.51,4.51,0,0,1,4.5-4.5H424v16.5a1.5,1.5,0,0,0,1.5,1.5H442v26.7h3c0-31.1,0-28.61-.29-29.06-.12-.18-18.17-18.23-18.35-18.36-.58-.42,2.1-.28-45.86-.28a7.52,7.52,0,0,0-7.5,7.5v81a7.51,7.51,0,0,0,7.5,7.5h57a7.5,7.5,0,0,0,7.5-7.5v-.18Zm-15-83.18L439.86,822H427Z" transform="translate(-372.99 -804)"/><path d="M468.85,870.82A1.15,1.15,0,0,0,467.7,872v13.58H439.25V857.1H462.1a1.16,1.16,0,1,0,0-2.31h-24a1.16,1.16,0,0,0-1.16,1.16V886.7a1.16,1.16,0,0,0,1.16,1.16h30.75A1.16,1.16,0,0,0,470,886.7V872a1.16,1.16,0,0,0-1.16-1.15Zm0,0" transform="translate(-372.99 -804)" style="fill:#3678bd"/><path d="M473.19,855.55a1.16,1.16,0,0,0-1.64,0l-18.86,18.87L448,869.73a1.16,1.16,0,1,0-1.64,1.64l5.51,5.5a1.13,1.13,0,0,0,.82.34,1.16,1.16,0,0,0,.82-.34l19.68-19.68a1.16,1.16,0,0,0,0-1.64Zm0,0" transform="translate(-372.99 -804)" style="fill:#3678bd"/></svg>