<svg xmlns="http://www.w3.org/2000/svg" width="85.694" height="96" viewBox="0 0 85.694 96">
  <g id="Group_3407" data-name="Group 3407" transform="translate(-215.905 -208)">
    <path id="Path_5022" data-name="Path 5022" d="M294.023,219.631A34.115,34.115,0,0,0,267.895,208H257.88a33.659,33.659,0,0,0-14.773,3.219,33.165,33.165,0,0,0-18.952,30.048,12.933,12.933,0,0,1-4.877,10.148l-3.373,2.7.753,1.175a90.188,90.188,0,0,1,11.427,26.2l.483,1.872a10.878,10.878,0,0,0,5.682,7.185,10.664,10.664,0,0,0,9.71-.222l22.762-12.845-1.522-2.7-22.737,12.832a7.557,7.557,0,0,1-6.867.144,7.788,7.788,0,0,1-4.03-5.17l-.484-1.872c-.128-.5-.277-.991-.413-1.488h4.325v-3.1H229.76a93.151,93.151,0,0,0-9.752-21.332l1.2-.962a16.015,16.015,0,0,0,6.042-12.568,30.09,30.09,0,0,1,17.2-27.259A30.617,30.617,0,0,1,257.88,211.1h10.015c.391,0,.776.017,1.163.029v4.616h3.1v-4.367a30.521,30.521,0,0,1,19.511,10.266,29.031,29.031,0,0,1,6.428,23.816,29.44,29.44,0,0,1-3.969,10.8c-8.3,13.534-12.68,28.3-12.68,42.7V300.9h-9.29V271.484h-3.1V300.9H253.574V288.516h-3.1V304h34.064v-5.043c0-13.83,4.227-28.037,12.223-41.087a32.48,32.48,0,0,0,4.387-11.927A32.077,32.077,0,0,0,294.023,219.631Z" fill="#202832"/>
    <rect id="Rectangle_2314" data-name="Rectangle 2314" width="9.29" height="3.097" transform="translate(231.897 246.71)" fill="#202832"/>
    <path id="Path_5023" data-name="Path 5023" d="M279.9,240.516a9.29,9.29,0,1,0-9.29,9.29A9.3,9.3,0,0,0,279.9,240.516Zm-9.29,6.194a6.194,6.194,0,1,1,6.193-6.194A6.2,6.2,0,0,1,270.607,246.71Z" fill="#202832"/>
    <path id="Path_5024" data-name="Path 5024" d="M263.369,257.613l.265.109,1.118,4.472h11.709l1.118-4.472c.09-.036.177-.073.265-.109l3.953,2.369,8.277-8.277-2.37-3.953c.037-.09.074-.177.11-.265l4.47-1.116V234.662l-4.47-1.118q-.211-.521-.457-1.035l-2.795,1.334a14.951,14.951,0,0,1,.63,1.52l.278.787,3.717.93v6.872l-3.717.931-.278.786a14.732,14.732,0,0,1-.63,1.518l-.359.749,1.971,3.289-4.859,4.86-3.287-1.971-.751.359a15.368,15.368,0,0,1-1.52.63l-.785.278-.93,3.716h-6.871l-.929-3.716-.784-.278a15.368,15.368,0,0,1-1.52-.63l-.751-.359-3.287,1.971-5.714-5.713L252,252.561l7.423,7.423Z" fill="#202832"/>
    <path id="Path_5025" data-name="Path 5025" d="M248.929,234.662v11.709l4.47,1.118c.141.348.295.693.459,1.034l2.793-1.336a15.536,15.536,0,0,1-.63-1.518l-.277-.786-3.718-.931V237.08l3.718-.93.277-.787a15.192,15.192,0,0,1,.63-1.52l.358-.75-1.971-3.286,4.858-4.86,3.288,1.971.751-.359a15.617,15.617,0,0,1,1.52-.63l.784-.277.929-3.717h6.871l.929,3.717.784.277a15.617,15.617,0,0,1,1.52.63l.751.359,3.288-1.971,5.713,5.714,2.19-2.19-7.423-7.423-3.953,2.369c-.089-.035-.177-.072-.265-.108l-1.112-4.47H264.752l-1.118,4.471c-.09.036-.176.073-.265.109l-3.953-2.369-8.277,8.277,2.37,3.954c-.037.088-.074.176-.11.264Z" fill="#202832"/>
    <rect id="Rectangle_2315" data-name="Rectangle 2315" width="3.097" height="3.097" transform="translate(269.058 225.032)" fill="#202832"/>
    <rect id="Rectangle_2316" data-name="Rectangle 2316" width="3.097" height="3.097" transform="translate(258.564 230.664) rotate(-45.008)" fill="#202832"/>
    <rect id="Rectangle_2317" data-name="Rectangle 2317" width="3.097" height="3.097" transform="translate(255.123 238.968)" fill="#202832"/>
    <rect id="Rectangle_2318" data-name="Rectangle 2318" width="3.097" height="3.097" transform="translate(258.563 250.361) rotate(-44.992)" fill="#202832"/>
    <rect id="Rectangle_2319" data-name="Rectangle 2319" width="3.097" height="3.097" transform="translate(269.058 252.903)" fill="#202832"/>
    <rect id="Rectangle_2320" data-name="Rectangle 2320" width="3.097" height="3.097" transform="translate(278.265 250.376) rotate(-45.008)" fill="#202832"/>
    <rect id="Rectangle_2321" data-name="Rectangle 2321" width="3.097" height="3.097" transform="translate(282.994 238.968)" fill="#202832"/>
    <rect id="Rectangle_2322" data-name="Rectangle 2322" width="3.097" height="3.097" transform="translate(278.265 230.67) rotate(-44.992)" fill="#202832"/>
    <rect id="Rectangle_2323" data-name="Rectangle 2323" width="3.097" height="3.097" transform="translate(269.058 265.29)" fill="#202832"/>
  </g>
</svg>
