<svg id="Group_3937" data-name="Group 3937" xmlns="http://www.w3.org/2000/svg" width="48.067" height="45" viewBox="0 0 48.067 45">
  <path id="Path_1" data-name="Path 1" d="M1018.616,645.734l1.574-2.745h0l2.825-4.932-.242.194.532-.662c.058-.085.114-.164.17-.239l.013-.016c.047-.064.1-.125.151-.184s.12-.14.183-.211l.017-.018v-.052l.083-.034a.359.359,0,0,1,.043-.043.411.411,0,0,1,.04-.041,1.76,1.76,0,0,1,.133-.128c.036-.033.077-.071.121-.109l.048-.041c.048-.043.1-.085.151-.125.026-.022.063-.051.1-.079.022-.018.051-.039.077-.057.042-.032.093-.069.144-.105a5.954,5.954,0,0,1,.688-.4c.062-.03.113-.054.165-.077s.128-.057.194-.084l.016-.007-4.03.011a5.169,5.169,0,0,0-4.42,2.528l-4.589,7.763-5.224,9.143c-.032.057-.066.113-.1.167l-.032.045c-.027.038-.053.076-.081.113l-.043.053c-.026.032-.053.064-.081.095s-.033.037-.051.055l-.08.085-.057.053c-.027.025-.056.051-.084.075l-.062.052c-.028.022-.057.045-.086.066s-.045.033-.068.049l-.088.059-.071.045-.091.052-.039.024,3.235.024a5.107,5.107,0,0,0,4.46-2.564l4.461-7.792Z" transform="translate(-998.64 -611.092)" fill="#fff"/>
  <path id="Path_2" data-name="Path 2" d="M1022.842,635.542c-.066.027-.133.056-.194.084C1022.709,635.6,1022.776,635.569,1022.842,635.542Z" transform="translate(-995.659 -611.088)" fill="#fff"/>
  <path id="Path_3" data-name="Path 3" d="M1018.3,641.829l-1.573,2.745h0l1.572-2.746Z" transform="translate(-996.75 -609.93)" fill="#fff"/>
  <path id="Path_4" data-name="Path 4" d="M1027.711,635.529l-2.179.033a5.115,5.115,0,0,0-2.011.409c-.066.027-.132.058-.2.089a5.108,5.108,0,0,0-1.445,1.022v.011l-.05.038-.007.006,0,0-.015.016c-.014.015-.029.032-.044.047-.054.059-.114.127-.171.2s-.089.1-.128.155l-.026.033c-.056.076-.11.15-.162.23-.008.013-.024.035-.039.055-.054.084-.115.179-.171.277l-1.93,3.37a5.368,5.368,0,0,1,3.336-1.172h11.952a1.566,1.566,0,0,0,1.355-2.346,4.983,4.983,0,0,0-4.3-2.483h-.011l-3.749.011Z" transform="translate(-996.307 -611.093)" fill="#fff"/>
  <path id="Path_5" data-name="Path 5" d="M1024.536,635.56l2.179-.033h0Z" transform="translate(-995.311 -611.091)" fill="#fff"/>
  <path id="Path_6" data-name="Path 6" d="M1026.376,635.527Z" transform="translate(-994.972 -611.091)" fill="#fff"/>
  <path id="Path_7" data-name="Path 7" d="M1026.375,635.527h0Z" transform="translate(-994.972 -611.091)" fill="#fff"/>
  <path id="Path_8" data-name="Path 8" d="M1019.131,641.11h0l1.93-3.371Z" transform="translate(-996.306 -610.684)" fill="#fff"/>
  <path id="Path_9" data-name="Path 9" d="M1021.4,636.885l.007-.006,0,0Z" transform="translate(-995.888 -610.842)" fill="#fff"/>
  <path id="Path_10" data-name="Path 10" d="M1021.41,636.885l.05-.038-.05.038Z" transform="translate(-995.886 -610.848)" fill="#fff"/>
  <path id="Path_11" data-name="Path 11" d="M1021.406,636.89l0,0h0l.05-.038v-.011l-.033.031A.183.183,0,0,1,1021.406,636.89Z" transform="translate(-995.887 -610.849)" fill="#fff"/>
  <path id="Path_12" data-name="Path 12" d="M1006.953,648.665l6.355-10.934h0l2.642-4.615,2.322-4.056.008-.012c.069-.119.142-.234.218-.345.025-.037.051-.071.077-.107.058-.082.119-.161.181-.239l.085-.1c.075-.088.152-.172.231-.255.018-.018.033-.036.051-.053.1-.1.2-.193.3-.283.027-.024.054-.045.082-.066.08-.068.163-.133.248-.194.034-.026.07-.051.105-.076.086-.06.175-.118.264-.174.03-.018.058-.037.088-.053.119-.07.239-.136.364-.2l.07-.031q.153-.073.309-.136c.018-.006.034-.016.052-.023h-4.016a5.021,5.021,0,0,0-4.331,2.5l-12.129,20.912a5.03,5.03,0,0,0,4.312,7.552h.133c-.017-.009-.03-.021-.045-.031a2.6,2.6,0,0,1-.222-.153c-.031-.022-.059-.047-.088-.071-.058-.047-.115-.1-.169-.151-.029-.028-.057-.056-.084-.085q-.08-.085-.153-.177c-.023-.027-.046-.054-.068-.083a3.058,3.058,0,0,1-.187-.283h0a2.855,2.855,0,0,1,.009-2.827l2.953-5.093,0-.009Z" transform="translate(-999.857 -612.718)" fill="#fff"/>
  <path id="Path_13" data-name="Path 13" d="M1005.829,645.285l-.005.01,0,0Z" transform="translate(-998.757 -609.294)" fill="#fff"/>
  <path id="Path_14" data-name="Path 14" d="M1013.986,632.755a5.34,5.34,0,0,1,3.376-1.207h12.014a1.55,1.55,0,0,0,1.341-2.325,5.04,5.04,0,0,0-4.35-2.512h-1.651l-4.348.013h-.02a5.028,5.028,0,0,0-4.354,2.523h0Z" transform="translate(-997.255 -612.715)" fill="#fff"/>
  <path id="Path_15" data-name="Path 15" d="M1023.723,626.711l-4.348.013,4.348-.013Z" transform="translate(-996.261 -612.715)" fill="#fff"/>
  <path id="Path_16" data-name="Path 16" d="M1005.641,654.015a2.427,2.427,0,0,0,2.189-1.228l2.338-4.091a2.741,2.741,0,0,1-4.223-2.275l-2.286,3.945a2.472,2.472,0,0,0-.15,2.16,2.33,2.33,0,0,0,.1.213c.013.026.024.055.038.079s.035.056.053.083c.029.046.057.093.088.136s.058.071.087.108.048.064.076.094.065.066.1.1.053.058.083.084.071.058.107.088.06.051.092.075.075.05.113.075.066.046.1.066.079.041.12.061.071.039.109.057.084.033.127.05.074.031.114.044.089.025.134.037.074.023.112.031Z" transform="translate(-999.217 -609.085)" fill="#fff"/>
  <path id="Path_17" data-name="Path 17" d="M1004.961,652.824l.379.01-.379-.011Z" transform="translate(-998.916 -607.905)" fill="#fff"/>
  <path id="Path_18" data-name="Path 18" d="M1003.732,652.029c-.031-.044-.059-.09-.088-.136C1003.672,651.939,1003.7,651.985,1003.732,652.029Z" transform="translate(-999.158 -608.077)" fill="#fff"/>
  <path id="Path_19" data-name="Path 19" d="M1004.373,652.6c-.036-.02-.068-.044-.1-.066C1004.305,652.555,1004.337,652.578,1004.373,652.6Z" transform="translate(-999.043 -607.959)" fill="#fff"/>
  <path id="Path_20" data-name="Path 20" d="M1004.19,652.481c-.032-.024-.062-.05-.092-.075C1004.129,652.431,1004.158,652.457,1004.19,652.481Z" transform="translate(-999.075 -607.982)" fill="#fff"/>
  <path id="Path_21" data-name="Path 21" d="M1003.867,652.193c-.027-.03-.051-.063-.076-.094C1003.816,652.13,1003.839,652.163,1003.867,652.193Z" transform="translate(-999.131 -608.039)" fill="#fff"/>
  <path id="Path_22" data-name="Path 22" d="M1004.567,652.7c-.038-.018-.074-.038-.109-.057C1004.493,652.659,1004.529,652.679,1004.567,652.7Z" transform="translate(-999.009 -607.939)" fill="#fff"/>
  <path id="Path_23" data-name="Path 23" d="M1003.6,651.835h0c-.014-.025-.025-.053-.038-.079C1003.58,651.782,1003.591,651.81,1003.6,651.835Z" transform="translate(-999.173 -608.102)" fill="#fff"/>
  <path id="Path_24" data-name="Path 24" d="M1004.866,652.8c.037.011.072.023.109.031h0C1004.941,652.821,1004.9,652.809,1004.866,652.8Z" transform="translate(-998.933 -607.91)" fill="#fff"/>
  <path id="Path_25" data-name="Path 25" d="M1003.658,649.752a2.472,2.472,0,0,0-.15,2.16A2.472,2.472,0,0,1,1003.658,649.752Z" transform="translate(-999.217 -608.471)" fill="#fff"/>
  <path id="Path_26" data-name="Path 26" d="M1004.021,652.345c-.03-.026-.056-.056-.083-.084C1003.965,652.289,1003.991,652.319,1004.021,652.345Z" transform="translate(-999.104 -608.009)" fill="#fff"/>
  <path id="Path_27" data-name="Path 27" d="M1004.771,652.774c-.039-.013-.076-.03-.114-.044C1004.7,652.744,1004.732,652.761,1004.771,652.774Z" transform="translate(-998.972 -607.922)" fill="#fff"/>
  <path id="Path_28" data-name="Path 28" d="M1004.962,652.824h0Z" transform="translate(-998.916 -607.905)" fill="#fff"/>
  <path id="Path_29" data-name="Path 29" d="M1039.446,654.311h.024a2.394,2.394,0,0,0,2.075-3.592l-3-5.2a2.426,2.426,0,0,0-2.094-1.208h-3.011a.681.681,0,0,0-.59,1.021l.013.023,2.947,5.158a2.766,2.766,0,0,1-.022,2.777,2.721,2.721,0,0,1-.192.281c-.023.031-.051.058-.076.086-.048.057-.1.114-.149.167-.032.032-.066.061-.1.09-.05.047-.1.092-.153.133-.037.03-.076.056-.115.083s-.105.075-.161.108c-.013.008-.025.018-.039.025Z" transform="translate(-993.797 -609.474)" fill="#fff"/>
  <path id="Path_30" data-name="Path 30" d="M1035.406,653.908c.047-.007.094-.012.142-.022s.092-.025.14-.038.087-.023.13-.037.092-.037.136-.056.083-.031.122-.05.085-.047.129-.071.078-.041.115-.064.081-.057.121-.087.072-.048.105-.076.078-.07.117-.105.06-.053.089-.082c.043-.044.081-.091.12-.137.021-.025.045-.049.065-.075a2.44,2.44,0,0,0,.159-.235,2.384,2.384,0,0,0,.019-2.4l-2.26-3.957a2.79,2.79,0,0,1-2.793,2.78h-.269a2.33,2.33,0,0,1-2.006-1.155l-.014-.026-.577-1.007h0c-.015-.026-.034-.051-.05-.076-.029-.045-.056-.091-.088-.133s-.047-.053-.071-.081-.059-.072-.091-.1-.06-.053-.091-.08-.06-.056-.092-.081-.075-.05-.112-.075-.059-.042-.091-.061-.084-.043-.127-.063-.06-.032-.092-.046-.094-.033-.141-.049c-.031-.009-.059-.023-.09-.031-.054-.015-.11-.024-.166-.034-.026,0-.05-.012-.075-.015a1.938,1.938,0,0,0-.25-.017h0a1.888,1.888,0,0,0-1.63.937l-2.038,3.509a1.81,1.81,0,0,1,.666-.139h.03a1.828,1.828,0,0,1,1.547.863,5.579,5.579,0,0,0,4.7,2.648l3.917.04h0l.4,0h.107C1035.315,653.923,1035.36,653.915,1035.406,653.908Z" transform="translate(-995.431 -609.151)" fill="#fff"/>
  <path id="Path_31" data-name="Path 31" d="M1033.068,652.7l.4,0-.4,0Z" transform="translate(-993.74 -607.928)" fill="#fff"/>
  <path id="Path_32" data-name="Path 32" d="M1033.875,652.636c-.047.013-.092.029-.14.038C1033.783,652.664,1033.828,652.649,1033.875,652.636Z" transform="translate(-993.617 -607.94)" fill="#fff"/>
  <path id="Path_33" data-name="Path 33" d="M1033.5,652.707c.046,0,.089-.014.134-.02-.046.007-.091.015-.137.02Z" transform="translate(-993.661 -607.93)" fill="#fff"/>
  <path id="Path_34" data-name="Path 34" d="M1034.31,652.456c-.044.024-.086.05-.129.071C1034.225,652.506,1034.266,652.48,1034.31,652.456Z" transform="translate(-993.535 -607.973)" fill="#fff"/>
  <path id="Path_35" data-name="Path 35" d="M1034.872,651.991c-.04.046-.078.093-.12.137C1034.795,652.084,1034.832,652.037,1034.872,651.991Z" transform="translate(-993.43 -608.059)" fill="#fff"/>
  <path id="Path_36" data-name="Path 36" d="M1034.7,652.176c-.039.036-.076.072-.117.105C1034.619,652.248,1034.656,652.211,1034.7,652.176Z" transform="translate(-993.462 -608.024)" fill="#fff"/>
  <path id="Path_37" data-name="Path 37" d="M1034.1,652.558c-.045.019-.09.039-.136.056C1034.009,652.6,1034.054,652.577,1034.1,652.558Z" transform="translate(-993.575 -607.954)" fill="#fff"/>
  <path id="Path_38" data-name="Path 38" d="M1035.067,651.73a2.4,2.4,0,0,1-.159.235A2.4,2.4,0,0,0,1035.067,651.73Z" transform="translate(-993.401 -608.107)" fill="#fff"/>
  <path id="Path_39" data-name="Path 39" d="M1034.508,652.329c-.04.03-.079.06-.121.087C1034.428,652.389,1034.467,652.359,1034.508,652.329Z" transform="translate(-993.497 -607.996)" fill="#fff"/>
  <path id="Path_40" data-name="Path 40" d="M1025.691,644.312a5.165,5.165,0,0,0-4.458,2.572l-3.007,5.212a1.508,1.508,0,0,0,1.305,2.262h.092a5.007,5.007,0,0,0,4.32-2.5l.154-.265h0l2.593-4.461a2.268,2.268,0,0,1,1.956-1.125h0a2.109,2.109,0,0,1,.275.019c.029,0,.057.01.084.015.063.009.126.023.186.038.031.007.062.017.093.025.059.018.117.039.175.061l.082.032.036.014A4.943,4.943,0,0,0,1025.691,644.312Z" transform="translate(-996.511 -609.474)" fill="#fff"/>
  <path id="Path_41" data-name="Path 41" d="M1027.549,645.832c-.031-.008-.062-.018-.093-.025C1027.488,645.814,1027.518,645.824,1027.549,645.832Z" transform="translate(-994.773 -609.198)" fill="#fff"/>
  <path id="Path_42" data-name="Path 42" d="M1027.313,645.777c-.027,0-.056-.01-.084-.014C1027.257,645.767,1027.286,645.772,1027.313,645.777Z" transform="translate(-994.815 -609.206)" fill="#fff"/>
  <path id="Path_43" data-name="Path 43" d="M1027.765,645.911l-.082-.032Z" transform="translate(-994.731 -609.185)" fill="#fff"/>
  <path id="Path_44" data-name="Path 44" d="M1023.154,651.158l.009-.015,2.583-4.446-2.591,4.462Z" transform="translate(-995.566 -609.034)" fill="#fff"/>
  <path id="Path_45" data-name="Path 45" d="M1016.89,623.3h6.375a1.446,1.446,0,0,0,1.252-2.17l-3.186-5.519a1.447,1.447,0,0,0-2.5,0l-3.189,5.519a1.446,1.446,0,0,0,1.253,2.17Z" transform="translate(-996.986 -614.892)" fill="#fff"/>
</svg>
