<svg xmlns="http://www.w3.org/2000/svg" width="789.581" height="752.325" viewBox="0 0 789.581 752.325">
  <g id="Group_2436a" data-name="Group 2436a" transform="translate(-142.831 97.677)">
    <g id="Group_2398" data-name="Group 2398" transform="translate(146.4 -94.612)">
      <g id="triangle36" transform="translate(688.225 2.348)">
        <path id="Path_3690" data-name="Path 3690" d="M642.874-17.145,546.588-70.36,572.553-93.6,643-41.813l.005-1L572.768-94.447a.4.4,0,0,0-.509.024L545.628-70.581a.4.4,0,0,0-.131.345.4.4,0,0,0,.2.308l97.167,53.7Z" transform="translate(-545.494 94.526)" fill="#c4c4c4"/>
      </g>
      <g id="triangle36-2" data-name="triangle36" transform="translate(688.224 26.19)">
        <path id="Path_3691" data-name="Path 3691" d="M642.5,45.7,547.382-78.965l95.487,52.773.005-.917L546.092-80.6a.4.4,0,0,0-.5.088.4.4,0,0,0-.016.509L642.5,47.022Z" transform="translate(-545.494 80.649)" fill="#c4c4c4"/>
      </g>
      <g id="triangle36-3" data-name="triangle36" transform="translate(390.719 688.314)">
        <path id="Path_3692" data-name="Path 3692" d="M374.27,364.123l129.527-58.4,12.695,59.128.825,0-12.837-59.79a.4.4,0,0,0-.558-.282L372.329,364.112Z" transform="translate(-372.329 -304.745)" fill="#c4c4c4"/>
      </g>
      <g id="triangle36-4" data-name="triangle36" transform="translate(697.354 722.104)">
        <path id="Path_3693" data-name="Path 3693" d="M635.781,324.413l-84.973,27.142,2.609.013,82.359-26.308Z" transform="translate(-550.808 -324.413)" fill="#c4c4c4"/>
      </g>
      <g id="triangle36-5" data-name="triangle36" transform="translate(714.856)">
        <path id="Path_3694" data-name="Path 3694" d="M631.875-41.83l-69.3-50.947,69.572-2.309.005-.807-70.766,2.349a.408.408,0,0,0-.373.283.4.4,0,0,0,.148.445l70.71,51.983Z" transform="translate(-560.995 95.893)" fill="#c4c4c4"/>
      </g>
      <g id="triangle36-6" data-name="triangle36" transform="translate(688.75 291.935)">
        <path id="Path_3695" data-name="Path 3695" d="M641.3,126.4l-93.785-5.529,75.773-45.947,18.2,14.172.005-1.017L623.569,74.114a.4.4,0,0,0-.457-.026L545.994,120.85a.4.4,0,0,0,.185.747l95.121,5.608Z" transform="translate(-545.8 -74.03)" fill="#c4c4c4"/>
      </g>
      <g id="triangle36-7" data-name="triangle36" transform="translate(87.354 718.148)">
        <path id="Path_3696" data-name="Path 3696" d="M196.686,350.1l15.449-26.348,3.113,26.442.813.005-3.266-27.734a.4.4,0,0,0-.318-.347.406.406,0,0,0-.431.191L195.753,350.1Z" transform="translate(-195.753 -322.11)" fill="#c4c4c4"/>
      </g>
      <g id="triangle36-8" data-name="triangle36" transform="translate(679.291 695.58)">
        <path id="Path_3697" data-name="Path 3697" d="M635.781,324.413l-84.973,27.143,2.608.013,82.36-26.308Z" transform="translate(-532.745 -297.889)" fill="#c4c4c4"/>
        <path id="Path_3698" data-name="Path 3698" d="M643.353,331.114l-89.088-22.13a.41.41,0,0,0-.488.294l-13.483,53.271.832,0,13.334-52.687,88.888,22.08Z" transform="translate(-540.294 -308.974)" fill="#c4c4c4"/>
      </g>
      <g id="triangle36-9" data-name="triangle36" transform="translate(696.151 517.661)">
        <path id="Path_3699" data-name="Path 3699" d="M637.248,220.91l-48.672,27.934-36.759-9.822,85.505-32.741.005-.866-86.961,33.3a.4.4,0,0,0,.04.766l38.122,10.185a.425.425,0,0,0,.1.014.4.4,0,0,0,.2-.053l48.409-27.782Z" transform="translate(-550.108 -205.415)" fill="#c4c4c4"/>
      </g>
      <g id="triangle36-10" data-name="triangle36" transform="translate(522.073 688.313)">
        <path id="Path_3700" data-name="Path 3700" d="M462.418,364.853l-12.684-59.082L498.9,323.214,477.66,364.93l.9.005,21.263-41.764a.4.4,0,0,0,.016-.333.41.41,0,0,0-.239-.23l-50.279-17.838a.4.4,0,0,0-.529.464l12.8,59.616Z" transform="translate(-448.785 -304.745)" fill="#c4c4c4"/>
      </g>
      <g id="triangle36-11" data-name="triangle36" transform="translate(550.949 706.151)">
        <path id="Path_3701" data-name="Path 3701" d="M466.494,357.48l20.94-41.132,26.052,41.372.955.005-26.7-42.408a.376.376,0,0,0-.361-.187.4.4,0,0,0-.34.22l-21.446,42.125Z" transform="translate(-465.592 -315.127)" fill="#c4c4c4"/>
      </g>
      <g id="triangle36-12" data-name="triangle36" transform="translate(572.351 706.153)">
        <path id="Path_3702" data-name="Path 3702" d="M504.541,357.72l.955.005-25.97-41.245,88.759,41.565,1.922.01-91.584-42.888a.4.4,0,0,0-.514.579Z" transform="translate(-478.049 -315.128)" fill="#c4c4c4"/>
      </g>
      <g id="triangle36-13" data-name="triangle36" transform="translate(572.351 695.58)">
        <path id="Path_3703" data-name="Path 3703" d="M478.281,320.316l90,42.147,1.924.01-90.227-42.252,118.351-10.394-13.344,52.722.832,0,13.433-53.077a.409.409,0,0,0-.084-.361.416.416,0,0,0-.342-.139L478.418,319.55a.4.4,0,0,0-.137.766Z" transform="translate(-478.049 -308.974)" fill="#c4c4c4"/>
      </g>
      <g id="triangle36-14" data-name="triangle36" transform="translate(103.592 718.147)">
        <path id="Path_3704" data-name="Path 3704" d="M209.274,350.2l-3.166-26.882L247.98,350.4l1.5.007-43.65-28.229a.4.4,0,0,0-.431-.005.4.4,0,0,0-.187.39l3.256,27.635Z" transform="translate(-205.204 -322.11)" fill="#c4c4c4"/>
      </g>
      <g id="triangle36-15" data-name="triangle36" transform="translate(370.572 441.895)">
        <path id="Path_3705" data-name="Path 3705" d="M365.143,193.99a.414.414,0,0,1-.2-.053.406.406,0,0,1-.192-.268l-4.139-20a.4.4,0,0,1,.069-.318.4.4,0,0,1,.28-.163L463.348,161.32a.39.39,0,0,1,.442.314.4.4,0,0,1-.271.469l-98.25,31.868A.39.39,0,0,1,365.143,193.99Zm-3.653-20.055,3.958,19.13,93.967-30.478Z" transform="translate(-360.602 -161.315)" fill="#c4c4c4"/>
      </g>
      <g id="triangle36-16" data-name="triangle36" transform="translate(49.626 687.13)">
        <path id="Path_3706" data-name="Path 3706" d="M174.6,362.872l5.281-57.718,47.734,30.454-16.095,27.451.931.005,16.055-27.384a.4.4,0,0,0-.131-.543l-48.621-31.019a.414.414,0,0,0-.4-.022.407.407,0,0,0-.223.326l-5.347,58.444Z" transform="translate(-173.793 -304.056)" fill="#c4c4c4"/>
      </g>
      <g id="triangle36-17" data-name="triangle36" transform="translate(54.97 628.808)">
        <path id="Path_3707" data-name="Path 3707" d="M225.927,360.255a.4.4,0,0,1-.215-.064l-48.621-31.018a.4.4,0,0,1-.015-.67l83.009-58.321a.4.4,0,0,1,.608.474L226.3,360a.411.411,0,0,1-.251.239A.453.453,0,0,1,225.927,360.255Zm-47.894-31.439,47.7,30.43L259.465,271.6Z" transform="translate(-176.904 -270.109)" fill="#c4c4c4"/>
      </g>
      <g id="triangle36-18" data-name="triangle36" transform="translate(103.591 628.808)">
        <path id="Path_3708" data-name="Path 3708" d="M352.99,362.6h-.005L205.6,360.255a.4.4,0,0,1-.369-.546l34.388-89.34a.4.4,0,0,1,.631-.168l113,91.69a.4.4,0,0,1-.256.715Zm-146.8-3.147,145.64,2.323L240.173,271.174Z" transform="translate(-205.204 -270.109)" fill="#c4c4c4"/>
      </g>
      <g id="triangle36-19" data-name="triangle36" transform="translate(103.591 718.148)">
        <path id="Path_3709" data-name="Path 3709" d="M247.98,350.4l1.5.007-42.468-27.466,144.46,2.3L305.275,350.69l1.656.009,46.255-25.482a.4.4,0,0,0-.187-.756l-147.384-2.35h-.005a.4.4,0,0,0-.222.74Z" transform="translate(-205.204 -322.11)" fill="#c4c4c4"/>
      </g>
      <g id="triangle36-20" data-name="triangle36" transform="translate(203.662 720.498)">
        <path id="Path_3710" data-name="Path 3710" d="M265.107,349.716l44.918-24.745-15.294,24.9.943,0,15.837-25.778a.407.407,0,0,0-.052-.49.4.4,0,0,0-.486-.076l-47.523,26.18Z" transform="translate(-263.451 -323.478)" fill="#c4c4c4"/>
      </g>
      <g id="triangle36-21" data-name="triangle36" transform="translate(234.942 720.497)">
        <path id="Path_3711" data-name="Path 3711" d="M282.6,349.871l15.675-25.516,89.258,26.052,2.929.016L298.208,323.5a.4.4,0,0,0-.457.175l-16.093,26.2Z" transform="translate(-281.658 -323.477)" fill="#c4c4c4"/>
      </g>
      <g id="triangle36-22" data-name="triangle36" transform="translate(472.961 370.803)">
        <path id="Path_3712" data-name="Path 3712" d="M590.977,260.24a.366.366,0,0,1-.148-.029l-170.377-68.4a.4.4,0,0,1-.107-.685L506.6,120.029a.388.388,0,0,1,.326-.086.4.4,0,0,1,.277.189l84.121,139.5a.406.406,0,0,1-.038.471A.4.4,0,0,1,590.977,260.24Zm-169.593-68.93,168.628,67.7L506.753,120.948Z" transform="translate(-420.198 -119.936)" fill="#c4c4c4"/>
      </g>
      <g id="triangle36-23" data-name="triangle36" transform="translate(559.217 339.195)">
        <path id="Path_3713" data-name="Path 3713" d="M554.926,273.451a.4.4,0,0,1-.344-.194l-84.121-139.5a.408.408,0,0,1-.039-.328.4.4,0,0,1,.22-.247l70.679-31.609a.4.4,0,0,1,.369.021.4.4,0,0,1,.2.314L555.33,273.016a.4.4,0,0,1-.278.416A.4.4,0,0,1,554.926,273.451ZM471.388,133.732l83,137.646L541.129,102.543Z" transform="translate(-470.404 -101.538)" fill="#c4c4c4"/>
      </g>
      <g id="triangle36-24" data-name="triangle36" transform="translate(629.896 338.697)">
        <path id="Path_3714" data-name="Path 3714" d="M525.387,273.659l-.034,0a.4.4,0,0,1-.366-.369L511.544,102.183a.405.405,0,0,1,.1-.306.413.413,0,0,1,.294-.131l58.855-.5a.564.564,0,0,1,.321.156.4.4,0,0,1,.072.349L525.778,273.358A.4.4,0,0,1,525.387,273.659Zm-13.006-171.11L525.6,270.864l44.671-168.8Z" transform="translate(-511.543 -101.248)" fill="#c4c4c4"/>
      </g>
      <g id="triangle36-25" data-name="triangle36" transform="translate(643.337 495.324)">
        <path id="Path_3715" data-name="Path 3715" d="M659.4,214.75,572.65,247.969l-51.837-39.881,138.7-14.863,0-.811-139.785,14.98a.405.405,0,0,0-.345.292.4.4,0,0,0,.143.428l52.813,40.632a.4.4,0,0,0,.39.057l86.667-33.186Z" transform="translate(-519.367 -192.414)" fill="#c4c4c4"/>
      </g>
      <g id="triangle36-26" data-name="triangle36" transform="translate(629.895 283.148)">
        <path id="Path_3716" data-name="Path 3716" d="M511.945,125.77a.408.408,0,0,1-.373-.253.4.4,0,0,1,.094-.442l58.609-56.048a.4.4,0,0,1,.436-.081.408.408,0,0,1,.246.369l.246,55.55a.4.4,0,0,1-.4.4l-58.855.5Zm58.211-55.512-57.2,54.7,57.436-.488Z" transform="translate(-511.543 -68.915)" fill="#c4c4c4"/>
      </g>
      <g id="triangle36-27" data-name="triangle36" transform="translate(688.225 26.19)">
        <path id="Path_3717" data-name="Path 3717" d="M642.074,129.847l-95.5,46.222L546.3-79.051,642.5,47.022,642.5,45.7,546.217-80.491a.4.4,0,0,0-.45-.136.4.4,0,0,0-.273.381l.28,256.958a.4.4,0,0,0,.187.342.414.414,0,0,0,.213.062.4.4,0,0,0,.177-.041l95.717-46.329Z" transform="translate(-545.494 80.649)" fill="#c4c4c4"/>
      </g>
      <g id="triangle36-28" data-name="triangle36" transform="translate(688.505 283.149)">
        <path id="Path_3718" data-name="Path 3718" d="M546.3,125.27a.4.4,0,0,1-.4-.4l-.246-55.55a.4.4,0,0,1,.132-.3.413.413,0,0,1,.316-.1L623.469,77.7a.4.4,0,0,1,.163.746l-77.118,46.762A.385.385,0,0,1,546.3,125.27Zm.161-55.5.241,54.383,75.5-45.781Z" transform="translate(-545.657 -68.916)" fill="#c4c4c4"/>
      </g>
      <g id="triangle36-29" data-name="triangle36" transform="translate(688.504 236.686)">
        <path id="Path_3719" data-name="Path 3719" d="M641.787,75.07,623.255,97.1l-75.766-8.606,94.463-45.722.005-.9-96.073,46.5a.4.4,0,0,0,.13.763l77.364,8.786.045,0a.4.4,0,0,0,.309-.144L641.78,76.331Z" transform="translate(-545.656 -41.872)" fill="#c4c4c4"/>
      </g>
      <g id="triangle36-30" data-name="triangle36" transform="translate(765.868 269.884)">
        <path id="Path_3720" data-name="Path 3720" d="M609.3,92.25l-17.567-8.735,17.718-21.06.007-1.261L590.781,83.389a.4.4,0,0,0-.086.342.413.413,0,0,0,.215.28l18.38,9.138Z" transform="translate(-590.687 -61.195)" fill="#c4c4c4"/>
      </g>
      <g id="triangle36-31" data-name="triangle36" transform="translate(765.868 291.935)">
        <path id="Path_3721" data-name="Path 3721" d="M609.269,88.077l-14.763-11.5,14.784,7.352.005-.9-18.026-8.963a.4.4,0,0,0-.426.68l18.421,14.342Z" transform="translate(-590.687 -74.03)" fill="#c4c4c4"/>
      </g>
      <g id="triangle36-32" data-name="triangle36" transform="translate(250.976 636.215)">
        <path id="Path_3722" data-name="Path 3722" d="M291.28,359.494l89.553,26.138,2.928.016L292.476,359,454.4,275.648l-39.12,110.159.854.005L455.5,274.959a.4.4,0,0,0-.113-.44.408.408,0,0,0-.45-.055L291.208,358.748a.4.4,0,0,0,.072.746Z" transform="translate(-290.991 -274.421)" fill="#c4c4c4"/>
      </g>
      <g id="triangle36-33" data-name="triangle36" transform="translate(375.271 636.216)">
        <path id="Path_3723" data-name="Path 3723" d="M364.191,385.812l39.216-110.429,106.185,51.526L378.786,385.886l1.941.01L510.709,327.29a.4.4,0,0,0,.01-.73l-107.366-52.1a.415.415,0,0,0-.33-.01.4.4,0,0,0-.225.237l-39.462,111.12Z" transform="translate(-363.337 -274.421)" fill="#c4c4c4"/>
      </g>
      <g id="triangle36-34" data-name="triangle36" transform="translate(374.711 473.765)">
        <path id="Path_3724" data-name="Path 3724" d="M410.42,216.078a.409.409,0,0,1-.24-.081L363.172,180.59a.4.4,0,0,1,.38-.7l74.622,27.155a.4.4,0,0,1-.024.765l-27.612,8.252A.385.385,0,0,1,410.42,216.078Zm-44.607-34.507,44.688,33.66,26.252-7.845Z" transform="translate(-363.011 -179.865)" fill="#c4c4c4"/>
      </g>
      <g id="triangle36-35" data-name="triangle36" transform="translate(374.711 441.896)">
        <path id="Path_3725" data-name="Path 3725" d="M438.033,221.145a.42.42,0,0,1-.136-.024l-74.62-27.155a.4.4,0,0,1-.266-.385.4.4,0,0,1,.28-.376l98.25-31.868a.4.4,0,0,1,.5.533l-23.63,59.023A.4.4,0,0,1,438.033,221.145Zm-73.379-27.537,73.153,26.623,23.164-57.862Z" transform="translate(-363.011 -161.316)" fill="#c4c4c4"/>
      </g>
      <g id="triangle36-36" data-name="triangle36" transform="translate(414.708 500.919)">
        <path id="Path_3726" data-name="Path 3726" d="M386.693,331.773a.335.335,0,0,1-.058-.005.4.4,0,0,1-.342-.421L393.3,204.3a.4.4,0,0,1,.287-.364l27.612-8.25a.4.4,0,0,1,.4.094.41.41,0,0,1,.112.392L387.086,331.469A.4.4,0,0,1,386.693,331.773Zm7.4-127.142-6.767,122.655,33.426-130.621Z" transform="translate(-386.292 -195.671)" fill="#c4c4c4"/>
      </g>
      <g id="triangle36-37" data-name="triangle36" transform="translate(449.332 441.897)">
        <path id="Path_3727" data-name="Path 3727" d="M600.852,230.527h-.017l-194.007-9.382a.4.4,0,0,1-.32-.186.4.4,0,0,1-.034-.368L430.1,161.57a.4.4,0,0,1,.524-.225L601,229.751a.4.4,0,0,1-.151.777ZM407.433,220.367l191.048,9.24L430.7,162.244Z" transform="translate(-406.445 -161.316)" fill="#c4c4c4"/>
      </g>
      <g id="triangle36-38" data-name="triangle36" transform="translate(453.07 287.94)">
        <path id="Path_3728" data-name="Path 3728" d="M428.913,226.467a.387.387,0,0,1-.146-.027.4.4,0,0,1-.251-.323L408.625,72.159a.4.4,0,0,1,.646-.368l106.148,82.863a.4.4,0,0,1,.009.629l-86.254,71.093A.405.405,0,0,1,428.913,226.467ZM409.549,73.03l19.673,152.26,85.3-70.309Z" transform="translate(-408.621 -71.705)" fill="#c4c4c4"/>
      </g>
      <g id="triangle36-39" data-name="triangle36" transform="translate(453.069 246.452)">
        <path id="Path_3729" data-name="Path 3729" d="M515.169,172.715a.407.407,0,0,1-.246-.086L408.776,89.765a.4.4,0,0,1-.153-.366.407.407,0,0,1,.235-.32l92.467-41.487a.4.4,0,0,1,.565.323l13.681,124.352a.4.4,0,0,1-.2.4A.409.409,0,0,1,515.169,172.715ZM409.8,89.541l104.868,81.865L501.15,48.554Z" transform="translate(-408.62 -47.556)" fill="#c4c4c4"/>
      </g>
      <g id="triangle36-40" data-name="triangle36" transform="translate(501.404 26.191)">
        <path id="Path_3730" data-name="Path 3730" d="M481.287,140.42a.3.3,0,0,1-.067-.007.4.4,0,0,1-.323-.3L436.764-43.141a.409.409,0,0,1,.053-.313.4.4,0,0,1,.261-.177L623.9-80.641a.406.406,0,0,1,.412.168.4.4,0,0,1,.005.445L481.628,140.236A.4.4,0,0,1,481.287,140.42ZM437.647-42.923l43.814,181.932L623.121-79.665Z" transform="translate(-436.754 80.648)" fill="#c4c4c4"/>
      </g>
      <g id="triangle36-41" data-name="triangle36" transform="translate(545.537 246.453)">
        <path id="Path_3731" data-name="Path 3731" d="M476.523,172.715a.432.432,0,0,1-.2-.053.405.405,0,0,1-.2-.306L462.444,48a.4.4,0,0,1,.7-.316L547.5,140.431a.4.4,0,0,1-.134.639L476.69,172.679A.4.4,0,0,1,476.523,172.715ZM463.38,49.148l13.485,122.569,69.665-31.155Z" transform="translate(-462.442 -47.557)" fill="#c4c4c4"/>
      </g>
      <g id="triangle36-42" data-name="triangle36" transform="translate(545.536 246.453)">
        <path id="Path_3732" data-name="Path 3732" d="M547.2,141.107h-.012a.412.412,0,0,1-.285-.132L462.547,48.231a.4.4,0,0,1,.4-.661l142.967,36.7a.4.4,0,0,1,.289.289.4.4,0,0,1-.11.393l-58.609,56.046A.4.4,0,0,1,547.2,141.107ZM464.049,48.686l83.176,91.439,57.785-55.261Z" transform="translate(-462.441 -47.557)" fill="#c4c4c4"/>
      </g>
      <g id="triangle36-43" data-name="triangle36" transform="translate(545.537 26.191)">
        <path id="Path_3733" data-name="Path 3733" d="M605.81,177.116a.475.475,0,0,1-.1-.012l-142.967-36.7a.4.4,0,0,1-.239-.61L605.195-80.466a.4.4,0,0,1,.452-.167.4.4,0,0,1,.289.387l.28,256.958a.4.4,0,0,1-.156.32A.411.411,0,0,1,605.81,177.116Zm-142.323-37.35,141.921,36.426-.277-255.075Z" transform="translate(-462.441 80.648)" fill="#c4c4c4"/>
      </g>
      <g id="triangle36-44" data-name="triangle36" transform="translate(414.708 500.92)">
        <path id="Path_3734" data-name="Path 3734" d="M386.693,331.773a.409.409,0,0,1-.292-.129.4.4,0,0,1-.1-.375l34.624-135.294a.4.4,0,0,1,.249-.278.406.406,0,0,1,.371.045L568.426,297.2a.4.4,0,0,1-.155.728l-181.5,33.84A.531.531,0,0,1,386.693,331.773Zm34.873-135.038L387.242,330.857l179.929-33.547Z" transform="translate(-386.292 -195.671)" fill="#c4c4c4"/>
      </g>
      <g id="triangle36-45" data-name="triangle36" transform="translate(414.708 602.374)">
        <path id="Path_3735" data-name="Path 3735" d="M494.058,341.469a.389.389,0,0,1-.174-.039l-107.366-52.1a.4.4,0,0,1,.1-.759l181.5-33.84a.407.407,0,0,1,.424.2.4.4,0,0,1-.046.464l-74.135,85.94A.4.4,0,0,1,494.058,341.469Zm-106.086-52.33,105.984,51.43,73.184-84.835Z" transform="translate(-386.292 -254.723)" fill="#c4c4c4"/>
      </g>
      <g id="triangle36-46" data-name="triangle36" transform="translate(449.331 500.92)">
        <path id="Path_3736" data-name="Path 3736" d="M553.725,297.932a.412.412,0,0,1-.227-.072L406.619,196.406a.405.405,0,0,1-.153-.462.42.42,0,0,1,.4-.273l194.005,9.382a.4.4,0,0,1,.34.588l-47.128,92.072a.408.408,0,0,1-.261.208A.482.482,0,0,1,553.725,297.932ZM408.239,196.545,553.577,296.936l46.633-91.108Z" transform="translate(-406.444 -195.671)" fill="#c4c4c4"/>
      </g>
      <g id="triangle36-47" data-name="triangle36" transform="translate(522.073 602.376)">
        <path id="Path_3737" data-name="Path 3737" d="M499.464,359.308a.369.369,0,0,1-.134-.024l-50.277-17.839a.4.4,0,0,1-.17-.643l74.135-85.94a.4.4,0,0,1,.7.352L499.859,359a.407.407,0,0,1-.2.263A.414.414,0,0,1,499.464,359.308Zm-49.586-18.426,49.3,17.491,23.393-101.753Z" transform="translate(-448.785 -254.724)" fill="#c4c4c4"/>
      </g>
      <g id="triangle36-48" data-name="triangle36" transform="translate(572.352 602.375)">
        <path id="Path_3738" data-name="Path 3738" d="M478.451,359.308a.4.4,0,0,1-.3-.139.407.407,0,0,1-.089-.354l23.858-103.78a.4.4,0,0,1,.278-.3.411.411,0,0,1,.4.1l96.551,93.206a.4.4,0,0,1,.1.423.406.406,0,0,1-.345.268L478.487,359.307Zm24.094-103.4L478.97,358.454l118.976-10.447Z" transform="translate(-478.049 -254.724)" fill="#c4c4c4"/>
      </g>
      <g id="triangle36-49" data-name="triangle36" transform="translate(596.21 510.302)">
        <path id="Path_3739" data-name="Path 3739" d="M492.338,294.011a.4.4,0,0,1-.357-.588l47.128-92.072a.4.4,0,0,1,.6-.136l52.813,40.63a.4.4,0,0,1-.06.679l-99.94,51.442A.428.428,0,0,1,492.338,294.011Zm47.267-91.86-46.336,90.524L591.531,242.1Z" transform="translate(-491.936 -201.132)" fill="#c4c4c4"/>
      </g>
      <g id="triangle36-50" data-name="triangle36" transform="translate(596.21 561.119)">
        <path id="Path_3740" data-name="Path 3740" d="M588.888,365.977a.4.4,0,0,1-.278-.113l-96.551-93.2a.4.4,0,0,1,.165-.677l138.062-41.255a.4.4,0,0,1,.5.505l-41.51,134.461a.4.4,0,0,1-.285.27A.423.423,0,0,1,588.888,365.977Zm-95.772-93.419L588.7,364.829l41.094-133.114Z" transform="translate(-491.936 -230.71)" fill="#c4c4c4"/>
      </g>
      <g id="triangle36-51" data-name="triangle36" transform="translate(596.21 550.934)">
        <path id="Path_3741" data-name="Path 3741" d="M492.338,277.029a.4.4,0,0,1-.184-.763l99.942-51.44a.4.4,0,0,1,.289-.031l38.122,10.185a.4.4,0,0,1,.01.775L492.455,277.012A.392.392,0,0,1,492.338,277.029Zm99.988-51.416L496.389,275l132.533-39.6Z" transform="translate(-491.936 -224.782)" fill="#c4c4c4"/>
      </g>
      <g id="triangle36-52" data-name="triangle36" transform="translate(0 586.729)">
        <path id="Path_3742" data-name="Path 3742" d="M145.31,313.373a.4.4,0,0,1-.2-.751L259.443,245.67a.424.424,0,0,1,.309-.041.4.4,0,0,1,.246.192l23.645,42.08a.4.4,0,0,1,.012.369.408.408,0,0,1-.292.225l-137.981,24.87A.344.344,0,0,1,145.31,313.373Zm114.186-66.8-112.022,65.6L282.662,287.8Z" transform="translate(-144.908 -245.617)" fill="#c4c4c4"/>
      </g>
      <g id="triangle36-53" data-name="triangle36" transform="translate(114.335 572.701)">
        <path id="Path_3743" data-name="Path 3743" d="M235.5,294.364l-.036,0a.4.4,0,0,1-.313-.2L211.51,252.078a.4.4,0,0,1-.015-.366.408.408,0,0,1,.289-.227l70.589-14.026a.4.4,0,0,1,.387.655l-46.944,56.108A.4.4,0,0,1,235.5,294.364Zm-23.018-42.2,23.085,41.085,45.836-54.782Z" transform="translate(-211.458 -237.452)" fill="#c4c4c4"/>
      </g>
      <g id="triangle36-54" data-name="triangle36" transform="translate(337.723 259.89)">
        <path id="Path_3744" data-name="Path 3744" d="M341.884,141.591a.406.406,0,0,1-.388-.505L363.669,55.68a.4.4,0,0,1,.78.2l-22.173,85.406A.407.407,0,0,1,341.884,141.591Z" transform="translate(-341.482 -55.378)" fill="#c4c4c4"/>
      </g>
      <g id="triangle36-55" data-name="triangle36" transform="translate(337.723 259.892)">
        <path id="Path_3745" data-name="Path 3745" d="M341.884,141.591a.4.4,0,0,1-.388-.505L363.669,55.68a.407.407,0,0,1,.192-.249.4.4,0,0,1,.314-.034l93.173,28.049a.4.4,0,0,1,.062.747L342.064,141.548A.4.4,0,0,1,341.884,141.591Zm22.46-85.3L342.5,140.433l113.643-56.51Z" transform="translate(-341.482 -55.379)" fill="#c4c4c4"/>
      </g>
      <g id="triangle36-56" data-name="triangle36" transform="translate(337.723 345.297)">
        <path id="Path_3746" data-name="Path 3746" d="M374.733,214.362a.406.406,0,0,1-.385-.287L341.5,105.609a.4.4,0,0,1,.62-.445l135.238,96.6a.4.4,0,0,1-.187.728L374.781,214.358A.457.457,0,0,1,374.733,214.362ZM342.614,106.51l32.409,107.008,101.014-11.705Z" transform="translate(-341.482 -105.089)" fill="#c4c4c4"/>
      </g>
      <g id="triangle36-57" data-name="triangle36" transform="translate(337.723 287.94)">
        <path id="Path_3747" data-name="Path 3747" d="M477.122,226.467a.392.392,0,0,1-.232-.074l-135.238-96.6a.4.4,0,0,1-.168-.359.4.4,0,0,1,.222-.33L457.053,71.748a.4.4,0,0,1,.369,0,.41.41,0,0,1,.21.306l19.891,153.956a.4.4,0,0,1-.4.454ZM342.666,129.526,476.6,225.2,456.9,72.721Z" transform="translate(-341.482 -71.705)" fill="#c4c4c4"/>
      </g>
      <g id="triangle36-58" data-name="triangle36" transform="translate(300.197 453.762)">
        <path id="Path_3748" data-name="Path 3748" d="M320.042,245a.4.4,0,0,1-.294-.677l70.375-75.969a.4.4,0,0,1,.4-.115.4.4,0,0,1,.287.308l4.139,20a.4.4,0,0,1-.153.4l-74.513,55.967A.407.407,0,0,1,320.042,245Zm70.141-75.524-66.8,72.106,70.725-53.12Z" transform="translate(-319.64 -168.222)" fill="#c4c4c4"/>
      </g>
      <g id="triangle36-59" data-name="triangle36" transform="translate(300.197 473.766)">
        <path id="Path_3749" data-name="Path 3749" d="M320.042,236.637a.406.406,0,0,1-.369-.244.4.4,0,0,1,.129-.481l74.513-55.967a.407.407,0,0,1,.484,0l47.007,35.407a.4.4,0,0,1-.175.72L320.111,236.631A.323.323,0,0,1,320.042,236.637Zm74.515-55.864L321.612,235.56l118.963-20.127Z" transform="translate(-319.64 -179.865)" fill="#c4c4c4"/>
      </g>
      <g id="triangle36-60" data-name="triangle36" transform="translate(300.197 509.171)">
        <path id="Path_3750" data-name="Path 3750" d="M434.551,328.325a.408.408,0,0,1-.271-.108L319.769,221.732a.4.4,0,0,1-.112-.411.407.407,0,0,1,.32-.282L441.5,200.48a.4.4,0,0,1,.469.419l-7.01,127.044a.4.4,0,0,1-.253.352A.4.4,0,0,1,434.551,328.325ZM320.916,221.7,434.2,327.039l6.936-125.68Z" transform="translate(-319.64 -200.473)" fill="#c4c4c4"/>
      </g>
      <g id="triangle36-61" data-name="triangle36" transform="translate(643.338 338.697)">
        <path id="Path_3751" data-name="Path 3751" d="M659.887,184.587,520.422,272.37,565.455,102.2,660.1,142.187l.005-.873L565.34,101.279a.407.407,0,0,0-.335.01.4.4,0,0,0-.211.259L519.38,273.154a.405.405,0,0,0,.151.428.406.406,0,0,0,.454.015l139.9-88.055Z" transform="translate(-519.367 -101.248)" fill="#c4c4c4"/>
      </g>
      <g id="triangle36-62" data-name="triangle36" transform="translate(643.337 422.036)">
        <path id="Path_3752" data-name="Path 3752" d="M659.513,223.044,521.46,237.838l138.423-87.125.005-.957L519.556,238.084a.4.4,0,0,0,.213.744.408.408,0,0,0,.045,0l139.7-14.971Z" transform="translate(-519.367 -149.756)" fill="#c4c4c4"/>
      </g>
      <g id="triangle36-63" data-name="triangle36" transform="translate(688.75 338.697)">
        <path id="Path_3753" data-name="Path 3753" d="M641.129,141.315l-92.611-39.123,92.783,5.47,0-.807-95.077-5.6a.38.38,0,0,0-.417.309.405.405,0,0,0,.235.464l95.078,40.164Z" transform="translate(-545.8 -101.248)" fill="#c4c4c4"/>
      </g>
      <g id="triangle36-64" data-name="triangle36" transform="translate(137.98 572.375)">
        <path id="Path_3754" data-name="Path 3754" d="M225.622,294.5a.4.4,0,0,1-.323-.165.4.4,0,0,1,.015-.5l46.944-56.108a.409.409,0,0,1,.309-.143l92.786-.326h0a.4.4,0,0,1,.149.777L225.775,294.471A.366.366,0,0,1,225.622,294.5Zm47.135-56.106-45.789,54.727,136.3-55.044Z" transform="translate(-225.22 -237.262)" fill="#c4c4c4"/>
      </g>
      <g id="triangle36-65" data-name="triangle36" transform="translate(137.98 572.376)">
        <path id="Path_3755" data-name="Path 3755" d="M338.617,386.19a.4.4,0,0,1-.253-.089l-113-91.69a.4.4,0,0,1,.1-.687L365.2,237.291a.409.409,0,0,1,.405.062.4.4,0,0,1,.143.383L339.016,385.859a.4.4,0,0,1-.4.332ZM226.409,294.215l111.934,90.83,26.485-146.731Z" transform="translate(-225.221 -237.262)" fill="#c4c4c4"/>
      </g>
      <g id="triangle36-66" data-name="triangle36" transform="translate(184.924 529.731)">
        <path id="Path_3756" data-name="Path 3756" d="M252.946,256.217a.4.4,0,0,1-.139-.782l115.274-42.97a.4.4,0,0,1,.5.567l-22.486,42.644a.4.4,0,0,1-.356.215l-92.786.326Zm114.425-42.626L255.205,255.4l90.287-.316Z" transform="translate(-252.544 -212.441)" fill="#c4c4c4"/>
      </g>
      <g id="triangle36-67" data-name="triangle36" transform="translate(250.976 572.376)">
        <path id="Path_3757" data-name="Path 3757" d="M291.392,386.19a.386.386,0,0,1-.237-.079.4.4,0,0,1-.158-.4l26.736-148.123a.4.4,0,0,1,.211-.285.4.4,0,0,1,.356-.009l137,63.839a.4.4,0,0,1,.014.725L291.579,386.146A.385.385,0,0,1,291.392,386.19Zm27.042-147.939-26.5,146.8,162.274-83.531Z" transform="translate(-290.99 -237.262)" fill="#c4c4c4"/>
      </g>
      <g id="triangle36-68" data-name="triangle36" transform="translate(277.712 529.731)">
        <path id="Path_3758" data-name="Path 3758" d="M443.949,319.732a.453.453,0,0,1-.168-.038l-137-63.841a.4.4,0,0,1-.211-.235.4.4,0,0,1,.024-.318l22.486-42.644a.405.405,0,0,1,.632-.108L444.226,319.032a.4.4,0,0,1-.277.7ZM307.51,255.3l134.3,62.582L329.551,213.5Z" transform="translate(-306.552 -212.44)" fill="#c4c4c4"/>
      </g>
      <g id="triangle36-69" data-name="triangle36" transform="translate(734.272 533.156)">
        <path id="Path_3759" data-name="Path 3759" d="M621.08,260.39l-47.433-17.668,47.664-27.355.005-.933L572.5,242.45a.4.4,0,0,0,.06.728l48.516,18.07Z" transform="translate(-572.296 -214.434)" fill="#c4c4c4"/>
      </g>
      <g id="triangle36-70" data-name="triangle36" transform="translate(359.897 197.626)">
        <path id="Path_3760" data-name="Path 3760" d="M354.79,82.209a.4.4,0,0,1-.222-.739l93.1-62.265a.4.4,0,0,1,.448.67l-93.1,62.265A.4.4,0,0,1,354.79,82.209Z" transform="translate(-354.388 -19.136)" fill="#c4c4c4"/>
      </g>
      <g id="triangle36-71" data-name="triangle36" transform="translate(359.897 197.626)">
        <path id="Path_3761" data-name="Path 3761" d="M447.963,110.257a.374.374,0,0,1-.115-.017L354.676,82.191a.4.4,0,0,1-.108-.722l93.1-62.265a.4.4,0,0,1,.627.335l.07,90.314a.4.4,0,0,1-.405.4ZM355.726,81.665l91.835,27.647-.069-89.019Z" transform="translate(-354.389 -19.137)" fill="#c4c4c4"/>
      </g>
      <g id="triangle36-72" data-name="triangle36" transform="translate(453 197.626)">
        <path id="Path_3762" data-name="Path 3762" d="M409.051,110.257a.4.4,0,0,1-.216-.065.4.4,0,0,1-.186-.337l-.069-90.316a.4.4,0,0,1,.591-.356l92.537,48.827a.4.4,0,0,1-.024.723l-92.467,41.489A.4.4,0,0,1,409.051,110.257Zm.335-90.048.069,89.022L500.6,68.337Z" transform="translate(-408.58 -19.137)" fill="#c4c4c4"/>
      </g>
      <g id="triangle36-73" data-name="triangle36" transform="translate(452.999 63.199)">
        <path id="Path_3763" data-name="Path 3763" d="M501.518,124.953a.408.408,0,0,1-.187-.046L408.8,76.08a.4.4,0,0,1-.192-.493l48.4-134.427a.391.391,0,0,1,.4-.265.4.4,0,0,1,.371.308l44.131,183.252a.4.4,0,0,1-.144.414A.415.415,0,0,1,501.518,124.953ZM409.481,75.53l91.438,48.246L457.311-57.3Z" transform="translate(-408.579 59.108)" fill="#c4c4c4"/>
      </g>
      <g id="triangle36-74" data-name="triangle36" transform="translate(692.761 561.119)">
        <path id="Path_3764" data-name="Path 3764" d="M638.143,304.6l-88.883,60,40.946-132.626L638.2,293.726l.007-1.306-47.839-61.554a.4.4,0,0,0-.7.127L548.152,365.454a.406.406,0,0,0,.146.443.4.4,0,0,0,.237.079.413.413,0,0,0,.229-.069l89.374-60.336Z" transform="translate(-548.135 -230.71)" fill="#c4c4c4"/>
      </g>
      <g id="triangle36-75" data-name="triangle36" transform="translate(692.761 635.005)">
        <path id="Path_3765" data-name="Path 3765" d="M637.723,356.433l-88.208-21.912,88.624-59.829.005-.976-89.831,60.643a.4.4,0,0,0,.129.725l89.276,22.178Z" transform="translate(-548.134 -273.716)" fill="#c4c4c4"/>
      </g>
      <g id="triangle36-76" data-name="triangle36" transform="translate(734.273 561.119)">
        <path id="Path_3766" data-name="Path 3766" d="M620.858,292.42,573.89,231.986l47.186,17.576,0-.859L572.84,230.736a.4.4,0,0,0-.459.624l48.469,62.367Z" transform="translate(-572.297 -230.71)" fill="#c4c4c4"/>
      </g>
    </g>
    <g id="Group_2435" data-name="Group 2435" transform="translate(142.831 -97.677)">
      <g id="Group_2399" data-name="Group 2399" transform="translate(713.011)">
        <path id="Path_3767" data-name="Path 3767" d="M563.008-96.738a4.2,4.2,0,0,0-4.225,4.182,4.2,4.2,0,0,0,4.182,4.226,4.2,4.2,0,0,0,4.226-4.183A4.2,4.2,0,0,0,563.008-96.738Z" transform="translate(-557.17 98.351)" fill="#fff"/>
        <path id="Path_3768" data-name="Path 3768" d="M563.682-96.064a4.2,4.2,0,0,1,4.183,4.225,4.2,4.2,0,0,1-4.226,4.183,4.2,4.2,0,0,1-4.182-4.226,4.2,4.2,0,0,1,4.225-4.182m.009-1.613a5.825,5.825,0,0,0-5.847,5.786,5.823,5.823,0,0,0,5.786,5.846,5.821,5.821,0,0,0,5.846-5.786,5.823,5.823,0,0,0-5.786-5.847Z" transform="translate(-557.844 97.677)" fill="#1971b9"/>
      </g>
      <g id="Group_2400" data-name="Group 2400" transform="translate(54.735 686.39)">
        <path id="Path_3769" data-name="Path 3769" d="M178.237,302.78a2.594,2.594,0,1,0,2.581,2.608A2.594,2.594,0,0,0,178.237,302.78Z" transform="translate(-174.016 -301.167)" fill="#fff"/>
        <path id="Path_3770" data-name="Path 3770" d="M178.911,303.454a2.594,2.594,0,1,1-2.608,2.581,2.6,2.6,0,0,1,2.608-2.581m.007-1.613a4.207,4.207,0,1,0,4.185,4.228,4.212,4.212,0,0,0-4.185-4.228Z" transform="translate(-174.69 -301.841)" fill="#1971b9"/>
      </g>
      <g id="Group_2401" data-name="Group 2401" transform="translate(102.359 716.413)">
        <path id="Path_3771" data-name="Path 3771" d="M206.959,320.254a3.592,3.592,0,1,0,3.572,3.61A3.592,3.592,0,0,0,206.959,320.254Z" transform="translate(-201.736 -318.642)" fill="#fff"/>
        <path id="Path_3772" data-name="Path 3772" d="M207.633,320.928a3.592,3.592,0,1,1-3.611,3.574,3.591,3.591,0,0,1,3.611-3.574m.007-1.612a5.2,5.2,0,1,0,5.178,5.23,5.208,5.208,0,0,0-5.178-5.23Z" transform="translate(-202.41 -319.316)" fill="#1971b9"/>
      </g>
      <g id="Group_2402" data-name="Group 2402" transform="translate(765.112 290.674)">
        <path id="Path_3773" data-name="Path 3773" d="M592.24,72.451a3.116,3.116,0,1,0,3.1,3.132A3.116,3.116,0,0,0,592.24,72.451Z" transform="translate(-587.496 -70.838)" fill="#fff"/>
        <path id="Path_3774" data-name="Path 3774" d="M592.914,73.125a3.116,3.116,0,1,1-3.132,3.1,3.116,3.116,0,0,1,3.132-3.1m.009-1.613a4.728,4.728,0,1,0,4.7,4.752,4.733,4.733,0,0,0-4.7-4.752Z" transform="translate(-588.17 -71.512)" fill="#1971b9"/>
      </g>
      <g id="Group_2403" data-name="Group 2403" transform="translate(556.236 367.32)">
        <circle id="Ellipse_123" data-name="Ellipse 123" cx="5.341" cy="5.341" r="5.341" transform="translate(1.612 1.612)" fill="#fff"/>
        <path id="Path_3775" data-name="Path 3775" d="M473.572,117.737a5.341,5.341,0,1,1-5.369,5.312,5.34,5.34,0,0,1,5.369-5.312m.009-1.613a6.953,6.953,0,1,0,6.917,6.989,6.96,6.96,0,0,0-6.917-6.989Z" transform="translate(-466.592 -116.124)" fill="#1971b9"/>
      </g>
      <g id="Group_2404" data-name="Group 2404" transform="translate(629.968 338.764)">
        <path id="Path_3776" data-name="Path 3776" d="M515.021,102.741a2.287,2.287,0,1,0-2.3,2.275A2.285,2.285,0,0,0,515.021,102.741Z" transform="translate(-508.834 -98.829)" fill="#fff"/>
        <path id="Path_3777" data-name="Path 3777" d="M513.42,101.116a2.287,2.287,0,1,1-2.3,2.275,2.285,2.285,0,0,1,2.3-2.275m.007-1.613a3.9,3.9,0,1,0,3.881,3.919,3.9,3.9,0,0,0-3.881-3.919Z" transform="translate(-509.508 -99.503)" fill="#1971b9"/>
      </g>
      <g id="Group_2405" data-name="Group 2405" transform="translate(685.599 279.741)">
        <path id="Path_3778" data-name="Path 3778" d="M548.063,76.612a5.262,5.262,0,1,0-5.235-5.29A5.264,5.264,0,0,0,548.063,76.612Z" transform="translate(-541.215 -64.474)" fill="#fff"/>
        <path id="Path_3779" data-name="Path 3779" d="M548.792,66.761A5.262,5.262,0,1,1,543.5,72a5.264,5.264,0,0,1,5.29-5.235m.007-1.613a6.875,6.875,0,1,0,6.84,6.91,6.885,6.885,0,0,0-6.84-6.91Z" transform="translate(-541.889 -65.148)" fill="#1971b9"/>
      </g>
      <g id="Group_2406" data-name="Group 2406" transform="translate(687.297 24.759)">
        <path id="Path_3780" data-name="Path 3780" d="M550.388-79.023a3.285,3.285,0,0,0-3.269-3.3,3.287,3.287,0,0,0-3.3,3.269,3.287,3.287,0,0,0,3.271,3.3A3.286,3.286,0,0,0,550.388-79.023Z" transform="translate(-542.203 83.94)" fill="#fff"/>
        <path id="Path_3781" data-name="Path 3781" d="M547.792-81.653a3.287,3.287,0,0,1,3.271,3.3,3.289,3.289,0,0,1-3.3,3.269,3.287,3.287,0,0,1-3.271-3.3,3.287,3.287,0,0,1,3.3-3.269m.009-1.613a4.905,4.905,0,0,0-4.924,4.874,4.906,4.906,0,0,0,4.874,4.926,4.906,4.906,0,0,0,4.924-4.876,4.905,4.905,0,0,0-4.874-4.924Z" transform="translate(-542.877 83.266)" fill="#1971b9"/>
      </g>
      <g id="Group_2407" data-name="Group 2407" transform="translate(446.936 498.022)">
        <path id="Path_3782" data-name="Path 3782" d="M408.69,193.138a4.755,4.755,0,1,0,4.732,4.78A4.754,4.754,0,0,0,408.69,193.138Z" transform="translate(-402.299 -191.526)" fill="#fff"/>
        <path id="Path_3783" data-name="Path 3783" d="M409.364,193.812a4.755,4.755,0,1,1-4.778,4.73,4.756,4.756,0,0,1,4.778-4.73m.009-1.612a6.367,6.367,0,1,0,6.334,6.4,6.374,6.374,0,0,0-6.334-6.4Z" transform="translate(-402.973 -192.2)" fill="#1971b9"/>
      </g>
      <g id="Group_2408" data-name="Group 2408" transform="translate(520.348 686.086)">
        <path id="Path_3784" data-name="Path 3784" d="M450.746,302.6a4.085,4.085,0,1,0,4.063,4.106A4.085,4.085,0,0,0,450.746,302.6Z" transform="translate(-445.029 -300.99)" fill="#fff"/>
        <path id="Path_3785" data-name="Path 3785" d="M451.421,303.276a4.085,4.085,0,1,1-4.1,4.063,4.085,4.085,0,0,1,4.1-4.063m.009-1.612a5.7,5.7,0,1,0,5.668,5.725,5.7,5.7,0,0,0-5.668-5.725Z" transform="translate(-445.703 -301.664)" fill="#1971b9"/>
      </g>
      <g id="Group_2409" data-name="Group 2409" transform="translate(569.415 702.713)">
        <path id="Path_3786" data-name="Path 3786" d="M480.525,312.281a5.3,5.3,0,1,0,5.268,5.323A5.3,5.3,0,0,0,480.525,312.281Z" transform="translate(-473.589 -310.668)" fill="#fff"/>
        <path id="Path_3787" data-name="Path 3787" d="M481.2,312.955a5.3,5.3,0,1,1-5.324,5.269,5.3,5.3,0,0,1,5.324-5.269m.007-1.613a6.909,6.909,0,1,0,6.874,6.944,6.917,6.917,0,0,0-6.874-6.944Z" transform="translate(-474.263 -311.342)" fill="#1971b9"/>
      </g>
      <g id="Group_2410" data-name="Group 2410" transform="translate(595.605 601.266)">
        <path id="Path_3788" data-name="Path 3788" d="M493.426,253.232a2.965,2.965,0,1,0,2.948,2.979A2.966,2.966,0,0,0,493.426,253.232Z" transform="translate(-488.833 -251.62)" fill="#fff"/>
        <path id="Path_3789" data-name="Path 3789" d="M494.1,253.906a2.965,2.965,0,1,1-2.981,2.95,2.964,2.964,0,0,1,2.981-2.95m.007-1.612a4.577,4.577,0,1,0,4.555,4.6,4.58,4.58,0,0,0-4.555-4.6Z" transform="translate(-489.507 -252.294)" fill="#1971b9"/>
      </g>
      <g id="Group_2411" data-name="Group 2411" transform="translate(692.771 547.049)">
        <path id="Path_3790" data-name="Path 3790" d="M552.77,221.676a5.738,5.738,0,1,0,5.709,5.767A5.739,5.739,0,0,0,552.77,221.676Z" transform="translate(-545.389 -220.063)" fill="#fff"/>
        <path id="Path_3791" data-name="Path 3791" d="M553.444,222.35a5.738,5.738,0,1,1-5.768,5.709,5.738,5.738,0,0,1,5.768-5.709m.009-1.613a7.352,7.352,0,1,0,7.314,7.389,7.36,7.36,0,0,0-7.314-7.389Z" transform="translate(-546.063 -220.737)" fill="#1971b9"/>
      </g>
      <g id="Group_2412" data-name="Group 2412" transform="translate(0 653.175)">
        <path id="Path_3792" data-name="Path 3792" d="M146.142,283.447a2.36,2.36,0,1,0,2.349,2.373A2.36,2.36,0,0,0,146.142,283.447Z" transform="translate(-142.157 -281.834)" fill="#fff"/>
        <path id="Path_3793" data-name="Path 3793" d="M146.815,284.121a2.36,2.36,0,1,1-2.373,2.349,2.36,2.36,0,0,1,2.373-2.349m.009-1.613a3.973,3.973,0,1,0,3.953,3.995,3.978,3.978,0,0,0-3.953-3.995Z" transform="translate(-142.831 -282.508)" fill="#1971b9"/>
      </g>
      <g id="Group_2413" data-name="Group 2413" transform="translate(112.877 584.766)">
        <path id="Path_3794" data-name="Path 3794" d="M213.307,243.629a3.817,3.817,0,1,0,3.8,3.836A3.815,3.815,0,0,0,213.307,243.629Z" transform="translate(-207.858 -242.016)" fill="#fff"/>
        <path id="Path_3795" data-name="Path 3795" d="M213.982,244.3a3.817,3.817,0,1,1-3.836,3.8,3.818,3.818,0,0,1,3.836-3.8m.009-1.613a5.43,5.43,0,1,0,5.4,5.458,5.437,5.437,0,0,0-5.4-5.458Z" transform="translate(-208.532 -242.69)" fill="#1971b9"/>
      </g>
      <g id="Group_2414" data-name="Group 2414" transform="translate(337.778 344.848)">
        <path id="Path_3796" data-name="Path 3796" d="M342.693,103.983a2.3,2.3,0,1,0,2.292,2.316A2.306,2.306,0,0,0,342.693,103.983Z" transform="translate(-338.763 -102.37)" fill="#fff"/>
        <path id="Path_3797" data-name="Path 3797" d="M343.366,104.657a2.3,2.3,0,1,1-2.318,2.294,2.3,2.3,0,0,1,2.318-2.294m.007-1.613a3.917,3.917,0,1,0,3.9,3.938,3.922,3.922,0,0,0-3.9-3.938Z" transform="translate(-339.437 -103.044)" fill="#1971b9"/>
      </g>
      <g id="Group_2415" data-name="Group 2415" transform="translate(470.067 438.498)">
        <path id="Path_3798" data-name="Path 3798" d="M422.656,158.493a5.253,5.253,0,1,0,5.226,5.28A5.254,5.254,0,0,0,422.656,158.493Z" transform="translate(-415.763 -156.88)" fill="#fff"/>
        <path id="Path_3799" data-name="Path 3799" d="M423.33,159.167a5.253,5.253,0,1,1-5.28,5.226,5.251,5.251,0,0,1,5.28-5.226m.009-1.613a6.866,6.866,0,1,0,6.831,6.9,6.874,6.874,0,0,0-6.831-6.9Z" transform="translate(-416.437 -157.554)" fill="#1971b9"/>
      </g>
      <g id="Group_2416" data-name="Group 2416" transform="translate(370.311 452.997)">
        <path id="Path_3800" data-name="Path 3800" d="M361.919,172.174a2.621,2.621,0,1,0-2.608-2.635A2.622,2.622,0,0,0,361.919,172.174Z" transform="translate(-357.699 -165.319)" fill="#fff"/>
        <path id="Path_3801" data-name="Path 3801" d="M362.618,167.606a2.621,2.621,0,1,1-2.634,2.606,2.62,2.62,0,0,1,2.634-2.606m.009-1.613a4.233,4.233,0,1,0,4.213,4.256,4.237,4.237,0,0,0-4.213-4.256Z" transform="translate(-358.373 -165.993)" fill="#1971b9"/>
      </g>
      <g id="Group_2417" data-name="Group 2417" transform="translate(374.108 472.658)">
        <path id="Path_3802" data-name="Path 3802" d="M364.5,178.375a2.963,2.963,0,1,0,2.946,2.977A2.964,2.964,0,0,0,364.5,178.375Z" transform="translate(-359.909 -176.763)" fill="#fff"/>
        <path id="Path_3803" data-name="Path 3803" d="M365.174,179.049A2.963,2.963,0,1,1,362.2,182a2.962,2.962,0,0,1,2.977-2.948m.009-1.612a4.574,4.574,0,1,0,4.551,4.6,4.58,4.58,0,0,0-4.551-4.6Z" transform="translate(-360.583 -177.437)" fill="#1971b9"/>
      </g>
      <g id="Group_2418" data-name="Group 2418" transform="translate(421.759 508.708)">
        <path id="Path_3804" data-name="Path 3804" d="M391.588,199.359a2.319,2.319,0,1,0,2.307,2.33A2.319,2.319,0,0,0,391.588,199.359Z" transform="translate(-387.645 -197.746)" fill="#fff"/>
        <path id="Path_3805" data-name="Path 3805" d="M392.262,200.033a2.319,2.319,0,1,1-2.331,2.306,2.318,2.318,0,0,1,2.331-2.306m.009-1.613a3.931,3.931,0,1,0,3.91,3.952,3.936,3.936,0,0,0-3.91-3.952Z" transform="translate(-388.319 -198.42)" fill="#1971b9"/>
      </g>
      <g id="Group_2419" data-name="Group 2419" transform="translate(641.666 508.127)">
        <path id="Path_3806" data-name="Path 3806" d="M521.308,199.02a4.031,4.031,0,1,0,4.01,4.053A4.033,4.033,0,0,0,521.308,199.02Z" transform="translate(-515.643 -197.408)" fill="#fff"/>
        <path id="Path_3807" data-name="Path 3807" d="M521.981,199.694a4.031,4.031,0,1,1-4.053,4.012,4.031,4.031,0,0,1,4.053-4.012m.009-1.612a5.644,5.644,0,1,0,5.615,5.671,5.648,5.648,0,0,0-5.615-5.671Z" transform="translate(-516.317 -198.082)" fill="#1971b9"/>
      </g>
      <g id="Group_2420" data-name="Group 2420" transform="translate(686.476 335.919)">
        <path id="Path_3808" data-name="Path 3808" d="M547.995,98.785a4.634,4.634,0,1,0,4.611,4.658A4.636,4.636,0,0,0,547.995,98.785Z" transform="translate(-541.725 -97.173)" fill="#fff"/>
        <path id="Path_3809" data-name="Path 3809" d="M548.668,99.459a4.634,4.634,0,1,1-4.658,4.611,4.634,4.634,0,0,1,4.658-4.611m.009-1.612a6.246,6.246,0,1,0,6.216,6.278,6.251,6.251,0,0,0-6.216-6.278Z" transform="translate(-542.399 -97.847)" fill="#1971b9"/>
      </g>
      <g id="Group_2421" data-name="Group 2421" transform="translate(135.315 625.638)">
        <path id="Path_3810" data-name="Path 3810" d="M227.581,267.419a5.025,5.025,0,1,0,5,5.051A5.026,5.026,0,0,0,227.581,267.419Z" transform="translate(-220.918 -265.806)" fill="#fff"/>
        <path id="Path_3811" data-name="Path 3811" d="M228.255,268.093a5.025,5.025,0,1,1-5.051,5,5.025,5.025,0,0,1,5.051-5m.009-1.613a6.639,6.639,0,1,0,6.6,6.673,6.645,6.645,0,0,0-6.6-6.673Z" transform="translate(-221.592 -266.48)" fill="#1971b9"/>
      </g>
      <g id="Group_2422" data-name="Group 2422" transform="translate(184.389 571.664)">
        <path id="Path_3812" data-name="Path 3812" d="M256.883,238.911a2.894,2.894,0,1,0-2.909,2.879A2.9,2.9,0,0,0,256.883,238.911Z" transform="translate(-249.482 -234.39)" fill="#fff"/>
        <path id="Path_3813" data-name="Path 3813" d="M254.678,236.676a2.894,2.894,0,1,1-2.909,2.879,2.9,2.9,0,0,1,2.909-2.879m.009-1.612a4.506,4.506,0,1,0,4.482,4.529,4.511,4.511,0,0,0-4.482-4.529Z" transform="translate(-250.156 -235.064)" fill="#1971b9"/>
      </g>
      <g id="Group_2423" data-name="Group 2423" transform="translate(248.788 717.808)">
        <path id="Path_3814" data-name="Path 3814" d="M293.148,321.066a4.547,4.547,0,1,0,4.524,4.57A4.549,4.549,0,0,0,293.148,321.066Z" transform="translate(-286.966 -319.454)" fill="#fff"/>
        <path id="Path_3815" data-name="Path 3815" d="M293.822,321.74a4.547,4.547,0,1,1-4.57,4.524,4.547,4.547,0,0,1,4.57-4.524m.009-1.612a6.159,6.159,0,1,0,6.128,6.19,6.166,6.166,0,0,0-6.128-6.19Z" transform="translate(-287.64 -320.128)" fill="#1971b9"/>
      </g>
      <g id="Group_2424" data-name="Group 2424" transform="translate(275.317 569.477)">
        <path id="Path_3816" data-name="Path 3816" d="M308.8,234.729a4.755,4.755,0,1,0,4.73,4.78A4.756,4.756,0,0,0,308.8,234.729Z" transform="translate(-302.407 -233.117)" fill="#fff"/>
        <path id="Path_3817" data-name="Path 3817" d="M309.472,235.4a4.755,4.755,0,1,1-4.78,4.732,4.756,4.756,0,0,1,4.78-4.732m.009-1.612a6.367,6.367,0,1,0,6.333,6.4,6.372,6.372,0,0,0-6.333-6.4Z" transform="translate(-303.081 -233.791)" fill="#1971b9"/>
      </g>
      <g id="Group_2425" data-name="Group 2425" transform="translate(412.92 633.922)">
        <path id="Path_3818" data-name="Path 3818" d="M388.281,272.241a4.147,4.147,0,1,0,4.125,4.168A4.146,4.146,0,0,0,388.281,272.241Z" transform="translate(-382.5 -270.628)" fill="#fff"/>
        <path id="Path_3819" data-name="Path 3819" d="M388.955,272.915a4.147,4.147,0,1,1-4.17,4.127,4.146,4.146,0,0,1,4.17-4.127m.009-1.613a5.76,5.76,0,1,0,5.73,5.79,5.767,5.767,0,0,0-5.73-5.79Z" transform="translate(-383.174 -271.302)" fill="#1971b9"/>
      </g>
      <g id="Group_2426" data-name="Group 2426" transform="translate(299.512 528.543)">
        <path id="Path_3820" data-name="Path 3820" d="M321.163,210.9a3.044,3.044,0,1,0,3.029,3.06A3.045,3.045,0,0,0,321.163,210.9Z" transform="translate(-316.49 -209.291)" fill="#fff"/>
        <path id="Path_3821" data-name="Path 3821" d="M321.837,211.578a3.044,3.044,0,1,1-3.06,3.027,3.043,3.043,0,0,1,3.06-3.027m.009-1.613a4.657,4.657,0,1,0,4.632,4.68,4.662,4.662,0,0,0-4.632-4.68Z" transform="translate(-317.164 -209.965)" fill="#1971b9"/>
      </g>
      <g id="Group_2427" data-name="Group 2427" transform="translate(358.614 258.105)">
        <path id="Path_3822" data-name="Path 3822" d="M356.163,53.494a3.641,3.641,0,1,0,3.623,3.659A3.641,3.641,0,0,0,356.163,53.494Z" transform="translate(-350.891 -51.881)" fill="#fff"/>
        <path id="Path_3823" data-name="Path 3823" d="M356.838,54.168a3.641,3.641,0,1,1-3.659,3.623,3.642,3.642,0,0,1,3.659-3.623m.009-1.613a5.254,5.254,0,1,0,5.226,5.281,5.263,5.263,0,0,0-5.226-5.281Z" transform="translate(-351.565 -52.555)" fill="#1971b9"/>
      </g>
      <g id="Group_2428" data-name="Group 2428" transform="translate(452.724 287.092)">
        <path id="Path_3824" data-name="Path 3824" d="M410,70.365a2.705,2.705,0,1,0,2.69,2.72A2.7,2.7,0,0,0,410,70.365Z" transform="translate(-405.668 -68.753)" fill="#fff"/>
        <path id="Path_3825" data-name="Path 3825" d="M410.673,71.039a2.705,2.705,0,1,1-2.718,2.692,2.706,2.706,0,0,1,2.718-2.692m.009-1.612a4.318,4.318,0,1,0,4.3,4.338,4.322,4.322,0,0,0-4.3-4.338Z" transform="translate(-406.342 -69.427)" fill="#1971b9"/>
      </g>
      <g id="Group_2429" data-name="Group 2429" transform="translate(460.823 48.573)">
        <path id="Path_3826" data-name="Path 3826" d="M416.314-68.467a4.3,4.3,0,0,0-4.319,4.276,4.3,4.3,0,0,0,4.276,4.321,4.3,4.3,0,0,0,4.319-4.276A4.3,4.3,0,0,0,416.314-68.467Z" transform="translate(-410.382 70.079)" fill="#fff"/>
        <path id="Path_3827" data-name="Path 3827" d="M416.988-67.793a4.3,4.3,0,0,1,4.276,4.321,4.3,4.3,0,0,1-4.319,4.276,4.3,4.3,0,0,1-4.276-4.321,4.3,4.3,0,0,1,4.319-4.276M417-69.4a5.918,5.918,0,0,0-5.941,5.881,5.918,5.918,0,0,0,5.881,5.941,5.919,5.919,0,0,0,5.941-5.881A5.918,5.918,0,0,0,417-69.4Z" transform="translate(-411.056 69.405)" fill="#1971b9"/>
      </g>
      <g id="Group_2430" data-name="Group 2430" transform="translate(449.537 193.66)">
        <path id="Path_3828" data-name="Path 3828" d="M411.218,27.626a5.822,5.822,0,1,0-5.792-5.852A5.82,5.82,0,0,0,411.218,27.626Z" transform="translate(-403.813 -14.37)" fill="#fff"/>
        <path id="Path_3829" data-name="Path 3829" d="M411.952,16.657a5.822,5.822,0,1,1-5.852,5.792,5.82,5.82,0,0,1,5.852-5.792m.009-1.613a7.435,7.435,0,1,0,7.4,7.472,7.444,7.444,0,0,0-7.4-7.472Z" transform="translate(-404.487 -15.044)" fill="#1971b9"/>
      </g>
      <g id="Group_2431" data-name="Group 2431" transform="translate(544.924 245.337)">
        <path id="Path_3830" data-name="Path 3830" d="M463.934,46.062a2.971,2.971,0,1,0,2.955,2.986A2.972,2.972,0,0,0,463.934,46.062Z" transform="translate(-459.334 -44.449)" fill="#fff"/>
        <path id="Path_3831" data-name="Path 3831" d="M464.607,46.736a2.971,2.971,0,1,1-2.988,2.955,2.969,2.969,0,0,1,2.988-2.955m.007-1.613a4.584,4.584,0,1,0,4.561,4.608,4.587,4.587,0,0,0-4.561-4.608Z" transform="translate(-460.008 -45.123)" fill="#1971b9"/>
      </g>
      <g id="Group_2432" data-name="Group 2432" transform="translate(500.46 61.753)">
        <path id="Path_3832" data-name="Path 3832" d="M438.385-60.795a3.3,3.3,0,0,0-3.319,3.287,3.3,3.3,0,0,0,3.287,3.321,3.3,3.3,0,0,0,3.319-3.287A3.3,3.3,0,0,0,438.385-60.795Z" transform="translate(-433.453 62.407)" fill="#fff"/>
        <path id="Path_3833" data-name="Path 3833" d="M439.059-60.121a3.3,3.3,0,0,1,3.287,3.321,3.3,3.3,0,0,1-3.319,3.287,3.3,3.3,0,0,1-3.287-3.321,3.3,3.3,0,0,1,3.319-3.287m.009-1.612a4.921,4.921,0,0,0-4.941,4.891,4.923,4.923,0,0,0,4.891,4.941,4.921,4.921,0,0,0,4.941-4.891,4.921,4.921,0,0,0-4.891-4.941Z" transform="translate(-434.127 61.733)" fill="#1971b9"/>
      </g>
      <g id="Group_2433" data-name="Group 2433" transform="translate(692.034 694.348)">
        <path id="Path_3834" data-name="Path 3834" d="M549.676,307.412a3.087,3.087,0,1,0,3.07,3.1A3.086,3.086,0,0,0,549.676,307.412Z" transform="translate(-544.96 -305.799)" fill="#fff"/>
        <path id="Path_3835" data-name="Path 3835" d="M550.35,308.086a3.087,3.087,0,1,1-3.1,3.07,3.087,3.087,0,0,1,3.1-3.07m.007-1.613a4.7,4.7,0,1,0,4.677,4.723,4.7,4.7,0,0,0-4.677-4.723Z" transform="translate(-545.634 -306.473)" fill="#1971b9"/>
      </g>
      <g id="Group_2434" data-name="Group 2434" transform="translate(732.791 559.133)">
        <circle id="Ellipse_124" data-name="Ellipse 124" cx="3.842" cy="3.842" r="3.842" transform="translate(1.612 1.613)" fill="#fff"/>
        <path id="Path_3836" data-name="Path 3836" d="M574.831,229.383a3.842,3.842,0,1,1-3.862,3.821,3.841,3.841,0,0,1,3.862-3.821m.008-1.613a5.454,5.454,0,1,0,5.426,5.482,5.46,5.46,0,0,0-5.426-5.482Z" transform="translate(-569.357 -227.77)" fill="#1971b9"/>
      </g>
    </g>
  </g>
</svg>
