<svg xmlns="http://www.w3.org/2000/svg" width="170.351" height="35.963" viewBox="0 0 170.351 35.963">
  <g id="Group_2533" data-name="Group 2533" transform="translate(-61 -37)">
    <g id="Group_1" data-name="Group 1" transform="translate(61 37)">
      <path id="Path_1" data-name="Path 1" d="M1016.174,643.685l1.258-2.194h0l2.257-3.941-.193.155.425-.529c.046-.068.091-.131.136-.191l.01-.013c.038-.051.078-.1.12-.147s.1-.112.147-.168l.013-.014V636.6l.066-.027a.3.3,0,0,1,.034-.034.373.373,0,0,1,.032-.033,1.369,1.369,0,0,1,.106-.1c.028-.026.062-.057.1-.087l.038-.033c.039-.034.081-.068.121-.1.021-.018.05-.041.081-.063s.041-.031.062-.045.074-.055.115-.084a4.764,4.764,0,0,1,.55-.322c.049-.024.09-.044.132-.062s.1-.045.155-.067l.013-.006-3.221.008a4.131,4.131,0,0,0-3.532,2.02l-3.667,6.2-4.174,7.306q-.038.068-.082.133l-.026.036c-.022.03-.043.061-.065.09l-.034.042c-.021.026-.043.051-.064.076s-.026.029-.041.043l-.064.068-.045.043c-.022.02-.044.041-.067.06l-.049.042c-.023.018-.045.036-.069.053l-.054.039-.07.047-.057.036-.073.042-.031.019,2.585.019a4.08,4.08,0,0,0,3.564-2.049l3.565-6.226Z" transform="translate(-1000.211 -615.999)" fill="#1971b9"/>
      <path id="Path_2" data-name="Path 2" d="M1022.8,635.542c-.053.022-.106.044-.155.067C1022.7,635.586,1022.75,635.564,1022.8,635.542Z" transform="translate(-1001.079 -615.999)" fill="#006c95"/>
      <path id="Path_3" data-name="Path 3" d="M1017.982,641.829l-1.257,2.193h0l1.256-2.194Z" transform="translate(-1000.761 -616.336)" fill="#006c95"/>
      <path id="Path_4" data-name="Path 4" d="M1025.988,635.526l-1.741.027a4.086,4.086,0,0,0-1.607.327c-.053.022-.105.046-.157.071a4.086,4.086,0,0,0-1.155.817v.008l-.04.03-.006,0,0,0-.012.012-.035.038c-.044.047-.091.1-.136.156s-.071.083-.1.124l-.021.027c-.044.06-.088.12-.13.184-.007.01-.019.027-.031.044-.044.067-.092.143-.136.221l-1.543,2.693a4.288,4.288,0,0,1,2.666-.937h9.551a1.251,1.251,0,0,0,1.083-1.875,3.982,3.982,0,0,0-3.438-1.984h-.009l-3,.008Z" transform="translate(-1000.89 -615.998)" fill="#001a31"/>
      <path id="Path_5" data-name="Path 5" d="M1024.536,635.553l1.741-.027h0Z" transform="translate(-1001.18 -615.998)" fill="#001a31"/>
      <path id="Path_6" data-name="Path 6" d="M1026.376,635.527Z" transform="translate(-1001.278 -615.998)" fill="#001a31"/>
      <path id="Path_7" data-name="Path 7" d="M1026.375,635.527h0Z" transform="translate(-1001.278 -615.998)" fill="#001a31"/>
      <path id="Path_8" data-name="Path 8" d="M1019.131,640.433h0l1.542-2.694Z" transform="translate(-1000.89 -616.117)" fill="#001a31"/>
      <path id="Path_9" data-name="Path 9" d="M1021.4,636.884l.006,0,0,0Z" transform="translate(-1001.012 -616.071)" fill="#001a31"/>
      <path id="Path_10" data-name="Path 10" d="M1021.41,636.877l.04-.03-.04.03Z" transform="translate(-1001.012 -616.069)" fill="#001a31"/>
      <path id="Path_11" data-name="Path 11" d="M1021.406,636.88l0,0h0l.04-.03v-.008l-.026.025Z" transform="translate(-1001.012 -616.069)" fill="#001a31"/>
      <path id="Path_12" data-name="Path 12" d="M1005.527,644.254l5.078-8.737h0l2.111-3.688,1.856-3.241.007-.009c.055-.095.114-.187.174-.275.02-.029.041-.057.062-.085.046-.065.095-.129.145-.191l.068-.083c.06-.07.121-.137.184-.2l.041-.043c.079-.079.16-.154.243-.226.022-.019.043-.036.065-.053.064-.054.131-.106.2-.155.027-.021.056-.041.084-.061.069-.048.14-.095.211-.139.024-.014.046-.029.07-.043.095-.056.191-.109.291-.158l.056-.025c.081-.039.164-.075.247-.109.014,0,.027-.012.042-.018h-3.209a4.013,4.013,0,0,0-3.461,1.994l-9.692,16.71a4.019,4.019,0,0,0,3.446,6.035h.106c-.013-.008-.024-.017-.036-.025a2.122,2.122,0,0,1-.178-.122c-.025-.018-.047-.038-.07-.057-.046-.038-.092-.078-.135-.12-.023-.023-.045-.044-.067-.068-.043-.045-.083-.093-.122-.141-.018-.022-.037-.043-.054-.066a2.451,2.451,0,0,1-.15-.226h0a2.282,2.282,0,0,1,.008-2.259l2.359-4.069,0-.008Z" transform="translate(-999.857 -615.526)" fill="#1971b9"/>
      <path id="Path_13" data-name="Path 13" d="M1005.828,645.285l0,.008v0Z" transform="translate(-1000.177 -616.521)" fill="#006c95"/>
      <path id="Path_14" data-name="Path 14" d="M1013.986,631.54a4.268,4.268,0,0,1,2.7-.964h9.6a1.239,1.239,0,0,0,1.071-1.858,4.027,4.027,0,0,0-3.476-2.007h-1.319l-3.474.01h-.016a4.017,4.017,0,0,0-3.479,2.016h0Z" transform="translate(-1000.614 -615.526)" fill="#001a31"/>
      <path id="Path_15" data-name="Path 15" d="M1022.849,626.711l-3.474.01,3.474-.01Z" transform="translate(-1000.903 -615.526)" fill="#001a31"/>
      <path id="Path_16" data-name="Path 16" d="M1005.176,652.489a1.94,1.94,0,0,0,1.749-.981l1.868-3.269a2.19,2.19,0,0,1-3.375-1.818l-1.827,3.152a1.976,1.976,0,0,0-.12,1.726c.024.059.053.115.082.17.01.021.019.044.03.063s.028.044.043.066c.023.037.045.074.07.109s.046.057.069.086.039.051.061.075.052.053.078.079.043.046.066.067.057.046.085.07.048.041.074.06.06.04.09.06.053.037.081.053.063.033.1.049.057.031.087.045.067.026.1.04.06.025.091.035.071.02.107.029.06.018.09.025Z" transform="translate(-1000.043 -616.582)" fill="#001a31"/>
      <path id="Path_17" data-name="Path 17" d="M1004.961,652.824l.3.009-.3-.009Z" transform="translate(-1000.13 -616.926)" fill="#001a31"/>
      <path id="Path_18" data-name="Path 18" d="M1003.714,652c-.025-.035-.047-.072-.07-.109C1003.667,651.93,1003.689,651.967,1003.714,652Z" transform="translate(-1000.06 -616.876)" fill="#001a31"/>
      <path id="Path_19" data-name="Path 19" d="M1004.352,652.585c-.028-.016-.054-.035-.081-.053C1004.3,652.55,1004.324,652.569,1004.352,652.585Z" transform="translate(-1000.093 -616.91)" fill="#001a31"/>
      <path id="Path_20" data-name="Path 20" d="M1004.172,652.466c-.026-.019-.049-.04-.074-.06C1004.123,652.426,1004.146,652.447,1004.172,652.466Z" transform="translate(-1000.084 -616.903)" fill="#001a31"/>
      <path id="Path_21" data-name="Path 21" d="M1003.852,652.174c-.022-.024-.041-.05-.061-.075C1003.811,652.124,1003.83,652.15,1003.852,652.174Z" transform="translate(-1000.068 -616.887)" fill="#001a31"/>
      <path id="Path_22" data-name="Path 22" d="M1004.545,652.685c-.03-.014-.059-.03-.087-.045C1004.486,652.655,1004.515,652.671,1004.545,652.685Z" transform="translate(-1000.103 -616.916)" fill="#001a31"/>
      <path id="Path_23" data-name="Path 23" d="M1003.6,651.819h0c-.011-.02-.02-.043-.03-.063C1003.577,651.777,1003.586,651.8,1003.6,651.819Z" transform="translate(-1000.056 -616.868)" fill="#001a31"/>
      <path id="Path_24" data-name="Path 24" d="M1004.866,652.8c.029.009.058.018.087.025h0C1004.926,652.816,1004.9,652.807,1004.866,652.8Z" transform="translate(-1000.125 -616.924)" fill="#001a31"/>
      <path id="Path_25" data-name="Path 25" d="M1003.592,649.752a1.976,1.976,0,0,0-.12,1.726A1.976,1.976,0,0,1,1003.592,649.752Z" transform="translate(-1000.043 -616.761)" fill="#001a31"/>
      <path id="Path_26" data-name="Path 26" d="M1004,652.328c-.024-.021-.044-.044-.066-.067C1003.96,652.284,1003.981,652.307,1004,652.328Z" transform="translate(-1000.075 -616.896)" fill="#001a31"/>
      <path id="Path_27" data-name="Path 27" d="M1004.748,652.765c-.031-.01-.061-.024-.091-.035C1004.687,652.741,1004.717,652.755,1004.748,652.765Z" transform="translate(-1000.114 -616.921)" fill="#001a31"/>
      <path id="Path_28" data-name="Path 28" d="M1004.961,652.824h0Z" transform="translate(-1000.13 -616.926)" fill="#001a31"/>
      <path id="Path_29" data-name="Path 29" d="M1038.1,652.3h.019a1.913,1.913,0,0,0,1.658-2.87l-2.4-4.155a1.938,1.938,0,0,0-1.673-.965H1033.3a.544.544,0,0,0-.471.816l.01.018,2.355,4.121a2.21,2.21,0,0,1-.018,2.219,2.174,2.174,0,0,1-.153.224c-.019.025-.041.046-.061.069-.039.045-.077.091-.119.133-.026.026-.053.048-.079.072s-.079.073-.122.106-.061.044-.092.066-.084.06-.129.086c-.01.007-.02.014-.031.02Z" transform="translate(-1001.621 -616.469)" fill="#1971b9"/>
      <path id="Path_30" data-name="Path 30" d="M1033.094,652.332c.038-.006.076-.01.114-.018s.074-.02.112-.03.07-.018.1-.029.073-.029.109-.044.066-.025.1-.04.068-.038.1-.057.062-.032.092-.051.064-.045.1-.069.058-.039.084-.061.063-.056.094-.084.048-.043.071-.065.064-.073.1-.11c.017-.02.036-.039.052-.06a1.94,1.94,0,0,0,.127-.187,1.9,1.9,0,0,0,.015-1.915l-1.806-3.162a2.229,2.229,0,0,1-2.232,2.221h-.215a1.862,1.862,0,0,1-1.6-.923l-.011-.021-.461-.8h0c-.012-.021-.027-.041-.041-.061-.023-.036-.044-.073-.07-.106s-.038-.043-.057-.064-.047-.058-.073-.083-.048-.043-.073-.064-.048-.044-.074-.064-.06-.04-.089-.06-.047-.034-.073-.049-.067-.034-.1-.05-.048-.026-.074-.037-.075-.026-.112-.039-.047-.018-.072-.025c-.044-.012-.088-.019-.132-.027-.021,0-.04-.009-.061-.012a1.559,1.559,0,0,0-.2-.013h0a1.509,1.509,0,0,0-1.3.749l-1.629,2.8a1.444,1.444,0,0,1,.532-.111h.024a1.461,1.461,0,0,1,1.236.69,4.457,4.457,0,0,0,3.759,2.116l3.13.032h0l.323,0h.085C1033.021,652.344,1033.057,652.338,1033.094,652.332Z" transform="translate(-1001.145 -616.563)" fill="#001a31"/>
      <path id="Path_31" data-name="Path 31" d="M1033.068,652.7l.323,0-.323,0Z" transform="translate(-1001.637 -616.919)" fill="#001a31"/>
      <path id="Path_32" data-name="Path 32" d="M1033.847,652.636c-.038.01-.074.023-.112.03C1033.773,652.659,1033.809,652.646,1033.847,652.636Z" transform="translate(-1001.673 -616.916)" fill="#001a31"/>
      <path id="Path_33" data-name="Path 33" d="M1033.5,652.7c.036,0,.071-.011.107-.016-.037.006-.073.012-.11.016Z" transform="translate(-1001.66 -616.918)" fill="#001a31"/>
      <path id="Path_34" data-name="Path 34" d="M1034.284,652.456c-.035.019-.068.04-.1.057C1034.216,652.5,1034.249,652.475,1034.284,652.456Z" transform="translate(-1001.697 -616.906)" fill="#001a31"/>
      <path id="Path_35" data-name="Path 35" d="M1034.848,651.991c-.031.037-.062.075-.1.11C1034.786,652.066,1034.816,652.028,1034.848,651.991Z" transform="translate(-1001.728 -616.881)" fill="#001a31"/>
      <path id="Path_36" data-name="Path 36" d="M1034.672,652.176c-.031.028-.061.058-.094.084C1034.611,652.234,1034.641,652.2,1034.672,652.176Z" transform="translate(-1001.718 -616.891)" fill="#001a31"/>
      <path id="Path_37" data-name="Path 37" d="M1034.072,652.558c-.036.015-.072.031-.109.044C1034,652.589,1034.036,652.573,1034.072,652.558Z" transform="translate(-1001.685 -616.911)" fill="#001a31"/>
      <path id="Path_38" data-name="Path 38" d="M1035.035,651.73a1.939,1.939,0,0,1-.127.187A1.939,1.939,0,0,0,1035.035,651.73Z" transform="translate(-1001.736 -616.867)" fill="#001a31"/>
      <path id="Path_39" data-name="Path 39" d="M1034.484,652.329c-.032.024-.063.048-.1.069C1034.42,652.377,1034.451,652.353,1034.484,652.329Z" transform="translate(-1001.708 -616.899)" fill="#001a31"/>
      <path id="Path_40" data-name="Path 40" d="M1024.151,644.312a4.127,4.127,0,0,0-3.562,2.056l-2.4,4.165a1.205,1.205,0,0,0,1.043,1.808h.074a4,4,0,0,0,3.452-1.994l.123-.212h0l2.072-3.565a1.812,1.812,0,0,1,1.563-.9h0a1.69,1.69,0,0,1,.22.015c.023,0,.045.008.067.011.05.008.1.018.149.03l.074.02c.047.014.094.031.14.048l.065.026.028.011A3.95,3.95,0,0,0,1024.151,644.312Z" transform="translate(-1000.831 -616.469)" fill="#1971b9"/>
      <path id="Path_41" data-name="Path 41" d="M1027.531,645.827l-.074-.02Z" transform="translate(-1001.336 -616.549)" fill="#006c95"/>
      <path id="Path_42" data-name="Path 42" d="M1027.3,645.774c-.022,0-.045-.009-.067-.011C1027.252,645.766,1027.274,645.771,1027.3,645.774Z" transform="translate(-1001.324 -616.547)" fill="#006c95"/>
      <path id="Path_43" data-name="Path 43" d="M1027.748,645.9l-.065-.026Z" transform="translate(-1001.349 -616.553)" fill="#006c95"/>
      <path id="Path_44" data-name="Path 44" d="M1023.154,650.262l.007-.012,2.064-3.553-2.071,3.565Z" transform="translate(-1001.106 -616.597)" fill="#006c95"/>
      <path id="Path_45" data-name="Path 45" d="M1016.6,621.613h5.094a1.156,1.156,0,0,0,1-1.734l-2.546-4.41a1.156,1.156,0,0,0-2,0l-2.549,4.41a1.156,1.156,0,0,0,1,1.734Z" transform="translate(-1000.692 -614.892)" fill="#1971b9"/>
    </g>
    <g id="Group_2455" data-name="Group 2455" transform="translate(-938.855 -582.573)">
      <path id="Path_46" data-name="Path 46" d="M1054.834,631.743v5.3h3.968v2.323h-3.968V647.3h-2.675v-17.93h7.324v2.371Z" transform="translate(-2.804 -0.776)" fill="#001a31"/>
      <path id="Path_47" data-name="Path 47" d="M1069.912,647.3h-5.821a1.461,1.461,0,0,1-1.6-1.643V631.015a1.461,1.461,0,0,1,1.6-1.643h5.821a1.478,1.478,0,0,1,1.62,1.643v14.644A1.478,1.478,0,0,1,1069.912,647.3Zm-1.055-15.63h-3.686V645h3.686Z" transform="translate(-3.358 -0.776)" fill="#001a31"/>
      <path id="Path_48" data-name="Path 48" d="M1082.2,647.3h-5.7a1.468,1.468,0,0,1-1.619-1.643V629.372h2.676V645h3.615v-15.63h2.675v16.287A1.485,1.485,0,0,1,1082.2,647.3Z" transform="translate(-4.022 -0.776)" fill="#001a31"/>
      <path id="Path_49" data-name="Path 49" d="M1093.633,647.3l-4.3-11.288a8.875,8.875,0,0,1,.164,1.291v10H1086.9v-17.93h2.347l4.3,11.054a8.826,8.826,0,0,1-.165-1.291v-9.763h2.606V647.3Z" transform="translate(-4.666 -0.776)" fill="#001a31"/>
      <path id="Path_50" data-name="Path 50" d="M1104.8,647.3h-5.47v-17.93h5.47a3.187,3.187,0,0,1,3.473,3.4v11.147A3.18,3.18,0,0,1,1104.8,647.3Zm.774-14.129a1.414,1.414,0,0,0-1.573-1.5h-2V645h1.926a1.443,1.443,0,0,0,1.643-1.526Z" transform="translate(-5.333 -0.776)" fill="#001a31"/>
      <path id="Path_51" data-name="Path 51" d="M1125.665,631.743V647.3h-2.677v-15.56h-2.934v-2.371h8.569v2.371Z" transform="translate(-6.444 -0.776)" fill="#001a31"/>
      <path id="Path_52" data-name="Path 52" d="M1130.28,647.3v-17.93h2.676V647.3Z" transform="translate(-6.992 -0.776)" fill="#001a31"/>
      <path id="Path_53" data-name="Path 53" d="M1142.684,647.3h-5.822a1.461,1.461,0,0,1-1.6-1.643V631.015a1.461,1.461,0,0,1,1.6-1.643h5.822a1.479,1.479,0,0,1,1.62,1.643v14.644A1.479,1.479,0,0,1,1142.684,647.3Zm-1.056-15.63h-3.686V645h3.686Z" transform="translate(-7.26 -0.776)" fill="#001a31"/>
      <path id="Path_54" data-name="Path 54" d="M1153.807,647.3l-4.3-11.288a8.882,8.882,0,0,1,.164,1.291v10h-2.605v-17.93h2.348l4.3,11.054a8.789,8.789,0,0,1-.166-1.291v-9.763h2.605V647.3Z" transform="translate(-7.893 -0.776)" fill="#001a31"/>
      <path id="Path_55" data-name="Path 55" d="M1177.029,647.3v-17.93h2.676V647.3Z" transform="translate(-9.499 -0.776)" fill="#1971b9"/>
      <g id="Group_2" data-name="Group 2" transform="translate(1103.91 628.573)">
        <path id="Path_56" data-name="Path 56" d="M1112.609,648.125l.544-3.4h0Z" transform="translate(-1109.956 -630.172)" fill="#001a31"/>
        <path id="Path_57" data-name="Path 57" d="M1116.255,641.833l-1.315-8.1,1.309,8.1Z" transform="translate(-1110.08 -629.583)" fill="#001a31"/>
        <path id="Path_58" data-name="Path 58" d="M1113.552,641.833h.02l1.294-8.1Z" transform="translate(-1110.006 -629.583)" fill="#001a31"/>
        <path id="Path_59" data-name="Path 59" d="M1116.716,644.723l.55,3.4-.54-3.4Z" transform="translate(-1110.176 -630.172)" fill="#001a31"/>
        <path id="Path_60" data-name="Path 60" d="M1116.1,629.347h-2.816l-3.475,17.907v.047h2.654l.54-3.4h0l.368-2.3h-.02l1.314-8.1,1.315,8.1h-.006l.372,2.3h.01l.54,3.4h2.653v-.047Z" transform="translate(-1109.805 -629.347)" fill="#001a31"/>
      </g>
      <g id="Group_3" data-name="Group 3" transform="translate(1155.581 628.573)">
        <path id="Path_61" data-name="Path 61" d="M1167.205,648.125l.544-3.4h0Z" transform="translate(-1164.553 -630.172)" fill="#1971b9"/>
        <path id="Path_62" data-name="Path 62" d="M1168.148,641.833h.02l1.295-8.1Z" transform="translate(-1164.603 -629.583)" fill="#1971b9"/>
        <path id="Path_63" data-name="Path 63" d="M1170.852,641.833l-1.314-8.1,1.308,8.1Z" transform="translate(-1164.678 -629.583)" fill="#1971b9"/>
        <path id="Path_64" data-name="Path 64" d="M1171.313,644.723l.55,3.4-.54-3.4Z" transform="translate(-1164.773 -630.172)" fill="#1971b9"/>
        <path id="Path_65" data-name="Path 65" d="M1170.694,629.347h-2.818l-3.474,17.907v.047h2.653l.54-3.4h0l.368-2.3h-.02l1.315-8.1,1.314,8.1h-.006l.372,2.3h.01l.54,3.4h2.653v-.047Z" transform="translate(-1164.402 -629.347)" fill="#1971b9"/>
      </g>
    </g>
  </g>
</svg>
