<svg xmlns="http://www.w3.org/2000/svg" width="72" height="72" viewBox="0 0 72 72">
  <g id="Group_3952" data-name="Group 3952" transform="translate(-510 -847)">
    <path id="Path_6347" data-name="Path 6347" d="M538.772,867.278a2.253,2.253,0,0,0-3.811,2.4l9.141,14.526a2.223,2.223,0,0,0,1.617,1.027,2.085,2.085,0,0,0,.295.014,2.245,2.245,0,0,0,1.533-.6l29.629-27.45a2.249,2.249,0,1,0-3.051-3.3l-27.661,25.621Zm0,0" fill="#007ce1"/>
    <path id="Path_6348" data-name="Path 6348" d="M576.9,864.522a2.255,2.255,0,1,0-3.867,2.32,31.5,31.5,0,0,1,4.416,14.344,2.24,2.24,0,0,0-1.561-.633h-.043a2.257,2.257,0,0,0-2.25,2.25v.043a2.258,2.258,0,0,0,2.25,2.25h.043a2.294,2.294,0,0,0,1.589-.647,31.547,31.547,0,0,1-29.644,30.023,2.236,2.236,0,0,0,.633-1.561v-.042a2.256,2.256,0,0,0-2.25-2.25h-.043a2.257,2.257,0,0,0-2.25,2.25v.042a2.291,2.291,0,0,0,.648,1.589,31.6,31.6,0,0,1-30.01-29.672,2.236,2.236,0,0,0,1.561.633h.043a2.257,2.257,0,0,0,2.25-2.25v-.043a2.257,2.257,0,0,0-2.25-2.25h-.043a2.291,2.291,0,0,0-1.589.648,31.556,31.556,0,0,1,29.644-30.01,2.236,2.236,0,0,0-.633,1.561v.043a2.257,2.257,0,0,0,2.25,2.25h.043a2.257,2.257,0,0,0,2.25-2.25v-.043a2.291,2.291,0,0,0-.648-1.589A31.173,31.173,0,0,1,564.2,857.28a2.25,2.25,0,0,0,2.6-3.671,36.037,36.037,0,1,0,10.1,10.913Zm0,0" fill="#202832"/>
  </g>
</svg>
