<svg xmlns="http://www.w3.org/2000/svg" width="55.981" height="56" viewBox="0 0 55.981 56">
  <g id="Group_3720" data-name="Group 3720" transform="translate(-511.01 -1014)">
    <path id="Path_6117" data-name="Path 6117" d="M566.879,1067.622l-4.254-11.061v-26.812a1.751,1.751,0,0,0-1.75-1.75H558.25a1.75,1.75,0,0,0,0,3.5h.875v23.626h-40.25V1031.5h12.7a8.419,8.419,0,0,0,1.78,2.958,1.752,1.752,0,0,0,1.268.543h2.625v6.125a1.763,1.763,0,0,0,2.533,1.565l2.717-1.359,2.717,1.359a1.762,1.762,0,0,0,2.533-1.565V1035h6.125a1.763,1.763,0,0,0,1.616-2.423,9.625,9.625,0,0,1,0-7.4,1.764,1.764,0,0,0-1.616-2.424h-3.128a9.572,9.572,0,0,1,.369-6.327A1.763,1.763,0,0,0,549.5,1014H530.25a1.752,1.752,0,0,0-1.267.543,8.093,8.093,0,0,0,0,11.164,1.748,1.748,0,0,0,1.267.543h1.329a8.666,8.666,0,0,0-.393,1.749H517.125a1.751,1.751,0,0,0-1.751,1.75v26.812l-4.253,11.061a1.762,1.762,0,0,0,1.633,2.378h52.492a1.763,1.763,0,0,0,1.633-2.378Zm-22.629-29.328a2.836,2.836,0,0,0-3.5,0V1035h3.5Zm7.264-12.044a13.183,13.183,0,0,0,0,5.25H535.457a4.515,4.515,0,0,1-.006-5.25Zm-20.432-3.5a4.515,4.515,0,0,1-.006-5.25h16.063a13.183,13.183,0,0,0,0,5.25Zm14.043,43.75a1.751,1.751,0,0,0-1.75-1.75h-8.75a1.751,1.751,0,0,0-1.75,1.75H515.3l3.028-7.875h41.34l3.028,7.875Zm0,0" fill="#fff"/>
    <path id="Path_6118" data-name="Path 6118" d="M540.75,1051.625a1.75,1.75,0,1,1-1.75-1.75,1.749,1.749,0,0,1,1.75,1.75Zm0,0" fill="#fff"/>
  </g>
</svg>
