<svg xmlns="http://www.w3.org/2000/svg" width="36" height="36" viewBox="0 0 36 36">
  <g id="Group_3484" data-name="Group 3484" transform="translate(-746.893 -1157.893)">
    <path id="Intersection_2" data-name="Intersection 2" d="M26.974,36c-.076,0-7.76-.109-17.389-9.575C.109,16.786,0,9.1,0,9.025,0,7.723,5.955,0,8.04,0a2.747,2.747,0,0,1,2.047,1.157c.053.065,5.2,7.258,4.859,9.2-.166.938-.8,1.475-2.077,2.543-.211.177-.706.594-1.058.916a14.983,14.983,0,0,0,.806,1.981A16.441,16.441,0,0,0,20.2,23.383a15,15,0,0,0,1.981.806c.321-.352.738-.845.911-1.051,1.073-1.279,1.609-1.919,2.546-2.084,1.943-.313,9.138,4.806,9.2,4.858A2.751,2.751,0,0,1,36,27.96C36,30.046,28.275,36,26.974,36ZM2.408,9.16c.083,1,.912,7.469,8.872,15.573,8.064,7.921,14.52,8.772,15.562,8.861v0a32.436,32.436,0,0,0,6.674-5.648c-.047-.042-.118-.107-.218-.191a42.153,42.153,0,0,0-7.291-4.294c-.191.169-.693.768-1.07,1.217A12.1,12.1,0,0,1,23.225,26.5a1.187,1.187,0,0,1-.9.205,13.655,13.655,0,0,1-3.169-1.159,18.853,18.853,0,0,1-8.7-8.7A13.7,13.7,0,0,1,9.3,13.676a1.2,1.2,0,0,1,.205-.9,12.066,12.066,0,0,1,1.814-1.706,14.346,14.346,0,0,0,1.219-1.093A42.51,42.51,0,0,0,8.248,2.7c-.082-.094-.145-.166-.193-.214A32.436,32.436,0,0,0,2.408,9.16Z" transform="translate(746.893 1157.893)" fill="#fff"/>
    <path id="Intersection_3" data-name="Intersection 3" d="M7.5,10A7.508,7.508,0,0,0,0,2.5V0A10.011,10.011,0,0,1,10,10Z" transform="translate(765.893 1164.893)" fill="#fff"/>
    <path id="Intersection_4" data-name="Intersection 4" d="M13.539,16A13.554,13.554,0,0,0,0,2.461V0A16.017,16.017,0,0,1,16,16Z" transform="translate(765.893 1158.893)" fill="#fff"/>
  </g>
</svg>
