<svg xmlns="http://www.w3.org/2000/svg" xmlns:xlink="http://www.w3.org/1999/xlink" width="35.397" height="24.554" viewBox="0 0 35.397 24.554">
  <defs>
    <clipPath id="clip-path">
      <rect id="Rectangle_1760" data-name="Rectangle 1760" width="35.397" height="24.554" fill="#2f3134"/>
    </clipPath>
  </defs>
  <g id="Group_2615" data-name="Group 2615" transform="translate(0 0)">
    <g id="Group_2613" data-name="Group 2613" transform="translate(0 0)" clip-path="url(#clip-path)">
      <path id="Path_4167" data-name="Path 4167" d="M3.557,24.554H2.124a1.979,1.979,0,0,1-1.664-.6A4.68,4.68,0,0,1,0,21.4V12.564L8.146,0h5.278L6.368,12.793H9.41q2.522,0,3.04.6a4.4,4.4,0,0,1,.515,2.611V21.4a4.056,4.056,0,0,1-.545,2.58q-.546.575-3.011.574Zm21.858,0H24.1a2.089,2.089,0,0,1-1.751-.632,4.459,4.459,0,0,1-.488-2.523V12.564L30.119,0H35.4L28.34,12.793h3.04q2.467,0,2.955.6a4.613,4.613,0,0,1,.488,2.611V21.4a4.233,4.233,0,0,1-.515,2.61q-.518.546-2.927.545Z" transform="translate(0 0)" fill="#2f3134"/>
    </g>
  </g>
</svg>
