<svg xmlns="http://www.w3.org/2000/svg" xmlns:xlink="http://www.w3.org/1999/xlink" width="56.603" height="39.264" viewBox="0 0 56.603 39.264">
  <defs>
    <clipPath id="clip-path">
      <rect id="Rectangle_1760" data-name="Rectangle 1760" width="56.603" height="39.264" fill="#007ce1"/>
    </clipPath>
  </defs>
  <g id="Group_3413" data-name="Group 3413" transform="translate(0 0)">
    <g id="Group_2613" data-name="Group 2613" transform="translate(0 0)" clip-path="url(#clip-path)">
      <path id="Path_4167" data-name="Path 4167" d="M5.688,39.264H3.4A3.164,3.164,0,0,1,.735,38.3Q0,37.336,0,34.22V20.091L13.027,0h8.44L10.183,20.458h4.864q4.034,0,4.861.963t.824,4.176V34.22q0,3.213-.871,4.126t-4.814.918Zm34.952,0H38.532a3.341,3.341,0,0,1-2.8-1.01q-.782-1.007-.78-4.035V20.091L48.163,0H56.6L45.319,20.458H50.18q3.945,0,4.725.963t.78,4.176V34.22q0,3.3-.824,4.173t-4.681.871Z" transform="translate(0 0.001)" fill="#007ce1"/>
    </g>
  </g>
</svg>
