<svg xmlns="http://www.w3.org/2000/svg" width="154.866" height="476.696" viewBox="0 0 154.866 476.696">
  <g id="Group_3428" data-name="Group 3428" transform="translate(2.301 217.316)">
    <line id="Line_188" data-name="Line 188" x2="142" y2="174" transform="translate(0 -217)" fill="none" stroke="#c2c4cb" stroke-width="1"/>
    <line id="Line_189" data-name="Line 189" y1="44" x2="51" transform="translate(96 -39)" fill="none" stroke="#c2c4cb" stroke-width="1"/>
    <line id="Line_190" data-name="Line 190" y1="90" x2="48" transform="translate(40 18)" fill="none" stroke="#c2c4cb" stroke-width="1"/>
    <line id="Line_191" data-name="Line 191" x1="55" y2="47" transform="translate(0 212)" fill="none" stroke="#c2c4cb" stroke-width="1"/>
    <line id="Line_193" data-name="Line 193" y1="64" x2="34" transform="translate(3 113)" fill="none" stroke="#c2c4cb" stroke-width="1"/>
    <g id="Group_3426" data-name="Group 3426" transform="translate(144.658 -31) rotate(-138)">
      <path id="Path_3832" data-name="Path 3832" d="M3.989,7.941A3.971,3.971,0,1,1,7.939,3.95,3.969,3.969,0,0,1,3.989,7.941Z" transform="translate(1.939 1.939)" fill="#fff"/>
      <path id="Path_3833" data-name="Path 3833" d="M5.928,9.88A3.971,3.971,0,1,0,1.939,5.93,3.971,3.971,0,0,0,5.928,9.88m.01,1.937a5.908,5.908,0,1,1,5.878-5.938,5.915,5.915,0,0,1-5.878,5.938Z" fill="#1971b9"/>
    </g>
    <line id="Line_194" data-name="Line 194" y1="1" x2="81" transform="translate(0 9)" fill="none" stroke="#c2c4cb" stroke-width="1"/>
    <line id="Line_195" data-name="Line 195" x2="20" y2="91" transform="translate(39 113)" fill="none" stroke="#c2c4cb" stroke-width="1"/>
    <line id="Line_196" data-name="Line 196" x2="55" y2="30" transform="translate(0 177)" fill="none" stroke="#c2c4cb" stroke-width="1"/>
    <g id="Group_3431" data-name="Group 3431" transform="translate(3.277 185.254) rotate(-138)">
      <path id="Path_3832-2" data-name="Path 3832" d="M2.534,5.045A2.522,2.522,0,1,1,5.043,2.509,2.521,2.521,0,0,1,2.534,5.045Z" transform="translate(1.232 1.232)" fill="#fff"/>
      <path id="Path_3833-2" data-name="Path 3833" d="M3.766,6.276A2.522,2.522,0,1,0,1.232,3.767,2.522,2.522,0,0,0,3.766,6.276m.007,1.23A3.753,3.753,0,1,1,7.507,3.734,3.757,3.757,0,0,1,3.772,7.507Z" fill="#1971b9"/>
    </g>
    <g id="Group_3432" data-name="Group 3432" transform="translate(38.777 115.102) rotate(-138)">
      <path id="Path_3832-3" data-name="Path 3832" d="M2.534,5.045A2.522,2.522,0,1,1,5.043,2.509,2.521,2.521,0,0,1,2.534,5.045Z" transform="translate(1.232 1.232)" fill="#fff"/>
      <path id="Path_3833-3" data-name="Path 3833" d="M3.766,6.276A2.522,2.522,0,1,0,1.232,3.767,2.522,2.522,0,0,0,3.766,6.276m.007,1.23A3.753,3.753,0,1,1,7.507,3.734,3.757,3.757,0,0,1,3.772,7.507Z" fill="#1971b9"/>
    </g>
    <g id="Group_3433" data-name="Group 3433" transform="translate(59.094 217) rotate(-138)">
      <path id="Path_3832-4" data-name="Path 3832" d="M3.989,7.941A3.971,3.971,0,1,1,7.939,3.95,3.969,3.969,0,0,1,3.989,7.941Z" transform="translate(1.939 1.939)" fill="#fff"/>
      <path id="Path_3833-4" data-name="Path 3833" d="M5.928,9.88A3.971,3.971,0,1,0,1.939,5.93,3.971,3.971,0,0,0,5.928,9.88m.01,1.937a5.908,5.908,0,1,1,5.878-5.938,5.915,5.915,0,0,1-5.878,5.938Z" fill="#1971b9"/>
    </g>
    <g id="Group_3434" data-name="Group 3434" transform="translate(90.043 22.801) rotate(-138)">
      <path id="Path_3828" data-name="Path 3828" d="M6.96,0A7,7,0,1,1,0,7.033,6.995,6.995,0,0,1,6.96,0Z" transform="translate(1.939 1.939)" fill="#fff"/>
      <path id="Path_3829" data-name="Path 3829" d="M8.971,15.932a7,7,0,1,0-7.033-6.96,6.995,6.995,0,0,0,7.033,6.96m.01,1.939a8.935,8.935,0,1,1,8.889-8.98,8.946,8.946,0,0,1-8.889,8.98Z" transform="translate(0 0)" fill="#1971b9"/>
    </g>
  </g>
</svg>
