<svg xmlns="http://www.w3.org/2000/svg" width="207.602" height="733.502" viewBox="0 0 207.602 733.502">
  <g id="Group_3427" data-name="Group 3427" transform="translate(-1713.38 -2267.365)">
    <line id="Line_188" data-name="Line 188" x1="108" y2="61" transform="translate(1812.5 2656.5)" fill="none" stroke="#c2c4cb" stroke-width="1"/>
    <line id="Line_189" data-name="Line 189" x1="54" y1="144" transform="translate(1811.5 2725.5)" fill="none" stroke="#c2c4cb" stroke-width="1"/>
    <line id="Line_190" data-name="Line 190" x1="23" y2="38" transform="translate(1842.5 2885.5)" fill="none" stroke="#c2c4cb" stroke-width="1"/>
    <line id="Line_191" data-name="Line 191" x2="78" y2="72" transform="translate(1842.5 2928.5)" fill="none" stroke="#c2c4cb" stroke-width="1"/>
    <g id="Group_3422" data-name="Group 3422" transform="translate(1834.979 2926.066) rotate(-42)">
      <path id="Path_3832" data-name="Path 3832" d="M437.6-60.795a2.521,2.521,0,0,0-2.534,2.509,2.522,2.522,0,0,0,2.509,2.535,2.521,2.521,0,0,0,2.534-2.509A2.522,2.522,0,0,0,437.6-60.795Z" transform="translate(-433.834 62.025)" fill="#fff"/>
      <path id="Path_3833" data-name="Path 3833" d="M437.893-60.5a2.522,2.522,0,0,1,2.509,2.535,2.521,2.521,0,0,1-2.534,2.509,2.522,2.522,0,0,1-2.509-2.535,2.521,2.521,0,0,1,2.534-2.509m.007-1.23A3.757,3.757,0,0,0,434.127-58a3.758,3.758,0,0,0,3.734,3.772,3.757,3.757,0,0,0,3.772-3.734,3.757,3.757,0,0,0-3.734-3.772Z" transform="translate(-434.127 61.733)" fill="#1971b9"/>
    </g>
    <line id="Line_192" data-name="Line 192" x2="108" y2="47" transform="translate(1812.5 2721.5)" fill="none" stroke="#c2c4cb" stroke-width="1"/>
    <line id="Line_193" data-name="Line 193" y1="27" x2="45" transform="translate(1875.5 2845.5)" fill="none" stroke="#c2c4cb" stroke-width="1"/>
    <g id="Group_3425" data-name="Group 3425" transform="translate(1855.881 2876.665) rotate(-42)">
      <path id="Path_3828" data-name="Path 3828" d="M412.386,29.976a7,7,0,1,0-6.96-7.033A6.995,6.995,0,0,0,412.386,29.976Z" transform="translate(-403.487 -14.044)" fill="#fff"/>
      <path id="Path_3829" data-name="Path 3829" d="M413.458,16.983a7,7,0,1,1-7.033,6.96,6.995,6.995,0,0,1,7.033-6.96m.01-1.939a8.935,8.935,0,1,0,8.889,8.98,8.946,8.946,0,0,0-8.889-8.98Z" transform="translate(-404.487 -15.044)" fill="#1971b9"/>
    </g>
    <line id="Line_197" data-name="Line 197" x2="75" y2="238.01" transform="translate(1733.5 2477.49)" fill="none" stroke="#c2c4cb" stroke-width="1"/>
    <line id="Line_198" data-name="Line 198" x1="138" y2="46.99" transform="translate(1740.5 2413.5)" fill="none" stroke="#c2c4cb" stroke-width="1"/>
    <line id="Line_199" data-name="Line 199" x1="40" y2="143" transform="translate(1880.5 2267.5)" fill="none" stroke="#c2c4cb" stroke-width="1"/>
    <line id="Line_200" data-name="Line 200" x1="40" y1="50" transform="translate(1880.5 2413.5)" fill="none" stroke="#c2c4cb" stroke-width="1"/>
    <g id="Group_3438" data-name="Group 3438" transform="translate(1875.5 2413.066) rotate(-42)">
      <path id="Path_3832-2" data-name="Path 3832" d="M437.6-60.795a2.521,2.521,0,0,0-2.534,2.509,2.522,2.522,0,0,0,2.509,2.535,2.521,2.521,0,0,0,2.534-2.509A2.522,2.522,0,0,0,437.6-60.795Z" transform="translate(-433.834 62.025)" fill="#fff"/>
      <path id="Path_3833-2" data-name="Path 3833" d="M437.893-60.5a2.522,2.522,0,0,1,2.509,2.535,2.521,2.521,0,0,1-2.534,2.509,2.522,2.522,0,0,1-2.509-2.535,2.521,2.521,0,0,1,2.534-2.509m.007-1.23A3.757,3.757,0,0,0,434.127-58a3.758,3.758,0,0,0,3.734,3.772,3.757,3.757,0,0,0,3.772-3.734,3.757,3.757,0,0,0-3.734-3.772Z" transform="translate(-434.127 61.733)" fill="#1971b9"/>
    </g>
    <g id="Group_3439" data-name="Group 3439" transform="translate(1713.38 2465.686) rotate(-42)">
      <path id="Path_3828-2" data-name="Path 3828" d="M414.869,34.966a9.492,9.492,0,1,0-9.443-9.541A9.489,9.489,0,0,0,414.869,34.966Z" transform="translate(-402.796 -13.353)" fill="#fff"/>
      <path id="Path_3829-2" data-name="Path 3829" d="M416.658,17.674a9.492,9.492,0,1,1-9.541,9.443,9.489,9.489,0,0,1,9.541-9.443m.014-2.63a12.122,12.122,0,1,0,12.059,12.182,12.136,12.136,0,0,0-12.059-12.182Z" transform="translate(-404.487 -15.044)" fill="#1971b9"/>
    </g>
    <g id="Group_3440" data-name="Group 3440" transform="translate(1801.155 2719.907) rotate(-42)">
      <path id="Path_3832-3" data-name="Path 3832" d="M439.055-60.795a3.969,3.969,0,0,0-3.989,3.95,3.969,3.969,0,0,0,3.95,3.991,3.969,3.969,0,0,0,3.989-3.95A3.971,3.971,0,0,0,439.055-60.795Z" transform="translate(-433.127 62.732)" fill="#fff"/>
      <path id="Path_3833-3" data-name="Path 3833" d="M440.055-59.8A3.971,3.971,0,0,1,444-55.805a3.969,3.969,0,0,1-3.989,3.95,3.969,3.969,0,0,1-3.95-3.991,3.969,3.969,0,0,1,3.989-3.95m.01-1.937a5.915,5.915,0,0,0-5.938,5.878,5.916,5.916,0,0,0,5.878,5.938,5.915,5.915,0,0,0,5.938-5.878,5.915,5.915,0,0,0-5.878-5.938Z" transform="translate(-434.127 61.733)" fill="#1971b9"/>
    </g>
  </g>
</svg>
