<svg xmlns="http://www.w3.org/2000/svg" width="889.793" height="184.294" viewBox="0 0 889.793 184.294">
  <g id="Group_3703" data-name="Group 3703" transform="translate(889.635) rotate(90)">
    <line id="Line_188" data-name="Line 188" x1="69.5" y1="29.274" transform="translate(114.313 515)" fill="none" stroke="#c2c4cb" stroke-width="1"/>
    <line id="Line_189" data-name="Line 189" x1="22.689" y2="153.757" transform="translate(112.313 355.243)" fill="none" stroke="#c2c4cb" stroke-width="1"/>
    <line id="Line_190" data-name="Line 190" x1="33.689" y1="93.044" transform="translate(101.313 248)" fill="none" stroke="#c2c4cb" stroke-width="1"/>
    <line id="Line_191" data-name="Line 191" y1="243" x2="81" transform="translate(102.313 0)" fill="none" stroke="#c2c4cb" stroke-width="1"/>
    <g id="Group_3422" data-name="Group 3422" transform="translate(100.373 241.092) rotate(42)">
      <path id="Path_3832" data-name="Path 3832" d="M2.249,4.477a2.239,2.239,0,1,1,2.227-2.25A2.238,2.238,0,0,1,2.249,4.477Z" transform="translate(1.093 1.093)" fill="#fff"/>
      <path id="Path_3833" data-name="Path 3833" d="M3.342,5.57A2.239,2.239,0,1,0,1.093,3.343,2.239,2.239,0,0,0,3.342,5.57m.006,1.092A3.331,3.331,0,1,1,6.662,3.314,3.335,3.335,0,0,1,3.348,6.662Z" transform="translate(0 0)" fill="#007ce1"/>
    </g>
    <line id="Line_192" data-name="Line 192" y1="66.122" x2="69.5" transform="translate(114.313 444.878)" fill="none" stroke="#c2c4cb" stroke-width="1"/>
    <line id="Line_193" data-name="Line 193" x2="39.936" y2="23.962" transform="translate(143.877 352.581)" fill="none" stroke="#c2c4cb" stroke-width="1"/>
    <g id="Group_3425" data-name="Group 3425" transform="translate(137.078 337.099) rotate(42)">
      <path id="Path_3828" data-name="Path 3828" d="M6.177,0A6.209,6.209,0,1,1,0,6.241,6.208,6.208,0,0,1,6.177,0Z" transform="translate(1.721 1.721)" fill="#fff"/>
      <path id="Path_3829" data-name="Path 3829" d="M7.962,14.139A6.209,6.209,0,1,0,1.721,7.962a6.208,6.208,0,0,0,6.241,6.177m.009,1.721A7.93,7.93,0,1,1,15.86,7.89,7.939,7.939,0,0,1,7.971,15.86Z" transform="translate(0 0)" fill="#007ce1"/>
    </g>
    <line id="Line_197" data-name="Line 197" y1="186.14" x2="90.457" transform="translate(17.856 517)" fill="none" stroke="#c2c4cb" stroke-width="1"/>
    <line id="Line_198" data-name="Line 198" x1="122.471" y1="41.702" transform="translate(24.068 718.227)" fill="none" stroke="#c2c4cb" stroke-width="1"/>
    <line id="Line_199" data-name="Line 199" x1="35.499" y1="126.908" transform="translate(148.314 762.592)" fill="none" stroke="#c2c4cb" stroke-width="1"/>
    <line id="Line_200" data-name="Line 200" x1="35.499" y2="44.373" transform="translate(148.314 715.556)" fill="none" stroke="#c2c4cb" stroke-width="1"/>
    <g id="Group_3438" data-name="Group 3438" transform="translate(148.335 755.363) rotate(42)">
      <path id="Path_3832-2" data-name="Path 3832" d="M2.249,4.477a2.239,2.239,0,1,1,2.227-2.25A2.238,2.238,0,0,1,2.249,4.477Z" transform="translate(1.093 1.093)" fill="#fff"/>
      <path id="Path_3833-2" data-name="Path 3833" d="M3.342,5.57A2.239,2.239,0,1,0,1.093,3.343,2.239,2.239,0,0,0,3.342,5.57m.006,1.092A3.331,3.331,0,1,1,6.662,3.314,3.335,3.335,0,0,1,3.348,6.662Z" transform="translate(0 0)" fill="#007ce1"/>
    </g>
    <g id="Group_3439" data-name="Group 3439" transform="translate(14.397 697.627) rotate(42)">
      <path id="Path_3828-2" data-name="Path 3828" d="M8.38,0A8.424,8.424,0,1,1,0,8.467,8.422,8.422,0,0,1,8.38,0Z" transform="translate(2.334 2.334)" fill="#fff"/>
      <path id="Path_3829-2" data-name="Path 3829" d="M10.8,19.181A8.424,8.424,0,1,0,2.334,10.8a8.422,8.422,0,0,0,8.467,8.38m.012,2.334A10.758,10.758,0,1,1,21.516,10.7a10.771,10.771,0,0,1-10.7,10.811Z" transform="translate(0 0)" fill="#007ce1"/>
    </g>
    <g id="Group_3440" data-name="Group 3440" transform="translate(109.531 505.209) rotate(42)">
      <path id="Path_3832-3" data-name="Path 3832" d="M3.54,7.047A3.524,3.524,0,1,1,7.046,3.505,3.522,3.522,0,0,1,3.54,7.047Z" transform="translate(1.721 1.721)" fill="#fff"/>
      <path id="Path_3833-3" data-name="Path 3833" d="M5.261,8.768a3.524,3.524,0,1,0-3.54-3.505,3.524,3.524,0,0,0,3.54,3.505m.009,1.719a5.243,5.243,0,1,1,5.217-5.27,5.249,5.249,0,0,1-5.217,5.27Z" transform="translate(0 0)" fill="#007ce1"/>
    </g>
  </g>
</svg>
