<svg xmlns="http://www.w3.org/2000/svg" width="96" height="96" viewBox="0 0 96 96">
  <g id="Group_3392" data-name="Group 3392" transform="translate(-449 -1451)">
    <path id="Path_5005" data-name="Path 5005" d="M500.161,230.049h-.1l-.209,0a43.638,43.638,0,0,0-26.8,8.689,36.736,36.736,0,0,0-9.108,9.84,2.817,2.817,0,0,0,.008,2.859,37.1,37.1,0,0,0,9.126,9.717,44.763,44.763,0,0,0,26.808,8.793c.092,0,.183,0,.275,0h.044c.09,0,.179,0,.269,0a43.637,43.637,0,0,0,26.8-8.689,36.711,36.711,0,0,0,9.107-9.84,2.811,2.811,0,0,0-.008-2.858,36.519,36.519,0,0,0-9.125-9.718,44.723,44.723,0,0,0-26.554-8.791c-.175,0-.352-.007-.529-.007ZM514.487,250a14.34,14.34,0,0,1-14.3,14.325h-.077a14.324,14.324,0,0,1-.01-28.647h.191A14.341,14.341,0,0,1,514.487,250Zm-44.73-.014a33.633,33.633,0,0,1,6.709-6.779,35.681,35.681,0,0,1,7.061-4.212,19.912,19.912,0,0,0-.146,21.788,35.428,35.428,0,0,1-13.624-10.8Zm60.807.03a33.661,33.661,0,0,1-6.709,6.779,35.67,35.67,0,0,1-7.063,4.213,19.909,19.909,0,0,0,.149-21.788,35.431,35.431,0,0,1,13.623,10.8Zm0,0" transform="translate(-3 1249)" fill="#fff"/>
    <path id="Path_5006" data-name="Path 5006" d="M491.077,250a9.083,9.083,0,1,0,9.084-9.083A9.093,9.093,0,0,0,491.077,250Zm12.542,0a3.458,3.458,0,1,1-3.458-3.458A3.462,3.462,0,0,1,503.619,250Zm0,0" transform="translate(-3 1249)" fill="#007ce1"/>
    <g id="Group_3388" data-name="Group 3388" transform="translate(-58 9)">
      <rect id="Rectangle_2300" data-name="Rectangle 2300" width="30" height="5" transform="translate(573 1442)" fill="#fff"/>
      <rect id="Rectangle_2301" data-name="Rectangle 2301" width="30" height="5" transform="translate(603 1442) rotate(90)" fill="#fff"/>
    </g>
    <g id="Group_3389" data-name="Group 3389" transform="translate(449 1451)">
      <rect id="Rectangle_2300-2" data-name="Rectangle 2300" width="30" height="5" fill="#fff"/>
      <rect id="Rectangle_2301-2" data-name="Rectangle 2301" width="30" height="5" transform="translate(5) rotate(90)" fill="#fff"/>
    </g>
    <g id="Group_3390" data-name="Group 3390" transform="translate(515 1517)">
      <rect id="Rectangle_2300-3" data-name="Rectangle 2300" width="30" height="5" transform="translate(0 25)" fill="#fff"/>
      <rect id="Rectangle_2301-3" data-name="Rectangle 2301" width="30" height="5" transform="translate(25 30) rotate(-90)" fill="#fff"/>
    </g>
    <g id="Group_3391" data-name="Group 3391" transform="translate(449 1517)">
      <rect id="Rectangle_2300-4" data-name="Rectangle 2300" width="30" height="5" transform="translate(0 25)" fill="#fff"/>
      <rect id="Rectangle_2301-4" data-name="Rectangle 2301" width="30" height="5" transform="translate(0 30) rotate(-90)" fill="#fff"/>
    </g>
  </g>
</svg>
