<svg id="Group_2926" data-name="Group 2926" xmlns="http://www.w3.org/2000/svg" xmlns:xlink="http://www.w3.org/1999/xlink" width="96" height="96" viewBox="0 0 96 96">
  <defs>
    <clipPath id="clip-path">
      <rect id="Rectangle_1878" data-name="Rectangle 1878" width="96" height="96" fill="#007ce1"/>
    </clipPath>
  </defs>
  <g id="Group_2925" data-name="Group 2925" clip-path="url(#clip-path)">
    <path id="Path_4549" data-name="Path 4549" d="M71.226,30.968A18.58,18.58,0,1,0,89.807,49.549,18.6,18.6,0,0,0,71.226,30.968m0,34.064A15.484,15.484,0,1,1,86.71,49.549,15.5,15.5,0,0,1,71.226,65.032" fill="#007ce1"/>
    <path id="Path_4550" data-name="Path 4550" d="M96,49.549A24.8,24.8,0,0,0,77.419,25.59V0H35.1L21.678,10.065v20.9H15.484v4.088a1.919,1.919,0,0,1-1.3,1.745,1.9,1.9,0,0,1-2.117-.333L9.186,33.576,2.609,40.154,5.5,43.032a1.944,1.944,0,0,1,.306,2.181,1.885,1.885,0,0,1-1.719,1.239H0v9.291H4.087a1.916,1.916,0,0,1,1.745,1.3A1.894,1.894,0,0,1,5.5,59.163L2.608,62.04l6.576,6.579,2.878-2.893a1.922,1.922,0,0,1,2.184-.3,1.877,1.877,0,0,1,1.238,1.716v4.088h6.194V89.807H65.033v1.548A4.651,4.651,0,0,0,69.678,96h3.1a4.65,4.65,0,0,0,4.644-4.645V73.507A24.794,24.794,0,0,0,96,49.549M33.054,5.405,31.6,11.215a11.986,11.986,0,0,0-4.1-1.646ZM21.678,46.737a4.6,4.6,0,0,0-1.549-.285,4.646,4.646,0,0,0,0,9.291,4.6,4.6,0,0,0,1.549-.286v3.21a7.743,7.743,0,1,1,0-15.138Zm0,4.36a1.549,1.549,0,1,1-1.549-1.548A1.551,1.551,0,0,1,21.678,51.1m-3.1,17.032v-.991a5.016,5.016,0,0,0-3.2-4.6,4.992,4.992,0,0,0-5.512,1l-.687.691L6.994,62.046l.691-.691a5.022,5.022,0,0,0,.982-5.562,4.993,4.993,0,0,0-4.58-3.147H3.1v-3.1h.99a5.011,5.011,0,0,0,4.6-3.2,5,5,0,0,0-1-5.511l-.692-.69,2.187-2.185.689.69a5.016,5.016,0,0,0,5.562.984,4.993,4.993,0,0,0,3.151-4.579v-.991h3.1v6.326a10.674,10.674,0,0,0-1.549-.132A10.839,10.839,0,1,0,21.678,61.8v6.325ZM24.775,86.71V12.388h.264a8.967,8.967,0,0,1,6.383,2.643l1.934,1.933L36.823,3.1h37.5V24.99a24.526,24.526,0,0,0-3.1-.215V6.194H43.355V21.678H27.872V43.355h19.4a24.524,24.524,0,0,0-.6,3.1H37.162v3.1h9.29a24.552,24.552,0,0,0,.216,3.1h-18.8v3.1h19.4a24.767,24.767,0,0,0,1.008,3.1h-20.4v3.1H49.8a24.976,24.976,0,0,0,2.113,3.1H46.452v3.1H54.9a24.747,24.747,0,0,0,4.364,3.1H46.452v3.1H65.033V86.71Zm23.5-46.451H30.968V24.775H43.355v9.29h8.562a24.829,24.829,0,0,0-3.641,6.194m6.62-9.291H46.452V9.291H68.129v15.7A24.636,24.636,0,0,0,54.9,30.968M74.323,91.355A1.551,1.551,0,0,1,72.775,92.9h-3.1a1.551,1.551,0,0,1-1.549-1.549V74.107a22.311,22.311,0,0,0,6.194,0Zm-3.1-20.129A21.677,21.677,0,1,1,92.9,49.549,21.7,21.7,0,0,1,71.226,71.226" fill="#007ce1"/>
    <rect id="Rectangle_1874" data-name="Rectangle 1874" width="6.193" height="3.097" transform="translate(27.871 46.452)" fill="#007ce1"/>
    <path id="Path_4551" data-name="Path 4551" d="M27.871,83.613H43.355V65.032H27.871Zm3.1-15.484h9.291V80.517H30.968Z" fill="#007ce1"/>
    <rect id="Rectangle_1875" data-name="Rectangle 1875" width="3.097" height="3.098" transform="translate(46.452 77.419)" fill="#007ce1"/>
    <rect id="Rectangle_1876" data-name="Rectangle 1876" width="3.097" height="3.098" transform="translate(52.646 77.419)" fill="#007ce1"/>
    <rect id="Rectangle_1877" data-name="Rectangle 1877" width="3.097" height="3.098" transform="translate(58.839 77.419)" fill="#007ce1"/>
  </g>
</svg>
