<svg id="Group_2928" data-name="Group 2928" xmlns="http://www.w3.org/2000/svg" xmlns:xlink="http://www.w3.org/1999/xlink" width="95.996" height="96" viewBox="0 0 95.996 96">
  <defs>
    <clipPath id="clip-path">
      <rect id="Rectangle_1879" data-name="Rectangle 1879" width="95.996" height="96" fill="#007ce1"/>
    </clipPath>
  </defs>
  <g id="Group_2927" data-name="Group 2927" clip-path="url(#clip-path)">
    <path id="Path_4552" data-name="Path 4552" d="M55.069,21.141a4.954,4.954,0,1,0-4.953,4.954,4.959,4.959,0,0,0,4.953-4.954m-7.094,0a2.141,2.141,0,1,1,2.141,2.141,2.143,2.143,0,0,1-2.141-2.141" fill="#007ce1"/>
    <path id="Path_4553" data-name="Path 4553" d="M78.935,90.281V44.843L94.79,28.988a4.127,4.127,0,0,0,0-5.829l-4.1-4.1a4.126,4.126,0,0,0-5.829,0l-5.921,5.921V18.047a1.407,1.407,0,0,0-2.814,0v9.741L65.9,38.007V11.341A1.407,1.407,0,0,0,64.5,9.935H34.872a1.406,1.406,0,0,0,0,2.813H63.091V24.576l-8.619,7.492-8.1-6.2A16.362,16.362,0,0,0,32.9,14.714V12.748H36a1.406,1.406,0,1,0,0-2.813H31.5a1.407,1.407,0,0,0-1.407,1.406v3.25a16.259,16.259,0,0,0-10.218,4.133V2.812H76.121V19.125a1.407,1.407,0,0,0,2.814,0V1.406A1.406,1.406,0,0,0,77.528,0H18.465a1.407,1.407,0,0,0-1.406,1.406V21.98a16.462,16.462,0,0,0,0,17.987v.48L1.233,56.274A4.219,4.219,0,0,0,7.2,62.239l9.859-9.861V86.156a1.406,1.406,0,0,0,2.812,0V49.566l3.8-3.8a16.451,16.451,0,0,0,18.709-3.19A16.543,16.543,0,0,0,44.139,40.5H63.411l-9.463,9.465H26.81a1.406,1.406,0,1,0,0,2.812H51.135L47.7,56.213H26.81a1.406,1.406,0,1,0,0,2.812H44.885L41.45,62.462H26.81a1.406,1.406,0,1,0,0,2.812H38.636L35.2,68.713H26.81a1.406,1.406,0,0,0,0,2.812h5.575l-1.37,1.369a2.33,2.33,0,0,0-.56,2.373c-1.736,1.156-4.061,3.872-4.756,10.22a2.421,2.421,0,0,0,2.4,2.672,2.288,2.288,0,0,0,.262-.015c6.349-.693,9.065-3.017,10.22-4.755a2.323,2.323,0,0,0,2.375-.56L58.5,65.274H68.06a1.406,1.406,0,0,0,0-2.812H61.317l3.437-3.437H68.06a1.406,1.406,0,0,0,0-2.812h-.494l8.555-8.557V90.281m0-.937v3.843H19.872V84.094a1.406,1.406,0,1,0-2.813,0v10.5A1.407,1.407,0,0,0,18.465,96H77.528a1.406,1.406,0,0,0,1.407-1.406v-5.25M43.279,76.521l-5.956-5.956L77.735,30.153l5.956,5.956Zm-3.973,3.973L33.35,74.538l1.983-1.984,5.956,5.957Zm42.4-54.313,5.956,5.956L85.68,34.121l-5.956-5.956Zm5.138-5.139a1.312,1.312,0,0,1,1.851,0l4.105,4.1A1.307,1.307,0,0,1,92.8,27l-3.148,3.15L83.7,24.192ZM63.091,28.3v9.383H61.813l-5.061-3.872ZM5.212,60.251a1.406,1.406,0,1,1-1.99-1.988L19.049,42.435c.045.046.086.094.132.14a16.591,16.591,0,0,0,2,1.7Zm25.572-15.69A13.588,13.588,0,1,1,40.4,40.585a13.5,13.5,0,0,1-9.612,3.976M45.75,37.685a16.471,16.471,0,0,0,1.4-7.679l10.034,7.679ZM28.5,85.794h0Zm.059-.5c.709-5.528,2.729-7.3,3.721-7.849l1.069,1.07-1.653,1.653a1.406,1.406,0,1,0,1.989,1.988L35.333,80.5l1.077,1.075c-.535.972-2.3,3-7.855,3.716" fill="#007ce1"/>
  </g>
</svg>
