<svg id="Group_2932" data-name="Group 2932" xmlns="http://www.w3.org/2000/svg" xmlns:xlink="http://www.w3.org/1999/xlink" width="96.01" height="96" viewBox="0 0 96.01 96">
  <defs>
    <clipPath id="clip-path">
      <rect id="Rectangle_1881" data-name="Rectangle 1881" width="96.01" height="96" fill="#007ce1"/>
    </clipPath>
  </defs>
  <g id="Group_2931" data-name="Group 2931" clip-path="url(#clip-path)">
    <path id="Path_4561" data-name="Path 4561" d="M46.891,27.737l-9.915-6.61A3.2,3.2,0,0,0,32,23.79V37.01a3.2,3.2,0,0,0,4.975,2.663l9.916-6.611a3.2,3.2,0,0,0,0-5.325M35.2,37.01V23.79l9.916,6.61Z" fill="#007ce1"/>
    <path id="Path_4562" data-name="Path 4562" d="M28.8,73.6H9.6a1.6,1.6,0,0,0,0,3.2H28.8a1.6,1.6,0,0,0,0-3.2" fill="#007ce1"/>
    <path id="Path_4563" data-name="Path 4563" d="M91.2,48H76.8V4.8A4.806,4.806,0,0,0,72,0H4.8A4.806,4.806,0,0,0,0,4.8V78.4a4.8,4.8,0,0,0,4.8,4.8H38.4V90.5A5.187,5.187,0,0,0,43.2,96h48A5.188,5.188,0,0,0,96,90.5V53.495A5.189,5.189,0,0,0,91.2,48M4.8,80a1.6,1.6,0,0,1-1.6-1.6V4.8A1.6,1.6,0,0,1,4.8,3.2H72a1.6,1.6,0,0,1,1.6,1.6V48H70.4V9.6a3.2,3.2,0,0,0-3.2-3.2H9.6A3.2,3.2,0,0,0,6.4,9.6V51.2a3.2,3.2,0,0,0,3.2,3.2H38.4v8H28.8V60.8a3.2,3.2,0,0,0-3.2-3.2H22.4a3.2,3.2,0,0,0-3.2,3.2v1.6H9.6a1.6,1.6,0,1,0,0,3.2h9.6v1.6a3.2,3.2,0,0,0,3.2,3.2h3.2a3.2,3.2,0,0,0,3.2-3.2V65.6h9.6V80ZM43.2,48a4.809,4.809,0,0,0-4.346,3.2H9.6V9.6H67.2V48ZM25.6,67.2H22.4V60.8h3.2v6.4ZM92.8,90.5c0,1.223-.748,2.3-1.6,2.3h-48c-.852,0-1.6-1.072-1.6-2.3V53.495c0-1.222.747-2.295,1.6-2.295h48c.853,0,1.6,1.073,1.6,2.295Z" fill="#007ce1"/>
    <path id="Path_4564" data-name="Path 4564" d="M84.8,78.4a4.762,4.762,0,0,0-1.768.346l-5.265-6.01A4.745,4.745,0,0,0,78.4,70.4a4.8,4.8,0,1,0-9.6,0,4.734,4.734,0,0,0,.633,2.336l-5.266,6.01a4.53,4.53,0,0,0-2.613-.261L53.219,63.918A4.757,4.757,0,0,0,54.4,60.8a4.865,4.865,0,1,0-3.955,4.715L58.78,80.082a4.8,4.8,0,1,0,7.787.782l5.265-6.01a4.681,4.681,0,0,0,3.535,0l5.265,6.01A4.784,4.784,0,1,0,84.8,78.4M48,60.8a1.6,1.6,0,1,1,1.6,1.6A1.6,1.6,0,0,1,48,60.8m14.4,24A1.6,1.6,0,1,1,64,83.2a1.6,1.6,0,0,1-1.6,1.6M72,70.4A1.6,1.6,0,1,1,73.6,72,1.6,1.6,0,0,1,72,70.4M84.8,84.8a1.6,1.6,0,1,1,1.6-1.6,1.6,1.6,0,0,1-1.6,1.6" fill="#007ce1"/>
  </g>
</svg>
