<svg xmlns="http://www.w3.org/2000/svg" xmlns:xlink="http://www.w3.org/1999/xlink" width="62" height="62" viewBox="0 0 62 62">
  <defs>
    <linearGradient id="linear-gradient" x2="1" y2="1" gradientUnits="objectBoundingBox">
      <stop offset="0" stop-color="#7ac0ff"/>
      <stop offset="1" stop-color="#2c9af3"/>
    </linearGradient>
    <filter id="Rectangle_1690" x="0" y="0" width="62" height="62" filterUnits="userSpaceOnUse">
      <feOffset dx="2" dy="2" input="SourceAlpha"/>
      <feGaussianBlur stdDeviation="1" result="blur"/>
      <feFlood flood-opacity="0.102"/>
      <feComposite operator="in" in2="blur"/>
      <feComposite in="SourceGraphic"/>
    </filter>
    <linearGradient id="linear-gradient-2" x2="1" y2="1" gradientUnits="objectBoundingBox">
      <stop offset="0" stop-color="#8ecaff"/>
      <stop offset="1" stop-color="#3ea8ff"/>
    </linearGradient>
  </defs>
  <g id="Group_2959" data-name="Group 2959" transform="translate(-1107.14 -173.14)">
    <g transform="matrix(1, 0, 0, 1, 1107.14, 173.14)" filter="url(#Rectangle_1690)">
      <rect id="Rectangle_1690-2" data-name="Rectangle 1690" width="56" height="56" transform="translate(1 1)" fill="url(#linear-gradient)"/>
    </g>
    <rect id="Rectangle_1692" data-name="Rectangle 1692" width="50" height="50" transform="translate(1111.14 177.14)" fill="url(#linear-gradient-2)"/>
    <g id="Group_2540" data-name="Group 2540" transform="translate(1120.053 186.053)">
      <path id="Path_1" data-name="Path 1" d="M1015.13,642.809l1.123-1.958h0l2.015-3.517-.172.138.379-.472c.041-.061.081-.117.122-.171l.009-.012c.034-.046.069-.089.107-.131s.085-.1.131-.15l.012-.013v-.037l.059-.024a.26.26,0,0,1,.03-.03.319.319,0,0,1,.029-.03,1.218,1.218,0,0,1,.095-.091c.025-.024.055-.051.086-.078l.034-.03c.035-.031.073-.061.108-.089.019-.016.045-.036.073-.056s.036-.028.055-.041.066-.049.1-.075a4.231,4.231,0,0,1,.491-.287c.044-.021.08-.039.118-.055s.091-.041.139-.06l.012,0-2.874.008a3.686,3.686,0,0,0-3.152,1.8l-3.273,5.537-3.726,6.521c-.023.04-.047.08-.074.119l-.023.032c-.019.027-.038.054-.058.08l-.03.038c-.019.023-.038.046-.058.068s-.023.026-.036.039l-.057.061-.041.038c-.02.018-.04.036-.06.053l-.044.037-.062.047-.048.035-.062.042-.051.032-.065.037-.028.017,2.307.017a3.642,3.642,0,0,0,3.181-1.829l3.182-5.557Z" transform="translate(-1000.883 -618.098)" fill="#299dff"/>
      <path id="Path_2" data-name="Path 2" d="M1022.787,635.542c-.047.019-.095.04-.138.06C1022.692,635.582,1022.739,635.561,1022.787,635.542Z" transform="translate(-1003.397 -618.099)" fill="#299dff"/>
      <path id="Path_3" data-name="Path 3" d="M1017.846,641.829l-1.122,1.958h0l1.122-1.958Z" transform="translate(-1002.476 -619.076)" fill="#299dff"/>
      <path id="Path_4" data-name="Path 4" d="M1025.251,635.526l-1.554.024a3.642,3.642,0,0,0-1.434.291c-.047.019-.094.041-.14.063a3.643,3.643,0,0,0-1.031.729v.008l-.036.027,0,0,0,0-.011.011-.031.034c-.039.042-.081.09-.122.139s-.063.074-.091.111l-.019.024c-.04.054-.079.107-.116.164l-.028.039c-.039.06-.082.128-.122.2l-1.377,2.4a3.83,3.83,0,0,1,2.38-.836h8.525a1.116,1.116,0,0,0,.966-1.673,3.554,3.554,0,0,0-3.069-1.77h-.008l-2.674.008Z" transform="translate(-1002.85 -618.096)" fill="#299dff"/>
      <path id="Path_5" data-name="Path 5" d="M1024.536,635.55l1.554-.024h0Z" transform="translate(-1003.69 -618.097)" fill="#299dff"/>
      <path id="Path_6" data-name="Path 6" d="M1026.376,635.527Z" transform="translate(-1003.976 -618.097)" fill="#299dff"/>
      <path id="Path_7" data-name="Path 7" d="M1026.375,635.527h0Z" transform="translate(-1003.975 -618.097)" fill="#299dff"/>
      <path id="Path_8" data-name="Path 8" d="M1019.131,640.143h0l1.377-2.4Z" transform="translate(-1002.85 -618.44)" fill="#299dff"/>
      <path id="Path_9" data-name="Path 9" d="M1021.4,636.883l.005,0,0,0Z" transform="translate(-1003.203 -618.307)" fill="#299dff"/>
      <path id="Path_10" data-name="Path 10" d="M1021.41,636.874l.036-.027-.035.027Z" transform="translate(-1003.204 -618.302)" fill="#299dff"/>
      <path id="Path_11" data-name="Path 11" d="M1021.406,636.875l0,0h0l.035-.027v-.008l-.023.022Z" transform="translate(-1003.204 -618.3)" fill="#299dff"/>
      <path id="Path_12" data-name="Path 12" d="M1004.917,642.369l4.533-7.8h0l1.885-3.292,1.656-2.893.006-.008c.049-.085.1-.167.155-.246.018-.026.036-.051.055-.076.042-.058.085-.115.129-.171l.061-.074c.053-.063.108-.123.165-.182l.036-.038c.07-.07.143-.138.217-.2l.058-.047c.057-.048.117-.095.177-.139l.075-.054c.062-.043.125-.084.188-.124.021-.013.041-.026.062-.038.084-.05.171-.1.26-.141l.05-.022c.072-.035.146-.067.22-.1.013,0,.024-.011.037-.016h-2.864a3.582,3.582,0,0,0-3.089,1.78l-8.651,14.915a3.587,3.587,0,0,0,3.076,5.387h.094c-.012-.007-.021-.015-.032-.022a1.86,1.86,0,0,1-.159-.109c-.022-.016-.042-.034-.062-.051-.041-.034-.082-.07-.121-.107-.02-.02-.041-.04-.06-.061-.038-.041-.074-.083-.109-.126-.016-.019-.033-.039-.048-.059a2.152,2.152,0,0,1-.133-.2h0a2.036,2.036,0,0,1,.007-2.016l2.106-3.632,0-.007Z" transform="translate(-999.857 -616.728)" fill="#299dff"/>
      <path id="Path_13" data-name="Path 13" d="M1005.828,645.285l0,.007v0Z" transform="translate(-1000.783 -619.612)" fill="#299dff"/>
      <path id="Path_14" data-name="Path 14" d="M1013.986,631.022a3.809,3.809,0,0,1,2.408-.861h8.568a1.106,1.106,0,0,0,.956-1.658,3.594,3.594,0,0,0-3.1-1.792h-1.177l-3.1.009h-.014a3.586,3.586,0,0,0-3.105,1.8h0Z" transform="translate(-1002.051 -616.728)" fill="#299dff"/>
      <path id="Path_15" data-name="Path 15" d="M1022.476,626.711l-3.1.009,3.1-.009Z" transform="translate(-1002.888 -616.728)" fill="#299dff"/>
      <path id="Path_16" data-name="Path 16" d="M1004.978,651.837a1.731,1.731,0,0,0,1.561-.876l1.667-2.918a1.955,1.955,0,0,1-3.012-1.623l-1.63,2.814a1.764,1.764,0,0,0-.107,1.541,1.635,1.635,0,0,0,.074.152c.009.019.017.039.027.057s.025.04.038.059.041.066.063.1.041.051.062.077.035.046.054.067.046.047.07.07.038.041.059.06.051.041.076.063.043.036.066.053.053.036.08.053.047.033.073.047.057.03.085.044.051.028.078.041.06.023.09.036.053.022.081.031.063.018.1.026.053.016.08.022Z" transform="translate(-1000.396 -619.789)" fill="#299dff"/>
      <path id="Path_17" data-name="Path 17" d="M1004.961,652.824l.27.008-.27-.008Z" transform="translate(-1000.649 -620.783)" fill="#299dff"/>
      <path id="Path_18" data-name="Path 18" d="M1003.707,651.99c-.022-.031-.042-.064-.063-.1C1003.664,651.926,1003.685,651.959,1003.707,651.99Z" transform="translate(-1000.445 -620.639)" fill="#299dff"/>
      <path id="Path_19" data-name="Path 19" d="M1004.344,652.579c-.025-.014-.048-.031-.073-.047C1004.3,652.548,1004.318,652.565,1004.344,652.579Z" transform="translate(-1000.542 -620.738)" fill="#299dff"/>
      <path id="Path_20" data-name="Path 20" d="M1004.164,652.459c-.023-.017-.044-.035-.066-.053C1004.12,652.424,1004.141,652.442,1004.164,652.459Z" transform="translate(-1000.516 -620.718)" fill="#299dff"/>
      <path id="Path_21" data-name="Path 21" d="M1003.845,652.166c-.019-.021-.036-.045-.054-.067C1003.809,652.121,1003.826,652.145,1003.845,652.166Z" transform="translate(-1000.468 -620.671)" fill="#299dff"/>
      <path id="Path_22" data-name="Path 22" d="M1004.536,652.681c-.027-.013-.052-.027-.078-.041C1004.483,652.654,1004.509,652.668,1004.536,652.681Z" transform="translate(-1000.571 -620.755)" fill="#299dff"/>
      <path id="Path_23" data-name="Path 23" d="M1003.594,651.813h0c-.01-.018-.018-.038-.027-.057C1003.576,651.775,1003.584,651.795,1003.594,651.813Z" transform="translate(-1000.433 -620.617)" fill="#299dff"/>
      <path id="Path_24" data-name="Path 24" d="M1004.866,652.8c.026.008.051.016.078.022h0C1004.919,652.814,1004.892,652.806,1004.866,652.8Z" transform="translate(-1000.635 -620.779)" fill="#299dff"/>
      <path id="Path_25" data-name="Path 25" d="M1003.564,649.752a1.763,1.763,0,0,0-.107,1.541A1.763,1.763,0,0,1,1003.564,649.752Z" transform="translate(-1000.396 -620.306)" fill="#299dff"/>
      <path id="Path_26" data-name="Path 26" d="M1004,652.321c-.021-.019-.04-.04-.059-.06C1003.957,652.281,1003.976,652.3,1004,652.321Z" transform="translate(-1000.49 -620.696)" fill="#299dff"/>
      <path id="Path_27" data-name="Path 27" d="M1004.738,652.761c-.028-.009-.054-.021-.081-.031C1004.684,652.74,1004.71,652.752,1004.738,652.761Z" transform="translate(-1000.602 -620.769)" fill="#299dff"/>
      <path id="Path_28" data-name="Path 28" d="M1004.961,652.824h0Z" transform="translate(-1000.649 -620.783)" fill="#299dff"/>
      <path id="Path_29" data-name="Path 29" d="M1037.528,651.444h.017a1.707,1.707,0,0,0,1.48-2.562l-2.14-3.708a1.73,1.73,0,0,0-1.493-.861h-2.147a.486.486,0,0,0-.421.728l.009.016,2.1,3.679a1.963,1.963,0,0,1-.153,2.181c-.017.022-.036.041-.054.062-.035.041-.069.081-.106.119-.023.023-.047.043-.071.064s-.071.065-.109.095-.054.04-.082.059-.075.053-.115.077l-.028.018Z" transform="translate(-1004.967 -619.461)" fill="#299dff"/>
      <path id="Path_30" data-name="Path 30" d="M1032.106,651.659c.034-.005.067-.008.1-.016s.066-.018.1-.027.062-.016.093-.026.065-.026.1-.04.059-.022.087-.035.061-.034.092-.051.056-.029.082-.046.057-.041.086-.062.052-.035.075-.054.056-.05.084-.075.043-.038.063-.058.057-.065.085-.1c.015-.018.032-.035.046-.053a1.723,1.723,0,0,0,.113-.167,1.7,1.7,0,0,0,.013-1.71l-1.611-2.822a1.99,1.99,0,0,1-1.992,1.982h-.192a1.662,1.662,0,0,1-1.431-.823l-.01-.018-.411-.718h0c-.011-.018-.025-.036-.036-.054s-.039-.065-.062-.095-.034-.038-.051-.057-.042-.052-.065-.074-.043-.038-.065-.057-.043-.04-.066-.057-.053-.035-.08-.053-.042-.03-.065-.044-.06-.031-.09-.045-.043-.023-.066-.033-.067-.024-.1-.035-.042-.016-.064-.022c-.039-.011-.079-.017-.118-.025-.019,0-.036-.008-.054-.011a1.4,1.4,0,0,0-.178-.012h0a1.346,1.346,0,0,0-1.162.668l-1.454,2.5a1.288,1.288,0,0,1,.475-.1h.021a1.3,1.3,0,0,1,1.1.616,3.977,3.977,0,0,0,3.355,1.889l2.794.029h0l.288,0h.076C1032.041,651.669,1032.073,651.664,1032.106,651.659Z" transform="translate(-1003.59 -619.734)" fill="#299dff"/>
      <path id="Path_31" data-name="Path 31" d="M1033.068,652.7l.288,0-.288,0Z" transform="translate(-1005.015 -620.764)" fill="#299dff"/>
      <path id="Path_32" data-name="Path 32" d="M1033.835,652.636c-.034.009-.066.02-.1.027C1033.769,652.656,1033.8,652.645,1033.835,652.636Z" transform="translate(-1005.119 -620.754)" fill="#299dff"/>
      <path id="Path_33" data-name="Path 33" d="M1033.5,652.7c.032,0,.063-.01.1-.014-.033,0-.065.011-.1.014Z" transform="translate(-1005.082 -620.762)" fill="#299dff"/>
      <path id="Path_34" data-name="Path 34" d="M1034.273,652.456c-.031.017-.061.036-.092.051C1034.212,652.492,1034.242,652.473,1034.273,652.456Z" transform="translate(-1005.188 -620.726)" fill="#299dff"/>
      <path id="Path_35" data-name="Path 35" d="M1034.838,651.991c-.028.033-.055.067-.086.1C1034.782,652.058,1034.81,652.024,1034.838,651.991Z" transform="translate(-1005.276 -620.654)" fill="#299dff"/>
      <path id="Path_36" data-name="Path 36" d="M1034.661,652.176c-.028.025-.054.052-.083.075C1034.607,652.227,1034.634,652.2,1034.661,652.176Z" transform="translate(-1005.25 -620.683)" fill="#299dff"/>
      <path id="Path_37" data-name="Path 37" d="M1034.06,652.558c-.032.013-.064.028-.1.04C1034,652.586,1034.028,652.572,1034.06,652.558Z" transform="translate(-1005.154 -620.742)" fill="#299dff"/>
      <path id="Path_38" data-name="Path 38" d="M1035.021,651.73a1.712,1.712,0,0,1-.113.167A1.712,1.712,0,0,0,1035.021,651.73Z" transform="translate(-1005.301 -620.613)" fill="#299dff"/>
      <path id="Path_39" data-name="Path 39" d="M1034.473,652.329c-.029.021-.057.043-.086.062C1034.417,652.372,1034.445,652.35,1034.473,652.329Z" transform="translate(-1005.22 -620.707)" fill="#299dff"/>
      <path id="Path_40" data-name="Path 40" d="M1023.493,644.312a3.683,3.683,0,0,0-3.179,1.835l-2.145,3.717a1.076,1.076,0,0,0,.931,1.613h.066a3.571,3.571,0,0,0,3.081-1.78l.11-.189h0l1.849-3.182a1.617,1.617,0,0,1,1.395-.8h0a1.515,1.515,0,0,1,.2.013c.02,0,.04.007.06.01.045.007.09.016.132.027l.066.018c.042.013.084.028.125.043l.058.023.026.01A3.526,3.526,0,0,0,1023.493,644.312Z" transform="translate(-1002.678 -619.461)" fill="#299dff"/>
      <path id="Path_41" data-name="Path 41" d="M1027.523,645.825l-.066-.018Z" transform="translate(-1004.143 -619.694)" fill="#299dff"/>
      <path id="Path_42" data-name="Path 42" d="M1027.289,645.773l-.06-.01Z" transform="translate(-1004.108 -619.687)" fill="#299dff"/>
      <path id="Path_43" data-name="Path 43" d="M1027.741,645.9l-.058-.023Z" transform="translate(-1004.179 -619.705)" fill="#299dff"/>
      <path id="Path_44" data-name="Path 44" d="M1023.154,649.879l.006-.011L1025,646.7l-1.848,3.182Z" transform="translate(-1003.475 -619.832)" fill="#299dff"/>
      <path id="Path_45" data-name="Path 45" d="M1016.475,620.891h4.547a1.031,1.031,0,0,0,.893-1.548l-2.272-3.936a1.032,1.032,0,0,0-1.786,0l-2.275,3.936a1.031,1.031,0,0,0,.894,1.548Z" transform="translate(-1002.278 -614.892)" fill="#299dff"/>
    </g>
    <g id="Group_2541" data-name="Group 2541" transform="translate(1118.646 184.645)">
      <path id="Path_1-2" data-name="Path 1" d="M1015.13,642.809l1.123-1.958h0l2.015-3.517-.172.138.379-.472c.041-.061.081-.117.122-.171l.009-.012c.034-.046.069-.089.107-.131s.085-.1.131-.15l.012-.013v-.037l.059-.024a.26.26,0,0,1,.03-.03.319.319,0,0,1,.029-.03,1.218,1.218,0,0,1,.095-.091c.025-.024.055-.051.086-.078l.034-.03c.035-.031.073-.061.108-.089.019-.016.045-.036.073-.056s.036-.028.055-.041.066-.049.1-.075a4.231,4.231,0,0,1,.491-.287c.044-.021.08-.039.118-.055s.091-.041.139-.06l.012,0-2.874.008a3.686,3.686,0,0,0-3.152,1.8l-3.273,5.537-3.726,6.521c-.023.04-.047.08-.074.119l-.023.032c-.019.027-.038.054-.058.08l-.03.038c-.019.023-.038.046-.058.068s-.023.026-.036.039l-.057.061-.041.038c-.02.018-.04.036-.06.053l-.044.037-.062.047-.048.035-.062.042-.051.032-.065.037-.028.017,2.307.017a3.642,3.642,0,0,0,3.181-1.829l3.182-5.557Z" transform="translate(-1000.883 -618.098)" fill="#fff"/>
      <path id="Path_2-2" data-name="Path 2" d="M1022.787,635.542c-.047.019-.095.04-.138.06C1022.692,635.582,1022.739,635.561,1022.787,635.542Z" transform="translate(-1003.397 -618.099)" fill="#fff"/>
      <path id="Path_3-2" data-name="Path 3" d="M1017.846,641.829l-1.122,1.958h0l1.122-1.958Z" transform="translate(-1002.476 -619.076)" fill="#fff"/>
      <path id="Path_4-2" data-name="Path 4" d="M1025.251,635.526l-1.554.024a3.642,3.642,0,0,0-1.434.291c-.047.019-.094.041-.14.063a3.643,3.643,0,0,0-1.031.729v.008l-.036.027,0,0,0,0-.011.011-.031.034c-.039.042-.081.09-.122.139s-.063.074-.091.111l-.019.024c-.04.054-.079.107-.116.164l-.028.039c-.039.06-.082.128-.122.2l-1.377,2.4a3.83,3.83,0,0,1,2.38-.836h8.525a1.116,1.116,0,0,0,.966-1.673,3.554,3.554,0,0,0-3.069-1.77h-.008l-2.674.008Z" transform="translate(-1002.85 -618.096)" fill="#fff"/>
      <path id="Path_5-2" data-name="Path 5" d="M1024.536,635.55l1.554-.024h0Z" transform="translate(-1003.69 -618.097)" fill="#fff"/>
      <path id="Path_6-2" data-name="Path 6" d="M1026.376,635.527Z" transform="translate(-1003.976 -618.097)" fill="#fff"/>
      <path id="Path_7-2" data-name="Path 7" d="M1026.375,635.527h0Z" transform="translate(-1003.975 -618.097)" fill="#fff"/>
      <path id="Path_8-2" data-name="Path 8" d="M1019.131,640.143h0l1.377-2.4Z" transform="translate(-1002.85 -618.44)" fill="#fff"/>
      <path id="Path_9-2" data-name="Path 9" d="M1021.4,636.883l.005,0,0,0Z" transform="translate(-1003.203 -618.307)" fill="#fff"/>
      <path id="Path_10-2" data-name="Path 10" d="M1021.41,636.874l.036-.027-.035.027Z" transform="translate(-1003.204 -618.302)" fill="#fff"/>
      <path id="Path_11-2" data-name="Path 11" d="M1021.406,636.875l0,0h0l.035-.027v-.008l-.023.022Z" transform="translate(-1003.204 -618.3)" fill="#fff"/>
      <path id="Path_12-2" data-name="Path 12" d="M1004.917,642.369l4.533-7.8h0l1.885-3.292,1.656-2.893.006-.008c.049-.085.1-.167.155-.246.018-.026.036-.051.055-.076.042-.058.085-.115.129-.171l.061-.074c.053-.063.108-.123.165-.182l.036-.038c.07-.07.143-.138.217-.2l.058-.047c.057-.048.117-.095.177-.139l.075-.054c.062-.043.125-.084.188-.124.021-.013.041-.026.062-.038.084-.05.171-.1.26-.141l.05-.022c.072-.035.146-.067.22-.1.013,0,.024-.011.037-.016h-2.864a3.582,3.582,0,0,0-3.089,1.78l-8.651,14.915a3.587,3.587,0,0,0,3.076,5.387h.094c-.012-.007-.021-.015-.032-.022a1.86,1.86,0,0,1-.159-.109c-.022-.016-.042-.034-.062-.051-.041-.034-.082-.07-.121-.107-.02-.02-.041-.04-.06-.061-.038-.041-.074-.083-.109-.126-.016-.019-.033-.039-.048-.059a2.152,2.152,0,0,1-.133-.2h0a2.036,2.036,0,0,1,.007-2.016l2.106-3.632,0-.007Z" transform="translate(-999.857 -616.728)" fill="#fff"/>
      <path id="Path_13-2" data-name="Path 13" d="M1005.828,645.285l0,.007v0Z" transform="translate(-1000.783 -619.612)" fill="#fff"/>
      <path id="Path_14-2" data-name="Path 14" d="M1013.986,631.022a3.809,3.809,0,0,1,2.408-.861h8.568a1.106,1.106,0,0,0,.956-1.658,3.594,3.594,0,0,0-3.1-1.792h-1.177l-3.1.009h-.014a3.586,3.586,0,0,0-3.105,1.8h0Z" transform="translate(-1002.051 -616.728)" fill="#fff"/>
      <path id="Path_15-2" data-name="Path 15" d="M1022.476,626.711l-3.1.009,3.1-.009Z" transform="translate(-1002.888 -616.728)" fill="#fff"/>
      <path id="Path_16-2" data-name="Path 16" d="M1004.978,651.837a1.731,1.731,0,0,0,1.561-.876l1.667-2.918a1.955,1.955,0,0,1-3.012-1.623l-1.63,2.814a1.764,1.764,0,0,0-.107,1.541,1.635,1.635,0,0,0,.074.152c.009.019.017.039.027.057s.025.04.038.059.041.066.063.1.041.051.062.077.035.046.054.067.046.047.07.07.038.041.059.06.051.041.076.063.043.036.066.053.053.036.08.053.047.033.073.047.057.03.085.044.051.028.078.041.06.023.09.036.053.022.081.031.063.018.1.026.053.016.08.022Z" transform="translate(-1000.396 -619.789)" fill="#fff"/>
      <path id="Path_17-2" data-name="Path 17" d="M1004.961,652.824l.27.008-.27-.008Z" transform="translate(-1000.649 -620.783)" fill="#fff"/>
      <path id="Path_18-2" data-name="Path 18" d="M1003.707,651.99c-.022-.031-.042-.064-.063-.1C1003.664,651.926,1003.685,651.959,1003.707,651.99Z" transform="translate(-1000.445 -620.639)" fill="#fff"/>
      <path id="Path_19-2" data-name="Path 19" d="M1004.344,652.579c-.025-.014-.048-.031-.073-.047C1004.3,652.548,1004.318,652.565,1004.344,652.579Z" transform="translate(-1000.542 -620.738)" fill="#fff"/>
      <path id="Path_20-2" data-name="Path 20" d="M1004.164,652.459c-.023-.017-.044-.035-.066-.053C1004.12,652.424,1004.141,652.442,1004.164,652.459Z" transform="translate(-1000.516 -620.718)" fill="#fff"/>
      <path id="Path_21-2" data-name="Path 21" d="M1003.845,652.166c-.019-.021-.036-.045-.054-.067C1003.809,652.121,1003.826,652.145,1003.845,652.166Z" transform="translate(-1000.468 -620.671)" fill="#fff"/>
      <path id="Path_22-2" data-name="Path 22" d="M1004.536,652.681c-.027-.013-.052-.027-.078-.041C1004.483,652.654,1004.509,652.668,1004.536,652.681Z" transform="translate(-1000.571 -620.755)" fill="#fff"/>
      <path id="Path_23-2" data-name="Path 23" d="M1003.594,651.813h0c-.01-.018-.018-.038-.027-.057C1003.576,651.775,1003.584,651.795,1003.594,651.813Z" transform="translate(-1000.433 -620.617)" fill="#fff"/>
      <path id="Path_24-2" data-name="Path 24" d="M1004.866,652.8c.026.008.051.016.078.022h0C1004.919,652.814,1004.892,652.806,1004.866,652.8Z" transform="translate(-1000.635 -620.779)" fill="#fff"/>
      <path id="Path_25-2" data-name="Path 25" d="M1003.564,649.752a1.763,1.763,0,0,0-.107,1.541A1.763,1.763,0,0,1,1003.564,649.752Z" transform="translate(-1000.396 -620.306)" fill="#fff"/>
      <path id="Path_26-2" data-name="Path 26" d="M1004,652.321c-.021-.019-.04-.04-.059-.06C1003.957,652.281,1003.976,652.3,1004,652.321Z" transform="translate(-1000.49 -620.696)" fill="#fff"/>
      <path id="Path_27-2" data-name="Path 27" d="M1004.738,652.761c-.028-.009-.054-.021-.081-.031C1004.684,652.74,1004.71,652.752,1004.738,652.761Z" transform="translate(-1000.602 -620.769)" fill="#fff"/>
      <path id="Path_28-2" data-name="Path 28" d="M1004.961,652.824h0Z" transform="translate(-1000.649 -620.783)" fill="#fff"/>
      <path id="Path_29-2" data-name="Path 29" d="M1037.528,651.444h.017a1.707,1.707,0,0,0,1.48-2.562l-2.14-3.708a1.73,1.73,0,0,0-1.493-.861h-2.147a.486.486,0,0,0-.421.728l.009.016,2.1,3.679a1.963,1.963,0,0,1-.153,2.181c-.017.022-.036.041-.054.062-.035.041-.069.081-.106.119-.023.023-.047.043-.071.064s-.071.065-.109.095-.054.04-.082.059-.075.053-.115.077l-.028.018Z" transform="translate(-1004.967 -619.461)" fill="#fff"/>
      <path id="Path_30-2" data-name="Path 30" d="M1032.106,651.659c.034-.005.067-.008.1-.016s.066-.018.1-.027.062-.016.093-.026.065-.026.1-.04.059-.022.087-.035.061-.034.092-.051.056-.029.082-.046.057-.041.086-.062.052-.035.075-.054.056-.05.084-.075.043-.038.063-.058.057-.065.085-.1c.015-.018.032-.035.046-.053a1.723,1.723,0,0,0,.113-.167,1.7,1.7,0,0,0,.013-1.71l-1.611-2.822a1.99,1.99,0,0,1-1.992,1.982h-.192a1.662,1.662,0,0,1-1.431-.823l-.01-.018-.411-.718h0c-.011-.018-.025-.036-.036-.054s-.039-.065-.062-.095-.034-.038-.051-.057-.042-.052-.065-.074-.043-.038-.065-.057-.043-.04-.066-.057-.053-.035-.08-.053-.042-.03-.065-.044-.06-.031-.09-.045-.043-.023-.066-.033-.067-.024-.1-.035-.042-.016-.064-.022c-.039-.011-.079-.017-.118-.025-.019,0-.036-.008-.054-.011a1.4,1.4,0,0,0-.178-.012h0a1.346,1.346,0,0,0-1.162.668l-1.454,2.5a1.288,1.288,0,0,1,.475-.1h.021a1.3,1.3,0,0,1,1.1.616,3.977,3.977,0,0,0,3.355,1.889l2.794.029h0l.288,0h.076C1032.041,651.669,1032.073,651.664,1032.106,651.659Z" transform="translate(-1003.59 -619.734)" fill="#fff"/>
      <path id="Path_31-2" data-name="Path 31" d="M1033.068,652.7l.288,0-.288,0Z" transform="translate(-1005.015 -620.764)" fill="#fff"/>
      <path id="Path_32-2" data-name="Path 32" d="M1033.835,652.636c-.034.009-.066.02-.1.027C1033.769,652.656,1033.8,652.645,1033.835,652.636Z" transform="translate(-1005.119 -620.754)" fill="#fff"/>
      <path id="Path_33-2" data-name="Path 33" d="M1033.5,652.7c.032,0,.063-.01.1-.014-.033,0-.065.011-.1.014Z" transform="translate(-1005.082 -620.762)" fill="#fff"/>
      <path id="Path_34-2" data-name="Path 34" d="M1034.273,652.456c-.031.017-.061.036-.092.051C1034.212,652.492,1034.242,652.473,1034.273,652.456Z" transform="translate(-1005.188 -620.726)" fill="#fff"/>
      <path id="Path_35-2" data-name="Path 35" d="M1034.838,651.991c-.028.033-.055.067-.086.1C1034.782,652.058,1034.81,652.024,1034.838,651.991Z" transform="translate(-1005.276 -620.654)" fill="#fff"/>
      <path id="Path_36-2" data-name="Path 36" d="M1034.661,652.176c-.028.025-.054.052-.083.075C1034.607,652.227,1034.634,652.2,1034.661,652.176Z" transform="translate(-1005.25 -620.683)" fill="#fff"/>
      <path id="Path_37-2" data-name="Path 37" d="M1034.06,652.558c-.032.013-.064.028-.1.04C1034,652.586,1034.028,652.572,1034.06,652.558Z" transform="translate(-1005.154 -620.742)" fill="#fff"/>
      <path id="Path_38-2" data-name="Path 38" d="M1035.021,651.73a1.712,1.712,0,0,1-.113.167A1.712,1.712,0,0,0,1035.021,651.73Z" transform="translate(-1005.301 -620.613)" fill="#fff"/>
      <path id="Path_39-2" data-name="Path 39" d="M1034.473,652.329c-.029.021-.057.043-.086.062C1034.417,652.372,1034.445,652.35,1034.473,652.329Z" transform="translate(-1005.22 -620.707)" fill="#fff"/>
      <path id="Path_40-2" data-name="Path 40" d="M1023.493,644.312a3.683,3.683,0,0,0-3.179,1.835l-2.145,3.717a1.076,1.076,0,0,0,.931,1.613h.066a3.571,3.571,0,0,0,3.081-1.78l.11-.189h0l1.849-3.182a1.617,1.617,0,0,1,1.395-.8h0a1.515,1.515,0,0,1,.2.013c.02,0,.04.007.06.01.045.007.09.016.132.027l.066.018c.042.013.084.028.125.043l.058.023.026.01A3.526,3.526,0,0,0,1023.493,644.312Z" transform="translate(-1002.678 -619.461)" fill="#fff"/>
      <path id="Path_41-2" data-name="Path 41" d="M1027.523,645.825l-.066-.018Z" transform="translate(-1004.143 -619.694)" fill="#fff"/>
      <path id="Path_42-2" data-name="Path 42" d="M1027.289,645.773l-.06-.01Z" transform="translate(-1004.108 -619.687)" fill="#fff"/>
      <path id="Path_43-2" data-name="Path 43" d="M1027.741,645.9l-.058-.023Z" transform="translate(-1004.179 -619.705)" fill="#fff"/>
      <path id="Path_44-2" data-name="Path 44" d="M1023.154,649.879l.006-.011L1025,646.7l-1.848,3.182Z" transform="translate(-1003.475 -619.832)" fill="#fff"/>
      <path id="Path_45-2" data-name="Path 45" d="M1016.475,620.891h4.547a1.031,1.031,0,0,0,.893-1.548l-2.272-3.936a1.032,1.032,0,0,0-1.786,0l-2.275,3.936a1.031,1.031,0,0,0,.894,1.548Z" transform="translate(-1002.278 -614.892)" fill="#fff"/>
    </g>
  </g>
</svg>
