<svg xmlns="http://www.w3.org/2000/svg" width="62" height="62"><defs><linearGradient id="b" x2="1" y2="1" gradientUnits="objectBoundingBox"><stop offset="0" stop-color="#7ac0ff"/><stop offset="1" stop-color="#2c9af3"/></linearGradient><linearGradient id="c" x2="1" y2="1" gradientUnits="objectBoundingBox"><stop offset="0" stop-color="#8ecaff"/><stop offset="1" stop-color="#3ea8ff"/></linearGradient><filter id="a" x="0" y="0" width="62" height="62" filterUnits="userSpaceOnUse"><feOffset dx="2" dy="2"/><feGaussianBlur stdDeviation="1" result="blur"/><feFlood flood-opacity=".102"/><feComposite operator="in" in2="blur"/><feComposite in="SourceGraphic"/></filter></defs><g data-name="Group 2959"><g filter="url(#a)"><path data-name="Rectangle 1690" transform="translate(1 1)" fill="url(#b)" d="M0 0h56v56H0z"/></g><path data-name="Rectangle 1692" transform="translate(4 4)" fill="url(#c)" d="M0 0h50v50H0z"/><g data-name="Group 2540" fill="#299dff"><path data-name="Path 1" d="m27.16 37.624 1.123-1.958 2.015-3.517-.172.138.379-.472c.041-.061.081-.117.122-.171l.009-.012c.034-.046.069-.089.107-.131s.085-.1.131-.15l.012-.013v-.037l.059-.024a.26.26 0 0 1 .03-.03.319.319 0 0 1 .029-.03 1.218 1.218 0 0 1 .095-.091 2.48 2.48 0 0 1 .086-.078l.034-.03c.035-.031.073-.061.108-.089.019-.016.045-.036.073-.056l.055-.041.1-.075a4.231 4.231 0 0 1 .491-.287c.044-.021.08-.039.118-.055s.091-.041.139-.06h.012l-2.874.008a3.686 3.686 0 0 0-3.152 1.8L23.016 37.7l-3.726 6.521c-.023.04-.047.08-.074.119l-.023.032-.058.08-.03.038-.058.068-.036.039-.057.061-.041.038a2.85 2.85 0 0 1-.06.053l-.044.037-.062.047-.048.035-.062.042-.051.032-.065.037-.028.017 2.307.017a3.642 3.642 0 0 0 3.181-1.829l3.182-5.557z"/><path data-name="Path 2" d="M32.303 30.356z"/><path data-name="Path 3" d="m28.283 35.666-1.122 1.958 1.122-1.958z"/><path data-name="Path 4" d="m35.314 30.343-1.554.024a3.642 3.642 0 0 0-1.434.291 2.498 2.498 0 0 0-.14.063 3.643 3.643 0 0 0-1.031.729v.008l-.036.027-.011.011-.031.034c-.039.042-.081.09-.122.139s-.063.074-.091.111l-.019.024c-.04.054-.079.107-.116.164l-.028.039c-.039.06-.082.128-.122.2l-1.377 2.4a3.83 3.83 0 0 1 2.38-.836h8.525a1.116 1.116 0 0 0 .966-1.673 3.554 3.554 0 0 0-3.069-1.77h-.008l-2.674.008z"/><path data-name="Path 5" d="m33.759 30.366 1.554-.024z"/><path data-name="Path 6" d="M35.313 30.343z"/><path data-name="Path 7" d="M35.313 30.343z"/><path data-name="Path 8" d="m29.194 34.616 1.377-2.4z"/><path data-name="Path 9" d="M31.11 31.489h.005z"/><path data-name="Path 10" d="m31.119 31.485.036-.027-.035.027z"/><path data-name="Path 11" d="m31.115 31.488.035-.027v-.008l-.023.022z"/><path data-name="Path 12" d="m17.973 38.554 4.533-7.8 1.885-3.292 1.656-2.893.006-.008a3.407 3.407 0 0 1 .21-.322 5.46 5.46 0 0 1 .129-.171l.061-.074c.053-.063.108-.123.165-.182l.036-.038c.07-.07.143-.138.217-.2l.058-.047c.057-.048.117-.095.177-.139l.075-.054c.062-.043.125-.084.188-.124l.062-.038c.084-.05.171-.1.26-.141l.05-.022c.072-.035.146-.067.22-.1.013 0 .024-.011.037-.016h-2.864a3.582 3.582 0 0 0-3.089 1.78l-8.651 14.915a3.587 3.587 0 0 0 3.076 5.387h.094c-.012-.007-.021-.015-.032-.022a1.86 1.86 0 0 1-.159-.109c-.022-.016-.042-.034-.062-.051a2.435 2.435 0 0 1-.121-.107c-.02-.02-.041-.04-.06-.061a2.587 2.587 0 0 1-.109-.126l-.048-.059a2.152 2.152 0 0 1-.133-.2 2.036 2.036 0 0 1 .007-2.016l2.106-3.632v-.007z"/><path data-name="Path 13" d="M17.958 38.586v.007z"/><path data-name="Path 14" d="M24.848 27.207a3.809 3.809 0 0 1 2.408-.861h8.568a1.106 1.106 0 0 0 .956-1.658 3.594 3.594 0 0 0-3.1-1.792h-1.177l-3.1.009h-.014a3.586 3.586 0 0 0-3.105 1.8z"/><path data-name="Path 15" d="m32.501 22.896-3.1.009 3.1-.009z"/><path data-name="Path 16" d="M17.495 44.961a1.731 1.731 0 0 0 1.561-.876l1.667-2.918a1.955 1.955 0 0 1-3.012-1.623l-1.63 2.814a1.764 1.764 0 0 0-.107 1.541 1.635 1.635 0 0 0 .074.152c.009.019.017.039.027.057s.025.04.038.059l.063.1c.022.034.041.051.062.077s.035.046.054.067.046.047.07.07.038.041.059.06.051.041.076.063.043.036.066.053.053.036.08.053.047.033.073.047l.085.044c.028.014.051.028.078.041s.06.023.09.036a.83.83 0 0 0 .181.057c.037.008.053.016.08.022z"/><path data-name="Path 17" d="m17.225 44.954.27.008-.27-.008z"/><path data-name="Path 18" d="M16.175 44.264z"/><path data-name="Path 19" d="M16.715 44.754c-.025-.014-.048-.031-.073-.047.029.016.047.033.073.047z"/><path data-name="Path 20" d="M16.561 44.654c-.023-.017-.044-.035-.066-.053.022.018.043.036.066.053z"/><path data-name="Path 21" d="M16.29 44.408c-.019-.021-.036-.045-.054-.067.018.022.035.046.054.067z"/><path data-name="Path 22" d="M16.878 44.839c-.027-.013-.052-.027-.078-.041.025.014.051.028.078.041z"/><path data-name="Path 23" d="M16.074 44.109c-.01-.018-.018-.038-.027-.057.009.019.017.039.027.057z"/><path data-name="Path 24" d="M17.144 44.934c.026.008.051.016.078.022a.997.997 0 0 0-.078-.022z"/><path data-name="Path 25" d="M16.081 42.359a1.763 1.763 0 0 0-.107 1.541 1.763 1.763 0 0 1 .107-1.541z"/><path data-name="Path 26" d="M16.423 44.538c-.021-.019-.04-.04-.059-.06.016.02.035.039.059.06z"/><path data-name="Path 27" d="M17.049 44.905c-.028-.009-.054-.021-.081-.031.027.01.053.022.081.031z"/><path data-name="Path 28" d="M17.225 44.954z"/><path data-name="Path 29" d="M45.474 44.896h.017a1.707 1.707 0 0 0 1.48-2.562l-2.14-3.708a1.73 1.73 0 0 0-1.493-.861h-2.147a.486.486 0 0 0-.421.728l.009.016 2.1 3.679a1.963 1.963 0 0 1-.153 2.181c-.017.022-.036.041-.054.062-.035.041-.069.081-.106.119-.023.023-.047.043-.071.064s-.071.065-.109.095-.054.04-.082.059-.075.053-.115.077l-.028.018z"/><path data-name="Path 30" d="M41.429 44.838c.034-.005.067-.008.1-.016l.1-.027c.034-.009.062-.016.093-.026s.065-.026.1-.04.059-.022.087-.035.061-.034.092-.051.056-.029.082-.046.057-.041.086-.062.052-.035.075-.054.056-.05.084-.075.043-.038.063-.058.057-.065.085-.1c.015-.018.032-.035.046-.053a1.723 1.723 0 0 0 .113-.167 1.7 1.7 0 0 0 .013-1.71l-1.611-2.822a1.99 1.99 0 0 1-1.992 1.982h-.192a1.662 1.662 0 0 1-1.431-.823l-.01-.018-.411-.718-.036-.054c-.011-.018-.039-.065-.062-.095s-.034-.038-.051-.057-.042-.052-.065-.074-.043-.038-.065-.057-.043-.04-.066-.057-.053-.035-.08-.053-.042-.03-.065-.044-.06-.031-.09-.045-.043-.023-.066-.033-.067-.024-.1-.035-.042-.016-.064-.022c-.039-.011-.079-.017-.118-.025-.019 0-.036-.008-.054-.011a1.4 1.4 0 0 0-.178-.012 1.346 1.346 0 0 0-1.162.668l-1.454 2.5a1.288 1.288 0 0 1 .475-.1h.021a1.3 1.3 0 0 1 1.1.616 3.977 3.977 0 0 0 3.355 1.889l2.794.029h.364c.03.001.062-.004.095-.009z"/><path data-name="Path 31" d="M40.966 44.849h.288-.288z"/><path data-name="Path 32" d="M41.629 44.795c-.034.009-.066.02-.1.027.034-.007.065-.018.1-.027z"/><path data-name="Path 33" d="M41.331 44.851c.032 0 .063-.01.1-.014-.033 0-.065.011-.1.014z"/><path data-name="Path 34" d="M41.998 44.643c-.031.017-.061.036-.092.051.031-.015.061-.034.092-.051z"/><path data-name="Path 35" d="M42.475 44.25c-.028.033-.055.067-.086.1.03-.033.058-.067.086-.1z"/><path data-name="Path 36" d="M42.324 44.406c-.028.025-.054.052-.083.075.029-.024.056-.051.083-.075z"/><path data-name="Path 37" d="M41.819 44.729c-.032.013-.064.028-.1.04.04-.012.068-.026.1-.04z"/><path data-name="Path 38" d="M42.633 44.03a1.712 1.712 0 0 1-.113.167 1.712 1.712 0 0 0 .113-.167z"/><path data-name="Path 39" d="M42.166 44.535c-.029.021-.057.043-.086.062.03-.019.058-.041.086-.062z"/><path data-name="Path 40" d="M33.728 37.764a3.683 3.683 0 0 0-3.179 1.835l-2.145 3.717a1.076 1.076 0 0 0 .931 1.613h.066a3.571 3.571 0 0 0 3.081-1.78l.11-.189 1.849-3.182a1.617 1.617 0 0 1 1.395-.8 1.515 1.515 0 0 1 .2.013c.02 0 .04.007.06.01.045.007.09.016.132.027l.066.018c.042.013.084.028.125.043l.058.023.026.01a3.526 3.526 0 0 0-2.775-1.358z"/><path data-name="Path 41" d="m36.293 39.044-.066-.018z"/><path data-name="Path 42" d="m36.094 38.999-.06-.01z"/><path data-name="Path 43" d="m36.475 39.108-.058-.023z"/><path data-name="Path 44" d="m32.592 42.96.006-.011 1.84-3.168-1.848 3.182z"/><path data-name="Path 45" d="M27.11 18.912h4.547a1.031 1.031 0 0 0 .893-1.548l-2.272-3.936a1.032 1.032 0 0 0-1.786 0l-2.275 3.936a1.031 1.031 0 0 0 .894 1.548z"/></g><g data-name="Group 2541" fill="#fff"><path data-name="Path 1" d="m25.753 36.216 1.123-1.958 2.015-3.517-.172.138.379-.472c.041-.061.081-.117.122-.171l.009-.012c.034-.046.069-.089.107-.131s.085-.1.131-.15l.012-.013v-.037l.059-.024a.26.26 0 0 1 .03-.03.319.319 0 0 1 .029-.03 1.218 1.218 0 0 1 .095-.091 2.48 2.48 0 0 1 .086-.078l.034-.03c.035-.031.073-.061.108-.089.019-.016.045-.036.073-.056l.055-.041.1-.075a4.231 4.231 0 0 1 .491-.287c.044-.021.08-.039.118-.055s.091-.041.139-.06h.012l-2.874.008a3.686 3.686 0 0 0-3.152 1.8l-3.273 5.537-3.726 6.521c-.023.04-.047.08-.074.119l-.023.032-.058.08-.03.038-.058.068-.036.039-.057.061-.041.038a2.85 2.85 0 0 1-.06.053l-.044.037-.062.047-.048.035-.062.042-.051.032-.065.037-.028.017 2.307.017a3.642 3.642 0 0 0 3.181-1.829l3.182-5.557z"/><path data-name="Path 2" d="M30.896 28.948z"/><path data-name="Path 3" d="m26.876 34.258-1.122 1.958 1.122-1.958z"/><path data-name="Path 4" d="m33.907 28.935-1.554.024a3.642 3.642 0 0 0-1.434.291 2.498 2.498 0 0 0-.14.063 3.643 3.643 0 0 0-1.031.729v.008l-.036.027-.011.011-.031.034c-.039.042-.081.09-.122.139s-.063.074-.091.111l-.019.024c-.04.054-.079.107-.116.164l-.028.039c-.039.06-.082.128-.122.2l-1.377 2.4a3.83 3.83 0 0 1 2.38-.836H38.7a1.116 1.116 0 0 0 .966-1.673 3.554 3.554 0 0 0-3.069-1.77h-.008l-2.674.008z"/><path data-name="Path 5" d="m32.352 28.958 1.554-.024z"/><path data-name="Path 6" d="M33.906 28.935z"/><path data-name="Path 7" d="M33.906 28.935z"/><path data-name="Path 8" d="m27.787 33.208 1.377-2.4z"/><path data-name="Path 9" d="M29.703 30.081h.005z"/><path data-name="Path 10" d="m29.712 30.077.036-.027-.035.027z"/><path data-name="Path 11" d="m29.708 30.08.035-.027v-.008l-.023.022z"/><path data-name="Path 12" d="m16.566 37.146 4.533-7.8 1.885-3.292 1.656-2.893.006-.008a3.407 3.407 0 0 1 .21-.322 5.46 5.46 0 0 1 .129-.171l.061-.074c.053-.063.108-.123.165-.182l.036-.038c.07-.07.143-.138.217-.2l.058-.047c.057-.048.117-.095.177-.139l.075-.054c.062-.043.125-.084.188-.124l.062-.038c.084-.05.171-.1.26-.141l.05-.022c.072-.035.146-.067.22-.1.013 0 .024-.011.037-.016h-2.864a3.582 3.582 0 0 0-3.089 1.78L11.987 38.18a3.587 3.587 0 0 0 3.076 5.387h.094c-.012-.007-.021-.015-.032-.022a1.86 1.86 0 0 1-.159-.109c-.022-.016-.042-.034-.062-.051a2.435 2.435 0 0 1-.121-.107c-.02-.02-.041-.04-.06-.061a2.587 2.587 0 0 1-.109-.126l-.048-.059a2.152 2.152 0 0 1-.133-.2 2.036 2.036 0 0 1 .007-2.016l2.106-3.632v-.007z"/><path data-name="Path 13" d="M16.551 37.178v.007z"/><path data-name="Path 14" d="M23.441 25.799a3.809 3.809 0 0 1 2.408-.861h8.568a1.106 1.106 0 0 0 .956-1.658 3.594 3.594 0 0 0-3.1-1.792h-1.177l-3.1.009h-.014a3.586 3.586 0 0 0-3.105 1.8z"/><path data-name="Path 15" d="m31.094 21.488-3.1.009 3.1-.009z"/><path data-name="Path 16" d="M16.088 43.553a1.731 1.731 0 0 0 1.561-.876l1.667-2.918a1.955 1.955 0 0 1-3.012-1.623l-1.63 2.814a1.764 1.764 0 0 0-.107 1.541 1.635 1.635 0 0 0 .074.152c.009.019.017.039.027.057s.025.04.038.059l.063.1c.022.034.041.051.062.077s.035.046.054.067.046.047.07.07.038.041.059.06.051.041.076.063.043.036.066.053.053.036.08.053.047.033.073.047l.085.044c.028.014.051.028.078.041s.06.023.09.036a.83.83 0 0 0 .181.057c.037.008.053.016.08.022z"/><path data-name="Path 17" d="m15.818 43.546.27.008-.27-.008z"/><path data-name="Path 18" d="M14.768 42.856z"/><path data-name="Path 19" d="M15.308 43.346c-.025-.014-.048-.031-.073-.047.029.016.047.033.073.047z"/><path data-name="Path 20" d="M15.154 43.246c-.023-.017-.044-.035-.066-.053.022.018.043.036.066.053z"/><path data-name="Path 21" d="M14.883 43c-.019-.021-.036-.045-.054-.067.018.022.035.046.054.067z"/><path data-name="Path 22" d="M15.471 43.431c-.027-.013-.052-.027-.078-.041.025.014.051.028.078.041z"/><path data-name="Path 23" d="M14.667 42.701c-.01-.018-.018-.038-.027-.057.009.019.017.039.027.057z"/><path data-name="Path 24" d="M15.737 43.526c.026.008.051.016.078.022a.997.997 0 0 0-.078-.022z"/><path data-name="Path 25" d="M14.674 40.951a1.763 1.763 0 0 0-.107 1.541 1.763 1.763 0 0 1 .107-1.541z"/><path data-name="Path 26" d="M15.016 43.13c-.021-.019-.04-.04-.059-.06.016.02.035.039.059.06z"/><path data-name="Path 27" d="M15.642 43.497c-.028-.009-.054-.021-.081-.031.027.01.053.022.081.031z"/><path data-name="Path 28" d="M15.818 43.546z"/><path data-name="Path 29" d="M44.067 43.488h.017a1.707 1.707 0 0 0 1.48-2.562l-2.14-3.708a1.73 1.73 0 0 0-1.493-.861h-2.147a.486.486 0 0 0-.421.728l.009.016 2.1 3.679a1.963 1.963 0 0 1-.153 2.181c-.017.022-.036.041-.054.062-.035.041-.069.081-.106.119-.023.023-.047.043-.071.064s-.071.065-.109.095-.054.04-.082.059-.075.053-.115.077l-.028.018z"/><path data-name="Path 30" d="M40.022 43.43c.034-.005.067-.008.1-.016l.1-.027c.034-.009.062-.016.093-.026s.065-.026.1-.04.059-.022.087-.035.061-.034.092-.051.056-.029.082-.046.057-.041.086-.062.052-.035.075-.054.056-.05.084-.075.043-.038.063-.058.057-.065.085-.1c.015-.018.032-.035.046-.053a1.723 1.723 0 0 0 .113-.167 1.7 1.7 0 0 0 .013-1.71l-1.611-2.822a1.99 1.99 0 0 1-1.992 1.982h-.192a1.662 1.662 0 0 1-1.431-.823l-.01-.018-.411-.718-.036-.054c-.011-.018-.039-.065-.062-.095s-.034-.038-.051-.057-.042-.052-.065-.074-.043-.038-.065-.057-.043-.04-.066-.057-.053-.035-.08-.053-.042-.03-.065-.044-.06-.031-.09-.045-.043-.023-.066-.033-.067-.024-.1-.035-.042-.016-.064-.022c-.039-.011-.079-.017-.118-.025-.019 0-.036-.008-.054-.011a1.4 1.4 0 0 0-.178-.012 1.346 1.346 0 0 0-1.162.668l-1.454 2.5a1.288 1.288 0 0 1 .475-.1h.021a1.3 1.3 0 0 1 1.1.616 3.977 3.977 0 0 0 3.355 1.889l2.794.029h.364c.03.001.062-.004.095-.009z"/><path data-name="Path 31" d="M39.559 43.441h.288-.288z"/><path data-name="Path 32" d="M40.222 43.387c-.034.009-.066.02-.1.027.034-.007.065-.018.1-.027z"/><path data-name="Path 33" d="M39.924 43.443c.032 0 .063-.01.1-.014-.033 0-.065.011-.1.014z"/><path data-name="Path 34" d="M40.591 43.235c-.031.017-.061.036-.092.051.031-.015.061-.034.092-.051z"/><path data-name="Path 35" d="M41.068 42.842c-.028.033-.055.067-.086.1.03-.033.058-.067.086-.1z"/><path data-name="Path 36" d="M40.917 42.998c-.028.025-.054.052-.083.075.029-.024.056-.051.083-.075z"/><path data-name="Path 37" d="M40.412 43.321c-.032.013-.064.028-.1.04.04-.012.068-.026.1-.04z"/><path data-name="Path 38" d="M41.226 42.622a1.712 1.712 0 0 1-.113.167 1.712 1.712 0 0 0 .113-.167z"/><path data-name="Path 39" d="M40.759 43.127c-.029.021-.057.043-.086.062.03-.019.058-.041.086-.062z"/><path data-name="Path 40" d="M32.321 36.356a3.683 3.683 0 0 0-3.179 1.835l-2.145 3.717a1.076 1.076 0 0 0 .931 1.613h.066a3.571 3.571 0 0 0 3.081-1.78l.11-.189 1.849-3.182a1.617 1.617 0 0 1 1.395-.8 1.515 1.515 0 0 1 .2.013c.02 0 .04.007.06.01.045.007.09.016.132.027l.066.018c.042.013.084.028.125.043l.058.023.026.01a3.526 3.526 0 0 0-2.775-1.358z"/><path data-name="Path 41" d="m34.886 37.636-.066-.018z"/><path data-name="Path 42" d="m34.687 37.591-.06-.01z"/><path data-name="Path 43" d="m35.068 37.7-.058-.023z"/><path data-name="Path 44" d="m31.185 41.552.006-.011 1.84-3.168-1.848 3.182z"/><path data-name="Path 45" d="M25.703 17.504h4.547a1.031 1.031 0 0 0 .893-1.548l-2.272-3.936a1.032 1.032 0 0 0-1.786 0l-2.275 3.936a1.031 1.031 0 0 0 .894 1.548z"/></g></g></svg>