<svg xmlns="http://www.w3.org/2000/svg" xmlns:xlink="http://www.w3.org/1999/xlink" width="48" height="48" viewBox="0 0 48 48">
  <defs>
    <clipPath id="clip-path">
      <rect id="Rectangle_457" data-name="Rectangle 457" width="48" height="48" transform="translate(-0.391 -0.391)" fill="#202832"/>
    </clipPath>
  </defs>
  <g id="Group_1163" data-name="Group 1163" transform="translate(-581.609 -581.609)">
    <g id="Group_1162" data-name="Group 1162" transform="translate(582 582)">
      <g id="Group_1161" data-name="Group 1161" clip-path="url(#clip-path)">
        <path id="Path_1559" data-name="Path 1559" d="M609.841,601.581h0a9.836,9.836,0,0,1,0-19.673h.006a9.836,9.836,0,0,1-.006,19.673Zm-7.87-9.841a7.88,7.88,0,0,0,7.868,7.874h0a7.87,7.87,0,0,0,0-15.739h0a7.87,7.87,0,0,0-7.87,7.866Zm0,0" transform="translate(-576.39 -582.029)" fill="#202832"/>
        <path id="Path_1560" data-name="Path 1560" d="M619.034,601.932a.985.985,0,0,1-.7-.287l-6.524-6.532a.984.984,0,0,1,1.392-1.39l6.523,6.532a.982.982,0,0,1-.694,1.678Zm0,0" transform="translate(-572.8 -578.437)" fill="#202832"/>
      </g>
    </g>
    <path id="Path_1561" data-name="Path 1561" d="M616.43,629.218H586.919A4.925,4.925,0,0,1,582,624.3V586.919A4.925,4.925,0,0,1,586.919,582H600.69a.984.984,0,0,1,0,1.967H586.919a2.956,2.956,0,0,0-2.951,2.951V624.3a2.956,2.956,0,0,0,2.951,2.951H616.43a2.956,2.956,0,0,0,2.951-2.951v-11.8a.984.984,0,0,1,1.967,0v11.8a4.924,4.924,0,0,1-4.919,4.919Zm0,0" fill="#202832"/>
    <path id="Path_1562" data-name="Path 1562" d="M587.484,616.3a.984.984,0,0,1-.984-.984v-9.837a.984.984,0,0,1,.984-.984h2.951a3.935,3.935,0,0,1,0,7.87h-1.967v2.951a.984.984,0,0,1-.984.984Zm.984-5.9h1.967a1.967,1.967,0,0,0,0-3.935h-1.967Zm0,0" transform="translate(1.402 7.011)" fill="#202832"/>
    <path id="Path_1563" data-name="Path 1563" d="M598.919,616.3h-3.935a.984.984,0,0,1-.984-.984v-9.837a.984.984,0,0,1,.984-.984h3.935a2.956,2.956,0,0,1,2.951,2.951v5.9a2.956,2.956,0,0,1-2.951,2.951Zm-2.951-1.967h2.951a.986.986,0,0,0,.984-.984v-5.9a.986.986,0,0,0-.984-.984h-2.951Zm0,0" transform="translate(3.739 7.011)" fill="#202832"/>
    <path id="Path_1564" data-name="Path 1564" d="M602.484,616.3a.984.984,0,0,1-.984-.984v-7.87a2.956,2.956,0,0,1,2.951-2.951h3.935a.984.984,0,0,1,0,1.967h-3.935a.986.986,0,0,0-.984.984v7.87a.984.984,0,0,1-.984.984Zm0,0" transform="translate(6.076 7.011)" fill="#202832"/>
    <path id="Path_1565" data-name="Path 1565" d="M608.386,610.967h-5.9a.984.984,0,0,1,0-1.967h5.9a.984.984,0,0,1,0,1.967Zm0,0" transform="translate(6.076 8.413)" fill="#202832"/>
  </g>
</svg>
