<svg xmlns="http://www.w3.org/2000/svg" width="95.968" height="95.969" viewBox="0 0 95.968 95.969">
  <g id="Group_1143" data-name="Group 1143" transform="translate(-443.998 -569.002)">
    <path id="Path_1518" data-name="Path 1518" d="M544.437,570.118A1.115,1.115,0,0,0,543.321,569a54.779,54.779,0,0,0-38.888,16.108l-8.44,8.441H481.949a1.118,1.118,0,0,0-.789.327l-18.97,18.97a1.116,1.116,0,0,0,.789,1.905h15.886a34.336,34.336,0,0,0-1.257,3.878l-6.491,6.492a1.116,1.116,0,0,0,0,1.578l2.585,2.584a30.858,30.858,0,0,0-7.18,12.874l-1.272,4.66a1.117,1.117,0,0,0,1.371,1.371l4.663-1.272a30.866,30.866,0,0,0,12.872-7.18l2.584,2.584a1.116,1.116,0,0,0,1.578,0l6.493-6.493a34.044,34.044,0,0,0,3.877-1.255v15.886a1.116,1.116,0,0,0,1.905.79l18.97-18.97a1.118,1.118,0,0,0,.327-.789V617.446l8.441-8.44a54.8,54.8,0,0,0,16.108-38.888Zm-6.211,20.108-15.012-15.012a52.456,52.456,0,0,1,18.979-3.967,52.456,52.456,0,0,1-3.967,18.979Zm-58.4,22.3H465.674l16.737-16.738h11.35l-7.21,7.21v0a34.886,34.886,0,0,0-6.724,9.526Zm2.761,25.648a28.651,28.651,0,0,1-11.892,6.595l-2.779.757.758-2.779a28.659,28.659,0,0,1,6.594-11.892Zm4.94,1.785-14.044-14.044,5.118-5.117,14.043,14.043Zm30.128-8.927-16.738,16.738V633.612a34.885,34.885,0,0,0,9.526-6.724h0l7.21-7.21Zm.327-14.833-9.115,9.116-.031.029a32.375,32.375,0,0,1-14.278,8.256c-8.982-8.98-4.891-4.891-14.718-14.718A32.4,32.4,0,0,1,488.1,604.6l.028-.029,9.115-9.115,8.767-8.767a52.8,52.8,0,0,1,15-10.522l16.262,16.262a52.8,52.8,0,0,1-10.522,15Zm0,0" transform="translate(-4.47)"/>
    <path id="Path_1519" data-name="Path 1519" d="M530.7,597.28a7.811,7.811,0,1,0,7.81,7.81,7.811,7.811,0,0,0-7.81-7.81Zm0,13.39a5.579,5.579,0,1,1,5.579-5.58,5.579,5.579,0,0,1-5.579,5.58Zm0,0" transform="translate(-19.741 -7.077)"/>
    <g id="Group_1329" data-name="Group 1329">
      <path id="Path_1520" data-name="Path 1520" d="M451.862,646.432,461.9,636.389a1.116,1.116,0,0,0-1.577-1.578l-10.043,10.043a1.116,1.116,0,0,0,1.577,1.578Zm0,0" transform="translate(-1.49 -16.385)" fill="#007ce1"/>
      <path id="Path_1521" data-name="Path 1521" d="M451.862,665.407l11.158-11.158a1.116,1.116,0,0,0-1.577-1.578L450.284,663.83a1.116,1.116,0,0,0,1.577,1.577Zm0,0" transform="translate(-1.49 -20.854)" fill="#007ce1"/>
      <path id="Path_1522" data-name="Path 1522" d="M500.51,674.993l-10.043,10.042a1.116,1.116,0,0,0,1.578,1.578l10.043-10.043a1.116,1.116,0,1,0-1.578-1.577Zm0,0" transform="translate(-11.546 -26.438)" fill="#007ce1"/>
    </g>
    <path id="Path_1523" data-name="Path 1523" d="M482.278,673.505,471.12,684.663a1.116,1.116,0,0,0,1.577,1.578l11.159-11.159a1.116,1.116,0,1,0-1.578-1.577Zm0,0" transform="translate(-6.704 -26.066)" fill="#1971b9"/>
    <path id="Path_1524" data-name="Path 1524" d="M457.72,676.481l-13.39,13.39a1.116,1.116,0,0,0,1.578,1.578l13.39-13.39a1.116,1.116,0,1,0-1.578-1.578Zm0,0" transform="translate(0 -26.811)" fill="#007ce1"/>
    <path id="Path_1525" data-name="Path 1525" d="M515.391,618.44l-14.506,14.507a1.116,1.116,0,0,0,1.577,1.578l14.507-14.506a1.116,1.116,0,0,0-1.578-1.578Zm0,0" transform="translate(-14.153 -12.289)"/>
  </g>
</svg>
