<svg xmlns="http://www.w3.org/2000/svg" width="84.515" height="95.928" viewBox="0 0 84.515 95.928">
  <g id="Group_1146" data-name="Group 1146" transform="translate(-543.82 -536.5)">
    <path id="Path_1534" data-name="Path 1534" d="M617.634,628.42l-12.325,5.825a10.043,10.043,0,0,0-8.559-5.282l-11.379-.313a12.022,12.022,0,0,1-5.171-1.335l-1.159-.6a20.421,20.421,0,0,0-18.916.02l.072-2.623a1.574,1.574,0,0,0-1.53-1.617l-12.477-.343a1.573,1.573,0,0,0-1.616,1.53l-.753,27.381a1.573,1.573,0,0,0,1.53,1.617l12.477.344h.043a1.574,1.574,0,0,0,1.574-1.53l.036-1.311,3.241-1.736a5.569,5.569,0,0,1,4.15-.454l19.357,5.433c.034.01.067.017.1.025a20.763,20.763,0,0,0,4.255.438,21.007,21.007,0,0,0,8.77-1.913,1.46,1.46,0,0,0,.2-.108l28.066-18.154a1.573,1.573,0,0,0,.515-2.1,7.948,7.948,0,0,0-10.5-3.2ZM547.01,649.576l.666-24.235,9.332.256-.667,24.237Zm50.928-.411a17.842,17.842,0,0,1-10.91,1.218l-19.3-5.419a8.7,8.7,0,0,0-6.486.71l-1.656.887.444-16.114a17.3,17.3,0,0,1,17.571-.938l1.159.6a15.206,15.206,0,0,0,6.531,1.687l11.38.313a6.9,6.9,0,0,1,6.559,5.5l-16.95-.468a1.574,1.574,0,1,0-.086,3.146l18.705.515h.044a1.573,1.573,0,0,0,1.572-1.53,10.015,10.015,0,0,0-.152-2.042L619,631.256l.036-.018a4.809,4.809,0,0,1,5.437.762Zm0,0" transform="translate(0 -21.461)"/>
    <g id="Group_1330" data-name="Group 1330">
      <path id="Path_1532" data-name="Path 1532" d="M599.4,598.52a1.5,1.5,0,0,0-.54-.018,3.578,3.578,0,0,1-3.163-3.548,1.573,1.573,0,1,0-3.147,0,6.73,6.73,0,0,0,4.948,6.481v1.574a1.574,1.574,0,0,0,3.148,0v-1.478a6.72,6.72,0,0,0-1.377-13.3,3.572,3.572,0,1,1,3.573-3.572,1.573,1.573,0,0,0,3.147,0,6.732,6.732,0,0,0-5.343-6.578v-1.431a1.574,1.574,0,0,0-3.148,0v1.528a6.719,6.719,0,0,0,1.771,13.2,3.57,3.57,0,0,1,.13,7.138Zm0,0" transform="translate(-12.21 -9.667)" fill="#007ce1"/>
      <path id="Path_1533" data-name="Path 1533" d="M571.071,587.266a22.817,22.817,0,1,0,22.818-22.817,22.817,22.817,0,0,0-22.818,22.817Zm22.818-19.67a19.67,19.67,0,1,1-19.671,19.67,19.669,19.669,0,0,1,19.671-19.67Zm0,0" transform="translate(-6.828 -7.003)" fill="#007ce1"/>
      <path id="Path_1535" data-name="Path 1535" d="M602.564,553.021V538.074a1.573,1.573,0,1,0-3.147,0v14.948a1.573,1.573,0,1,0,3.147,0Zm0,0" transform="translate(-13.93)" fill="#007ce1"/>
      <path id="Path_1536" data-name="Path 1536" d="M618.311,555.652v-7.08a1.574,1.574,0,1,0-3.148,0v7.08a1.574,1.574,0,1,0,3.148,0Zm0,0" transform="translate(-17.875 -2.631)" fill="#007ce1"/>
      <path id="Path_1537" data-name="Path 1537" d="M586.817,555.652v-7.08a1.573,1.573,0,1,0-3.146,0v7.08a1.573,1.573,0,1,0,3.146,0Zm0,0" transform="translate(-9.985 -2.631)" fill="#007ce1"/>
    </g>
  </g>
</svg>
