<svg xmlns="http://www.w3.org/2000/svg" width="170.351" height="35.963"><g data-name="Group 2533"><g data-name="Group 1"><path data-name="Path 1" d="m15.963 27.686 1.258-2.194 2.257-3.941-.193.155.425-.529c.046-.068.091-.131.136-.191l.01-.013c.038-.051.078-.1.12-.147s.1-.112.147-.168l.013-.014v-.043l.066-.027a.3.3 0 0 1 .034-.034.373.373 0 0 1 .032-.033 1.369 1.369 0 0 1 .106-.1c.028-.026.062-.057.1-.087l.038-.033a3.77 3.77 0 0 1 .202-.163c.031-.022.041-.031.062-.045s.074-.055.115-.084a4.764 4.764 0 0 1 .55-.322c.049-.024.09-.044.132-.062s.1-.045.155-.067l.013-.006-3.221.008a4.131 4.131 0 0 0-3.532 2.02l-3.667 6.2-4.174 7.306q-.038.068-.082.133l-.026.036-.065.09-.034.042-.064.076c-.021.025-.026.029-.041.043l-.064.068-.045.043c-.022.02-.044.041-.067.06l-.049.042c-.023.018-.045.036-.069.053l-.054.039-.07.047-.057.036-.073.042-.031.019 2.585.019a4.08 4.08 0 0 0 3.564-2.049l3.565-6.226z" fill="#1971b9"/><path data-name="Path 2" d="M21.721 19.543c-.053.022-.106.044-.155.067l.155-.067z" fill="#006c95"/><path data-name="Path 3" d="m17.221 25.493-1.257 2.193 1.256-2.194z" fill="#006c95"/><path data-name="Path 4" d="m25.098 19.528-1.741.027a4.086 4.086 0 0 0-1.607.327 3.147 3.147 0 0 0-.157.071 4.086 4.086 0 0 0-1.155.817v.008l-.04.03h-.006l-.012.012-.035.038c-.044.047-.091.1-.136.156s-.071.083-.1.124l-.021.027c-.044.06-.088.12-.13.184l-.031.044a3.892 3.892 0 0 0-.136.221l-1.543 2.693a4.288 4.288 0 0 1 2.666-.937h9.551a1.251 1.251 0 0 0 1.083-1.875 3.982 3.982 0 0 0-3.438-1.984h-.009l-3 .008z" fill="#001a31"/><path data-name="Path 5" d="m23.356 19.555 1.741-.027z" fill="#001a31"/><path data-name="Path 6" d="M25.098 19.529z" fill="#001a31"/><path data-name="Path 7" d="M25.097 19.529z" fill="#001a31"/><path data-name="Path 8" d="m18.241 24.316 1.542-2.694z" fill="#001a31"/><path data-name="Path 9" d="M20.388 20.813h.006z" fill="#001a31"/><path data-name="Path 10" d="m20.398 20.808.04-.03-.04.03z" fill="#001a31"/><path data-name="Path 11" d="m20.394 20.811.04-.03v-.008l-.026.025z" fill="#001a31"/><path data-name="Path 12" d="m5.67 28.728 5.078-8.737 2.111-3.688 1.856-3.241.007-.009c.055-.095.114-.187.174-.275l.062-.085c.046-.065.095-.129.145-.191l.068-.083c.06-.07.121-.137.184-.2l.041-.043a4.678 4.678 0 0 1 .308-.279c.064-.054.131-.106.2-.155.027-.021.056-.041.084-.061.069-.048.14-.095.211-.139l.07-.043c.095-.056.191-.109.291-.158l.056-.025c.081-.039.164-.075.247-.109.014 0 .027-.012.042-.018h-3.209a4.013 4.013 0 0 0-3.461 1.994L.543 29.893a4.019 4.019 0 0 0 3.446 6.035h.106l-.036-.025a2.122 2.122 0 0 1-.178-.122c-.025-.018-.047-.038-.07-.057a2.183 2.183 0 0 1-.135-.12c-.023-.023-.045-.044-.067-.068a2.324 2.324 0 0 1-.122-.141c-.018-.022-.037-.043-.054-.066a2.451 2.451 0 0 1-.15-.226 2.282 2.282 0 0 1 .008-2.259l2.359-4.069v-.008z" fill="#1971b9"/><path data-name="Path 13" d="M5.651 28.764v.008z" fill="#006c95"/><path data-name="Path 14" d="M13.372 16.014a4.268 4.268 0 0 1 2.7-.964h9.6a1.239 1.239 0 0 0 1.071-1.858 4.027 4.027 0 0 0-3.476-2.007h-1.319l-3.474.01h-.016a4.017 4.017 0 0 0-3.479 2.016z" fill="#001a31"/><path data-name="Path 15" d="m21.946 11.185-3.474.01 3.474-.01z" fill="#001a31"/><path data-name="Path 16" d="M5.133 35.907a1.94 1.94 0 0 0 1.749-.981l1.868-3.269a2.19 2.19 0 0 1-3.375-1.818l-1.827 3.152a1.976 1.976 0 0 0-.12 1.726c.024.059.053.115.082.17.01.021.019.044.03.063s.028.044.043.066c.023.037.045.074.07.109s.046.057.069.086.039.051.061.075.052.053.078.079.043.046.066.067.057.046.085.07.048.041.074.06.06.04.09.06.053.037.081.053.063.033.1.049.057.031.087.045.067.026.1.04.06.025.091.035.071.02.107.029.06.018.09.025z" fill="#001a31"/><path data-name="Path 17" d="m4.831 35.898.3.009-.3-.009z" fill="#001a31"/><path data-name="Path 18" d="M3.654 35.124c-.025-.035-.047-.072-.07-.109.023.039.045.076.07.109z" fill="#001a31"/><path data-name="Path 19" d="M4.259 35.675c-.028-.016-.054-.035-.081-.053.029.018.053.037.081.053z" fill="#001a31"/><path data-name="Path 20" d="M4.088 35.563c-.026-.019-.049-.04-.074-.06.025.02.048.041.074.06z" fill="#001a31"/><path data-name="Path 21" d="M3.784 35.287c-.022-.024-.041-.05-.061-.075.02.025.039.051.061.075z" fill="#001a31"/><path data-name="Path 22" d="M4.442 35.769c-.03-.014-.059-.03-.087-.045.028.015.057.031.087.045z" fill="#001a31"/><path data-name="Path 23" d="M3.544 34.951c-.011-.02-.02-.043-.03-.063a.227.227 0 0 0 .03.063z" fill="#001a31"/><path data-name="Path 24" d="M4.741 35.876c.029.009.058.018.087.025-.027-.009-.053-.018-.087-.025z" fill="#001a31"/><path data-name="Path 25" d="M3.549 32.991a1.976 1.976 0 0 0-.12 1.726 1.976 1.976 0 0 1 .12-1.726z" fill="#001a31"/><path data-name="Path 26" d="M3.925 35.432c-.024-.021-.044-.044-.066-.067a.821.821 0 0 1 .066.067z" fill="#001a31"/><path data-name="Path 27" d="M4.634 35.844c-.031-.01-.061-.024-.091-.035.03.011.06.025.091.035z" fill="#001a31"/><path data-name="Path 28" d="M4.831 35.898z" fill="#001a31"/><path data-name="Path 29" d="M36.479 35.831h.019a1.913 1.913 0 0 0 1.658-2.87l-2.4-4.155a1.938 1.938 0 0 0-1.673-.965h-2.404a.544.544 0 0 0-.471.816l.01.018 2.355 4.121a2.21 2.21 0 0 1-.018 2.219 2.174 2.174 0 0 1-.153.224c-.019.025-.041.046-.061.069-.039.045-.077.091-.119.133-.026.026-.053.048-.079.072s-.079.073-.122.106-.061.044-.092.066-.084.06-.129.086a.328.328 0 0 1-.031.02z" fill="#1971b9"/><path data-name="Path 30" d="M31.949 35.769c.038-.006.076-.01.114-.018s.074-.02.112-.03.07-.018.1-.029.073-.029.109-.044.066-.025.1-.04.068-.038.1-.057.062-.032.092-.051.064-.045.1-.069.058-.039.084-.061l.094-.084.071-.065c.023-.022.064-.073.1-.11.017-.02.036-.039.052-.06a1.94 1.94 0 0 0 .127-.187 1.9 1.9 0 0 0 .015-1.915l-1.806-3.162a2.229 2.229 0 0 1-2.232 2.221h-.215a1.862 1.862 0 0 1-1.6-.923l-.011-.021-.461-.8c-.012-.021-.027-.041-.041-.061-.023-.036-.044-.073-.07-.106s-.038-.043-.057-.064-.047-.058-.073-.083-.048-.043-.073-.064-.048-.044-.074-.064-.06-.04-.089-.06-.047-.034-.073-.049-.067-.034-.1-.05-.048-.026-.074-.037-.075-.026-.112-.039-.047-.018-.072-.025c-.044-.012-.088-.019-.132-.027-.021 0-.04-.009-.061-.012a1.559 1.559 0 0 0-.2-.013 1.509 1.509 0 0 0-1.3.749l-1.629 2.8a1.444 1.444 0 0 1 .532-.111h.024a1.461 1.461 0 0 1 1.236.69 4.457 4.457 0 0 0 3.759 2.116l3.13.032H31.853a2.15 2.15 0 0 1 .096-.017z" fill="#001a31"/><path data-name="Path 31" d="M31.431 35.781h.323-.323z" fill="#001a31"/><path data-name="Path 32" d="M32.174 35.72c-.038.01-.074.023-.112.03.038-.007.074-.02.112-.03z" fill="#001a31"/><path data-name="Path 33" d="M31.84 35.782c.036 0 .071-.011.107-.016-.037.006-.073.012-.11.016z" fill="#001a31"/><path data-name="Path 34" d="M32.587 35.55c-.035.019-.068.04-.1.057.032-.013.065-.038.1-.057z" fill="#001a31"/><path data-name="Path 35" d="M33.12 35.11c-.031.037-.062.075-.1.11.038-.035.068-.073.1-.11z" fill="#001a31"/><path data-name="Path 36" d="M32.954 35.285c-.031.028-.061.058-.094.084.033-.026.063-.06.094-.084z" fill="#001a31"/><path data-name="Path 37" d="M32.387 35.647c-.036.015-.072.031-.109.044.037-.013.073-.029.109-.044z" fill="#001a31"/><path data-name="Path 38" d="M33.299 34.863a1.939 1.939 0 0 1-.127.187 1.939 1.939 0 0 0 .127-.187z" fill="#001a31"/><path data-name="Path 39" d="M32.776 35.43c-.032.024-.063.048-.1.069.036-.021.067-.045.1-.069z" fill="#001a31"/><path data-name="Path 40" d="M23.32 27.843a4.127 4.127 0 0 0-3.562 2.056l-2.4 4.165a1.205 1.205 0 0 0 1.043 1.808h.074a4 4 0 0 0 3.452-1.994l.123-.212 2.072-3.565a1.812 1.812 0 0 1 1.563-.9 1.69 1.69 0 0 1 .22.015c.023 0 .045.008.067.011.05.008.1.018.149.03l.074.02c.047.014.094.031.14.048l.065.026.028.011a3.95 3.95 0 0 0-3.108-1.519z" fill="#1971b9"/><path data-name="Path 41" d="m26.195 29.278-.074-.02z" fill="#006c95"/><path data-name="Path 42" d="M25.976 29.227c-.022 0-.045-.009-.067-.011.019.003.041.008.067.011z" fill="#006c95"/><path data-name="Path 43" d="m26.399 29.347-.065-.026z" fill="#006c95"/><path data-name="Path 44" d="m22.048 33.665.007-.012 2.064-3.553-2.071 3.565z" fill="#006c95"/><path data-name="Path 45" d="M15.908 6.721h5.094a1.156 1.156 0 0 0 1-1.734L19.456.577a1.156 1.156 0 0 0-2 0l-2.549 4.41a1.156 1.156 0 0 0 1 1.734z" fill="#1971b9"/></g><g data-name="Group 2455"><path data-name="Path 46" d="M52.175 11.394v5.3h3.968v2.323h-3.968v7.934H49.5V9.021h7.324v2.371z" fill="#001a31"/><path data-name="Path 47" d="M66.699 26.951h-5.821a1.461 1.461 0 0 1-1.6-1.643V10.666a1.461 1.461 0 0 1 1.6-1.643h5.821a1.478 1.478 0 0 1 1.62 1.643V25.31a1.478 1.478 0 0 1-1.62 1.641zm-1.055-15.63h-3.686v13.33h3.686z" fill="#001a31"/><path data-name="Path 48" d="M78.323 26.951h-5.7a1.468 1.468 0 0 1-1.619-1.643V9.023h2.676v15.628h3.615V9.021h2.675v16.287a1.485 1.485 0 0 1-1.647 1.643z" fill="#001a31"/><path data-name="Path 49" d="m89.112 26.951-4.3-11.288a8.875 8.875 0 0 1 .164 1.291v10h-2.597V9.024h2.347l4.3 11.054a8.826 8.826 0 0 1-.165-1.291V9.024h2.606v17.927z" fill="#001a31"/><path data-name="Path 50" d="M99.612 26.951h-5.47V9.021h5.47a3.187 3.187 0 0 1 3.473 3.4v11.147a3.18 3.18 0 0 1-3.473 3.383zm.774-14.129a1.414 1.414 0 0 0-1.573-1.5h-2v13.329h1.926a1.443 1.443 0 0 0 1.643-1.526z" fill="#001a31"/><path data-name="Path 51" d="M119.366 11.394v15.557h-2.677v-15.56h-2.934V9.02h8.569v2.371z" fill="#001a31"/><path data-name="Path 52" d="M123.433 26.951V9.021h2.676v17.93z" fill="#001a31"/><path data-name="Path 53" d="M135.569 26.951h-5.822a1.461 1.461 0 0 1-1.6-1.643V10.666a1.461 1.461 0 0 1 1.6-1.643h5.822a1.479 1.479 0 0 1 1.62 1.643V25.31a1.479 1.479 0 0 1-1.62 1.641zm-1.056-15.63h-3.686v13.33h3.686z" fill="#001a31"/><path data-name="Path 54" d="m146.059 26.951-4.3-11.288a8.882 8.882 0 0 1 .164 1.291v10h-2.605V9.024h2.348l4.3 11.054a8.789 8.789 0 0 1-.166-1.291V9.024h2.605v17.927z" fill="#001a31"/><path data-name="Path 55" d="M167.675 26.951V9.021h2.676v17.93z" fill="#1971b9"/><g data-name="Group 2" fill="#001a31"><path data-name="Path 56" d="m106.708 26.953.544-3.4z"/><path data-name="Path 57" d="m110.23 21.25-1.315-8.1 1.309 8.1z"/><path data-name="Path 58" d="M107.601 21.25h.02l1.294-8.1z"/><path data-name="Path 59" d="m110.595 23.551.55 3.4-.54-3.4z"/><path data-name="Path 60" d="M110.35 9h-2.816l-3.475 17.907v.047h2.654l.54-3.4.368-2.3h-.02l1.314-8.1 1.315 8.1h-.006l.372 2.3h.01l.54 3.4h2.653v-.047z"/></g><g data-name="Group 3" fill="#1971b9"><path data-name="Path 61" d="m158.378 26.953.544-3.4z"/><path data-name="Path 62" d="M159.271 21.25h.02l1.295-8.1z"/><path data-name="Path 63" d="m161.9 21.25-1.314-8.1 1.308 8.1z"/><path data-name="Path 64" d="m162.266 23.551.55 3.4-.54-3.4z"/><path data-name="Path 65" d="M162.018 9H159.2l-3.474 17.907v.047h2.653l.54-3.4.368-2.3h-.02l1.315-8.1 1.314 8.1h-.006l.372 2.3h.01l.54 3.4h2.653v-.047z"/></g></g></g></svg>