<svg xmlns="http://www.w3.org/2000/svg" width="295.476" height="50"><g data-name="Group 3818" fill="#fff"><g data-name="Group 3816"><path data-name="Path 1" d="m22.188 38.496 1.748-3.049 3.137-5.477-.268.216.59-.735c.064-.095.126-.181.19-.266l.014-.018c.053-.071.108-.138.167-.2s.133-.155.2-.234l.019-.02v-.058l.092-.038a.418.418 0 0 1 .047-.047.565.565 0 0 1 .045-.046 1.976 1.976 0 0 1 .147-.142l.134-.121.052-.046a4.23 4.23 0 0 1 .281-.226c.025-.02.057-.043.086-.063.046-.035.1-.076.159-.117a6.66 6.66 0 0 1 .765-.447c.068-.033.125-.06.183-.085s.142-.063.216-.093l.018-.008-4.476.012a5.741 5.741 0 0 0-4.909 2.807l-5.1 8.623-5.8 10.155a2.714 2.714 0 0 1-.115.185l-.036.05c-.03.042-.059.084-.091.125l-.047.059a3.072 3.072 0 0 1-.146.165l-.089.095-.063.059c-.03.028-.062.057-.094.083l-.068.058c-.032.025-.063.05-.1.074s-.05.037-.075.054-.065.045-.1.066l-.079.05-.1.058-.044.026 3.592.026a5.671 5.671 0 0 0 4.954-2.848l4.955-8.654z"/><path data-name="Path 2" d="M30.196 27.171c-.074.03-.147.062-.216.093.068-.035.142-.063.216-.093z"/><path data-name="Path 3" d="m23.935 35.444-1.748 3.049 1.746-3.05z"/><path data-name="Path 4" d="m34.884 27.152-2.42.037a5.679 5.679 0 0 0-2.234.454 3.29 3.29 0 0 0-.219.1 5.682 5.682 0 0 0-1.6 1.135v.012l-.055.042-.008.006-.005.005-.017.017-.049.052a6.4 6.4 0 0 0-.19.217c-.054.061-.1.116-.142.172l-.029.037a5.827 5.827 0 0 0-.18.255c-.009.015-.026.038-.043.061-.061.093-.128.2-.19.308l-2.144 3.744a5.961 5.961 0 0 1 3.705-1.3h13.275a1.739 1.739 0 0 0 1.505-2.606 5.534 5.534 0 0 0-4.779-2.757h-.012l-4.165.012z"/><path data-name="Path 5" d="m32.463 27.187 2.421-.037z"/><path data-name="Path 6" d="M34.884 27.151z"/><path data-name="Path 7" d="M34.882 27.151z"/><path data-name="Path 8" d="m25.354 33.806 2.144-3.744z"/><path data-name="Path 9" d="m28.34 28.937.008-.007z"/><path data-name="Path 10" d="m28.351 28.93.055-.042-.055.042z"/><path data-name="Path 11" d="M28.346 28.938h.005l.055-.042v-.012l-.037.034a.247.247 0 0 1-.023.02z"/><path data-name="Path 12" d="m7.881 39.945 7.058-12.144 2.935-5.126 2.579-4.505.009-.013c.076-.132.158-.259.242-.383.028-.041.057-.079.086-.118a7.69 7.69 0 0 1 .2-.266l.095-.116c.083-.1.168-.191.256-.283.02-.02.037-.04.057-.059a6.248 6.248 0 0 1 .704-.604c.038-.029.078-.056.117-.084.1-.067.195-.131.294-.193.033-.02.064-.041.1-.059.132-.078.266-.151.4-.22l.077-.034q.169-.08.343-.151c.02-.007.038-.017.058-.025H19.03a5.577 5.577 0 0 0-4.81 2.772L.749 41.56a5.587 5.587 0 0 0 4.789 8.388h.147c-.019-.01-.033-.023-.05-.034a2.947 2.947 0 0 1-.247-.17c-.034-.025-.066-.052-.1-.079a3.297 3.297 0 0 1-.281-.262 2.556 2.556 0 0 1-.17-.2c-.025-.03-.051-.06-.075-.092a3.372 3.372 0 0 1-.208-.314 3.171 3.171 0 0 1 .01-3.14l3.279-5.656.005-.011z"/><path data-name="Path 13" d="m7.855 39.99-.006.011z"/><path data-name="Path 14" d="M18.586 22.265a5.933 5.933 0 0 1 3.75-1.34h13.343a1.722 1.722 0 0 0 1.489-2.582 5.6 5.6 0 0 0-4.832-2.79H30.5l-4.829.015h-.022a5.583 5.583 0 0 0-4.835 2.8z"/><path data-name="Path 15" d="m30.5 15.551-4.829.014 4.829-.014z"/><path data-name="Path 16" d="M7.138 49.922a2.7 2.7 0 0 0 2.431-1.364l2.6-4.544a3.044 3.044 0 0 1-4.691-2.527l-2.539 4.382a2.746 2.746 0 0 0-.167 2.4 2.608 2.608 0 0 0 .115.237c.014.029.026.06.042.088s.039.062.059.092c.031.051.063.1.1.151s.064.079.1.12.054.071.084.1.072.074.109.109.059.064.092.094.079.064.119.1.067.057.1.083.083.055.125.083.074.051.113.074.088.046.133.068.079.043.121.063.093.037.141.055.083.034.127.049.1.028.149.041.083.025.125.034z"/><path data-name="Path 17" d="m6.715 49.91.42.012-.421-.012z"/><path data-name="Path 18" d="M5.08 48.836c-.034-.049-.066-.1-.1-.151.034.051.065.107.1.151z"/><path data-name="Path 19" d="M5.919 49.6c-.039-.022-.075-.049-.113-.074.038.025.074.051.113.074z"/><path data-name="Path 20" d="M5.681 49.443c-.036-.026-.068-.055-.1-.083.032.028.065.057.1.083z"/><path data-name="Path 21" d="M5.259 49.057c-.03-.033-.056-.07-.084-.1.028.033.054.07.084.1z"/><path data-name="Path 22" d="M6.174 49.728c-.042-.02-.081-.042-.121-.063.042.024.079.046.121.063z"/><path data-name="Path 23" d="M4.923 48.593c-.016-.028-.028-.059-.042-.088.015.029.026.061.042.088z"/><path data-name="Path 24" d="M6.589 49.878c.04.012.08.025.121.034-.038-.011-.08-.024-.121-.034z"/><path data-name="Path 25" d="M4.933 45.869a2.747 2.747 0 0 0-.167 2.4 2.747 2.747 0 0 1 .167-2.4z"/><path data-name="Path 26" d="M5.461 49.262c-.033-.029-.062-.062-.092-.093.03.032.062.065.092.093z"/><path data-name="Path 27" d="M6.441 49.836c-.043-.015-.084-.033-.126-.049.042.016.082.034.126.049z"/><path data-name="Path 28" d="M6.715 49.91z"/><path data-name="Path 29" d="M50.707 49.819h.026a2.659 2.659 0 0 0 2.3-3.99L49.7 40.054a2.694 2.694 0 0 0-2.325-1.342h-3.344a.756.756 0 0 0-.655 1.134l.014.025 3.273 5.729a3.072 3.072 0 0 1-.025 3.085 3.009 3.009 0 0 1-.213.312c-.026.034-.056.065-.084.1-.054.063-.106.126-.166.186-.036.035-.074.067-.111.1-.055.051-.11.1-.17.147-.041.033-.084.062-.128.092-.059.041-.117.083-.179.12-.015.009-.027.02-.043.028z"/><path data-name="Path 30" d="M44.407 49.73c.053-.008.105-.013.158-.025s.1-.028.155-.042.1-.025.145-.041.1-.041.151-.062.092-.034.135-.055.095-.053.143-.079.087-.045.127-.071.089-.063.134-.1.08-.054.117-.084.087-.078.13-.117.067-.059.1-.091c.047-.049.089-.1.133-.153.024-.028.05-.054.072-.083a2.7 2.7 0 0 0 .176-.26 2.647 2.647 0 0 0 .021-2.662l-2.51-4.395a3.1 3.1 0 0 1-3.1 3.087h-.3a2.589 2.589 0 0 1-2.229-1.282l-.016-.029-.641-1.118c-.017-.029-.038-.057-.056-.084-.032-.05-.062-.1-.1-.147s-.053-.059-.079-.089-.066-.08-.1-.116-.067-.059-.1-.089-.067-.062-.1-.089-.083-.055-.124-.083-.066-.047-.1-.068-.094-.047-.141-.07-.067-.036-.1-.051a1.678 1.678 0 0 0-.156-.054c-.034-.01-.066-.025-.1-.034-.061-.017-.122-.026-.184-.038-.029-.005-.055-.013-.084-.017a2.16 2.16 0 0 0-.278-.018 2.1 2.1 0 0 0-1.81 1.041l-2.27 3.892a2.008 2.008 0 0 1 .739-.154h.033a2.031 2.031 0 0 1 1.718.959 6.194 6.194 0 0 0 5.225 2.941l4.35.045.448.005h.118c.048-.003.098-.013.15-.02z"/><path data-name="Path 31" d="M43.687 49.747h.448-.448z"/><path data-name="Path 32" d="M44.72 49.663c-.052.015-.1.032-.155.042.052-.011.102-.027.155-.042z"/><path data-name="Path 33" d="M44.254 49.752c.05 0 .1-.016.149-.022-.051.008-.1.017-.152.022z"/><path data-name="Path 34" d="M45.294 49.426c-.049.026-.095.055-.143.079.049-.024.095-.053.143-.079z"/><path data-name="Path 35" d="M46.035 48.814c-.044.051-.086.1-.133.152.048-.043.089-.101.133-.152z"/><path data-name="Path 36" d="M45.803 49.058c-.043.039-.084.08-.13.117.046-.037.087-.078.13-.117z"/><path data-name="Path 37" d="M45.015 49.56c-.05.021-.1.043-.151.062.052-.02.102-.041.151-.062z"/><path data-name="Path 38" d="M46.283 48.471a2.693 2.693 0 0 1-.177.26 2.693 2.693 0 0 0 .177-.26z"/><path data-name="Path 39" d="M45.555 49.259c-.045.033-.088.067-.134.1.046-.029.09-.067.134-.1z"/><path data-name="Path 40" d="M32.414 38.713a5.736 5.736 0 0 0-4.951 2.857l-3.34 5.789a1.675 1.675 0 0 0 1.45 2.512h.1a5.562 5.562 0 0 0 4.8-2.771l.171-.295 2.88-4.955a2.518 2.518 0 0 1 2.172-1.25h.005a2.346 2.346 0 0 1 .306.021c.031 0 .063.011.093.016a1.996 1.996 0 0 1 .307.07c.066.02.13.043.194.067l.091.035.039.016a5.49 5.49 0 0 0-4.317-2.112z"/><path data-name="Path 41" d="m36.409 40.708-.1-.028.1.028z"/><path data-name="Path 42" d="M36.1 40.638c-.031-.005-.062-.012-.094-.016.031.004.063.011.094.016z"/><path data-name="Path 43" d="m36.694 40.811-.091-.036z"/><path data-name="Path 44" d="m30.645 46.806.01-.017 2.868-4.939-2.878 4.955z"/><path data-name="Path 45" d="M22.11 9.342h7.081a1.606 1.606 0 0 0 1.39-2.41L27.043.802a1.607 1.607 0 0 0-2.782 0l-3.542 6.13a1.606 1.606 0 0 0 1.392 2.41z"/></g><g data-name="Group 3817"><path data-name="Path 46" d="M75.036 14.859v9.893h7.4v4.334h-7.4v14.8h-4.99V10.437h13.662v4.422z"/><path data-name="Path 47" d="M102.127 43.883H91.268a2.726 2.726 0 0 1-2.978-3.065V13.502a2.725 2.725 0 0 1 2.978-3.064h10.859a2.757 2.757 0 0 1 3.022 3.064v27.317a2.757 2.757 0 0 1-3.022 3.064zm-1.968-29.156h-6.876v24.867h6.876z"/><path data-name="Path 48" d="M123.811 43.883h-10.639a2.738 2.738 0 0 1-3.021-3.065V10.437h4.993v29.156h6.744V10.437h4.991v30.382a2.77 2.77 0 0 1-3.068 3.064z"/><path data-name="Path 49" d="m143.937 43.883-8.013-21.057a16.549 16.549 0 0 1 .306 2.408v18.649h-4.86V10.437h4.378l8.015 20.619a16.471 16.471 0 0 1-.307-2.408V10.437h4.862v33.446z"/><path data-name="Path 50" d="M163.519 43.883h-10.2V10.437h10.2c4.073 0 6.479 2.494 6.479 6.348v20.794c-.001 3.854-2.451 6.304-6.479 6.304zm1.444-26.355a2.637 2.637 0 0 0-2.934-2.8h-3.723v24.867h3.592c2.014 0 3.065-1.094 3.065-2.846z"/><path data-name="Path 51" d="M200.37 14.859v29.024h-4.994V14.859h-5.473v-4.422h15.984v4.422z"/><path data-name="Path 52" d="M207.956 43.883V10.437h4.991v33.446z"/><path data-name="Path 53" d="M230.591 43.883h-10.86a2.726 2.726 0 0 1-2.978-3.065V13.502a2.726 2.726 0 0 1 2.978-3.064h10.86a2.758 2.758 0 0 1 3.022 3.064v27.317a2.758 2.758 0 0 1-3.022 3.064zm-1.97-29.156h-6.876v24.867h6.876z"/><path data-name="Path 54" d="m250.163 43.883-8.013-21.057a16.562 16.562 0 0 1 .305 2.408v18.649h-4.86V10.437h4.38l8.014 20.619a16.409 16.409 0 0 1-.308-2.408V10.437h4.86v33.446z"/><path data-name="Path 55" d="M290.484 43.883V10.437h4.992v33.446z"/><g data-name="Group 2"><path data-name="Path 56" d="m176.76 43.884 1.015-6.348h-.008z"/><path data-name="Path 57" d="m183.328 33.246-2.453-15.1 2.442 15.1z"/><path data-name="Path 58" d="M178.424 33.246h.036l2.415-15.1z"/><path data-name="Path 59" d="m184.01 37.537 1.026 6.348-1.007-6.348z"/><path data-name="Path 60" d="M183.546 10.394h-5.254l-6.482 33.4v.088h4.95l1.007-6.347h.008l.686-4.291h-.036l2.451-15.1 2.453 15.1h-.012l.694 4.291h.019l1.007 6.347h4.948v-.088z"/></g><g data-name="Group 3"><path data-name="Path 61" d="m273.143 43.884 1.016-6.348h-.009z"/><path data-name="Path 62" d="M274.807 33.246h.038l2.415-15.1z"/><path data-name="Path 63" d="m279.711 33.246-2.451-15.1 2.44 15.1z"/><path data-name="Path 64" d="m280.394 37.537 1.026 6.348-1.007-6.348z"/><path data-name="Path 65" d="M279.931 10.394h-5.256l-6.48 33.4v.088h4.948l1.007-6.347h.009l.686-4.291h-.038l2.453-15.1 2.451 15.1h-.011l.693 4.291h.019l1.007 6.347h4.948v-.088z"/></g></g></g></svg>