<svg xmlns="http://www.w3.org/2000/svg" width="72" height="72" viewBox="0 0 72 72">
  <g id="Group_3953" data-name="Group 3953" transform="translate(-504 -924)">
    <path id="Path_6353" data-name="Path 6353" d="M513.686,966.372h-4.361a31.37,31.37,0,0,0,24.3,24.3v-4.361a27.168,27.168,0,0,1-19.942-19.942Zm0,0" fill="#202832"/>
    <path id="Path_6354" data-name="Path 6354" d="M546.372,986.314v4.361a31.37,31.37,0,0,0,24.3-24.3h-4.361a27.168,27.168,0,0,1-19.942,19.942Zm0,0" fill="#202832"/>
    <path id="Path_6355" data-name="Path 6355" d="M566.314,953.628h4.361a31.37,31.37,0,0,0-24.3-24.3v4.361a27.168,27.168,0,0,1,19.942,19.942Zm0,0" fill="#202832"/>
    <path id="Path_6356" data-name="Path 6356" d="M533.628,933.686v-4.361a31.37,31.37,0,0,0-24.3,24.3h4.361a27.168,27.168,0,0,1,19.942-19.942Zm0,0" fill="#202832"/>
    <path id="Path_6357" data-name="Path 6357" d="M537.876,935.481a2.124,2.124,0,0,0,4.248,0v-9.357a2.124,2.124,0,0,0-4.248,0Zm0,0" fill="#202832"/>
    <path id="Path_6358" data-name="Path 6358" d="M515.481,962.124a2.124,2.124,0,0,0,0-4.248h-9.357a2.124,2.124,0,0,0,0,4.248Zm0,0" fill="#202832"/>
    <path id="Path_6359" data-name="Path 6359" d="M542.124,984.519a2.124,2.124,0,0,0-4.248,0v9.357a2.124,2.124,0,0,0,4.248,0Zm0,0" fill="#202832"/>
    <path id="Path_6360" data-name="Path 6360" d="M573.876,957.876h-9.357a2.124,2.124,0,0,0,0,4.248h9.357a2.124,2.124,0,0,0,0-4.248Zm0,0" fill="#202832"/>
    <g id="Group_3954" data-name="Group 3954">
      <path id="Path_6349" data-name="Path 6349" d="M542.124,949.558V947.2a2.124,2.124,0,0,0-4.248,0v2.355a10.7,10.7,0,0,1,4.248,0Zm0,0" fill="#007ce1"/>
      <path id="Path_6350" data-name="Path 6350" d="M529.558,957.875H527.2a2.124,2.124,0,1,0,0,4.248h2.355a10.72,10.72,0,0,1,0-4.248Zm0,0" fill="#007ce1"/>
      <path id="Path_6351" data-name="Path 6351" d="M537.875,970.442V972.8a2.124,2.124,0,1,0,4.248,0v-2.354a10.72,10.72,0,0,1-4.248,0Zm0,0" fill="#007ce1"/>
      <path id="Path_6352" data-name="Path 6352" d="M552.8,957.877h-2.354a10.7,10.7,0,0,1,0,4.248H552.8a2.124,2.124,0,0,0,0-4.248Zm0,0" fill="#007ce1"/>
      <path id="Path_6361" data-name="Path 6361" d="M546.407,960A6.407,6.407,0,1,0,540,966.407,6.414,6.414,0,0,0,546.407,960ZM540,962.124A2.124,2.124,0,1,1,542.123,960,2.161,2.161,0,0,1,540,962.124Zm0,0" fill="#007ce1"/>
    </g>
  </g>
</svg>
