<svg xmlns="http://www.w3.org/2000/svg" xmlns:xlink="http://www.w3.org/1999/xlink" width="40.005" height="40.005" viewBox="0 0 40.005 40.005">
  <defs>
    <clipPath id="clip-path">
      <rect id="Rectangle_1823" data-name="Rectangle 1823" width="40" height="40" transform="translate(0.298 0.298)" fill="none"/>
    </clipPath>
  </defs>
  <g id="Group_2663" data-name="Group 2663" transform="translate(0.112 0.112)">
    <rect id="Rectangle_1810" data-name="Rectangle 1810" width="10.324" height="10.324" transform="translate(29.569 -0.112)" fill="#007ce1"/>
    <rect id="Rectangle_1811" data-name="Rectangle 1811" width="10.324" height="10.324" transform="translate(-0.112 -0.112)" fill="#007ce1"/>
    <rect id="Rectangle_1812" data-name="Rectangle 1812" width="10.324" height="10.324" transform="translate(-0.112 29.569)" fill="#007ce1"/>
    <rect id="Rectangle_1813" data-name="Rectangle 1813" width="10.324" height="10.324" transform="translate(29.569 29.569)" fill="#007ce1"/>
    <rect id="Rectangle_1814" data-name="Rectangle 1814" width="1.29" height="1.29" transform="translate(19.89 24.407)" fill="#007ce1"/>
    <rect id="Rectangle_1815" data-name="Rectangle 1815" width="1.29" height="1.29" transform="translate(17.309 24.407)" fill="#007ce1"/>
    <rect id="Rectangle_1816" data-name="Rectangle 1816" width="1.291" height="1.29" transform="translate(14.728 24.407)" fill="#007ce1"/>
    <rect id="Rectangle_1817" data-name="Rectangle 1817" width="1.29" height="1.29" transform="translate(23.762 19.245)" fill="#007ce1"/>
    <rect id="Rectangle_1818" data-name="Rectangle 1818" width="1.291" height="1.29" transform="translate(18.599 19.245)" fill="#007ce1"/>
    <rect id="Rectangle_1819" data-name="Rectangle 1819" width="1.291" height="1.29" transform="translate(21.18 19.245)" fill="#007ce1"/>
    <rect id="Rectangle_1820" data-name="Rectangle 1820" width="1.291" height="1.291" transform="translate(14.728 14.083)" fill="#007ce1"/>
    <rect id="Rectangle_1821" data-name="Rectangle 1821" width="1.29" height="1.291" transform="translate(17.309 14.083)" fill="#007ce1"/>
    <rect id="Rectangle_1822" data-name="Rectangle 1822" width="1.29" height="1.291" transform="translate(19.89 14.083)" fill="#007ce1"/>
    <g id="Group_2659" data-name="Group 2659" transform="translate(-0.408 -0.408)">
      <g id="Group_2658" data-name="Group 2658" clip-path="url(#clip-path)">
        <path id="Path_4227" data-name="Path 4227" d="M35.614,37.679a1.937,1.937,0,0,0,1.936-1.935v-12.9A1.938,1.938,0,0,0,35.614,20.9H24a1.938,1.938,0,0,0-1.936,1.936v12.9A1.938,1.938,0,0,0,24,37.679Zm.646-6.452h-12.9V27.355h12.9ZM24,22.193H35.614a.646.646,0,0,1,.646.646v3.226h-12.9V22.839A.646.646,0,0,1,24,22.193m-.645,13.551V32.517h12.9v3.227a.645.645,0,0,1-.646.645H24a.645.645,0,0,1-.645-.645" transform="translate(-9.509 -8.993)" fill="#007ce1"/>
        <path id="Path_4228" data-name="Path 4228" d="M28.259,2.323a1.933,1.933,0,0,0-1.852,1.4,17.289,17.289,0,0,0-7.826,2.827V8.145a16,16,0,0,1,7.9-3.128,1.935,1.935,0,0,0,3.56,0,16,16,0,0,1,7.9,3.128V6.552a17.3,17.3,0,0,0-7.827-2.827,1.933,1.933,0,0,0-1.852-1.4m0,2.581a.645.645,0,1,1,.645-.645.646.646,0,0,1-.645.645" transform="translate(-7.961 -0.736)" fill="#007ce1"/>
        <path id="Path_4229" data-name="Path 4229" d="M28.259,61.149a1.938,1.938,0,0,0-1.78,1.177,16.015,16.015,0,0,1-7.9-3.128v1.592a17.289,17.289,0,0,0,7.826,2.827,1.924,1.924,0,0,0,3.7,0,17.314,17.314,0,0,0,7.827-2.827V59.2a16,16,0,0,1-7.9,3.128,1.938,1.938,0,0,0-1.78-1.177m0,2.58a.645.645,0,1,1,.645-.645.645.645,0,0,1-.645.645" transform="translate(-7.961 -26.01)" fill="#007ce1"/>
        <path id="Path_4230" data-name="Path 4230" d="M63.618,26.407a17.306,17.306,0,0,0-2.827-7.827H59.2a16,16,0,0,1,3.129,7.9,1.935,1.935,0,0,0,0,3.56,16.013,16.013,0,0,1-3.128,7.9h1.593a17.29,17.29,0,0,0,2.826-7.827,1.924,1.924,0,0,0,0-3.7m-.533,2.5a.645.645,0,1,1,.645-.645.646.646,0,0,1-.645.645" transform="translate(-26.01 -7.961)" fill="#007ce1"/>
        <path id="Path_4231" data-name="Path 4231" d="M6.552,37.938H8.146a16,16,0,0,1-3.129-7.9,1.935,1.935,0,0,0,0-3.56,16.006,16.006,0,0,1,3.128-7.9H6.552a17.29,17.29,0,0,0-2.826,7.827,1.923,1.923,0,0,0,0,3.7,17.281,17.281,0,0,0,2.826,7.827M4.259,27.614a.645.645,0,1,1-.646.645.645.645,0,0,1,.646-.645" transform="translate(-0.736 -7.961)" fill="#007ce1"/>
        <path id="Path_4232" data-name="Path 4232" d="M63.317,5.9l-.912-.912L58.99,8.4l-.834-.835-.913.912,1.747,1.747Z" transform="translate(-25.141 -1.919)" fill="#fff"/>
        <path id="Path_4233" data-name="Path 4233" d="M5.571,8.4l-.834-.835-.913.912,1.747,1.747L9.9,5.9l-.913-.912Z" transform="translate(-1.403 -1.919)" fill="#fff"/>
        <path id="Path_4234" data-name="Path 4234" d="M5.571,61.82l-.834-.835-.913.913,1.747,1.746L9.9,59.317,8.986,58.4Z" transform="translate(-1.403 -25.658)" fill="#fff"/>
        <path id="Path_4235" data-name="Path 4235" d="M58.99,61.82l-.834-.835-.913.913,1.747,1.746,4.328-4.328L62.4,58.4Z" transform="translate(-25.141 -25.658)" fill="#fff"/>
      </g>
    </g>
  </g>
</svg>
