<svg id="Group_3023" data-name="Group 3023" xmlns="http://www.w3.org/2000/svg" xmlns:xlink="http://www.w3.org/1999/xlink" width="35.937" height="40" viewBox="0 0 35.937 40">
  <defs>
    <clipPath id="clip-path">
      <rect id="Rectangle_1971" data-name="Rectangle 1971" width="35.937" height="40" fill="#007ce1"/>
    </clipPath>
  </defs>
  <g id="Group_3022" data-name="Group 3022" clip-path="url(#clip-path)">
    <path id="Path_4614" data-name="Path 4614" d="M26.953,40H11.328a1.172,1.172,0,0,1-1.172-1.172V34.375H8.984A5.085,5.085,0,0,1,3.906,29.3V26.562H1.172a1.171,1.171,0,0,1-1.1-1.583l2.269-6.051V16.8A16.8,16.8,0,0,1,31.018,4.92,16.686,16.686,0,0,1,35.937,16.8a16.286,16.286,0,0,1-7.812,13.947v8.084A1.172,1.172,0,0,1,26.953,40M12.5,37.656H25.781V30.078a1.175,1.175,0,0,1,.592-1.019A14,14,0,0,0,33.594,16.8a14.453,14.453,0,1,0-28.906,0V19.14a1.16,1.16,0,0,1-.075.412l-1.75,4.666H5.078A1.172,1.172,0,0,1,6.25,25.39V29.3a2.738,2.738,0,0,0,2.734,2.734h2.344A1.171,1.171,0,0,1,12.5,33.2Z" fill="#007ce1"/>
    <path id="Path_4615" data-name="Path 4615" d="M19.479,10.622a3.909,3.909,0,1,0,3.909,3.909,3.913,3.913,0,0,0-3.909-3.909m0,6.841a2.932,2.932,0,1,1,2.932-2.932,2.936,2.936,0,0,1-2.932,2.932" fill="#007ce1"/>
    <path id="Path_4616" data-name="Path 4616" d="M27.271,12.669,26.014,12.4a6.917,6.917,0,0,0-.4-.976l.695-1.082a.486.486,0,0,0-.065-.609L24.282,7.77a.489.489,0,0,0-.61-.065L22.589,8.4a6.857,6.857,0,0,0-.975-.4l-.273-1.257a.489.489,0,0,0-.477-.385h-2.77a.49.49,0,0,0-.478.385L17.343,8a6.966,6.966,0,0,0-.976.4L15.285,7.7a.487.487,0,0,0-.609.065L12.717,9.729a.489.489,0,0,0-.065.609l.7,1.082a6.8,6.8,0,0,0-.4.976l-1.257.273a.49.49,0,0,0-.386.478v2.769a.491.491,0,0,0,.386.478l1.257.273a6.789,6.789,0,0,0,.4.975l-.7,1.083a.49.49,0,0,0,.065.61l1.959,1.958a.489.489,0,0,0,.609.065l1.082-.7a6.734,6.734,0,0,0,.976.4l.273,1.258a.491.491,0,0,0,.478.385h2.77a.49.49,0,0,0,.477-.385l.273-1.258a6.631,6.631,0,0,0,.975-.4l1.083.7a.49.49,0,0,0,.61-.065l1.958-1.958a.488.488,0,0,0,.065-.61l-.695-1.083a6.905,6.905,0,0,0,.4-.975l1.257-.273a.491.491,0,0,0,.385-.478V13.147a.49.49,0,0,0-.385-.478m-.593,2.853-1.152.25a.492.492,0,0,0-.368.347,5.81,5.81,0,0,1-.541,1.305.49.49,0,0,0,.015.505l.638.992-1.4,1.4-.993-.638a.486.486,0,0,0-.5-.015,5.817,5.817,0,0,1-1.306.541.489.489,0,0,0-.346.368l-.251,1.152H18.488l-.25-1.152a.49.49,0,0,0-.347-.368,5.817,5.817,0,0,1-1.306-.541.488.488,0,0,0-.5.015l-.993.638-1.4-1.4.638-.992a.49.49,0,0,0,.015-.505,5.907,5.907,0,0,1-.542-1.305.489.489,0,0,0-.366-.347l-1.153-.25V13.541l1.152-.251a.489.489,0,0,0,.367-.346,5.848,5.848,0,0,1,.542-1.306.488.488,0,0,0-.015-.5l-.638-.993,1.4-1.4.993.638a.49.49,0,0,0,.5.015,5.867,5.867,0,0,1,1.306-.542.49.49,0,0,0,.347-.367l.25-1.152h1.981l.251,1.152a.489.489,0,0,0,.346.367,5.84,5.84,0,0,1,1.305.542.492.492,0,0,0,.5-.015l.993-.638,1.4,1.4-.638.993a.488.488,0,0,0-.015.5,5.8,5.8,0,0,1,.541,1.306.492.492,0,0,0,.368.346l1.152.251Z" fill="#007ce1"/>
  </g>
</svg>
