<svg xmlns="http://www.w3.org/2000/svg" width="40.005" height="40.005"><defs><clipPath id="a"><path data-name="Rectangle 1823" transform="translate(.298 .298)" fill="none" d="M0 0h40v40H0z"/></clipPath></defs><g data-name="Group 2663"><path data-name="Rectangle 1810" fill="#007ce1" d="M29.681 0h10.324v10.324H29.681z"/><path data-name="Rectangle 1811" fill="#007ce1" d="M0 0h10.324v10.324H0z"/><path data-name="Rectangle 1812" fill="#007ce1" d="M0 29.681h10.324v10.324H0z"/><path data-name="Rectangle 1813" fill="#007ce1" d="M29.681 29.681h10.324v10.324H29.681z"/><path data-name="Rectangle 1814" fill="#007ce1" d="M20.002 24.519h1.29v1.29h-1.29z"/><path data-name="Rectangle 1815" fill="#007ce1" d="M17.421 24.519h1.29v1.29h-1.29z"/><path data-name="Rectangle 1816" fill="#007ce1" d="M14.84 24.519h1.291v1.29H14.84z"/><path data-name="Rectangle 1817" fill="#007ce1" d="M23.874 19.357h1.29v1.29h-1.29z"/><path data-name="Rectangle 1818" fill="#007ce1" d="M18.711 19.357h1.291v1.29h-1.291z"/><path data-name="Rectangle 1819" fill="#007ce1" d="M21.292 19.357h1.291v1.29h-1.291z"/><path data-name="Rectangle 1820" fill="#007ce1" d="M14.84 14.195h1.291v1.291H14.84z"/><path data-name="Rectangle 1821" fill="#007ce1" d="M17.421 14.195h1.29v1.291h-1.29z"/><path data-name="Rectangle 1822" fill="#007ce1" d="M20.002 14.195h1.29v1.291h-1.29z"/><g data-name="Group 2659"><g data-name="Group 2658" clip-path="url(#a)" transform="translate(-.296 -.296)"><path data-name="Path 4227" d="M26.105 28.686a1.937 1.937 0 0 0 1.936-1.935v-12.9a1.938 1.938 0 0 0-1.936-1.944H14.491a1.938 1.938 0 0 0-1.936 1.936v12.9a1.938 1.938 0 0 0 1.936 1.943zm.646-6.452h-12.9L2.237 18.362h12.9zM14.491 13.2h11.614a.646.646 0 0 1 .646.646v3.226h-12.9v-3.226a.646.646 0 0 1 .64-.646m-.645 13.551v-3.227h12.9v3.227a.645.645 0 0 1-.646.645H14.491a.645.645 0 0 1-.645-.645" fill="#007ce1"/><path data-name="Path 4228" d="M20.298 1.587a1.933 1.933 0 0 0-1.852 1.4 17.289 17.289 0 0 0-7.826 2.827v1.595a16 16 0 0 1 7.9-3.128 1.935 1.935 0 0 0 3.56 0 16 16 0 0 1 7.9 3.128V5.816a17.3 17.3 0 0 0-7.827-2.827 1.933 1.933 0 0 0-1.852-1.4m0 2.581a.645.645 0 1 1 .645-.645.646.646 0 0 1-.645.645" fill="#007ce1"/><path data-name="Path 4229" d="M20.298 35.139a1.938 1.938 0 0 0-1.78 1.177 16.015 16.015 0 0 1-7.9-3.128v1.592a17.289 17.289 0 0 0 7.826 2.827 1.924 1.924 0 0 0 3.7 0 17.314 17.314 0 0 0 7.827-2.827v-1.59a16 16 0 0 1-7.9 3.128 1.938 1.938 0 0 0-1.78-1.177m0 2.58a.645.645 0 1 1 .645-.645.645.645 0 0 1-.645.645" fill="#007ce1"/><path data-name="Path 4230" d="M37.608 18.446a17.306 17.306 0 0 0-2.827-7.827H33.19a16 16 0 0 1 3.129 7.9 1.935 1.935 0 0 0 0 3.56 16.013 16.013 0 0 1-3.128 7.9h1.593a17.29 17.29 0 0 0 2.826-7.827 1.924 1.924 0 0 0 0-3.7m-.533 2.5a.645.645 0 1 1 .645-.645.646.646 0 0 1-.645.645" fill="#007ce1"/><path data-name="Path 4231" d="M5.816 29.977H7.41a16 16 0 0 1-3.129-7.9 1.935 1.935 0 0 0 0-3.56 16.006 16.006 0 0 1 3.128-7.9H5.816a17.29 17.29 0 0 0-2.826 7.827 1.923 1.923 0 0 0 0 3.7 17.281 17.281 0 0 0 2.826 7.827M3.523 19.653a.645.645 0 1 1-.646.645.645.645 0 0 1 .646-.645" fill="#007ce1"/><path data-name="Path 4232" d="m38.176 3.981-.912-.912-3.415 3.412-.834-.835-.913.912 1.747 1.747z" fill="#fff"/><path data-name="Path 4233" d="m4.168 6.481-.834-.835-.913.912 1.747 1.747 4.329-4.324-.913-.912z" fill="#fff"/><path data-name="Path 4234" d="m4.168 36.162-.834-.835-.913.913 1.747 1.746 4.329-4.327-.914-.917z" fill="#fff"/><path data-name="Path 4235" d="m33.849 36.162-.834-.835-.913.913 1.747 1.746 4.328-4.328-.918-.916z" fill="#fff"/></g></g></g></svg>