<svg xmlns="http://www.w3.org/2000/svg" width="40" height="40"><defs><clipPath id="a"><path data-name="Rectangle 1970" fill="#007ce1" d="M0 0h40v40H0z"/></clipPath></defs><g data-name="Group 3021"><g data-name="Group 3019"><g data-name="Group 3018" clip-path="url(#a)" fill="#007ce1"><path data-name="Path 4612" d="M2.581 37.419V0H0v38.71A1.291 1.291 0 0 0 1.291 40H40v-2.581z"/><path data-name="Path 4613" d="M16.013 25.935h8.5a1.29 1.29 0 0 0 .916-.373l9.407-9.42v3.341h2.58v-6.451a1.289 1.289 0 0 0-1.29-1.29h-6.448v2.581h3.342l-9.032 9.031h-8.5a1.292 1.292 0 0 0-.916.375L6.826 31.47l1.819 1.819z"/></g></g><g data-name="Group 3020" fill="#007ce1"><g data-name="Group 3009"><path data-name="Rectangle 1839" d="M10.238 6.719h10.235v1.706H10.238z"/><path data-name="Rectangle 1840" d="M10.238 10.131h1.706v1.706h-1.706z"/><path data-name="Rectangle 1841" d="M13.65 10.131h6.823v1.706H13.65z"/><path data-name="Rectangle 1842" d="M10.238 13.541h10.235v1.706H10.238z"/></g><path data-name="Path 4608" d="M21.254 18.734h-11.8a2.7 2.7 0 0 1-2.7-2.7v-10.1a2.7 2.7 0 0 1 2.7-2.7h11.8a2.7 2.7 0 0 1 2.7 2.7v10.095a2.7 2.7 0 0 1-2.7 2.7M9.456 4.373a1.565 1.565 0 0 0-1.564 1.561v10.095a1.565 1.565 0 0 0 1.564 1.564h11.8a1.565 1.565 0 0 0 1.563-1.564V5.934a1.565 1.565 0 0 0-1.563-1.564z"/></g></g></svg>