<svg xmlns="http://www.w3.org/2000/svg" width="40" height="40"><defs><clipPath id="a"><path data-name="Rectangle 1837" transform="translate(.053 .053)" fill="#007ce1" d="M0 0h40v40H0z"/></clipPath></defs><g data-name="Group 2667"><g data-name="Group 2666" transform="translate(-.053 -.052)" clip-path="url(#a)" fill="#007ce1"><path data-name="Path 4259" d="M39.292 35.11H4.996V.813a.837.837 0 1 0-1.673 0v34.3H.813a.837.837 0 0 0 0 1.673h2.51v2.509a.837.837 0 0 0 1.673 0v-2.512h34.3a.837.837 0 0 0 0-1.673"/><path data-name="Path 4260" d="M12.524 33.437a.836.836 0 0 1-.836-.837v-1.673a.837.837 0 0 1 1.673 0V32.6a.836.836 0 0 1-.836.836"/><path data-name="Path 4261" d="M22.562 33.437a.837.837 0 0 1-.836-.837V20.89a.837.837 0 1 1 1.673 0V32.6a.837.837 0 0 1-.837.836"/><path data-name="Path 4262" d="M34.273 33.437a.837.837 0 0 1-.836-.837V14.2a.837.837 0 0 1 1.673 0v18.4a.837.837 0 0 1-.836.836"/><path data-name="Path 4263" d="M15.035 22.563a.837.837 0 0 1-.592-1.429l5.019-5.019a.837.837 0 0 1 1.183 1.183l-5.019 5.019a.836.836 0 0 1-.591.246"/><path data-name="Path 4264" d="M25.909 13.361a.836.836 0 0 1-.465-1.532l5.019-3.347a.837.837 0 0 1 .929 1.392l-5.019 3.346a.835.835 0 0 1-.463.141"/><path data-name="Path 4268" d="M4.159 40.129a.836.836 0 0 1-.836-.837V.813a.837.837 0 0 1 1.673 0v38.479a.836.836 0 0 1-.836.836"/><path data-name="Path 4269" d="M39.292 36.783H.813a.837.837 0 0 1 0-1.673h38.479a.837.837 0 0 1 0 1.673"/><path data-name="Path 4270" d="M12.524 28.418a4.182 4.182 0 1 1 4.182-4.182 4.182 4.182 0 0 1-4.182 4.182m0-6.692a2.509 2.509 0 1 0 2.509 2.509 2.51 2.51 0 0 0-2.509-2.509"/><path data-name="Path 4271" d="M22.562 18.38a4.182 4.182 0 1 1 4.182-4.182 4.183 4.183 0 0 1-4.182 4.182m0-6.692a2.509 2.509 0 1 0 2.509 2.509 2.51 2.51 0 0 0-2.509-2.509"/><path data-name="Path 4272" d="M34.273 11.688a4.182 4.182 0 1 1 4.182-4.182 4.182 4.182 0 0 1-4.182 4.182m0-6.692a2.509 2.509 0 1 0 2.509 2.509 2.51 2.51 0 0 0-2.509-2.509"/><path data-name="Path 4273" d="M12.524 33.437a.836.836 0 0 1-.836-.837v-1.673a.837.837 0 0 1 1.673 0V32.6a.836.836 0 0 1-.836.836"/><path data-name="Path 4274" d="M22.562 33.437a.837.837 0 0 1-.836-.837V20.89a.837.837 0 1 1 1.673 0V32.6a.837.837 0 0 1-.837.836"/><path data-name="Path 4275" d="M34.273 33.437a.837.837 0 0 1-.836-.837V14.2a.837.837 0 0 1 1.673 0v18.4a.837.837 0 0 1-.836.836"/><path data-name="Path 4276" d="M15.035 22.563a.837.837 0 0 1-.592-1.429l5.019-5.019a.837.837 0 0 1 1.183 1.183l-5.019 5.019a.836.836 0 0 1-.591.246"/><path data-name="Path 4277" d="M25.909 13.361a.836.836 0 0 1-.465-1.532l5.019-3.347a.837.837 0 0 1 .929 1.392l-5.019 3.346a.835.835 0 0 1-.463.141"/></g></g></svg>