<svg xmlns="http://www.w3.org/2000/svg" xmlns:xlink="http://www.w3.org/1999/xlink" width="40" height="40" viewBox="0 0 40 40">
  <defs>
    <clipPath id="clip-path">
      <rect id="Rectangle_1837" data-name="Rectangle 1837" width="40" height="40" transform="translate(0.053 0.053)" fill="#007ce1"/>
    </clipPath>
  </defs>
  <g id="Group_2667" data-name="Group 2667" transform="translate(-0.085 -0.084)">
    <g id="Group_2666" data-name="Group 2666" transform="translate(0.032 0.032)" clip-path="url(#clip-path)">
      <path id="Path_4259" data-name="Path 4259" d="M39.315,35.133H5.019V.836a.836.836,0,1,0-1.673,0v34.3H.836a.836.836,0,0,0,0,1.673H3.346v2.509a.836.836,0,0,0,1.673,0V36.806h34.3a.836.836,0,0,0,0-1.673" transform="translate(-0.023 -0.023)" fill="#007ce1"/>
      <path id="Path_4260" data-name="Path 4260" d="M21.836,57.346A.836.836,0,0,1,21,56.509V54.836a.836.836,0,0,1,1.673,0v1.673a.836.836,0,0,1-.836.836" transform="translate(-9.312 -23.909)" fill="#007ce1"/>
      <path id="Path_4261" data-name="Path 4261" d="M39.836,49.384A.837.837,0,0,1,39,48.547V36.837a.836.836,0,1,1,1.673,0V48.547a.837.837,0,0,1-.837.836" transform="translate(-17.274 -15.947)" fill="#007ce1"/>
      <path id="Path_4262" data-name="Path 4262" d="M60.836,44.076A.837.837,0,0,1,60,43.239v-18.4a.836.836,0,0,1,1.673,0v18.4a.837.837,0,0,1-.836.836" transform="translate(-26.563 -10.639)" fill="#007ce1"/>
      <path id="Path_4263" data-name="Path 4263" d="M26.336,35.2a.837.837,0,0,1-.592-1.429l5.019-5.019a.836.836,0,0,1,1.183,1.183l-5.019,5.019a.836.836,0,0,1-.591.246" transform="translate(-11.301 -12.637)" fill="#007ce1"/>
      <path id="Path_4264" data-name="Path 4264" d="M45.836,20.019a.836.836,0,0,1-.465-1.532L50.39,15.14a.837.837,0,0,1,.929,1.392L46.3,19.878a.835.835,0,0,1-.463.141" transform="translate(-19.927 -6.658)" fill="#007ce1"/>
      <path id="Path_4268" data-name="Path 4268" d="M6.836,40.152A.836.836,0,0,1,6,39.315V.836a.836.836,0,0,1,1.673,0V39.315a.836.836,0,0,1-.836.836" transform="translate(-2.677 -0.023)" fill="#007ce1"/>
      <path id="Path_4269" data-name="Path 4269" d="M39.315,64.673H.836A.837.837,0,0,1,.836,63H39.315a.837.837,0,0,1,0,1.673" transform="translate(-0.023 -27.89)" fill="#007ce1"/>
      <path id="Path_4270" data-name="Path 4270" d="M19.182,44.365a4.182,4.182,0,1,1,4.182-4.182,4.182,4.182,0,0,1-4.182,4.182m0-6.692a2.509,2.509,0,1,0,2.509,2.509,2.51,2.51,0,0,0-2.509-2.509" transform="translate(-6.658 -15.947)" fill="#007ce1"/>
      <path id="Path_4271" data-name="Path 4271" d="M37.182,26.365a4.182,4.182,0,1,1,4.182-4.182,4.183,4.183,0,0,1-4.182,4.182m0-6.692a2.509,2.509,0,1,0,2.509,2.509,2.51,2.51,0,0,0-2.509-2.509" transform="translate(-14.62 -7.985)" fill="#007ce1"/>
      <path id="Path_4272" data-name="Path 4272" d="M58.182,14.365a4.182,4.182,0,1,1,4.182-4.182,4.182,4.182,0,0,1-4.182,4.182m0-6.692a2.509,2.509,0,1,0,2.509,2.509,2.51,2.51,0,0,0-2.509-2.509" transform="translate(-23.909 -2.677)" fill="#007ce1"/>
      <path id="Path_4273" data-name="Path 4273" d="M21.836,57.346A.836.836,0,0,1,21,56.509V54.836a.836.836,0,0,1,1.673,0v1.673a.836.836,0,0,1-.836.836" transform="translate(-9.312 -23.909)" fill="#007ce1"/>
      <path id="Path_4274" data-name="Path 4274" d="M39.836,49.384A.837.837,0,0,1,39,48.547V36.837a.836.836,0,1,1,1.673,0V48.547a.837.837,0,0,1-.837.836" transform="translate(-17.274 -15.947)" fill="#007ce1"/>
      <path id="Path_4275" data-name="Path 4275" d="M60.836,44.076A.837.837,0,0,1,60,43.239v-18.4a.836.836,0,0,1,1.673,0v18.4a.837.837,0,0,1-.836.836" transform="translate(-26.563 -10.639)" fill="#007ce1"/>
      <path id="Path_4276" data-name="Path 4276" d="M26.336,35.2a.837.837,0,0,1-.592-1.429l5.019-5.019a.836.836,0,0,1,1.183,1.183l-5.019,5.019a.836.836,0,0,1-.591.246" transform="translate(-11.301 -12.637)" fill="#007ce1"/>
      <path id="Path_4277" data-name="Path 4277" d="M45.836,20.019a.836.836,0,0,1-.465-1.532L50.39,15.14a.837.837,0,0,1,.929,1.392L46.3,19.878a.835.835,0,0,1-.463.141" transform="translate(-19.927 -6.658)" fill="#007ce1"/>
    </g>
  </g>
</svg>
