<svg xmlns="http://www.w3.org/2000/svg" width="207.603" height="733.502"><g data-name="Group 3461"><path data-name="Line 188" fill="none" stroke="#fff" opacity=".33" d="m.482 389.135 108 61"/><path data-name="Line 189" fill="none" stroke="#fff" opacity=".33" d="m55.482 602.135 54-144"/><path data-name="Line 190" fill="none" stroke="#fff" opacity=".33" d="m55.482 618.135 23 38"/><path data-name="Line 191" fill="none" stroke="#fff" opacity=".33" d="m78.482 661.135-78 72"/><g data-name="Group 3422"><path data-name="Path 3832" d="M82.382 657.095a2.522 2.522 0 1 1-3.561.206 2.521 2.521 0 0 1 3.561-.206z" fill="#fff"/><path data-name="Path 3833" d="M82.382 657.095a2.522 2.522 0 1 0 .204 3.561 2.522 2.522 0 0 0-.204-3.56m.818-.92a3.753 3.753 0 1 1-5.3.306 3.757 3.757 0 0 1 5.301-.305z" fill="#285ce8"/></g><path data-name="Line 192" fill="none" stroke="#fff" opacity=".33" d="m108.482 454.135-108 47"/><path data-name="Line 193" fill="none" stroke="#fff" opacity=".33" d="m45.482 605.135-45-27"/><g data-name="Group 3425"><path data-name="Path 3828" d="M47.828 615.185a7 7 0 1 1 9.878-.569 6.995 6.995 0 0 1-9.878.57z" fill="#fff"/><path data-name="Path 3829" d="M57.138 604.738a7 7 0 1 0 .57 9.879 6.995 6.995 0 0 0-.57-9.879m1.29-1.447a8.935 8.935 0 1 1-12.615.725 8.946 8.946 0 0 1 12.615-.725z" fill="#285ce8"/></g><path data-name="Line 197" fill="none" stroke="#fff" opacity=".33" d="m187.482 210.125-75 238.01"/><path data-name="Line 198" fill="none" stroke="#fff" opacity=".33" d="m42.482 146.135 138.001 46.99"/><path data-name="Line 199" fill="none" stroke="#fff" opacity=".33" d="m.482.135 40 143"/><path data-name="Line 200" fill="none" stroke="#fff" opacity=".33" d="m.482 196.135 40-50"/><g data-name="Group 3438"><path data-name="Path 3832" d="M41.86 144.095a2.522 2.522 0 1 1-3.561.206 2.521 2.521 0 0 1 3.561-.206z" fill="#fff"/><path data-name="Path 3833" d="M41.86 144.095a2.522 2.522 0 1 0 .204 3.561 2.522 2.522 0 0 0-.204-3.56m.818-.92a3.753 3.753 0 1 1-5.3.306 3.757 3.757 0 0 1 5.301-.305z" fill="#285ce8"/></g><g data-name="Group 3439"><path data-name="Path 3828" d="M184.169 206.304a9.492 9.492 0 1 1 13.402-.772 9.489 9.489 0 0 1-13.402.772z" fill="#fff"/><path data-name="Path 3829" d="M196.798 192.131a9.492 9.492 0 1 0 .773 13.401 9.49 9.49 0 0 0-.772-13.401m1.75-1.964a12.122 12.122 0 1 1-17.114.984 12.136 12.136 0 0 1 17.113-.984z" fill="#285ce8"/></g><g data-name="Group 3440"><path data-name="Path 3832" d="M114.126 450.015a3.971 3.971 0 1 1-5.606.323 3.969 3.969 0 0 1 5.606-.323z" fill="#fff"/><path data-name="Path 3833" d="M114.126 450.015a3.971 3.971 0 1 0 .321 5.605 3.971 3.971 0 0 0-.321-5.605m1.288-1.446a5.908 5.908 0 1 1-8.341.48 5.915 5.915 0 0 1 8.341-.48z" fill="#285ce8"/></g></g></svg>