<svg xmlns="http://www.w3.org/2000/svg" xmlns:xlink="http://www.w3.org/1999/xlink" width="57" height="40" viewBox="0 0 57 40">
  <defs>
    <clipPath id="clip-path">
      <rect id="Rectangle_1760" data-name="Rectangle 1760" width="57" height="40" fill="#f90"/>
    </clipPath>
  </defs>
  <g id="Group_3413" data-name="Group 3413" transform="translate(0 0)">
    <g id="Group_2613" data-name="Group 2613" transform="translate(0 0)" clip-path="url(#clip-path)">
      <path id="Path_4167" data-name="Path 4167" d="M5.728,40H3.42A3.167,3.167,0,0,1,.74,39.019Q0,38.036,0,34.861V20.468L13.118,0h8.5L10.254,20.841h4.9q4.062,0,4.9.981t.83,4.254v8.785q0,3.273-.877,4.2T15.152,40Zm35.2,0H38.8a3.344,3.344,0,0,1-2.819-1.029q-.788-1.026-.785-4.11V20.468L48.5,0H57L45.636,20.841h4.9q3.973,0,4.758.981t.785,4.254v8.785q0,3.363-.83,4.251T50.532,40Z" transform="translate(0 0.001)" fill="#f90"/>
    </g>
  </g>
</svg>
