<svg xmlns="http://www.w3.org/2000/svg" width="207.603" height="733.502" viewBox="0 0 207.603 733.502">
  <g id="Group_3461" data-name="Group 3461" transform="translate(0.482 0.135)">
    <line id="Line_188" data-name="Line 188" x2="108" y2="61" transform="translate(0 389)" fill="none" stroke="#fff" stroke-width="1" opacity="0.33"/>
    <line id="Line_189" data-name="Line 189" y1="144" x2="54" transform="translate(55 458)" fill="none" stroke="#fff" stroke-width="1" opacity="0.33"/>
    <line id="Line_190" data-name="Line 190" x2="23" y2="38" transform="translate(55 618)" fill="none" stroke="#fff" stroke-width="1" opacity="0.33"/>
    <line id="Line_191" data-name="Line 191" x1="78" y2="72" transform="translate(0 661)" fill="none" stroke="#fff" stroke-width="1" opacity="0.33"/>
    <g id="Group_3422" data-name="Group 3422" transform="translate(80.499 664.145) rotate(-138)">
      <path id="Path_3832" data-name="Path 3832" d="M2.534,5.045A2.522,2.522,0,1,1,5.043,2.509,2.521,2.521,0,0,1,2.534,5.045Z" transform="translate(1.232 1.232)" fill="#fff"/>
      <path id="Path_3833" data-name="Path 3833" d="M3.766,6.277A2.522,2.522,0,1,0,1.232,3.767,2.522,2.522,0,0,0,3.766,6.277m.007,1.23A3.753,3.753,0,1,1,7.507,3.734,3.757,3.757,0,0,1,3.772,7.507Z" transform="translate(0 0)" fill="#285ce8"/>
    </g>
    <line id="Line_192" data-name="Line 192" x1="108" y2="47" transform="translate(0 454)" fill="none" stroke="#fff" stroke-width="1" opacity="0.33"/>
    <line id="Line_193" data-name="Line 193" x1="45" y1="27" transform="translate(0 578)" fill="none" stroke="#fff" stroke-width="1" opacity="0.33"/>
    <g id="Group_3425" data-name="Group 3425" transform="translate(52.662 622.446) rotate(-138)">
      <path id="Path_3828" data-name="Path 3828" d="M6.96,0A7,7,0,1,1,0,7.033,6.995,6.995,0,0,1,6.96,0Z" transform="translate(1.939 1.939)" fill="#fff"/>
      <path id="Path_3829" data-name="Path 3829" d="M8.971,15.932a7,7,0,1,0-7.033-6.96,6.995,6.995,0,0,0,7.033,6.96m.01,1.939a8.935,8.935,0,1,1,8.889-8.98,8.946,8.946,0,0,1-8.889,8.98Z" transform="translate(0 0)" fill="#285ce8"/>
    </g>
    <line id="Line_197" data-name="Line 197" x1="75" y2="238.01" transform="translate(112 209.99)" fill="none" stroke="#fff" stroke-width="1" opacity="0.33"/>
    <line id="Line_198" data-name="Line 198" x2="138.001" y2="46.99" transform="translate(42 146)" fill="none" stroke="#fff" stroke-width="1" opacity="0.33"/>
    <line id="Line_199" data-name="Line 199" x2="40" y2="143" transform="translate(0)" fill="none" stroke="#fff" stroke-width="1" opacity="0.33"/>
    <line id="Line_200" data-name="Line 200" y1="50" x2="40" transform="translate(0 146)" fill="none" stroke="#fff" stroke-width="1" opacity="0.33"/>
    <g id="Group_3438" data-name="Group 3438" transform="translate(39.977 151.145) rotate(-138)">
      <path id="Path_3832-2" data-name="Path 3832" d="M2.534,5.045A2.522,2.522,0,1,1,5.043,2.509,2.521,2.521,0,0,1,2.534,5.045Z" transform="translate(1.232 1.232)" fill="#fff"/>
      <path id="Path_3833-2" data-name="Path 3833" d="M3.766,6.277A2.522,2.522,0,1,0,1.232,3.767,2.522,2.522,0,0,0,3.766,6.277m.007,1.23A3.753,3.753,0,1,1,7.507,3.734,3.757,3.757,0,0,1,3.772,7.507Z" fill="#285ce8"/>
    </g>
    <g id="Group_3439" data-name="Group 3439" transform="translate(190.899 216.202) rotate(-138)">
      <path id="Path_3828-2" data-name="Path 3828" d="M9.443,0A9.492,9.492,0,1,1,0,9.541,9.489,9.489,0,0,1,9.443,0Z" transform="translate(2.63 2.63)" fill="#fff"/>
      <path id="Path_3829-2" data-name="Path 3829" d="M12.171,21.613A9.492,9.492,0,1,0,2.63,12.171a9.49,9.49,0,0,0,9.541,9.443m.014,2.63A12.122,12.122,0,1,1,24.244,12.062,12.136,12.136,0,0,1,12.185,24.244Z" fill="#285ce8"/>
    </g>
    <g id="Group_3440" data-name="Group 3440" transform="translate(111.438 461.189) rotate(-138)">
      <path id="Path_3832-3" data-name="Path 3832" d="M3.989,7.941A3.971,3.971,0,1,1,7.939,3.95,3.969,3.969,0,0,1,3.989,7.941Z" transform="translate(1.939 1.939)" fill="#fff"/>
      <path id="Path_3833-3" data-name="Path 3833" d="M5.928,9.88A3.971,3.971,0,1,0,1.939,5.93,3.971,3.971,0,0,0,5.928,9.88m.01,1.937a5.908,5.908,0,1,1,5.878-5.938,5.915,5.915,0,0,1-5.878,5.938Z" transform="translate(0 0)" fill="#285ce8"/>
    </g>
  </g>
</svg>
