<svg xmlns="http://www.w3.org/2000/svg" width="57" height="40"><defs><clipPath id="a"><path data-name="Rectangle 1760" fill="#f90" d="M0 0h57v40H0z"/></clipPath></defs><g data-name="Group 3413"><g data-name="Group 2613" clip-path="url(#a)"><path data-name="Path 4167" d="M5.728 40.001H3.42a3.167 3.167 0 0 1-2.68-.981Q0 38.037 0 34.862V20.469L13.118.001h8.5L10.254 20.842h4.9q4.062 0 4.9.981t.83 4.254v8.785q0 3.273-.877 4.2t-4.855.939zm35.2 0H38.8a3.344 3.344 0 0 1-2.819-1.029q-.788-1.026-.785-4.11V20.469L48.5.001H57L45.636 20.842h4.9q3.973 0 4.758.981t.785 4.254v8.785q0 3.363-.83 4.251t-4.717.888z" fill="#f90"/></g></g></svg>