<svg xmlns="http://www.w3.org/2000/svg" width="19.767" height="20" viewBox="0 0 19.767 20">
  <g id="Group_3843" data-name="Group 3843" transform="translate(-476.124 -947.5)">
    <g id="Group_3841" data-name="Group 3841" transform="translate(476.124 947.5)">
      <path id="Path_6262" data-name="Path 6262" d="M488.988,966.311H477.273a.383.383,0,0,1-.384-.382V948.647a.383.383,0,0,1,.384-.382h9.806v2.6a1.149,1.149,0,0,0,1.149,1.147h2.6v4.433h.766v-4.815h0a.378.378,0,0,0-.111-.27l-3.753-3.747a.386.386,0,0,0-.271-.111H477.273a1.149,1.149,0,0,0-1.149,1.147v17.282a1.149,1.149,0,0,0,1.149,1.147h11.714Zm-1.142-17.506,2.445,2.442h-2.063a.383.383,0,0,1-.383-.383Z" transform="translate(-476.124 -947.5)" fill="#232323"/>
    </g>
    <rect id="Rectangle_2445" data-name="Rectangle 2445" width="3.138" height="0.785" transform="translate(477.963 961.627)" fill="#232323"/>
    <rect id="Rectangle_2446" data-name="Rectangle 2446" width="7.846" height="0.785" transform="translate(477.963 963.467)" fill="#232323"/>
    <g id="Group_3842" data-name="Group 3842" transform="translate(477.963 949.485)">
      <path id="Path_6263" data-name="Path 6263" d="M479.693,959.139a.392.392,0,0,0,.278-.115l3.053-3.052.278.278a.391.391,0,0,0,0,.555l1.109,1.11a.394.394,0,0,0,.555,0l2.5-2.5a.391.391,0,0,0,0-.555l-1.11-1.11a.392.392,0,0,0-.555,0l-1.943-1.943a.391.391,0,0,0,0-.555l-1.11-1.109a.391.391,0,0,0-.555,0l-2.5,2.5a.391.391,0,0,0,0,.555l1.109,1.11a.394.394,0,0,0,.555,0l.278.278-3.053,3.052a.391.391,0,0,0,0,.555l.832.832a.389.389,0,0,0,.277.115Zm6.383-4.555.555.555-1.943,1.943-.555-.555Zm-.832-.278-1.388,1.388-1.943-1.943,1.388-1.388Zm-4.164-.832-.555-.555,1.943-1.943.555.555Zm1.111,1.666.277.277-2.775,2.775-.277-.277Zm0,0" transform="translate(-478.468 -950.03)" fill="#232323"/>
      <path id="Path_6264" data-name="Path 6264" d="M485.613,961.333a1.292,1.292,0,0,0-1.291,1.291v.431h-.431v.861h4.3v-.861h-.431v-.431a1.292,1.292,0,0,0-1.291-1.291Zm1.291,1.291v.431h-1.722v-.431a.431.431,0,0,1,.431-.431h.861a.431.431,0,0,1,.431.431Zm0,0" transform="translate(-479.636 -952.465)" fill="#232323"/>
    </g>
    <path id="Path_6265" data-name="Path 6265" d="M499.153,963.382a.4.4,0,0,0-.243-.416l-1.451-.613a4.77,4.77,0,0,1-1.438-.938l-.614-.585a.4.4,0,0,0-.555,0l-.614.585a4.787,4.787,0,0,1-1.437.938l-1.451.613a.4.4,0,0,0-.244.416l.136,1.229a7.717,7.717,0,0,0,3.6,5.667l.073.046a.389.389,0,0,0,.214.063.4.4,0,0,0,.215-.062l.073-.046a7.714,7.714,0,0,0,3.6-5.666Zm-2.414,4.651a7.224,7.224,0,0,1-1.611,1.471,7.193,7.193,0,0,1-1.612-1.472v-.465a1.209,1.209,0,0,1,1.208-1.208h.806a1.209,1.209,0,0,1,1.208,1.208Zm-2.416-3.286a.805.805,0,1,1,.806.806.806.806,0,0,1-.806-.806Zm3.894-.225a6.7,6.7,0,0,1-.773,2.444,2.015,2.015,0,0,0-1.062-1.218,1.6,1.6,0,0,0,.358-1,1.611,1.611,0,0,0-3.222,0,1.592,1.592,0,0,0,.359,1,2.015,2.015,0,0,0-1.062,1.218,6.72,6.72,0,0,1-.774-2.444l-.1-.931,1.175-.5a5.55,5.55,0,0,0,1.679-1.1l.338-.32.337.321a5.59,5.59,0,0,0,1.68,1.1l1.175.5Zm0,0" transform="translate(-3.264 -2.886)" fill="#232323"/>
  </g>
</svg>
