<svg xmlns="http://www.w3.org/2000/svg" width="19.767" height="20"><g data-name="Group 3843"><g data-name="Group 3841"><path data-name="Path 6262" d="M12.864 18.811H1.149a.383.383 0 0 1-.384-.382V1.147a.383.383 0 0 1 .384-.382h9.806v2.6a1.149 1.149 0 0 0 1.149 1.147h2.6v4.433h.766V4.13a.378.378 0 0 0-.111-.27L11.606.113a.386.386 0 0 0-.271-.111H1.149A1.149 1.149 0 0 0 0 1.149v17.282a1.149 1.149 0 0 0 1.149 1.147h11.714zM11.722 1.305l2.445 2.442h-2.063a.383.383 0 0 1-.383-.383z" fill="#232323"/></g><path data-name="Rectangle 2445" fill="#232323" d="M1.839 14.127h3.138v.785H1.839z"/><path data-name="Rectangle 2446" fill="#232323" d="M1.839 15.967h7.846v.785H1.839z"/><g data-name="Group 3842" fill="#232323"><path data-name="Path 6263" d="M3.064 11.094a.392.392 0 0 0 .278-.115l3.053-3.052.278.278a.391.391 0 0 0 0 .555l1.109 1.11a.394.394 0 0 0 .555 0l2.5-2.5a.391.391 0 0 0 0-.555l-1.11-1.11a.392.392 0 0 0-.555 0L7.229 3.762a.391.391 0 0 0 0-.555l-1.11-1.109a.391.391 0 0 0-.555 0l-2.5 2.5a.391.391 0 0 0 0 .555l1.109 1.11a.394.394 0 0 0 .555 0l.278.278-3.053 3.052a.391.391 0 0 0 0 .555l.832.832a.389.389 0 0 0 .277.115zm6.383-4.555.555.555-1.943 1.943-.555-.555zm-.832-.278L7.227 7.649 5.284 5.706l1.388-1.388zm-4.164-.832-.555-.555 1.943-1.943.555.555zm1.111 1.666.277.277-2.775 2.775-.277-.277zm0 0"/><path data-name="Path 6264" d="M7.816 10.853a1.292 1.292 0 0 0-1.291 1.291v.431h-.431v.861h4.3v-.861h-.431v-.431a1.292 1.292 0 0 0-1.291-1.291zm1.291 1.291v.431H7.385v-.431a.431.431 0 0 1 .431-.431h.861a.431.431 0 0 1 .431.431zm0 0"/></g><path data-name="Path 6265" d="M19.765 12.996a.4.4 0 0 0-.243-.416l-1.451-.613a4.77 4.77 0 0 1-1.438-.938l-.614-.585a.4.4 0 0 0-.555 0l-.614.585a4.787 4.787 0 0 1-1.437.938l-1.451.613a.4.4 0 0 0-.244.416l.136 1.229a7.717 7.717 0 0 0 3.6 5.667l.073.046a.389.389 0 0 0 .214.063.4.4 0 0 0 .215-.062l.073-.046a7.714 7.714 0 0 0 3.6-5.666zm-2.414 4.651a7.224 7.224 0 0 1-1.611 1.471 7.193 7.193 0 0 1-1.612-1.472v-.465a1.209 1.209 0 0 1 1.208-1.208h.806a1.209 1.209 0 0 1 1.208 1.208zm-2.416-3.286a.805.805 0 1 1 .806.806.806.806 0 0 1-.806-.806zm3.894-.225a6.7 6.7 0 0 1-.773 2.444 2.015 2.015 0 0 0-1.062-1.218 1.6 1.6 0 0 0 .358-1 1.611 1.611 0 0 0-3.222 0 1.592 1.592 0 0 0 .359 1 2.015 2.015 0 0 0-1.062 1.218 6.72 6.72 0 0 1-.774-2.444l-.1-.931 1.175-.5a5.55 5.55 0 0 0 1.679-1.1l.338-.32.337.321a5.59 5.59 0 0 0 1.68 1.1l1.175.5zm0 0" fill="#232323"/></g></svg>