<svg id="Group_2685" data-name="Group 2685" xmlns="http://www.w3.org/2000/svg" xmlns:xlink="http://www.w3.org/1999/xlink" width="47.867" height="48" viewBox="0 0 47.867 48">
  <defs>
    <clipPath id="clip-path">
      <rect id="Rectangle_1849" data-name="Rectangle 1849" width="47.867" height="48" fill="#007ce1"/>
    </clipPath>
  </defs>
  <g id="Group_2682" data-name="Group 2682">
    <g id="Group_2681" data-name="Group 2681" clip-path="url(#clip-path)">
      <path id="Path_4300" data-name="Path 4300" d="M47.149,19.151,42,18.636a.772.772,0,0,1-.664-.511,18.162,18.162,0,0,0-.991-2.389.771.771,0,0,1,.108-.834l3.27-4a.8.8,0,0,0-.053-1.07L38.036,4.189a.8.8,0,0,0-1.07-.053l-4,3.272a.779.779,0,0,1-.834.107,18.112,18.112,0,0,0-2.389-.992.774.774,0,0,1-.511-.664L28.715.718A.8.8,0,0,0,27.922,0H19.944a.8.8,0,0,0-.8.718l-.51,5.145a.776.776,0,0,1-.511.665,18.1,18.1,0,0,0-2.389.99.773.773,0,0,1-.834-.107l-4-3.27a.8.8,0,0,0-1.069.052L4.189,9.83a.8.8,0,0,0-.053,1.07l3.271,4a.773.773,0,0,1,.107.834,18.162,18.162,0,0,0-.991,2.389.772.772,0,0,1-.665.511l-5.141.515A.8.8,0,0,0,0,19.945v7.978a.8.8,0,0,0,.717.793l5.145.514a.777.777,0,0,1,.665.511,18.106,18.106,0,0,0,.991,2.389.779.779,0,0,1-.107.835l-3.271,4a.8.8,0,0,0,.052,1.069l5.641,5.642a.8.8,0,0,0,1.071.052l4-3.27a.775.775,0,0,1,.834-.108,18.249,18.249,0,0,0,2.389.992.772.772,0,0,1,.511.665l.514,5.144a.8.8,0,0,0,.8.718h7.97a.8.8,0,0,0,.793-.718l.515-5.144a.774.774,0,0,1,.511-.665,18.249,18.249,0,0,0,2.389-.992.777.777,0,0,1,.834.108l4,3.27a.8.8,0,0,0,1.07-.052l5.641-5.642a.8.8,0,0,0,.053-1.069l-3.271-4a.773.773,0,0,1-.107-.834,18.176,18.176,0,0,0,.991-2.39.778.778,0,0,1,.665-.511l5.145-.514a.8.8,0,0,0,.714-.793V19.945a.8.8,0,0,0-.718-.794M46.271,27.2l-4.425.442a2.37,2.37,0,0,0-2.021,1.6,16.519,16.519,0,0,1-.9,2.18,2.369,2.369,0,0,0,.3,2.557l2.817,3.436-4.622,4.622-3.445-2.816a2.369,2.369,0,0,0-2.557-.3,16.764,16.764,0,0,1-2.18.9,2.373,2.373,0,0,0-1.6,2.021L27.2,46.271H20.67l-.443-4.424a2.372,2.372,0,0,0-1.595-2.022,16.707,16.707,0,0,1-2.18-.9,2.373,2.373,0,0,0-2.558.3l-3.443,2.816L5.828,37.416l2.818-3.444a2.371,2.371,0,0,0,.3-2.558,16.662,16.662,0,0,1-.9-2.181,2.368,2.368,0,0,0-2.02-1.594L1.6,27.2V20.671l4.426-.444a2.369,2.369,0,0,0,2.02-1.595,16.636,16.636,0,0,1,.9-2.179,2.372,2.372,0,0,0-.3-2.559L5.828,10.451l4.623-4.622L13.9,8.645a2.371,2.371,0,0,0,2.558.3,16.518,16.518,0,0,1,2.18-.9,2.372,2.372,0,0,0,1.6-2.019L20.666,1.6H27.2l.442,4.424a2.368,2.368,0,0,0,1.6,2.021,16.492,16.492,0,0,1,2.178.9,2.372,2.372,0,0,0,2.559-.3l3.436-2.816,4.622,4.622L39.221,13.9a2.371,2.371,0,0,0-.3,2.558,16.575,16.575,0,0,1,.9,2.18,2.369,2.369,0,0,0,2.02,1.6l4.426.438Z" fill="#007ce1"/>
    </g>
  </g>
  <g id="Group_2684" data-name="Group 2684">
    <g id="Group_2683" data-name="Group 2683" clip-path="url(#clip-path)">
      <path id="Path_4301" data-name="Path 4301" d="M15,17.232l-1.277-.958a12.768,12.768,0,0,0,0,15.318L15,30.634a11.172,11.172,0,0,1,0-13.4" fill="#007ce1"/>
      <path id="Path_4302" data-name="Path 4302" d="M19.466,34.174l-.638,1.462a12.8,12.8,0,0,0,10.211,0L28.4,34.174a11.256,11.256,0,0,1-8.936,0" fill="#007ce1"/>
      <path id="Path_4303" data-name="Path 4303" d="M34.145,16.274l-1.277.958a11.172,11.172,0,0,1,0,13.4l1.277.958a12.768,12.768,0,0,0,0-15.318" fill="#007ce1"/>
      <rect id="Rectangle_1850" data-name="Rectangle 1850" width="1.596" height="1.596" transform="translate(23.136 6.382)" fill="#007ce1"/>
      <rect id="Rectangle_1851" data-name="Rectangle 1851" width="1.595" height="1.595" transform="translate(10.957 12.087) rotate(-45)" fill="#007ce1"/>
      <rect id="Rectangle_1852" data-name="Rectangle 1852" width="1.596" height="1.596" transform="translate(6.382 23.136)" fill="#007ce1"/>
      <rect id="Rectangle_1853" data-name="Rectangle 1853" width="1.595" height="1.595" transform="translate(10.953 35.777) rotate(-45)" fill="#007ce1"/>
      <rect id="Rectangle_1854" data-name="Rectangle 1854" width="1.596" height="1.595" transform="translate(23.136 39.89)" fill="#007ce1"/>
      <rect id="Rectangle_1855" data-name="Rectangle 1855" width="1.596" height="1.596" transform="matrix(0.707, -0.707, 0.707, 0.707, 34.643, 35.781)" fill="#007ce1"/>
      <rect id="Rectangle_1856" data-name="Rectangle 1856" width="1.595" height="1.596" transform="translate(39.89 23.136)" fill="#007ce1"/>
      <rect id="Rectangle_1857" data-name="Rectangle 1857" width="1.596" height="1.596" transform="translate(34.646 12.089) rotate(-44.975)" fill="#007ce1"/>
      <path id="Path_4304" data-name="Path 4304" d="M26.89,11.4a.794.794,0,0,0-.563-.234H18.349a2.394,2.394,0,0,0-2.394,2.393V31.113a2.394,2.394,0,0,0,2.394,2.394H29.518a2.394,2.394,0,0,0,2.393-2.394V16.753a.8.8,0,0,0-.234-.564Zm.234,2.489,2.063,2.063H27.922a.8.8,0,0,1-.8-.8Zm2.394,18.019H18.349a.8.8,0,0,1-.8-.8V13.562a.8.8,0,0,1,.8-.8h7.18v2.393a2.393,2.393,0,0,0,2.393,2.393h2.393V31.113a.8.8,0,0,1-.8.8" fill="#007ce1"/>
      <rect id="Rectangle_1858" data-name="Rectangle 1858" width="9.574" height="1.595" transform="translate(19.147 19.147)" fill="#007ce1"/>
      <rect id="Rectangle_1859" data-name="Rectangle 1859" width="9.574" height="1.596" transform="translate(19.147 22.338)" fill="#007ce1"/>
      <rect id="Rectangle_1860" data-name="Rectangle 1860" width="9.574" height="1.596" transform="translate(19.147 25.529)" fill="#007ce1"/>
      <rect id="Rectangle_1861" data-name="Rectangle 1861" width="9.574" height="1.595" transform="translate(19.147 28.721)" fill="#007ce1"/>
      <rect id="Rectangle_1862" data-name="Rectangle 1862" width="4.787" height="1.596" transform="translate(19.147 15.956)" fill="#007ce1"/>
    </g>
  </g>
</svg>
