<svg xmlns="http://www.w3.org/2000/svg" xmlns:xlink="http://www.w3.org/1999/xlink" width="36" height="36" viewBox="0 0 36 36">
  <defs>
    <clipPath id="clip-path">
      <rect id="Rectangle_1697" data-name="Rectangle 1697" width="36" height="36" transform="translate(0.013 0.013)" fill="#007ce1"/>
    </clipPath>
  </defs>
  <g id="Group_2570" data-name="Group 2570" transform="translate(-591.806 -591.806)">
    <g id="Group_2569" data-name="Group 2569" transform="translate(591.793 591.793)">
      <g id="Group_2568" data-name="Group 2568" clip-path="url(#clip-path)">
        <path id="Path_4130" data-name="Path 4130" d="M596.124,614.87v6h4.193V627.2h14.435v-4.276a33.741,33.741,0,0,1,2.583-12.359h2.215l1.762,1.76a3.048,3.048,0,0,0-.3,1.333,3.091,3.091,0,1,0,1.76-2.792l-2.363-2.365h-2.239a12.143,12.143,0,0,0,.539-2.061h2.481a3.093,3.093,0,1,0,0-2.063h-2.31a12.559,12.559,0,0,0-.169-2.061h1.7l2.363-2.365a3.1,3.1,0,1,0-1.456-1.458l-1.762,1.76h-1.375a12.41,12.41,0,0,0-23.688,7.352L592,611.88Zm27.978-2.246a1.032,1.032,0,1,1-1.03,1.032,1.032,1.032,0,0,1,1.03-1.032Zm0-8.25a1.032,1.032,0,1,1-1.03,1.032,1.032,1.032,0,0,1,1.03-1.032Zm0-8.249a1.032,1.032,0,1,1-1.03,1.032,1.033,1.033,0,0,1,1.03-1.032ZM616,608.367l-.055.132H609.6a5.108,5.108,0,0,0,.928-2.063h6.083a9.967,9.967,0,0,1-.6,1.931Zm-7.438-2.961a3.093,3.093,0,1,1-3.093-3.093,3.1,3.1,0,0,1,3.093,3.093Zm8.25-1.032h-6.292a5.112,5.112,0,0,0-.928-2.061h7.011a10.288,10.288,0,0,1,.209,2.061Zm-20.478-2.127a10.359,10.359,0,0,1,19.609-2H605.473a5.155,5.155,0,1,0,0,10.311h9.655a35.182,35.182,0,0,0-2.437,12.361v2.215H602.38v-6.325h-4.2v-5l-3.465-2.51,2-3.441a10.547,10.547,0,0,1-.383-5.618Zm0,0" transform="translate(-591.584 -591.586)" fill="#007ce1"/>
      </g>
    </g>
    <rect id="Rectangle_1698" data-name="Rectangle 1698" width="2.062" height="2.062" transform="translate(604.65 604.582)" fill="#007ce1"/>
  </g>
</svg>
