<svg xmlns="http://www.w3.org/2000/svg" width="36" height="36" viewBox="0 0 36 36">
  <g id="Group_2574" data-name="Group 2574" transform="translate(-591 -591)">
    <path id="Path_4133" data-name="Path 4133" d="M624.374,618h-30.75A2.628,2.628,0,0,1,591,615.376v-18.75A2.628,2.628,0,0,1,593.624,594a1.171,1.171,0,0,1,1.178,1.126,1.082,1.082,0,0,1-1.072,1.124h-.106a.379.379,0,0,0-.374.376v18.75a.377.377,0,0,0,.374.374h30.75a.379.379,0,0,0,.376-.374v-18.75a.381.381,0,0,0-.376-.376,1.171,1.171,0,0,1-1.176-1.124A1.082,1.082,0,0,1,624.27,594a2.653,2.653,0,0,1,2.73,2.626v18.75A2.628,2.628,0,0,1,624.374,618Zm0,0" transform="translate(0 3)" fill="#007ce1"/>
    <path id="Path_4134" data-name="Path 4134" d="M610.124,610.125h-12.75a1.125,1.125,0,0,1,0-2.25h12.75a1.125,1.125,0,1,1,0,2.25Zm0,0" transform="translate(5.25 16.875)" fill="#007ce1"/>
    <path id="Path_4135" data-name="Path 4135" d="M600.562,613.125A1.124,1.124,0,0,1,599.438,612v-6a1.124,1.124,0,1,1,2.248,0v6a1.124,1.124,0,0,1-1.124,1.124Zm0,0" transform="translate(8.438 13.875)" fill="#007ce1"/>
    <path id="Path_4136" data-name="Path 4136" d="M606,598.5a3.75,3.75,0,1,1,3.75-3.75A3.755,3.755,0,0,1,606,598.5Zm0-5.25a1.5,1.5,0,1,0,1.5,1.5,1.5,1.5,0,0,0-1.5-1.5Zm0,0" transform="translate(11.25)" fill="#007ce1"/>
    <path id="Path_4137" data-name="Path 4137" d="M598.874,603.75h-2.25A2.628,2.628,0,0,1,594,601.126v-2.25a2.628,2.628,0,0,1,2.624-2.626h2.25a2.629,2.629,0,0,1,2.626,2.626v2.25a2.628,2.628,0,0,1-2.626,2.624Zm-2.25-5.25a.375.375,0,0,0-.374.376v2.25a.375.375,0,0,0,.374.374h2.25a.375.375,0,0,0,.376-.374v-2.25a.376.376,0,0,0-.376-.376Zm0,0" transform="translate(3 5.25)" fill="#007ce1"/>
    <path id="Path_4138" data-name="Path 4138" d="M597.75,598.5a3.75,3.75,0,1,1,3.75-3.75,3.755,3.755,0,0,1-3.75,3.75Zm0-5.25a1.5,1.5,0,1,0,1.5,1.5,1.5,1.5,0,0,0-1.5-1.5Zm0,0" transform="translate(3)" fill="#007ce1"/>
    <path id="Path_4139" data-name="Path 4139" d="M607.124,603.75h-2.25a2.628,2.628,0,0,1-2.624-2.624v-2.25a2.628,2.628,0,0,1,2.624-2.626h2.25a2.629,2.629,0,0,1,2.626,2.626v2.25a2.628,2.628,0,0,1-2.626,2.624Zm-2.25-5.25a.375.375,0,0,0-.374.376v2.25a.375.375,0,0,0,.374.374h2.25a.375.375,0,0,0,.376-.374v-2.25a.376.376,0,0,0-.376-.376Zm0,0" transform="translate(11.25 5.25)" fill="#007ce1"/>
    <path id="Path_4140" data-name="Path 4140" d="M608.438,594.563h-10.5a1.125,1.125,0,1,1,0-2.25h10.5a1.125,1.125,0,0,1,0,2.25Zm0,0" transform="translate(5.812 1.313)" fill="#007ce1"/>
    <path id="Path_4141" data-name="Path 4141" d="M600.562,605.063a1.124,1.124,0,0,1-1.124-1.126v-10.5a1.124,1.124,0,0,1,2.248,0v10.5a1.124,1.124,0,0,1-1.124,1.126Zm0,0" transform="translate(8.438 1.313)" fill="#007ce1"/>
    <path id="Path_4142" data-name="Path 4142" d="M608.438,599.813h-10.5a1.125,1.125,0,1,1,0-2.25h10.5a1.125,1.125,0,0,1,0,2.25Zm0,0" transform="translate(5.812 6.563)" fill="#007ce1"/>
  </g>
</svg>
