<svg xmlns="http://www.w3.org/2000/svg" width="36" height="36" viewBox="0 0 36 36">
  <g id="Group_2594" data-name="Group 2594" transform="translate(-582 -582)">
    <path id="Path_4152" data-name="Path 4152" d="M590.118,610.135a.7.7,0,0,0,.994.995,3.023,3.023,0,0,1,4.276,0,.7.7,0,1,0,.994-.995,4.43,4.43,0,0,0-6.264,0Zm0,0" fill="#007ce1"/>
    <path id="Path_4153" data-name="Path 4153" d="M587.371,606.6a2.885,2.885,0,0,0,3.533-2.039.7.7,0,0,0-1.358-.364,1.478,1.478,0,0,1-1.811,1.045.7.7,0,0,0-.364,1.358Zm0,0" fill="#007ce1"/>
    <path id="Path_4154" data-name="Path 4154" d="M596.94,606.318a2.87,2.87,0,0,0,1.437.387,2.932,2.932,0,0,0,.752-.1.7.7,0,0,0-.364-1.359,1.478,1.478,0,0,1-1.811-1.045.7.7,0,0,0-1.358.364,2.865,2.865,0,0,0,1.344,1.752Zm0,0" fill="#007ce1"/>
    <path id="Path_4155" data-name="Path 4155" d="M606.75,582a11.251,11.251,0,0,0-10.96,13.789,11.275,11.275,0,0,0-7.779,1,.7.7,0,1,0,.656,1.244,9.839,9.839,0,1,1-4.131,4.131.7.7,0,0,0-1.244-.656,11.249,11.249,0,1,0,20.919,2.7A11.25,11.25,0,1,0,606.75,582Zm0,21.094a9.812,9.812,0,0,1-3.038-.481,11.318,11.318,0,0,0-6.325-6.325,9.844,9.844,0,1,1,9.363,6.806Zm0,0" fill="#007ce1"/>
    <path id="Path_4156" data-name="Path 4156" d="M608.888,595.544a3.025,3.025,0,0,1-4.276,0,.7.7,0,0,0-.994.994,4.428,4.428,0,0,0,6.264,0,.7.7,0,0,0-.994-.994Zm0,0" fill="#007ce1"/>
    <path id="Path_4157" data-name="Path 4157" d="M604.091,592.954a.7.7,0,0,0,.5-1.2,2.885,2.885,0,0,0-4.08,0,.7.7,0,0,0,1,.994,1.477,1.477,0,0,1,2.09,0,.7.7,0,0,0,.5.206Zm0,0" fill="#007ce1"/>
    <path id="Path_4158" data-name="Path 4158" d="M610.951,590.909a2.867,2.867,0,0,0-2.04.845.7.7,0,0,0,.995.994,1.477,1.477,0,0,1,2.09,0,.7.7,0,1,0,1-.994,2.865,2.865,0,0,0-2.04-.845Zm0,0" fill="#007ce1"/>
    <path id="Path_4159" data-name="Path 4159" d="M585.792,600a.7.7,0,1,0-.5-1.2h0a.7.7,0,0,0,.5,1.2Zm0,0" fill="#007ce1"/>
  </g>
</svg>
