<svg xmlns="http://www.w3.org/2000/svg" xmlns:xlink="http://www.w3.org/1999/xlink" width="36" height="36" viewBox="0 0 36 36">
  <defs>
    <clipPath id="clip-path">
      <rect id="Rectangle_1732" data-name="Rectangle 1732" width="36" height="36" transform="translate(582 582)" fill="#007ce1"/>
    </clipPath>
  </defs>
  <g id="Group_2587" data-name="Group 2587" transform="translate(-582 -582)">
    <g id="Group_2586" data-name="Group 2586">
      <g id="Group_2585" data-name="Group 2585" clip-path="url(#clip-path)">
        <path id="Path_4145" data-name="Path 4145" d="M598.8,588.59a1.8,1.8,0,1,0,1.8,1.8,1.8,1.8,0,0,0-1.8-1.8Zm0,2.4a.6.6,0,1,1,.6-.6.6.6,0,0,1-.6.6Zm0,0" fill="#007ce1"/>
        <path id="Path_4146" data-name="Path 4146" d="M582.6,613.789h11.486a1.7,1.7,0,0,0,.5,2.314l2.679,1.785a.6.6,0,0,0,.333.1h10.2a.6.6,0,0,0,.6-.6v-3.6h7.2a.6.6,0,0,0,.6-.6v-6h1.2a.6.6,0,0,0,.587-.73l-1.242-5.585a7.259,7.259,0,0,0-14.344,1.575V607.3a1.775,1.775,0,0,0-1.8.352,1.8,1.8,0,0,0-3,1.339v4.941l-1.187-.712a1.7,1.7,0,0,0-.613-.223v-2.206a.6.6,0,0,0-.6-.6H594a.6.6,0,0,1,0-1.2h1.2a.6.6,0,0,0,.6-.6v-1.2H597a.6.6,0,0,0,.586-.73l-1.241-5.585c-.022-.1-.051-.19-.076-.285H601.2v-1.2h-5.361a7.263,7.263,0,0,0-.7-1.2h.66a1.8,1.8,0,0,0,0-3.6h-.6v-1.2a.6.6,0,0,0-.6-.6h-1.053l1.08-4.855A6.06,6.06,0,0,1,606.6,589.25v4.739h1.2V589.25a7.26,7.26,0,0,0-14.345-1.575l-1.241,5.585a.6.6,0,0,0,.586.729H594v1.2a.6.6,0,0,0,.6.6h1.2a.6.6,0,1,1,0,1.2h-1.2a.589.589,0,0,0-.381.147A7.268,7.268,0,0,0,582,602.449v10.74a.6.6,0,0,0,.6.6Zm27.06-17.4a6.024,6.024,0,0,1,5.914,4.744l1.078,4.856H615.6a.6.6,0,0,0-.6.6v1.8h-2.4v1.2H615v3h-6.6v-3.6a1.8,1.8,0,0,0-3-1.34,1.775,1.775,0,0,0-1.8-.352v-4.848a6.066,6.066,0,0,1,6.06-6.06ZM597.891,615.5a.6.6,0,0,0,.909-.514v-6a.6.6,0,1,1,1.2,0v3.6a.6.6,0,1,0,1.2,0v-3.6a.6.6,0,1,1,1.2,0v3.6a.6.6,0,1,0,1.2,0v-3.6a.6.6,0,1,1,1.2,0v3.6a.6.6,0,1,0,1.2,0v-3.6a.6.6,0,1,1,1.2,0v7.8h-9.42l-2.528-1.685a.507.507,0,0,1,.54-.857ZM583.2,602.449a6.06,6.06,0,0,1,11.973-1.314l1.079,4.854H595.2a.6.6,0,0,0-.6.6v1.2H594a1.8,1.8,0,0,0,0,3.6h.6v1.2H583.2Zm0,0" fill="#007ce1"/>
      </g>
    </g>
    <path id="Path_4147" data-name="Path 4147" d="M592.8,603.589a1.8,1.8,0,1,0-1.8,1.8,1.8,1.8,0,0,0,1.8-1.8Zm-1.8.6a.6.6,0,1,1,.6-.6.6.6,0,0,1-.6.6Zm0,0" fill="#007ce1"/>
    <path id="Path_4148" data-name="Path 4148" d="M611.4,605.389a1.8,1.8,0,1,0-1.8-1.8,1.8,1.8,0,0,0,1.8,1.8Zm0-2.4a.6.6,0,1,1-.6.6.6.6,0,0,1,.6-.6Zm0,0" fill="#007ce1"/>
    <path id="Path_4149" data-name="Path 4149" d="M597.775,602.565l1.2-1.2.849.848-1.2,1.2Zm0,0" fill="#007ce1"/>
    <rect id="Rectangle_1733" data-name="Rectangle 1733" width="1.8" height="1.2" transform="translate(598.8 604.789)" fill="#007ce1"/>
    <rect id="Rectangle_1734" data-name="Rectangle 1734" width="1.8" height="1.2" transform="translate(588.6 592.789)" fill="#007ce1"/>
    <path id="Path_4150" data-name="Path 4150" d="M588.867,590.289l.666-1,1.8,1.2-.666,1Zm0,0" fill="#007ce1"/>
  </g>
</svg>
