<svg xmlns="http://www.w3.org/2000/svg" width="45" height="36" viewBox="0 0 45 36">
  <g id="Group_2581" data-name="Group 2581" transform="translate(-1489.18 -249.847)">
    <g id="Rectangle_28" data-name="Rectangle 28" transform="translate(1489.18 249.847)" fill="none" stroke="#007ce1" stroke-width="2">
      <rect width="25" height="36" stroke="none"/>
      <rect x="1" y="1" width="23" height="34" fill="none"/>
    </g>
    <rect id="Rectangle_29" data-name="Rectangle 29" width="3" height="1" transform="translate(1493.18 256.847)" fill="#007ce1"/>
    <rect id="Rectangle_30" data-name="Rectangle 30" width="11" height="1" transform="translate(1498.18 256.847)" fill="#007ce1"/>
    <rect id="Rectangle_31" data-name="Rectangle 31" width="3" height="2" transform="translate(1493.18 261.847)" fill="#007ce1"/>
    <rect id="Rectangle_32" data-name="Rectangle 32" width="11" height="2" transform="translate(1498.18 261.847)" fill="#007ce1"/>
    <rect id="Rectangle_33" data-name="Rectangle 33" width="3" height="2" transform="translate(1493.18 266.847)" fill="#007ce1"/>
    <rect id="Rectangle_34" data-name="Rectangle 34" width="11" height="2" transform="translate(1498.18 266.847)" fill="#007ce1"/>
    <rect id="Rectangle_35" data-name="Rectangle 35" width="3" height="2" transform="translate(1493.18 271.847)" fill="#007ce1"/>
    <rect id="Rectangle_36" data-name="Rectangle 36" width="11" height="2" transform="translate(1498.18 271.847)" fill="#007ce1"/>
    <rect id="Rectangle_37" data-name="Rectangle 37" width="3" height="1" transform="translate(1493.18 277.847)" fill="#007ce1"/>
    <rect id="Rectangle_38" data-name="Rectangle 38" width="11" height="1" transform="translate(1498.18 277.847)" fill="#007ce1"/>
    <line id="Line_7" data-name="Line 7" x2="13.385" y2="10.782" transform="translate(1506.475 262.641)" fill="none" stroke="#007ce1" stroke-width="2"/>
    <g id="Rectangle_39" data-name="Rectangle 39" transform="translate(1519.18 268.847)" fill="none" stroke="#007ce1" stroke-width="2">
      <rect width="15" height="9" stroke="none"/>
      <rect x="1" y="1" width="13" height="7" fill="none"/>
    </g>
    <rect id="Rectangle_40" data-name="Rectangle 40" width="3" height="2" transform="translate(1523.18 272.847)" fill="#007ce1"/>
    <rect id="Rectangle_41" data-name="Rectangle 41" width="3" height="2" transform="translate(1528.18 272.847)" fill="#007ce1"/>
  </g>
</svg>
