<svg xmlns="http://www.w3.org/2000/svg" width="1961.269" height="303.397" viewBox="0 0 1961.269 303.397">
  <g id="Group_3716" data-name="Group 3716" transform="translate(41.135 -2342.084)">
    <g id="Group_3427" data-name="Group 3427" transform="translate(1031.02 2342.084) rotate(90)">
      <line id="Line_188" data-name="Line 188" x1="157.951" y1="89.213" transform="translate(144.964 413.89)" fill="none" stroke="#c2c4cb" stroke-width="1"/>
      <line id="Line_189" data-name="Line 189" x1="78.976" y2="210.601" transform="translate(143.502 191.589)" fill="none" stroke="#c2c4cb" stroke-width="1"/>
      <line id="Line_190" data-name="Line 190" x1="33.638" y1="55.575" transform="translate(188.84 112.613)" fill="none" stroke="#c2c4cb" stroke-width="1"/>
      <line id="Line_191" data-name="Line 191" y1="105.301" x2="114.076" transform="translate(188.84 0)" fill="none" stroke="#c2c4cb" stroke-width="1"/>
      <g id="Group_3422" data-name="Group 3422" transform="translate(185.186 100.701) rotate(42)">
        <path id="Path_3832" data-name="Path 3832" d="M3.706,7.378A3.689,3.689,0,1,1,7.376,3.67,3.688,3.688,0,0,1,3.706,7.378Z" transform="translate(1.801 1.801)" fill="#fff"/>
        <path id="Path_3833" data-name="Path 3833" d="M5.508,9.179A3.689,3.689,0,1,0,1.8,5.51a3.689,3.689,0,0,0,3.706,3.67m.01,1.8a5.489,5.489,0,1,1,5.462-5.517,5.5,5.5,0,0,1-5.462,5.517Z" transform="translate(0 0)" fill="#1971b9"/>
      </g>
      <line id="Line_192" data-name="Line 192" y1="68.738" x2="157.951" transform="translate(144.964 339.302)" fill="none" stroke="#c2c4cb" stroke-width="1"/>
      <line id="Line_193" data-name="Line 193" x2="65.813" y2="39.488" transform="translate(237.103 187.201)" fill="none" stroke="#c2c4cb" stroke-width="1"/>
      <g id="Group_3425" data-name="Group 3425" transform="translate(225.898 161.687) rotate(42)">
        <path id="Path_3828" data-name="Path 3828" d="M10.18,0A10.232,10.232,0,1,1,0,10.285,10.23,10.23,0,0,1,10.18,0Z" transform="translate(2.835 2.836)" fill="#fff"/>
        <path id="Path_3829" data-name="Path 3829" d="M13.121,23.3A10.232,10.232,0,1,0,2.836,13.121,10.23,10.23,0,0,0,13.121,23.3m.015,2.836A13.068,13.068,0,1,1,26.136,13a13.084,13.084,0,0,1-13,13.133Z" transform="translate(0)" fill="#1971b9"/>
      </g>
      <line id="Line_197" data-name="Line 197" y1="348.092" x2="109.688" transform="translate(29.426 416.815)" fill="none" stroke="#c2c4cb" stroke-width="1"/>
      <line id="Line_198" data-name="Line 198" x1="201.826" y1="68.724" transform="translate(39.664 789.769)" fill="none" stroke="#c2c4cb" stroke-width="1"/>
      <line id="Line_199" data-name="Line 199" x1="58.5" y1="209.139" transform="translate(244.415 862.881)" fill="none" stroke="#c2c4cb" stroke-width="1"/>
      <line id="Line_200" data-name="Line 200" x1="58.5" y2="73.125" transform="translate(244.415 785.368)" fill="none" stroke="#c2c4cb" stroke-width="1"/>
      <g id="Group_3438" data-name="Group 3438" transform="translate(244.449 850.968) rotate(42)">
        <path id="Path_3832-2" data-name="Path 3832" d="M3.706,7.378A3.689,3.689,0,1,1,7.376,3.67,3.688,3.688,0,0,1,3.706,7.378Z" transform="translate(1.801 1.801)" fill="#fff"/>
        <path id="Path_3833-2" data-name="Path 3833" d="M5.508,9.179A3.689,3.689,0,1,0,1.8,5.51a3.689,3.689,0,0,0,3.706,3.67m.01,1.8a5.489,5.489,0,1,1,5.462-5.517,5.5,5.5,0,0,1-5.462,5.517Z" transform="translate(0 0)" fill="#1971b9"/>
      </g>
      <g id="Group_3439" data-name="Group 3439" transform="translate(23.725 755.822) rotate(42)">
        <path id="Path_3828-2" data-name="Path 3828" d="M13.81,0A13.882,13.882,0,1,1,0,13.953,13.878,13.878,0,0,1,13.81,0Z" transform="translate(3.847 3.847)" fill="#fff"/>
        <path id="Path_3829-2" data-name="Path 3829" d="M17.8,31.61A13.882,13.882,0,1,0,3.847,17.8,13.878,13.878,0,0,0,17.8,31.61m.021,3.847A17.728,17.728,0,1,1,35.457,17.64,17.749,17.749,0,0,1,17.821,35.457Z" transform="translate(0 0)" fill="#1971b9"/>
      </g>
      <g id="Group_3440" data-name="Group 3440" transform="translate(139.937 397.527) rotate(42)">
        <path id="Path_3832-3" data-name="Path 3832" d="M5.834,11.614a5.807,5.807,0,1,1,5.777-5.837A5.8,5.8,0,0,1,5.834,11.614Z" transform="translate(2.835 2.836)" fill="#fff"/>
        <path id="Path_3833-3" data-name="Path 3833" d="M8.67,14.449A5.807,5.807,0,1,0,2.836,8.673,5.807,5.807,0,0,0,8.67,14.449m.015,2.833a8.641,8.641,0,1,1,8.6-8.685,8.65,8.65,0,0,1-8.6,8.685Z" transform="translate(0 0)" fill="#1971b9"/>
      </g>
    </g>
    <g id="Group_3703" data-name="Group 3703" transform="translate(1920 2461.187) rotate(90)">
      <line id="Line_188-2" data-name="Line 188" x1="69.5" y2="29.274" transform="translate(114.313 345.226)" fill="none" stroke="#c2c4cb" stroke-width="1"/>
      <line id="Line_189-2" data-name="Line 189" x1="22.689" y1="153.757" transform="translate(112.313 380.5)" fill="none" stroke="#c2c4cb" stroke-width="1"/>
      <line id="Line_190-2" data-name="Line 190" x1="33.689" y2="93.044" transform="translate(101.313 548.456)" fill="none" stroke="#c2c4cb" stroke-width="1"/>
      <line id="Line_191-2" data-name="Line 191" x2="81" y2="243" transform="translate(102.313 646.5)" fill="none" stroke="#c2c4cb" stroke-width="1"/>
      <g id="Group_3422-2" data-name="Group 3422" transform="translate(95.915 643.458) rotate(-42)">
        <path id="Path_3832-4" data-name="Path 3832" d="M2.249,0A2.239,2.239,0,1,0,4.476,2.25,2.238,2.238,0,0,0,2.249,0Z" transform="translate(1.093 1.092)" fill="#fff"/>
        <path id="Path_3833-4" data-name="Path 3833" d="M3.342,1.092A2.239,2.239,0,1,1,1.093,3.319,2.239,2.239,0,0,1,3.342,1.092M3.348,0A3.331,3.331,0,1,0,6.662,3.348,3.335,3.335,0,0,0,3.348,0Z" transform="translate(0 0)" fill="#1971b9"/>
      </g>
      <line id="Line_192-2" data-name="Line 192" x2="69.5" y2="66.122" transform="translate(114.313 378.5)" fill="none" stroke="#c2c4cb" stroke-width="1"/>
      <line id="Line_193-2" data-name="Line 193" y1="23.962" x2="39.936" transform="translate(143.877 512.957)" fill="none" stroke="#c2c4cb" stroke-width="1"/>
      <g id="Group_3425-2" data-name="Group 3425" transform="translate(126.465 540.615) rotate(-42)">
        <path id="Path_3828-3" data-name="Path 3828" d="M6.177,12.418A6.209,6.209,0,1,0,0,6.177,6.208,6.208,0,0,0,6.177,12.418Z" transform="translate(1.721 1.721)" fill="#fff"/>
        <path id="Path_3829-3" data-name="Path 3829" d="M7.962,1.721A6.209,6.209,0,1,1,1.721,7.9,6.208,6.208,0,0,1,7.962,1.721M7.971,0A7.93,7.93,0,1,0,15.86,7.969,7.939,7.939,0,0,0,7.971,0Z" transform="translate(0 0)" fill="#1971b9"/>
      </g>
      <line id="Line_197-2" data-name="Line 197" x2="90.457" y2="186.14" transform="translate(17.856 186.36)" fill="none" stroke="#c2c4cb" stroke-width="1"/>
      <line id="Line_198-2" data-name="Line 198" x1="122.471" y2="41.702" transform="translate(24.068 129.57)" fill="none" stroke="#c2c4cb" stroke-width="1"/>
      <line id="Line_199-2" data-name="Line 199" x1="35.499" y2="126.908" transform="translate(148.314 0)" fill="none" stroke="#c2c4cb" stroke-width="1"/>
      <line id="Line_200-2" data-name="Line 200" x1="35.499" y1="44.373" transform="translate(148.314 129.57)" fill="none" stroke="#c2c4cb" stroke-width="1"/>
      <g id="Group_3438-2" data-name="Group 3438" transform="translate(143.877 129.186) rotate(-42)">
        <path id="Path_3832-5" data-name="Path 3832" d="M2.249,0A2.239,2.239,0,1,0,4.476,2.25,2.238,2.238,0,0,0,2.249,0Z" transform="translate(1.093 1.092)" fill="#fff"/>
        <path id="Path_3833-5" data-name="Path 3833" d="M3.342,1.092A2.239,2.239,0,1,1,1.093,3.319,2.239,2.239,0,0,1,3.342,1.092M3.348,0A3.331,3.331,0,1,0,6.662,3.348,3.335,3.335,0,0,0,3.348,0Z" transform="translate(0 0)" fill="#1971b9"/>
      </g>
      <g id="Group_3439-2" data-name="Group 3439" transform="translate(0 175.884) rotate(-42)">
        <path id="Path_3828-4" data-name="Path 3828" d="M8.38,16.847A8.424,8.424,0,1,0,0,8.38,8.422,8.422,0,0,0,8.38,16.847Z" transform="translate(2.334 2.334)" fill="#fff"/>
        <path id="Path_3829-4" data-name="Path 3829" d="M10.8,2.334a8.424,8.424,0,1,1-8.467,8.38A8.422,8.422,0,0,1,10.8,2.334M10.814,0a10.758,10.758,0,1,0,10.7,10.811A10.771,10.771,0,0,0,10.814,0Z" transform="translate(0 0)" fill="#1971b9"/>
      </g>
      <g id="Group_3440-2" data-name="Group 3440" transform="translate(102.514 376.498) rotate(-42)">
        <path id="Path_3832-6" data-name="Path 3832" d="M3.54,0A3.524,3.524,0,1,0,7.046,3.542,3.522,3.522,0,0,0,3.54,0Z" transform="translate(1.721 1.719)" fill="#fff"/>
        <path id="Path_3833-6" data-name="Path 3833" d="M5.261,1.719a3.524,3.524,0,1,1-3.54,3.505,3.524,3.524,0,0,1,3.54-3.505M5.27,0a5.243,5.243,0,1,0,5.217,5.27A5.249,5.249,0,0,0,5.27,0Z" transform="translate(0 0)" fill="#1971b9"/>
      </g>
    </g>
  </g>
</svg>
