<svg xmlns="http://www.w3.org/2000/svg" width="95.253" height="96" viewBox="0 0 95.253 96">
  <g id="Group_2997" data-name="Group 2997" transform="translate(-659.201 -359.75)">
    <path id="Path_1150" data-name="Path 1150" d="M696.561,406.481v3.092a1.582,1.582,0,1,0,3.164,0v-3.092a4.728,4.728,0,0,0,3.351-4.48,4.907,4.907,0,0,0-9.807,0,4.933,4.933,0,0,0,3.292,4.48Zm1.65-6.048A1.577,1.577,0,1,1,696.475,402a1.661,1.661,0,0,1,1.736-1.568Zm0,0" transform="translate(34.159 37.491)" fill="#202832"/>
    <path id="Path_1151" data-name="Path 1151" d="M660.783,439.554h19.093a9.845,9.845,0,0,0,19.352,0h11.119v9.586a6.777,6.777,0,0,0,6.909,6.61h30.228a6.832,6.832,0,0,0,6.969-6.61V428.892a6.772,6.772,0,0,0-5.934-6.53v-8.69a15.181,15.181,0,0,0-4.842-11.16,16.189,16.189,0,0,0-11.371-4.414c-8.938.006-16.224,6.99-16.224,15.572v8.69a6.771,6.771,0,0,0-5.736,6.53v7.5H699.3a9.989,9.989,0,0,0-8.139-8.268V418.68a51.09,51.09,0,0,0,8.033-.846c7.6-1.456,11.944-4.358,11.944-7.962V368.578c0-1.876-1.176-4.544-6.891-6.61a50.037,50.037,0,0,0-29.465,0c-5.718,2.066-6.957,4.734-6.957,6.61v41.3c0,1.876,1.229,4.546,6.945,6.612A43.705,43.705,0,0,0,688,418.68v9.426a10.022,10.022,0,0,0-8.193,8.288H660.783a1.58,1.58,0,1,0,0,3.16Zm71.587-38.32h.022c.064,0,.13.012.194.012a12.917,12.917,0,0,1,8.92,3.56,12.058,12.058,0,0,1,3.849,8.866v8.7h-1.979v-8.7a10.338,10.338,0,0,0-3.356-7.548,10.923,10.923,0,0,0-7.5-2.914h-.13a10.72,10.72,0,0,0-10.967,10.46v8.7h-2.175v-8.7c0-6.844,5.924-12.438,13.121-12.438Zm7.842,21.136H724.588v-8.7a7.559,7.559,0,0,1,7.8-7.3h.122a7.8,7.8,0,0,1,5.349,2.064,7.172,7.172,0,0,1,2.351,5.238Zm-26.7,6.522a3.545,3.545,0,0,1,3.745-3.362h30.228a3.6,3.6,0,0,1,3.805,3.362V449.14a3.671,3.671,0,0,1-3.805,3.45H717.256a3.615,3.615,0,0,1-3.745-3.45Zm-23.96-65.982c11.277,0,18.475,3.358,18.475,5.668s-7.2,5.67-18.475,5.67-18.473-3.358-18.473-5.67,7.2-5.668,18.473-5.668Zm-18.563,10.47a19.183,19.183,0,0,0,3.8,1.81,50.02,50.02,0,0,0,29.447,0,18.578,18.578,0,0,0,3.739-1.808v8.93c0,2.31-7.218,5.668-18.493,5.668s-18.493-3.358-18.493-5.668Zm0,13.736a19.215,19.215,0,0,0,3.8,1.808,50.027,50.027,0,0,0,29.449,0,18.615,18.615,0,0,0,3.737-1.808v8.93c0,2.31-7.216,5.666-18.493,5.666s-18.493-3.358-18.493-5.666v-8.93Zm0,22.758v-9.026a19.23,19.23,0,0,0,3.8,1.81,50.005,50.005,0,0,0,29.449,0,18.475,18.475,0,0,0,3.739-1.808v9.024c0,1.52-3.2,3.676-9.35,4.856a49.379,49.379,0,0,1-9.13.812c-11.275,0-18.5-3.356-18.5-5.666Zm18.563,21.272a6.671,6.671,0,1,1-6.679,6.672,6.676,6.676,0,0,1,6.679-6.672Zm0,0" transform="translate(0 0)" fill="#202832"/>
  </g>
</svg>
