<svg xmlns="http://www.w3.org/2000/svg" width="96.016" height="96" viewBox="0 0 96.016 96">
  <g id="Group_2996" data-name="Group 2996" transform="translate(-231.996 -232)">
    <path id="Path_1139" data-name="Path 1139" d="M272.216,276.243a1.874,1.874,0,1,0,1.875-1.875A1.874,1.874,0,0,0,272.216,276.243Z" transform="translate(40.231 42.376)" fill="#202832"/>
    <path id="Path_1140" data-name="Path 1140" d="M268.184,274.368a1.874,1.874,0,1,0,1.875,1.875A1.874,1.874,0,0,0,268.184,274.368Z" transform="translate(34.317 42.376)" fill="#202832"/>
    <path id="Path_1141" data-name="Path 1141" d="M262.56,274.368a1.874,1.874,0,1,0,1.873,1.875A1.874,1.874,0,0,0,262.56,274.368Z" transform="translate(28.693 42.376)" fill="#202832"/>
    <path id="Path_1142" data-name="Path 1142" d="M256.375,274.368a1.874,1.874,0,1,0,1.873,1.875A1.875,1.875,0,0,0,256.375,274.368Z" transform="translate(22.505 42.376)" fill="#202832"/>
    <path id="Path_1143" data-name="Path 1143" d="M250.749,274.368a1.874,1.874,0,1,0,1.875,1.875A1.874,1.874,0,0,0,250.749,274.368Z" transform="translate(16.881 42.376)" fill="#202832"/>
    <path id="Path_1144" data-name="Path 1144" d="M245.125,274.368A1.874,1.874,0,1,0,247,276.243,1.874,1.874,0,0,0,245.125,274.368Z" transform="translate(11.257 42.376)" fill="#202832"/>
    <path id="Path_1145" data-name="Path 1145" d="M239.5,274.368a1.874,1.874,0,1,0,1.875,1.875A1.874,1.874,0,0,0,239.5,274.368Z" transform="translate(5.624 42.376)" fill="#202832"/>
    <path id="Path_1146" data-name="Path 1146" d="M250.758,309.222h-9.372a9.389,9.389,0,1,0,0,18.778h77.236a9.389,9.389,0,1,0,0-18.778h-2.436V290.116a1.874,1.874,0,0,0-1.874-1.874h-15.56a1.874,1.874,0,0,0-1.876,1.874v19.106H280.754v-24.73a14.875,14.875,0,0,0-3.034-9.046,15.108,15.108,0,0,0-7.228-5.184l-12.3-11.706,38.306-4.66a12.992,12.992,0,0,0,2.258,1.994V262h-1.876a1.872,1.872,0,0,0-1.676,1.036l-3.75,7.5a1.874,1.874,0,0,0,.352,2.164l7.5,7.5a1.875,1.875,0,0,0,2.652-2.652L295.408,271l2.628-5.254h16.428L317.092,271l-6.544,6.544a1.875,1.875,0,0,0,2.652,2.652l7.5-7.5a1.877,1.877,0,0,0,.352-2.164l-3.75-7.5A1.872,1.872,0,0,0,315.624,262h-1.876V255.89A13.122,13.122,0,1,0,294.694,238.9l-45.684.972a1.832,1.832,0,0,0-.472.074,13.123,13.123,0,1,0-4.132,25.776l8.522,11a14.852,14.852,0,0,0-2.17,7.768Zm73.474,9.39a5.613,5.613,0,0,1-5.61,5.608H241.386a5.609,5.609,0,0,1,0-11.218h11.248a2.115,2.115,0,0,0,.228-.014H278.65a2.185,2.185,0,0,0,.23.014h19.872a2.181,2.181,0,0,0,.228-.014h15.1a2.185,2.185,0,0,0,.23.014h4.312A5.615,5.615,0,0,1,324.232,318.612ZM300.626,291.99h11.81v17.248h-11.81ZM277,284.492a11.248,11.248,0,0,1-22.5,0A11.257,11.257,0,0,1,268.97,273.71l0,0A11.31,11.31,0,0,1,277,284.492Zm17.224-34.1-36.152,4.4a13.257,13.257,0,0,0,.182-2.17,13.115,13.115,0,0,0-3.68-9.116l38.778-.826a13.245,13.245,0,0,0-.23,2.442A13.046,13.046,0,0,0,294.228,250.394Zm-38.958,10.56,9.05,8.612a15.1,15.1,0,0,0-8.982,4.146l-6.572-8.482A13.212,13.212,0,0,0,255.27,260.954ZM302.5,262v-4.3a13.15,13.15,0,0,0,7.5,0V262Zm3.75-26.246a9.377,9.377,0,1,1-7.474,15.028,9.378,9.378,0,0,1-1.166-9.3v0A9.363,9.363,0,0,1,306.25,235.75Zm-70.488,16.872a9.373,9.373,0,1,1,18.746,0,9.348,9.348,0,0,1-1.176,4.55,9.41,9.41,0,0,1-7.592,4.8,1.868,1.868,0,0,0-.984.014A9.383,9.383,0,0,1,235.762,252.622Zm29.994,46.868A14.962,14.962,0,0,0,277,294.4v14.842h-22.5V294.4A14.962,14.962,0,0,0,265.756,299.49Z" transform="translate(0 0)" fill="#202832"/>
    <path id="Path_1147" data-name="Path 1147" d="M271.931,246.991a5.621,5.621,0,1,0-5.62-5.62A5.628,5.628,0,0,0,271.931,246.991Zm0-7.495a1.874,1.874,0,1,1-1.873,1.875A1.876,1.876,0,0,1,271.931,239.5Z" transform="translate(34.322 3.743)" fill="#202832"/>
    <path id="Path_1148" data-name="Path 1148" d="M241.373,250.739a5.62,5.62,0,1,0-5.62-5.62A5.625,5.625,0,0,0,241.373,250.739Zm0-7.493a1.873,1.873,0,1,1-1.873,1.873A1.876,1.876,0,0,1,241.373,243.246Z" transform="translate(3.751 7.5)" fill="#202832"/>
    <path id="Path_1149" data-name="Path 1149" d="M245.127,261.991a7.493,7.493,0,1,0,7.492-7.495A7.5,7.5,0,0,0,245.127,261.991Zm11.24,0a3.747,3.747,0,1,1-3.747-3.747A3.751,3.751,0,0,1,256.367,261.991Z" transform="translate(13.135 22.502)" fill="#202832"/>
  </g>
</svg>
