<svg xmlns="http://www.w3.org/2000/svg" width="96.098" height="96" viewBox="0 0 96.098 96">
  <g id="Group_2994" data-name="Group 2994" transform="translate(-659 -360)">
    <path id="Path_1126" data-name="Path 1126" d="M755.1,378.58V363.1H736.5v6.194h-6.2v21.678h-3.1V360H687.807L671.4,376.392v28.086a12.335,12.335,0,0,0,1.474,17.766A17.055,17.055,0,0,0,659,438.968V456h35.648V436.136a2.817,2.817,0,0,1,.831-2l9.111-9.1H727.2V394.064h3.1v21.678h6.2v6.194h18.6V406.452H736.5v6.194h-3.1V394.064h3.1v6.194h18.6V384.774H736.5v6.194h-3.1v-18.58h3.1v6.192Zm-15.5-12.386H752v9.29H739.6Zm-52.7-.908v10.2H676.692Zm-15.5,47.36a9.3,9.3,0,1,1,9.3,9.29,9.305,9.305,0,0,1-9.3-9.29Zm13.882,11.5a4.629,4.629,0,0,1-9.167,0,12.3,12.3,0,0,0,9.167,0Zm8,7.8a5.892,5.892,0,0,0-1.738,4.192V452.9h-21.7V434.322h-3.1V452.9H662.1V438.968a13.961,13.961,0,0,1,11.1-13.64,7.715,7.715,0,0,0,15.2-1.286,23.391,23.391,0,0,0,10.917-6.122l8.382-8.372,5.37-5.364a2.833,2.833,0,1,1,4.008,4ZM705.5,406.452h-3.1V394.064h3.1Zm9.3-6.168V381.678h3.1V401.01a5.865,5.865,0,0,0-2.835-.752c-.088,0-.176.022-.264.026Zm9.3,21.652H707.691l11.568-11.558a5.879,5.879,0,0,0,1.74-4.192V378.58h-9.3v22.732a5.989,5.989,0,0,0-.831.682l-2.27,2.268V390.968h-9.3v18.58h4.008l-6.188,6.182a20.194,20.194,0,0,1-6.521,4.342,12.2,12.2,0,0,0,2.094-10.524H696.2v-27.87h-9.3v20.256a12.3,12.3,0,0,0-12.4,0V378.58H690V363.1h34.1ZM690,404.478v-19.7h3.1v21.678h-1.676A12.858,12.858,0,0,0,690,404.478Zm49.6,5.07H752v9.29H739.6Zm0-21.678H752v9.292H739.6Zm0,0" transform="translate(0 0)" fill="#202832"/>
    <rect id="Rectangle_359" data-name="Rectangle 359" width="6.2" height="3.1" transform="translate(742.698 369.3)" fill="#202832"/>
    <rect id="Rectangle_360" data-name="Rectangle 360" width="6.2" height="3.1" transform="translate(742.698 390.967)" fill="#202832"/>
    <rect id="Rectangle_361" data-name="Rectangle 361" width="6.2" height="3.1" transform="translate(742.698 412.643)" fill="#202832"/>
    <rect id="Rectangle_362" data-name="Rectangle 362" width="3.1" height="3.1" transform="translate(717.899 366.2)" fill="#202832"/>
    <rect id="Rectangle_363" data-name="Rectangle 363" width="3.1" height="3.1" transform="translate(711.699 366.2)" fill="#202832"/>
    <rect id="Rectangle_364" data-name="Rectangle 364" width="15.5" height="3.1" transform="translate(693.099 366.2)" fill="#202832"/>
    <rect id="Rectangle_365" data-name="Rectangle 365" width="27.899" height="3.1" transform="translate(693.099 372.4)" fill="#202832"/>
    <rect id="Rectangle_366" data-name="Rectangle 366" width="3.1" height="3.1" transform="translate(677.6 381.677)" fill="#202832"/>
    <rect id="Rectangle_367" data-name="Rectangle 367" width="3.1" height="3.1" transform="translate(677.6 387.87)" fill="#202832"/>
    <rect id="Rectangle_368" data-name="Rectangle 368" width="3.1" height="3.1" transform="translate(677.6 394.063)" fill="#202832"/>
  </g>
</svg>
