<svg xmlns="http://www.w3.org/2000/svg" width="295.476" height="50" viewBox="0 0 295.476 50">
  <g id="Group_3818" data-name="Group 3818" transform="translate(-248.535 -285)">
    <g id="Group_3816" data-name="Group 3816" transform="translate(248.535 285)">
      <path id="Path_1" data-name="Path 1" d="M1019.961,646.863l1.748-3.049h0l3.137-5.477-.268.216.59-.735c.064-.095.126-.181.19-.266l.014-.018c.053-.071.108-.138.167-.2s.133-.155.2-.234l.019-.02v-.058l.092-.038a.418.418,0,0,1,.047-.047.565.565,0,0,1,.045-.046,1.976,1.976,0,0,1,.147-.142c.04-.037.086-.079.134-.121l.052-.046c.054-.047.113-.095.168-.138.029-.025.07-.056.113-.088.025-.02.057-.043.086-.063.046-.035.1-.076.159-.117a6.66,6.66,0,0,1,.765-.447c.068-.033.125-.06.183-.085s.142-.063.216-.093l.018-.008-4.476.012a5.741,5.741,0,0,0-4.909,2.807l-5.1,8.623-5.8,10.155c-.036.063-.074.125-.115.185l-.036.05c-.03.042-.059.084-.091.125l-.047.059c-.029.036-.059.071-.089.105s-.037.041-.057.06l-.089.095-.063.059c-.03.028-.062.057-.094.083l-.068.058c-.032.025-.063.05-.1.074s-.05.037-.075.054-.065.045-.1.066l-.079.05c-.034.02-.067.04-.1.058l-.044.026,3.592.026a5.671,5.671,0,0,0,4.954-2.848l4.955-8.654Z" transform="translate(-997.773 -608.367)" fill="#fff"/>
      <path id="Path_2" data-name="Path 2" d="M1022.864,635.542c-.074.03-.147.062-.216.093C1022.716,635.6,1022.79,635.572,1022.864,635.542Z" transform="translate(-992.668 -608.371)" fill="#fff"/>
      <path id="Path_3" data-name="Path 3" d="M1018.472,641.829l-1.748,3.049h0l1.746-3.05Z" transform="translate(-994.537 -606.385)" fill="#fff"/>
      <path id="Path_4" data-name="Path 4" d="M1028.661,635.53l-2.42.037a5.679,5.679,0,0,0-2.234.454c-.074.03-.146.064-.219.1a5.682,5.682,0,0,0-1.6,1.135v.012l-.055.042-.008.006-.005.005-.017.017c-.016.017-.032.035-.049.052-.061.066-.126.141-.19.217-.054.061-.1.116-.142.172l-.029.037c-.062.084-.122.167-.18.255-.009.015-.026.038-.043.061-.061.093-.128.2-.19.308l-2.144,3.744a5.961,5.961,0,0,1,3.705-1.3h13.275a1.739,1.739,0,0,0,1.505-2.606,5.534,5.534,0,0,0-4.779-2.757h-.012l-4.165.012Z" transform="translate(-993.777 -608.378)" fill="#fff"/>
      <path id="Path_5" data-name="Path 5" d="M1024.536,635.563l2.421-.037h0Z" transform="translate(-992.073 -608.376)" fill="#fff"/>
      <path id="Path_6" data-name="Path 6" d="M1026.376,635.527Z" transform="translate(-991.492 -608.376)" fill="#fff"/>
      <path id="Path_7" data-name="Path 7" d="M1026.375,635.527h0Z" transform="translate(-991.493 -608.376)" fill="#fff"/>
      <path id="Path_8" data-name="Path 8" d="M1019.131,641.483h0l2.144-3.744Z" transform="translate(-993.777 -607.677)" fill="#fff"/>
      <path id="Path_9" data-name="Path 9" d="M1021.4,636.886l.008-.007,0,0Z" transform="translate(-993.06 -607.949)" fill="#fff"/>
      <path id="Path_10" data-name="Path 10" d="M1021.41,636.889l.055-.042-.055.042Z" transform="translate(-993.059 -607.959)" fill="#fff"/>
      <path id="Path_11" data-name="Path 11" d="M1021.406,636.9l.005,0h0l.055-.042v-.012l-.037.034A.247.247,0,0,1,1021.406,636.9Z" transform="translate(-993.06 -607.962)" fill="#fff"/>
      <path id="Path_12" data-name="Path 12" d="M1007.738,651.095l7.058-12.144h0l2.935-5.126,2.579-4.505.009-.013c.076-.132.158-.259.242-.383.028-.041.057-.079.086-.118.065-.091.132-.179.2-.266l.095-.116c.083-.1.168-.191.256-.283.02-.02.037-.04.057-.059.109-.109.222-.214.338-.314.03-.026.06-.05.091-.074.089-.075.181-.147.275-.216.038-.029.078-.056.117-.084.1-.067.195-.131.294-.193.033-.02.064-.041.1-.059.132-.078.266-.151.4-.22l.077-.034q.169-.08.343-.151c.02-.007.038-.017.058-.025h-4.461a5.577,5.577,0,0,0-4.81,2.772l-13.471,23.226a5.587,5.587,0,0,0,4.789,8.388h.147c-.019-.01-.033-.023-.05-.034a2.947,2.947,0,0,1-.247-.17c-.034-.025-.066-.052-.1-.079-.064-.053-.128-.109-.188-.167-.032-.031-.063-.062-.093-.095-.059-.063-.116-.129-.17-.2-.025-.03-.051-.06-.075-.092a3.372,3.372,0,0,1-.208-.314h0a3.171,3.171,0,0,1,.01-3.14l3.279-5.656.005-.011Z" transform="translate(-999.857 -611.15)" fill="#fff"/>
      <path id="Path_13" data-name="Path 13" d="M1005.83,645.285l-.006.011,0,0Z" transform="translate(-997.975 -605.295)" fill="#fff"/>
      <path id="Path_14" data-name="Path 14" d="M1013.986,633.424a5.933,5.933,0,0,1,3.75-1.34h13.343a1.722,1.722,0,0,0,1.489-2.582,5.6,5.6,0,0,0-4.832-2.79H1025.9l-4.829.015h-.022a5.583,5.583,0,0,0-4.835,2.8h0Z" transform="translate(-995.4 -611.159)" fill="#fff"/>
      <path id="Path_15" data-name="Path 15" d="M1024.2,626.711l-4.829.014,4.829-.014Z" transform="translate(-993.7 -611.16)" fill="#fff"/>
      <path id="Path_16" data-name="Path 16" d="M1005.9,654.856a2.7,2.7,0,0,0,2.431-1.364l2.6-4.544a3.044,3.044,0,0,1-4.691-2.527l-2.539,4.382a2.746,2.746,0,0,0-.167,2.4,2.608,2.608,0,0,0,.115.237c.014.029.026.06.042.088s.039.062.059.092c.031.051.063.1.1.151s.064.079.1.12.054.071.084.1.072.074.109.109.059.064.092.094.079.064.119.1.067.057.1.083.083.055.125.083.074.051.113.074.088.046.133.068.079.043.121.063.093.037.141.055.083.034.127.049.1.028.149.041.083.025.125.034Z" transform="translate(-998.762 -604.934)" fill="#fff"/>
      <path id="Path_17" data-name="Path 17" d="M1004.962,652.824l.42.012-.421-.012Z" transform="translate(-998.247 -602.914)" fill="#fff"/>
      <path id="Path_18" data-name="Path 18" d="M1003.742,652.044c-.034-.049-.066-.1-.1-.151C1003.676,651.944,1003.707,652,1003.742,652.044Z" transform="translate(-998.662 -603.208)" fill="#fff"/>
      <path id="Path_19" data-name="Path 19" d="M1004.384,652.606c-.039-.022-.075-.049-.113-.074C1004.309,652.557,1004.345,652.583,1004.384,652.606Z" transform="translate(-998.465 -603.006)" fill="#fff"/>
      <path id="Path_20" data-name="Path 20" d="M1004.2,652.489c-.036-.026-.068-.055-.1-.083C1004.132,652.434,1004.165,652.463,1004.2,652.489Z" transform="translate(-998.519 -603.046)" fill="#fff"/>
      <path id="Path_21" data-name="Path 21" d="M1003.875,652.2c-.03-.033-.056-.07-.084-.1C1003.819,652.133,1003.845,652.17,1003.875,652.2Z" transform="translate(-998.616 -603.143)" fill="#fff"/>
      <path id="Path_22" data-name="Path 22" d="M1004.579,652.7c-.042-.02-.081-.042-.121-.063C1004.5,652.661,1004.537,652.683,1004.579,652.7Z" transform="translate(-998.405 -602.972)" fill="#fff"/>
      <path id="Path_23" data-name="Path 23" d="M1003.609,651.844h0c-.016-.028-.028-.059-.042-.088C1003.582,651.785,1003.593,651.817,1003.609,651.844Z" transform="translate(-998.686 -603.251)" fill="#fff"/>
      <path id="Path_24" data-name="Path 24" d="M1004.866,652.8c.04.012.08.025.121.034h0C1004.949,652.823,1004.907,652.81,1004.866,652.8Z" transform="translate(-998.277 -602.922)" fill="#fff"/>
      <path id="Path_25" data-name="Path 25" d="M1003.695,649.752a2.747,2.747,0,0,0-.167,2.4A2.747,2.747,0,0,1,1003.695,649.752Z" transform="translate(-998.762 -603.883)" fill="#fff"/>
      <path id="Path_26" data-name="Path 26" d="M1004.03,652.354c-.033-.029-.062-.062-.092-.093C1003.968,652.293,1004,652.326,1004.03,652.354Z" transform="translate(-998.569 -603.092)" fill="#fff"/>
      <path id="Path_27" data-name="Path 27" d="M1004.784,652.779c-.043-.015-.084-.033-.126-.049C1004.7,652.746,1004.74,652.764,1004.784,652.779Z" transform="translate(-998.343 -602.943)" fill="#fff"/>
      <path id="Path_28" data-name="Path 28" d="M1004.962,652.824h0Z" transform="translate(-998.247 -602.914)" fill="#fff"/>
      <path id="Path_29" data-name="Path 29" d="M1040.186,655.418h.026a2.659,2.659,0,0,0,2.3-3.99l-3.333-5.775a2.694,2.694,0,0,0-2.325-1.342h-3.344a.756.756,0,0,0-.655,1.134l.014.025,3.273,5.729a3.072,3.072,0,0,1-.025,3.085,3.009,3.009,0,0,1-.213.312c-.026.034-.056.065-.084.1-.054.063-.106.126-.166.186-.036.035-.074.067-.111.1-.055.051-.11.1-.17.147-.041.033-.084.062-.128.092-.059.041-.117.083-.179.12-.015.009-.027.02-.043.028Z" transform="translate(-989.479 -605.599)" fill="#fff"/>
      <path id="Path_30" data-name="Path 30" d="M1036.681,654.776c.053-.008.105-.013.158-.025s.1-.028.155-.042.1-.025.145-.041.1-.041.151-.062.092-.034.135-.055.095-.053.143-.079.087-.045.127-.071.089-.063.134-.1.08-.054.117-.084.087-.078.13-.117.067-.059.1-.091c.047-.049.089-.1.133-.153.024-.028.05-.054.072-.083a2.7,2.7,0,0,0,.176-.26,2.647,2.647,0,0,0,.021-2.662l-2.51-4.395a3.1,3.1,0,0,1-3.1,3.087h-.3a2.589,2.589,0,0,1-2.229-1.282l-.016-.029-.641-1.118h0c-.017-.029-.038-.057-.056-.084-.032-.05-.062-.1-.1-.147s-.053-.059-.079-.089-.066-.08-.1-.116-.067-.059-.1-.089-.067-.062-.1-.089-.083-.055-.124-.083-.066-.047-.1-.068-.094-.047-.141-.07-.067-.036-.1-.051c-.051-.021-.1-.037-.156-.054-.034-.01-.066-.025-.1-.034-.061-.017-.122-.026-.184-.038-.029-.005-.055-.013-.084-.017a2.16,2.16,0,0,0-.278-.018h0a2.1,2.1,0,0,0-1.81,1.041L1023.9,651a2.008,2.008,0,0,1,.739-.154h.033a2.031,2.031,0,0,1,1.718.959,6.194,6.194,0,0,0,5.225,2.941l4.35.045h0l.448.005h.118C1036.579,654.793,1036.629,654.783,1036.681,654.776Z" transform="translate(-992.274 -605.046)" fill="#fff"/>
      <path id="Path_31" data-name="Path 31" d="M1033.068,652.7l.448,0-.448,0Z" transform="translate(-989.381 -602.953)" fill="#fff"/>
      <path id="Path_32" data-name="Path 32" d="M1033.891,652.636c-.052.015-.1.032-.155.042C1033.788,652.667,1033.838,652.651,1033.891,652.636Z" transform="translate(-989.171 -602.973)" fill="#fff"/>
      <path id="Path_33" data-name="Path 33" d="M1033.5,652.709c.05,0,.1-.016.149-.022-.051.008-.1.017-.152.022Z" transform="translate(-989.246 -602.957)" fill="#fff"/>
      <path id="Path_34" data-name="Path 34" d="M1034.324,652.456c-.049.026-.095.055-.143.079C1034.23,652.511,1034.276,652.482,1034.324,652.456Z" transform="translate(-989.03 -603.03)" fill="#fff"/>
      <path id="Path_35" data-name="Path 35" d="M1034.885,651.991c-.044.051-.086.1-.133.152C1034.8,652.1,1034.841,652.042,1034.885,651.991Z" transform="translate(-988.85 -603.177)" fill="#fff"/>
      <path id="Path_36" data-name="Path 36" d="M1034.708,652.176c-.043.039-.084.08-.13.117C1034.624,652.256,1034.665,652.215,1034.708,652.176Z" transform="translate(-988.905 -603.118)" fill="#fff"/>
      <path id="Path_37" data-name="Path 37" d="M1034.114,652.558c-.05.021-.1.043-.151.062C1034.015,652.6,1034.065,652.579,1034.114,652.558Z" transform="translate(-989.099 -602.998)" fill="#fff"/>
      <path id="Path_38" data-name="Path 38" d="M1035.084,651.73a2.693,2.693,0,0,1-.177.26A2.693,2.693,0,0,0,1035.084,651.73Z" transform="translate(-988.801 -603.259)" fill="#fff"/>
      <path id="Path_39" data-name="Path 39" d="M1034.521,652.329c-.045.033-.088.067-.134.1C1034.433,652.4,1034.477,652.362,1034.521,652.329Z" transform="translate(-988.966 -603.07)" fill="#fff"/>
      <path id="Path_40" data-name="Path 40" d="M1026.54,644.312a5.736,5.736,0,0,0-4.951,2.857l-3.34,5.789a1.675,1.675,0,0,0,1.45,2.512h.1a5.562,5.562,0,0,0,4.8-2.771l.171-.295h0l2.88-4.955a2.518,2.518,0,0,1,2.172-1.25h.005a2.346,2.346,0,0,1,.306.021c.031,0,.063.011.093.016.07.01.14.025.207.042.034.008.068.018.1.028.066.02.13.043.194.067l.091.035.039.016A5.49,5.49,0,0,0,1026.54,644.312Z" transform="translate(-994.126 -605.599)" fill="#fff"/>
      <path id="Path_41" data-name="Path 41" d="M1027.56,645.835c-.034-.009-.069-.02-.1-.028C1027.491,645.815,1027.526,645.826,1027.56,645.835Z" transform="translate(-991.151 -605.127)" fill="#fff"/>
      <path id="Path_42" data-name="Path 42" d="M1027.323,645.779c-.031-.005-.062-.012-.094-.016C1027.26,645.767,1027.292,645.774,1027.323,645.779Z" transform="translate(-991.223 -605.141)" fill="#fff"/>
      <path id="Path_43" data-name="Path 43" d="M1027.774,645.915l-.091-.036Z" transform="translate(-991.08 -605.104)" fill="#fff"/>
      <path id="Path_44" data-name="Path 44" d="M1023.154,651.652l.01-.017,2.868-4.939-2.878,4.955Z" transform="translate(-992.509 -604.846)" fill="#fff"/>
      <path id="Path_45" data-name="Path 45" d="M1017.05,624.234h7.081a1.606,1.606,0,0,0,1.39-2.41l-3.538-6.13a1.607,1.607,0,0,0-2.782,0l-3.542,6.13a1.606,1.606,0,0,0,1.392,2.41Z" transform="translate(-994.94 -614.892)" fill="#fff"/>
    </g>
    <g id="Group_3817" data-name="Group 3817" transform="translate(318.581 295.394)">
      <path id="Path_46" data-name="Path 46" d="M1057.149,633.794v9.893h7.4v4.334h-7.4v14.8h-4.99V629.372h13.662v4.422Z" transform="translate(-1052.159 -629.329)" fill="#fff"/>
      <path id="Path_47" data-name="Path 47" d="M1076.331,662.818h-10.859a2.726,2.726,0,0,1-2.978-3.065V632.437a2.725,2.725,0,0,1,2.978-3.064h10.859a2.757,2.757,0,0,1,3.022,3.064v27.317A2.757,2.757,0,0,1,1076.331,662.818Zm-1.968-29.156h-6.876v24.867h6.876Z" transform="translate(-1044.25 -629.329)" fill="#fff"/>
      <path id="Path_48" data-name="Path 48" d="M1088.539,662.818H1077.9a2.738,2.738,0,0,1-3.021-3.065V629.372h4.993v29.156h6.744V629.372h4.991v30.382A2.77,2.77,0,0,1,1088.539,662.818Z" transform="translate(-1034.774 -629.329)" fill="#fff"/>
      <path id="Path_49" data-name="Path 49" d="M1099.464,662.818l-8.013-21.057a16.549,16.549,0,0,1,.306,2.408v18.649h-4.86V629.372h4.378l8.015,20.619a16.471,16.471,0,0,1-.307-2.408V629.372h4.862v33.446Z" transform="translate(-1025.573 -629.329)" fill="#fff"/>
      <path id="Path_50" data-name="Path 50" d="M1109.532,662.818h-10.2V629.372h10.2c4.073,0,6.479,2.494,6.479,6.348v20.794C1116.01,660.368,1113.56,662.818,1109.532,662.818Zm1.444-26.355a2.637,2.637,0,0,0-2.934-2.8h-3.723v24.867h3.592c2.014,0,3.065-1.094,3.065-2.846Z" transform="translate(-1016.059 -629.329)" fill="#fff"/>
      <path id="Path_51" data-name="Path 51" d="M1130.521,633.794v29.024h-4.994V633.794h-5.473v-4.422h15.984v4.422Z" transform="translate(-1000.197 -629.329)" fill="#fff"/>
      <path id="Path_52" data-name="Path 52" d="M1130.28,662.818V629.372h4.991v33.446Z" transform="translate(-992.37 -629.329)" fill="#fff"/>
      <path id="Path_53" data-name="Path 53" d="M1149.1,662.818h-10.86a2.726,2.726,0,0,1-2.978-3.065V632.437a2.726,2.726,0,0,1,2.978-3.064h10.86a2.758,2.758,0,0,1,3.022,3.064v27.317A2.758,2.758,0,0,1,1149.1,662.818Zm-1.97-29.156h-6.876v24.867h6.876Z" transform="translate(-988.555 -629.329)" fill="#fff"/>
      <path id="Path_54" data-name="Path 54" d="M1159.637,662.818l-8.013-21.057a16.562,16.562,0,0,1,.305,2.408v18.649h-4.86V629.372h4.38l8.014,20.619a16.409,16.409,0,0,1-.308-2.408V629.372h4.86v33.446Z" transform="translate(-979.52 -629.329)" fill="#fff"/>
      <path id="Path_55" data-name="Path 55" d="M1177.029,662.818V629.372h4.992v33.446Z" transform="translate(-956.591 -629.329)" fill="#fff"/>
      <g id="Group_2" data-name="Group 2" transform="translate(101.764 0)">
        <path id="Path_56" data-name="Path 56" d="M1112.609,651.07l1.015-6.348h-.008Z" transform="translate(-1107.659 -617.58)" fill="#fff"/>
        <path id="Path_57" data-name="Path 57" d="M1117.393,648.84l-2.453-15.1,2.442,15.1Z" transform="translate(-1105.875 -625.988)" fill="#fff"/>
        <path id="Path_58" data-name="Path 58" d="M1113.552,648.84h.036l2.415-15.1Z" transform="translate(-1106.938 -625.988)" fill="#fff"/>
        <path id="Path_59" data-name="Path 59" d="M1116.716,644.723l1.026,6.348-1.007-6.348Z" transform="translate(-1104.516 -617.58)" fill="#fff"/>
        <path id="Path_60" data-name="Path 60" d="M1121.541,629.348h-5.254l-6.482,33.4v.088h4.95l1.007-6.347h.008l.686-4.291h-.036l2.451-15.1,2.453,15.1h-.012l.694,4.291h.019l1.007,6.347h4.948v-.088Z" transform="translate(-1109.805 -629.348)" fill="#fff"/>
      </g>
      <g id="Group_3" data-name="Group 3" transform="translate(198.149 0)">
        <path id="Path_61" data-name="Path 61" d="M1167.205,651.07l1.016-6.348h-.009Z" transform="translate(-1162.257 -617.58)" fill="#fff"/>
        <path id="Path_62" data-name="Path 62" d="M1168.148,648.84h.038l2.415-15.1Z" transform="translate(-1161.536 -625.988)" fill="#fff"/>
        <path id="Path_63" data-name="Path 63" d="M1171.989,648.84l-2.451-15.1,2.44,15.1Z" transform="translate(-1160.473 -625.988)" fill="#fff"/>
        <path id="Path_64" data-name="Path 64" d="M1171.313,644.723l1.026,6.348-1.007-6.348Z" transform="translate(-1159.114 -617.58)" fill="#fff"/>
        <path id="Path_65" data-name="Path 65" d="M1176.139,629.348h-5.256l-6.48,33.4v.088h4.948l1.007-6.347h.009l.686-4.291h-.038l2.453-15.1,2.451,15.1h-.011l.693,4.291h.019l1.007,6.347h4.948v-.088Z" transform="translate(-1164.403 -629.348)" fill="#fff"/>
      </g>
    </g>
  </g>
</svg>
